<svg xmlns="http://www.w3.org/2000/svg" width="597" height="464" viewBox="0 0 597 464">
  <g fill="none" fill-rule="evenodd">
    <path fill="#848484" d="M27.22 423.59L27.22 449.32C27.2153489 450.548976 27.2754321 451.777344 27.4 453 27.5315343 454.136578 28.1065688 455.175234 29 455.89 29.8178096 456.48309 30.8104024 456.785796 31.82 456.75 33.3492816 456.829812 34.8104893 456.110565 35.68 454.85 36.3466667 453.95 36.68 452.106667 36.68 449.32L36.68 423.59 46.44 423.59 46.44 449.32C46.4786773 451.059399 46.3413115 452.79825 46.03 454.51 45.7627178 455.728321 45.2746745 456.887423 44.59 457.93 42.0766667 461.75 37.77 463.66 31.67 463.66 26.7033333 463.66 22.95 462.24 20.41 459.4 18.9718796 457.814245 18.0570767 455.824025 17.79 453.7 17.5813254 451.874291 17.4844781 450.03753 17.5 448.2L17.5 423.58 27.22 423.59zM61.57 435.16L61.57 438.3C64.6766667 435.553333 67.8133333 434.18 70.98 434.18 72.1366499 434.182705 73.2706647 434.500782 74.26 435.1 75.2355926 435.655106 76.0359095 436.472746 76.57 437.46 77.33 439.04 77.72 441.57 77.72 445.06L77.72 462.88 68.88 462.88 68.88 445.06C68.88 442.566667 67.9 441.32 65.94 441.32 64.2613451 441.456966 62.6982851 442.229554 61.57 443.48L61.57 462.88 52.73 462.88 52.73 435.16 61.57 435.16zM92.46 423.59L92.46 431.48 83.62 431.48 83.62 423.59 92.46 423.59zM92.46 435.16L92.46 462.89 83.62 462.89 83.62 435.16 92.46 435.16zM121.88 435.17L113.68 462.89 103.77 462.89 94.85 435.16 104.55 435.16 107.34 446.22C108.11255 449.425438 108.690274 452.674718 109.07 455.95 109.352161 452.504985 109.853173 449.081406 110.57 445.7L112.72 435.16 121.88 435.17zM132.119953 446.05L140.27 446.05C140.287732 444.946834 140.094255 443.850462 139.7 442.82 139.146475 441.391061 137.740647 440.476668 136.21 440.55 134.547289 440.512805 133.068534 441.601333 132.61 443.2 132.282549 444.114375 132.116742 445.078766 132.119953 446.05L132.119953 446.05zM140.27 454.11L148.48 454.77C147.113333 460.696667 142.976667 463.663333 136.07 463.67 131.483333 463.67 128.056667 462.256667 125.79 459.43 123.79 456.936667 122.79 453.603333 122.79 449.43 122.79 444.95 123.79 441.406667 125.79 438.8 127.020323 437.188624 128.675667 435.95231 130.57 435.23 132.33335 434.549392 134.209965 434.21004 136.1 434.23 139.412579 434.067343 142.637898 435.321836 144.97 437.68 146.731521 439.566828 147.875747 441.945982 148.25 444.5 148.34 445.16 148.47 447.29 148.62 450.9L132.12 450.9C132.102906 452.152155 132.240617 453.401623 132.53 454.62 132.767556 455.488389 133.320174 456.237097 134.08 456.72 134.733475 457.137898 135.494357 457.356782 136.27 457.35 138.246328 457.484951 139.991612 456.071271 140.27 454.11L140.27 454.11zM172.6 434.45L172.6 442.85C171.946971 442.679309 171.274965 442.591949 170.6 442.59 168.575119 442.557937 166.598603 443.209729 164.99 444.44 163.88606 445.290893 162.990126 446.381743 162.37 447.63L162.37 462.89 153.53 462.89 153.53 435.17 162.37 435.17 162.37 437.64C162.37 437.64 162.37 437.89 162.37 438.28 162.358613 438.499853 162.358613 438.720147 162.37 438.94 162.37 439.246667 162.39 439.913333 162.43 440.94 163.099155 439.554611 163.994786 438.290588 165.08 437.2 166.664143 435.478263 168.871827 434.462656 171.21 434.38 171.51 434.36 172 434.39 172.6 434.45zM196.77 441.91L188.65 442.57C188.47 440.9 187.65 440.06 186.14 440.06 185.345593 440.024078 184.576258 440.342803 184.04 440.93 183.690845 441.346681 183.505923 441.876553 183.52 442.42 183.490379 443.527418 184.176426 444.52824 185.22 444.9 185.53 445.03 187.15 445.4 190.09 445.99 195.23 447.01 197.8 449.783333 197.8 454.31 197.874881 456.960097 196.714735 459.494683 194.66 461.17 192.66 462.85 189.72 463.7 185.83 463.7 179.49 463.7 176.063333 460.866667 175.55 455.2L183.78 454.69C184.006667 456.756667 185.023333 457.793333 186.83 457.8 187.736646 457.854473 188.604275 457.424465 189.11 456.67 189.389993 456.275546 189.540277 455.803726 189.54 455.32 189.54 453.86 188.426667 452.93 186.2 452.53 184.610824 452.2764 183.035481 451.942641 181.48 451.53 180.584803 451.272896 179.732331 450.885408 178.95 450.38 176.599854 448.880786 175.251246 446.221884 175.43 443.44 175.381402 440.769844 176.574601 438.228294 178.66 436.56 180.5 435.013333 183.09 434.236667 186.43 434.23 188.328063 434.193878 190.212404 434.558479 191.96 435.3 193.428046 435.876257 194.684386 436.888309 195.56 438.2 196.214128 439.340318 196.626041 440.603293 196.77 441.91zM211.33 423.6L211.33 431.49 202.49 431.49 202.49 423.6 211.33 423.6zM211.33 435.17L211.33 462.89 202.5 462.89 202.5 435.17 211.33 435.17zM233.27 443.84C232.551617 442.381109 231.094655 441.430249 229.47 441.36 227.823333 441.36 226.623333 442.386667 225.87 444.44 225.426216 445.924726 225.223639 447.471063 225.27 449.02 225.128419 451.298201 225.627229 453.570559 226.71 455.58 227.270973 456.635572 228.364671 457.299465 229.56 457.31 231.053333 457.31 232.29 456.456667 233.27 454.75L233.27 443.84 233.27 443.84zM242.11 423.6L242.11 462.89 234.39 462.89 234 460C232.197038 462.235373 229.501081 463.563232 226.63 463.63 223.070068 463.714031 219.783367 461.729534 218.2 458.54 216.661856 455.60085 215.904326 452.315922 216 449 216 444.853333 216.813333 441.52 218.44 439 219.335086 437.563667 220.558703 436.360614 222.01 435.49 223.375047 434.667905 224.936541 434.229166 226.53 434.22 229.05 434.22 231.29 435.41 233.27 437.79L233.27 423.6 242.11 423.6zM263.53 450.34C261.986265 450.574435 260.471333 450.969926 259.01 451.52 257.01 452.273333 256.01 453.436667 256.01 455.01 255.981366 455.732198 256.329689 456.417487 256.93 456.82 257.432639 457.154602 258.02638 457.32574 258.63 457.31 260.424513 457.21707 262.141933 456.551132 263.53 455.41L263.53 450.34zM256.47 443.84L247.89 442.77C248.119917 440.879132 248.902588 439.098121 250.14 437.65 252.273333 435.35 255.7 434.196667 260.42 434.19 265.04 434.19 268.34 435.236667 270.32 437.33 271.419549 438.472459 272.090727 439.959649 272.22 441.54 272.31 442.54 272.36 443.92 272.36 445.68L272.36 452.76C272.272166 456.145349 272.409134 459.532794 272.77 462.9L264.25 462.9 263.9 460.62C261.585276 462.566542 258.664294 463.645113 255.64 463.67 253.349603 463.780984 251.094653 463.07188 249.28 461.67 247.575562 460.264409 246.61898 458.14811 246.69 455.94 246.641194 453.02147 248.170285 450.303511 250.69 448.83 252.756667 447.496667 256.823333 446.163333 262.89 444.83L263.56 444.69 263.56 444C263.684844 443.037189 263.426254 442.063885 262.84 441.29 262.123451 440.739266 261.232117 440.465829 260.33 440.52 259.372312 440.422857 258.416756 440.723289 257.686963 441.350987 256.95717 441.978685 256.517192 442.878556 256.47 443.84zM294.27 443.84C293.551617 442.381109 292.094655 441.430249 290.47 441.36 288.816667 441.36 287.616667 442.39 286.87 444.45 286.426089 445.931272 286.223498 447.474341 286.27 449.02 286.128675 451.301377 286.627415 453.576877 287.71 455.59 288.275262 456.640156 289.367425 457.299286 290.56 457.31 292.06 457.31 293.29 456.46 294.27 454.75L294.27 443.84 294.27 443.84zM303.11 423.6L303.11 462.9 295.4 462.9 294.96 460.05C293.156857 462.283817 290.4601 463.608411 287.59 463.67 284.028743 463.759021 280.739567 461.773031 279.16 458.58 277.627731 455.625702 276.883746 452.32599 277 449 277 444.86 277.816667 441.526667 279.45 439 280.344338 437.566489 281.563984 436.363974 283.01 435.49 284.37585 434.670952 285.937407 434.235651 287.53 434.23 290.05 434.23 292.29 435.42 294.27 437.8L294.27 423.6 303.11 423.6zM317.07 446.06L325.22 446.06C325.239861 444.955755 325.042803 443.858348 324.64 442.83 324.095307 441.398492 322.689626 440.481568 321.16 440.56 319.497289 440.522805 318.018534 441.611333 317.56 443.21 317.229531 444.123579 317.063631 445.088508 317.07 446.06zM325.22 454.12L333.42 454.78C332.086667 460.706667 327.953333 463.673333 321.02 463.68 316.433333 463.68 313.006667 462.27 310.74 459.45 308.74 456.95 307.74 453.616667 307.74 449.45 307.74 444.976667 308.74 441.433333 310.74 438.82 311.970323 437.208624 313.625667 435.97231 315.52 435.25 317.28335 434.569392 319.159965 434.23004 321.05 434.25 324.359576 434.087665 327.581692 435.342327 329.91 437.7 331.676983 439.588253 332.824886 441.971286 333.2 444.53 333.29 445.18 333.42 447.31 333.57 450.92L317.07 450.92C317.048359 452.169069 317.186138 453.415798 317.48 454.63 317.71399 455.500113 318.267476 456.249996 319.03 456.73 319.683475 457.147898 320.444357 457.366782 321.22 457.36 323.19791 457.499966 324.946189 456.08386 325.22 454.12L325.22 454.12zM369.29 443.85C368.576708 442.386607 367.116726 441.433776 365.49 441.37 363.836667 441.37 362.636667 442.396667 361.89 444.45 361.446216 445.934726 361.243639 447.481063 361.29 449.03 361.148419 451.308201 361.647229 453.580559 362.73 455.59 363.294235 456.642486 364.385904 457.305148 365.58 457.32 367.08 457.32 368.32 456.46 369.29 454.76L369.29 443.85 369.29 443.85zM378.13 423.61L378.13 462.9 370.42 462.9 369.99 460.05C368.185296 462.283195 365.490416 463.610523 362.62 463.68 359.054228 463.766108 355.762049 461.776759 354.18 458.58 352.639088 455.62819 351.888087 452.327922 352 449 352 444.853333 352.816667 441.52 354.45 439 355.345086 437.563667 356.568703 436.360614 358.02 435.49 359.382633 434.662334 360.945701 434.223153 362.54 434.22 365.05 434.22 367.3 435.41 369.27 437.79L369.27 423.61 378.13 423.61zM396 440.57C393.333333 440.57 392 443.283333 392 448.71 391.89787 450.76615 392.158515 452.824226 392.77 454.79 393.48 456.48 394.58 457.32 396.06 457.32 397.9 457.32 399.116667 456.11 399.71 453.69 400.108555 451.827459 400.283126 449.923965 400.23 448.02 400.256667 443.053333 398.846667 440.57 396 440.57zM396.43 434.2C401.276667 434.2 404.876667 436.073333 407.23 439.82 408.818117 442.506573 409.605685 445.590926 409.5 448.71 409.5 453.45 408.3 457.146667 405.9 459.8 403.5 462.453333 400.166667 463.746667 395.9 463.68 391.026667 463.68 387.476667 462.013333 385.25 458.68 383.457809 455.803466 382.56632 452.456901 382.69 449.07 382.659085 446.781774 383.048891 444.507343 383.84 442.36 384.512985 440.474383 385.627336 438.777141 387.09 437.41 389.692847 435.182868 393.048369 434.034549 396.47 434.2L396.43 434.2z"/>
    <rect width="595.29" height="297.62" x=".97" y=".77" fill="#7D3A40" fill-rule="nonzero"/>
    <path fill="#FFF" fill-rule="nonzero" d="M156.82,66.39 L156.82,98.09 C156.82,103.085416 152.770416,107.135 147.775,107.135 C142.779584,107.135 138.73,103.085416 138.73,98.09 L138.73,66.39 C138.73,63.1621053 140.452061,60.1794075 143.2475,58.5654602 C146.042939,56.9515128 149.487061,56.9515128 152.2825,58.5654602 C155.077939,60.1794075 156.8,63.1621053 156.8,66.39 L156.82,66.39 Z M216,201.83 L189.15,185.64 C178.84,179.69 187.91,164.04 198.22,169.99 L225.06,186.2 C235.35,192.14 226.31,207.79 216,201.83 Z M69.41,185.66 L97,170 C107.31,164.05 116.36,179.71 106,185.67 L78.43,201.32 C68.12,207.27 59.1,191.61 69.41,185.66 Z M138.7,236.59 L138.7,170.59 C138.7,165.594584 142.749584,161.545 147.745,161.545 C152.740416,161.545 156.79,165.594584 156.79,170.59 L156.79,236.59 C156.79,239.819681 155.066986,242.804029 152.27,244.41887 C149.473014,246.033711 146.026986,246.033711 143.23,244.41887 C140.433014,242.804029 138.71,239.819681 138.71,236.59 L138.7,236.59 Z M78.7,101.37 L136.12,133.91 C146.44,139.91 137.4,155.53 127.12,149.59 L69.7,117 C59.38,111.08 68.4,95.42 78.7,101.37 Z M225.46,116.82 L168.69,149.87 C158.38,155.87 149.31,140.17 159.62,134.22 L216.41,101.22 C226.73,95.22 235.76,110.87 225.46,116.82 L225.46,116.82 Z"/>
    <path fill="#848484" d="M469.87 423.61L469.87 462.9 460.11 462.9 460.11 436.9C460.11 436.84 460.09 436.57 460.05 436.09 460.05 435.71 460.05 435.45 460.05 435.31L460.13 432.64 460.13 430.97C460.02 431.52 459.75 432.69 459.33 434.48L458.98 435.98 452.53 462.98 444.88 462.98 438.57 436.98C438.03 434.54 437.636667 432.563333 437.39 431.05L437.39 463.05 427.63 463.05 427.63 423.6 443.1 423.6 447.91 443.47C448.451332 445.637578 448.845564 447.83926 449.09 450.06 449.263333 448.726667 449.596667 446.796667 450.09 444.27L450.24 443.47 454.3 423.6 469.87 423.61zM485.36 423.61L485.36 431.49 476.52 431.49 476.52 423.61 485.36 423.61zM485.36 435.18L485.36 462.9 476.52 462.9 476.52 435.18 485.36 435.18zM500.1 435.18L500.1 438.32C503.206667 435.573333 506.343333 434.2 509.51 434.2 510.66665 434.202705 511.800665 434.520782 512.79 435.12 513.765593 435.675106 514.56591 436.492746 515.1 437.48 515.866667 439.06 516.25 441.593333 516.25 445.08L516.25 462.9 507.41 462.9 507.41 445.08C507.41 442.586667 506.43 441.34 504.47 441.34 502.791345 441.476966 501.228285 442.249554 500.1 443.5L500.1 462.9 491.26 462.9 491.26 435.18 500.1 435.18zM531 423.61L531 438.43C531.844271 437.450033 532.861086 436.633191 534 436.02 535.812717 434.913038 537.877784 434.286634 540 434.2 541.25211 434.182242 542.485697 434.503596 543.57 435.13 544.592149 435.673024 545.425513 436.513361 545.96 437.54 546.849574 439.740462 547.242256 442.110215 547.11 444.48L547.11 462.91 538.27 462.91 538.27 445.14C538.322764 444.339653 538.174965 443.538791 537.84 442.81 537.325709 441.853304 536.304529 441.280352 535.22 441.34 533.569375 441.453889 532.043816 442.260256 531.02 443.56L531.02 462.9 522.18 462.9 522.18 423.61 531 423.61zM565 440.57C562.333333 440.57 561 443.283333 561 448.71 560.89787 450.76615 561.158515 452.824226 561.77 454.79 562.48 456.48 563.58 457.32 565.06 457.32 566.9 457.32 568.116667 456.11 568.71 453.69 569.108555 451.827459 569.283126 449.923965 569.23 448.02 569.223333 443.053333 567.813333 440.57 565 440.57zM565.43 434.21C570.276667 434.21 573.873333 436.08 576.22 439.82 577.81631 442.503575 578.607724 445.589395 578.5 448.71 578.5 453.463333 577.3 457.16 574.9 459.8 572.5 462.44 569.166667 463.733333 564.9 463.68 560.033333 463.68 556.483333 462.013333 554.25 458.68 552.455876 455.800613 551.56431 452.450273 551.69 449.06 551.659085 446.771774 552.048891 444.497343 552.84 442.35 553.509108 440.462455 554.624026 438.764349 556.09 437.4 558.683038 435.192156 562.018026 434.051897 565.42 434.21L565.43 434.21z"/>
  </g>
</svg>
