<?xml version="1.0" encoding="UTF-8"?>
<svg enable-background="new 0 0 390 140" shape-rendering="geometricPrecision" version="1.1" viewBox="0 0 390 140" xml:space="preserve" xmlns="http://www.w3.org/2000/svg">
<style type="text/css">
	.st0{fill:#1E4B9B;}
</style>
<title>England-50</title>
<desc>Created with Sketch.</desc>
	<path class="st0" d="m118.6 82.4v-75.6c0-3.3-3.4-6.8-6.7-6.8h-104.8c-3.3 0-7.1 3.2-7.1 6.5v75.9c0 33.3 26.5 56.9 59.3 56.9s59.3-23.5 59.3-56.9m-66.9-13.9c-14.3 3.9-29.1-4.6-32.9-18.9-3.6-14.4 5.1-29 19.5-32.6 14.3-3.8 29.1 4.7 32.9 19 3.6 14.4-5.1 28.9-19.5 32.5"/>
	<path class="st0" d="m119 82.2v-75.4c0-3.3-3.4-6.8-6.7-6.8h-105.2c-3.3 0-7.1 3.2-7.1 6.5v75.7c0 33.3 26.6 56.8 59.5 56.8s59.5-23.4 59.5-56.8m-67.3-14.1c-14.3 3.9-29.1-4.6-32.9-18.8-3.6-14.3 5.1-28.8 19.5-32.4 14.3-3.8 29.1 4.7 32.9 18.9 3.6 14.3-5.1 28.7-19.5 32.3"/>
	<path class="st0" d="m262.7 78.6l9-10.8c5.1 4.7 10.2 7.4 16.2 7.4 7 0 11.4-3.5 11.4-9.5v-0.2c0-5.8-4.9-9.3-12.1-9.3-3.9 0.1-7.7 0.9-11.4 2.6l-8.6-5.7 2-33.6h41.8v13.2h-29l-0.8 11.8c2.9-0.8 5.9-1.2 8.9-1.2 13.2 0 23.7 6.4 23.7 21.9v0.1c0 14.4-10.2 23.7-25.8 23.7-9.4 0.2-18.6-3.5-25.3-10.4z"/>
	<polygon class="st0" points="194.1 8.7 182 4.6 182 1 204 9.4 204 12.7 198 10.3 182 16.2 182 12.3"/>
	<path class="st0" d="m154.8 40.4c-3 0-5.7 0.5-5.7 3.8 0 1.3 0.3 2.6 0.8 3.8h9.6c0.5-1.2 0.8-2.5 0.8-3.8 0.2-3.3-2.4-3.8-5.5-3.8zm-8.3 8.8l0.9-0.3c-0.9-1.5-1.3-3.2-1.4-4.9 0-5.8 3.6-7 8.8-7 5.3 0 8.8 1.6 8.8 7.3 0 1.3-0.3 2.7-0.9 3.8h5.8v3.5h-22v-2.4z"/>
	<polygon class="st0" points="162.4 129.4 162.4 132.9 143.2 132.9 143.2 139.2 140 139.2 140 123 143.2 123 143.2 129.4"/>
	<path class="st0" d="m150.6 109.5c-1.6 0-2.1 1.2-2.1 2.8 0 1.4 0.3 2.7 0.8 4h13.2v3.5h-22.5v-3.4h6.4c-0.7-1.4-1-2.9-1.1-4.5 0-4.2 2-5.9 5.4-5.9h11.8l-0.1 3.5h-11.8z"/>
	<path class="st0" d="m151.7 69.6c4.7 0 8.4-0.8 8.4-5.5s-3.8-5.4-8.4-5.4c-4.7 0-8.4 0.8-8.4 5.5s3.7 5.4 8.4 5.4m0 3.7c-6.1 0-11.7-1.8-11.7-9.1 0-7.5 5.6-9.1 11.7-9.1s11.7 1.8 11.7 9.1c0 7.6-5.6 9.1-11.7 9.1"/>
	<path class="st0" d="m149.2 8.2c0-0.4-0.1-2.8 2.2-2.8h11.8v-3.4h-11.8c-3.4 0-5.4 1.7-5.4 5.9 0 1.8 0.5 3.6 1.4 5.1l-0.9 0.3v2.3h16.8v-3.6h-13.2c-0.6-1.1-0.9-2.5-0.9-3.8"/>
	<path class="st0" d="m153.5 30.7v-7.2c-2.2 0-4.6 0.6-4.6 3.4 0.1 2.8 2.1 3.6 4.6 3.8zm2.9 0c2.9-0.3 4.1-1.5 4.1-4.9-0.1-1.8-0.4-3.5-1-5.1h3.1c0.8 1.9 1.1 3.9 1.1 6 0 5.8-3.6 7.6-8.8 7.6-5.3 0-8.8-2-8.8-7.6 0-5.9 4.3-6.7 8.9-6.7h1.3l0.1 10.7z"/>
	<path class="st0" d="m153.7 98.8v-7.2c-2.2 0-4.6 0.6-4.6 3.4 0.1 2.7 2 3.7 4.6 3.8zm2.7 0c2.9-0.3 4.1-1.6 4.1-4.9-0.1-1.8-0.4-3.5-1-5.2h3.1c0.8 1.9 1.1 3.9 1.1 6 0 5.8-3.6 7.6-8.8 7.6-5.3 0-8.8-2-8.8-7.6 0-6 4.3-6.7 8.9-6.7h1.3l0.1 10.8z"/>
	<path class="st0" d="m177 125.5h14.3c5.1 0 5.5 3 5.5 4.9s-0.4 4.9-5.5 4.9h-14.3v3.5h14.7c7.2 0 8.3-5.2 8.3-8.3 0-3.2-1.1-8.3-8.3-8.3h-14.7v3.3z"/>
	<path class="st0" d="m177.3 98c1.3 0 2.3 1 2.3 2.3s-1 2.3-2.3 2.3-2.3-1-2.3-2.3 1-2.3 2.3-2.3"/>
	<path class="st0" d="m195.5 102.1h-13.5v-3.5h13.2c0.6 0 0.9 0 0.9-1v-0.6h3.1c0 0.5 0.1 1.1 0.1 1.6-0.1 2-1.1 3.5-3.8 3.5"/>
	<path class="st0" d="m195.5 35.1h-13.5v-3.5h13.2c0.6 0 0.9 0 0.9-1v-0.6h3.1c0 0.5 0.1 1.1 0.1 1.6-0.1 2.1-1.1 3.5-3.8 3.5"/>
	<polygon class="st0" points="182 82.8 182 79 199.2 85.5 199.2 88.3 182 94.9 182 91.1 195 86.9"/>
	<path class="st0" d="m189.4 67.3c-2.2 0-4.6 0.6-4.6 3.3s1.9 3.7 4.6 3.9v-7.2zm2.9 7.2c2.9-0.3 4.1-1.5 4.1-4.8 0-1.7-0.4-3.4-0.9-5h3.1c0.8 1.9 1.1 3.9 1.1 5.9 0 5.7-3.5 7.4-8.8 7.4-5.4 0-8.8-2-8.8-7.4 0-5.8 4.4-6.7 8.9-6.7h1.4v10.6h-0.1z"/>
	<path class="st0" d="m185.4 52c-0.1 0.8-0.2 1.5-0.2 2.3 0 1.1 0.2 2.2 0.7 3.3h13.3v3.4h-16.8v-2.4l0.9-0.3c-0.8-1.2-1.3-2.7-1.3-4.2 0-0.7 0-1.5 0.1-2.2h3.3v0.1z"/>
	<path class="st0" d="m194.2 38c2.7 0 5.5 1.7 5.5 6.7 0 1.8-0.3 3.6-0.9 5.3h-3.3c0.6-1.7 1-3.5 1-5.3 0-2.7-1.1-3.5-2.3-3.5s-1.9 0.4-2.1 3c-0.4 4.9-2.3 5.9-4.8 5.9s-5.4-1.6-5.4-6.4c0-1.8 0.3-3.5 1-5.1h3.2c-0.6 1.6-1 3.4-1 5.1 0 2.6 1 3.1 2.1 3.1 1 0 1.5-0.5 1.7-3 0.6-4.6 2.3-5.8 5.3-5.8"/>
	<path class="st0" d="m199.6 17c0.2 1.1 0.2 2.1 0.2 3.2 0 2.7-1.4 4.8-4.7 4.8h-9.5v2.9h-2.8l-0.2-2.9h-4.2l-0.5-3.4h4.7v-4.6h3v4.6h9.1c1.4 0 1.9-0.8 1.9-2.5 0-0.7 0-1.4-0.1-2.1h3.1z"/>
	<path class="st0" d="m185.2 111.1c0-0.4-0.1-2.7 2.2-2.7h11.8v-3.4h-11.8c-3.4 0-5.4 1.7-5.4 5.8 0 1.8 0.5 3.5 1.4 5l-0.9 0.3v2.3h16.7v-3.4h-13.2c-0.5-1.3-0.8-2.7-0.8-3.9"/>
	<path class="st0" d="m177.3 31c1.3 0 2.3 1 2.3 2.3s-1 2.3-2.3 2.3-2.3-1-2.3-2.3 1-2.3 2.3-2.3"/>
	<path class="st0" d="m354 19c-19.3 0-35 15.7-35 35s15.6 35 35 35 35-15.7 35-35-15.7-35-35-35zm0 13c12.1 0 22 9.9 22 22s-9.9 22-22 22-22-9.9-22-22c0-12 9.9-21.9 22-22z"/>
	<polygon class="st0" points="194.1 8.7 182 4.6 182 1 204 9.4 204 12.7 198 10.3 182 16.2 182 12.3"/>
	<path class="st0" d="m154.8 40.4c-3 0-5.7 0.5-5.7 3.8 0 1.3 0.3 2.6 0.8 3.8h9.6c0.5-1.2 0.8-2.5 0.8-3.8 0.2-3.3-2.4-3.8-5.5-3.8zm-8.3 8.8l0.9-0.3c-0.9-1.5-1.3-3.2-1.4-4.9 0-5.8 3.6-7 8.8-7 5.3 0 8.8 1.6 8.8 7.3 0 1.3-0.3 2.7-0.9 3.8h5.8v3.5h-22v-2.4z"/>
	<polygon class="st0" points="162.4 129.4 162.4 132.9 143.2 132.9 143.2 139.2 140 139.2 140 123 143.2 123 143.2 129.4"/>
	<path class="st0" d="m150.6 109.5c-1.6 0-2.1 1.2-2.1 2.8 0 1.4 0.3 2.7 0.8 4h13.2v3.5h-22.5v-3.4h6.4c-0.7-1.4-1-2.9-1.1-4.5 0-4.2 2-5.9 5.4-5.9h11.8l-0.1 3.5h-11.8z"/>
	<path class="st0" d="m151.7 69.6c4.7 0 8.4-0.8 8.4-5.5s-3.8-5.4-8.4-5.4c-4.7 0-8.4 0.8-8.4 5.5s3.7 5.4 8.4 5.4m0 3.7c-6.1 0-11.7-1.8-11.7-9.1 0-7.5 5.6-9.1 11.7-9.1s11.7 1.8 11.7 9.1c0 7.6-5.6 9.1-11.7 9.1"/>
	<path class="st0" d="m149.2 8.2c0-0.4-0.1-2.8 2.2-2.8h11.8v-3.4h-11.8c-3.4 0-5.4 1.7-5.4 5.9 0 1.8 0.5 3.6 1.4 5.1l-0.9 0.3v2.3h16.8v-3.6h-13.2c-0.6-1.1-0.9-2.5-0.9-3.8"/>
	<path class="st0" d="m153.5 30.7v-7.2c-2.2 0-4.6 0.6-4.6 3.4 0.1 2.8 2.1 3.6 4.6 3.8zm2.9 0c2.9-0.3 4.1-1.5 4.1-4.9-0.1-1.8-0.4-3.5-1-5.1h3.1c0.8 1.9 1.1 3.9 1.1 6 0 5.8-3.6 7.6-8.8 7.6-5.3 0-8.8-2-8.8-7.6 0-5.9 4.3-6.7 8.9-6.7h1.3l0.1 10.7z"/>
	<path class="st0" d="m153.7 98.8v-7.2c-2.2 0-4.6 0.6-4.6 3.4 0.1 2.7 2 3.7 4.6 3.8zm2.7 0c2.9-0.3 4.1-1.6 4.1-4.9-0.1-1.8-0.4-3.5-1-5.2h3.1c0.8 1.9 1.1 3.9 1.1 6 0 5.8-3.6 7.6-8.8 7.6-5.3 0-8.8-2-8.8-7.6 0-6 4.3-6.7 8.9-6.7h1.3l0.1 10.8z"/>
	<path class="st0" d="m177 125.5h14.3c5.1 0 5.5 3 5.5 4.9s-0.4 4.9-5.5 4.9h-14.3v3.5h14.7c7.2 0 8.3-5.2 8.3-8.3 0-3.2-1.1-8.3-8.3-8.3h-14.7v3.3z"/>
	<path class="st0" d="m177.3 98c1.3 0 2.3 1 2.3 2.3s-1 2.3-2.3 2.3-2.3-1-2.3-2.3 1-2.3 2.3-2.3"/>
	<path class="st0" d="m195.5 102.1h-13.5v-3.5h13.2c0.6 0 0.9 0 0.9-1v-0.6h3.1c0 0.5 0.1 1.1 0.1 1.6-0.1 2-1.1 3.5-3.8 3.5"/>
	<path class="st0" d="m195.5 35.1h-13.5v-3.5h13.2c0.6 0 0.9 0 0.9-1v-0.6h3.1c0 0.5 0.1 1.1 0.1 1.6-0.1 2.1-1.1 3.5-3.8 3.5"/>
	<polygon class="st0" points="182 82.8 182 79 199.2 85.5 199.2 88.3 182 94.9 182 91.1 195 86.9"/>
	<path class="st0" d="m189.4 67.3c-2.2 0-4.6 0.6-4.6 3.3s1.9 3.7 4.6 3.9v-7.2zm2.9 7.2c2.9-0.3 4.1-1.5 4.1-4.8 0-1.7-0.4-3.4-0.9-5h3.1c0.8 1.9 1.1 3.9 1.1 5.9 0 5.7-3.5 7.4-8.8 7.4-5.4 0-8.8-2-8.8-7.4 0-5.8 4.4-6.7 8.9-6.7h1.4v10.6h-0.1z"/>
	<path class="st0" d="m185.4 52c-0.1 0.8-0.2 1.5-0.2 2.3 0 1.1 0.2 2.2 0.7 3.3h13.3v3.4h-16.8v-2.4l0.9-0.3c-0.8-1.2-1.3-2.7-1.3-4.2 0-0.7 0-1.5 0.1-2.2h3.3v0.1z"/>
	<path class="st0" d="m194.2 38c2.7 0 5.5 1.7 5.5 6.7 0 1.8-0.3 3.6-0.9 5.3h-3.3c0.6-1.7 1-3.5 1-5.3 0-2.7-1.1-3.5-2.3-3.5s-1.9 0.4-2.1 3c-0.4 4.9-2.3 5.9-4.8 5.9s-5.4-1.6-5.4-6.4c0-1.8 0.3-3.5 1-5.1h3.2c-0.6 1.6-1 3.4-1 5.1 0 2.6 1 3.1 2.1 3.1 1 0 1.5-0.5 1.7-3 0.6-4.6 2.3-5.8 5.3-5.8"/>
	<path class="st0" d="m199.6 17c0.2 1.1 0.2 2.1 0.2 3.2 0 2.7-1.4 4.8-4.7 4.8h-9.5v2.9h-2.8l-0.2-2.9h-4.2l-0.5-3.4h4.7v-4.6h3v4.6h9.1c1.4 0 1.9-0.8 1.9-2.5 0-0.7 0-1.4-0.1-2.1h3.1z"/>
	<path class="st0" d="m185.2 111.1c0-0.4-0.1-2.7 2.2-2.7h11.8v-3.4h-11.8c-3.4 0-5.4 1.7-5.4 5.8 0 1.8 0.5 3.5 1.4 5l-0.9 0.3v2.3h16.7v-3.4h-13.2c-0.5-1.3-0.8-2.7-0.8-3.9"/>
	<path class="st0" d="m177.3 31c1.3 0 2.3 1 2.3 2.3s-1 2.3-2.3 2.3-2.3-1-2.3-2.3 1-2.3 2.3-2.3"/>
	<polygon class="st0" points="277.2 123 277.2 113.7 267.1 99 270.9 99 278.8 110.7 286.9 99 290.5 99 280.4 113.7 280.4 123"/>
	<polygon class="st0" points="293.6 123 293.6 99 311.2 99 311.2 101.9 296.9 101.9 296.9 109.4 309.7 109.4 309.7 112.4 296.9 112.4 296.9 120.1 311.4 120.1 311.4 123"/>
	<path class="st0" d="m330.6 114l-4.8-10.9-4.9 10.9h9.7zm4 9l-2.7-6.1h-12.3l-2.8 6.1h-3.3l10.9-24h2.6l11 24h-3.4z"/>
	<path class="st0" d="m352 110.8c3.5 0 5.7-1.8 5.7-4.5v-0.1c0-2.7-2.1-4.3-5.6-4.3h-6.9v8.9h6.8zm-0.6 2.8h-6.2v9.4h-3.2v-24h10.2c2.5-0.1 4.9 0.7 6.8 2.4 1.2 1.3 1.9 3 1.9 4.8v0.1c0 3.6-2.2 6.1-6.1 6.9l7.4 9.8h-3.8l-7-9.4z"/>
	<path class="st0" d="m374 123.4c-3.6 0-7-1.3-9.6-3.8l-0.2-0.2 2-2.3 0.2 0.2c2 2.1 4.8 3.2 7.8 3.2 2.9 0 4.9-1.5 4.9-3.7v-0.1c0-1.9-0.9-3.1-5.8-4.1s-8-2.6-8-6.9v-0.1c0-3.8 3.3-6.6 7.9-6.6 3-0.1 6 0.9 8.3 2.9l0.2 0.2-1.8 2.4-0.2-0.2c-1.8-1.6-4.1-2.5-6.5-2.5-2.7 0-4.6 1.4-4.6 3.5v0.1c0 1.9 0.9 3.1 6.1 4.2 5.4 1.2 7.8 3.2 7.8 6.8v0.1c-0.3 4.1-3.7 6.9-8.5 6.9z"/>
	<rect class="st0" x="232" width="3" height="139"/>
	<path class="st0" d="m0 0"/>
</svg>
