<svg xmlns="http://www.w3.org/2000/svg" xmlns:xlink="http://www.w3.org/1999/xlink" width="1256" height="234" viewBox="0 0 1256 234">
  <defs>
    <path id="logo_on-merrit-a" d="M83.39,301.66 C63.5499008,301.66 46.5000713,294.271741 32.24,279.495 C17.9799287,264.718259 10.85,247.513431 10.85,227.88 C10.85,208.246568 18.083261,191.248405 32.55,176.885 C47.016739,162.521595 64.4282315,155.34 84.785,155.34 C105.141768,155.34 122.501595,162.521595 136.865,176.885 C151.228405,191.248405 158.41,208.298235 158.41,228.035 C158.41,247.771765 151.383404,264.976593 137.33,279.65 C123.276596,294.323407 106.226767,301.66 86.18,301.66 L83.39,301.66 Z M148.49,228.81 C148.49,211.243246 142.238396,196.053397 129.735,183.24 C117.231604,170.426603 102.300087,164.02 84.94,164.02 C67.5799132,164.02 52.5450635,170.478269 39.835,183.395 C27.1249364,196.311731 20.77,211.449913 20.77,228.81 C20.77,246.170087 27.1249364,261.204936 39.835,273.915 C52.5450635,286.625064 67.6315793,292.98 85.095,292.98 C102.558421,292.98 117.489938,286.625064 129.89,273.915 C142.290062,261.204936 148.49,246.170087 148.49,228.81 Z M197.78,298.25 L187.86,298.25 L187.86,158.75 L197.78,158.75 L197.78,186.96 C208.320053,165.879895 226.299873,155.34 251.72,155.34 C269.080087,155.34 283.649941,161.333273 295.43,173.32 C307.210059,185.306727 313.1,199.876581 313.1,217.03 L313.1,298.25 L303.18,298.25 L303.18,217.03 C303.18,202.769929 298.168383,190.370053 288.145,179.83 C278.121617,169.289947 265.980071,164.02 251.72,164.02 C237.459929,164.02 224.905054,169.289947 214.055,179.83 C203.204946,190.370053 197.78,202.769929 197.78,217.03 L197.78,298.25 Z"/>
    <path id="logo_on-merrit-b" d="M657.06,188.52 C660.160015,178.59995 666.101623,170.643363 674.885,164.65 C683.668377,158.656637 694.36327,155.66 706.97,155.66 C719.57673,155.66 730.633286,160.206621 740.14,169.3 C749.646714,178.393379 754.4,190.689922 754.4,206.19 L754.4,298.57 L744.48,298.57 L744.48,206.19 C744.48,194.203273 740.553373,184.231706 732.7,176.275 C724.846627,168.318294 715.391722,164.34 704.335,164.34 C693.278278,164.34 683.46171,168.473292 674.885,176.74 C666.30829,185.006708 662.02,194.616612 662.02,205.57 L662.02,298.57 L652.1,298.57 L652.1,205.57 C652.1,194.409944 648.173373,184.748374 640.32,176.585 C632.466627,168.421626 622.960056,164.34 611.8,164.34 C600.639944,164.34 590.926708,168.473292 582.66,176.74 C574.393292,185.006708 570.26,194.616612 570.26,205.57 L570.26,298.57 L560.34,298.57 L560.34,159.07 L570.26,159.07 L570.26,178.6 C574.393354,172.399969 580.541626,167.026689 588.705,162.48 C596.868374,157.933311 605.341623,155.66 614.125,155.66 C622.908377,155.66 631.32996,158.708303 639.39,164.805 C647.45004,170.901697 653.339981,178.806618 657.06,188.52 Z M861.35,302.29 L858.56,302.29 C838.926569,302.29 821.825073,294.901741 807.255,280.125 C792.684927,265.348259 785.4,248.143431 785.4,228.51 C785.4,208.876569 792.633261,191.878405 807.1,177.515 C821.566739,163.151595 839.443227,155.97 860.73,155.97 C882.016773,155.97 900.30659,164.443249 915.6,181.39 L818.26,277.49 C831.6934,288.23672 844.609938,293.61 857.01,293.61 C869.410062,293.61 880.518284,290.768362 890.335,285.085 C900.151716,279.401638 908.263301,271.806714 914.67,262.3 L914.67,278.11 C899.996593,294.230081 882.223438,302.29 861.35,302.29 Z M857.94,164.65 C841.613252,164.65 827.095064,171.004936 814.385,183.715 C801.674936,196.425064 795.32,211.046584 795.32,227.58 C795.32,244.113416 800.796612,258.579938 811.75,270.98 L901.96,181.39 C889.146603,170.229944 874.473416,164.65 857.94,164.65 Z M1026.58,177.98 C1017.48662,168.886621 1007.46339,164.34 996.51,164.34 C985.556612,164.34 975.895042,168.473292 967.525,176.74 C959.154958,185.006708 954.97,194.616612 954.97,205.57 L954.97,298.57 L945.05,298.57 L945.05,159.07 L954.97,159.07 L954.97,179.84 C958.690019,172.813298 964.476627,167.026689 972.33,162.48 C980.183373,157.933311 988.966618,155.66 998.68,155.66 C1008.39338,155.66 1017.69329,158.966634 1026.58,165.58 L1026.58,177.98 Z M1134.46,177.98 C1125.36662,168.886621 1115.34339,164.34 1104.39,164.34 C1093.43661,164.34 1083.77504,168.473292 1075.405,176.74 C1067.03496,185.006708 1062.85,194.616612 1062.85,205.57 L1062.85,298.57 L1052.93,298.57 L1052.93,159.07 L1062.85,159.07 L1062.85,179.84 C1066.57002,172.813298 1072.35663,167.026689 1080.21,162.48 C1088.06337,157.933311 1096.84662,155.66 1106.56,155.66 C1116.27338,155.66 1125.57329,158.966634 1134.46,165.58 L1134.46,177.98 Z M1174.76,159.38 L1174.76,298.57 L1164.84,298.57 L1164.84,159.38 L1174.76,159.38 Z M1169.8,125.28 C1163.80664,125.28 1160.81,122.490028 1160.81,116.91 C1160.81,111.329972 1163.80664,108.54 1169.8,108.54 C1175.79336,108.54 1178.79,111.329972 1178.79,116.91 C1178.79,122.490028 1175.79336,125.28 1169.8,125.28 Z M1265.9,291.75 L1265.9,300.43 C1251.22659,300.43 1238.72339,295.521716 1228.39,285.705 C1218.05661,275.888284 1212.89,263.33341 1212.89,248.04 L1212.89,102.96 L1222.81,102.96 L1222.81,159.38 L1265.59,159.38 L1265.59,168.06 L1222.81,168.06 L1222.81,248.04 C1222.81,260.64673 1226.99496,271.083292 1235.365,279.35 C1243.73504,287.616708 1253.91327,291.75 1265.9,291.75 Z"/>
  </defs>
  <g fill="none" transform="translate(-10 -102)">
    <use fill="#000" xlink:href="#logo_on-merrit-a"/>
    <use fill="#0886C9" xlink:href="#logo_on-merrit-a"/>
    <use fill="#000" xlink:href="#logo_on-merrit-b"/>
    <use fill="#0886C9" xlink:href="#logo_on-merrit-b"/>
    <g transform="translate(366 122)">
      <rect width="45.7" height="45.7" x="83.583" y="83.91" fill="#F6A01A" transform="rotate(-45 106.433 106.76)"/>
      <rect width="45.7" height="45.7" x="46.56" y="120.935" fill="#07A03D" transform="rotate(-45 69.41 143.785)"/>
      <rect width="45.7" height="45.7" x="9.513" y="157.97" fill="#25A8AC" transform="rotate(-45 32.363 180.82)"/>
      <rect width="45.7" height="45.7" x="46.548" y="46.863" fill="#07A03D" transform="rotate(-45 69.398 69.713)"/>
      <rect width="45.7" height="45.7" x="9.512" y="9.83" fill="#25A8AC" transform="rotate(-45 32.362 32.68)"/>
      <rect width="45.7" height="45.7" x="9.518" y="83.905" fill="#25A8AC" transform="rotate(-45 32.368 106.755)"/>
    </g>
  </g>
</svg>
