<svg  xmlns="http://www.w3.org/2000/svg" style="display: none;">
    <symbol id="logo_dfg">
        <path d="M31.1 29.792h10.172V19.51h12.67v-6.37h-12.67V7.565h12.67v-6.12h-22.84V29.79l-.002.002zM60.947 4.52c-3.005 2.377-4.904 5.912-4.908 10.682 0 5.092 1.83 8.835 4.79 11.335 2.96 2.497 7.09 3.75 11.7 3.75 4.31-.003 7.72-.438 11.31-1.5V15.71H75.2v7.617l-.19.074c-.727.28-1.633.27-2.4.27-2.227.01-3.815-.92-4.79-2.37-.976-1.44-1.37-3.36-1.37-5.39 0-2.69.914-4.81 2.537-6.22 1.622-1.41 3.917-2.12 6.64-2.12 2.782 0 4.976.63 6.536 1.45V1.96c-2.57-.628-4.526-1.013-9.63-1.015h-.003c-4.443 0-8.576 1.2-11.582 3.575zm38.406 6.43h.828c3.08.068 4.67-1.4 4.75-4.4-.02-1.576-.42-2.69-1.19-3.337-.78-.618-1.75-.923-2.91-.913h-1.47v8.65zm-.992-9.54h2.51c1.8.02 3.09.502 3.9 1.445.78.95 1.17 2.2 1.16 3.75-.01 1.865-.56 3.205-1.64 4.022-1.05.808-2.44 1.212-4.14 1.212h-1.77V1.41h-.02zm14.46 6.088c0-.7-.14-1.312-.42-1.836-.3-.53-.79-.803-1.46-.823-.66.02-1.19.29-1.58.83-.39.54-.59 1.15-.59 1.82h4.07-.02zm.45 4.104c-.69.27-1.4.41-2.14.42-1.2-.025-2.07-.41-2.59-1.154-.52-.73-.77-1.676-.76-2.84.01-1.186.3-2.147.87-2.882.55-.73 1.3-1.1 2.24-1.108 1.03.02 1.79.394 2.26 1.123.46.72.68 1.61.68 2.66v.48h-5.06c0 .83.21 1.52.63 2.05.41.57 1.01.86 1.81.87.36 0 .74-.06 1.13-.19.4-.1.71-.23.94-.37v.96l-.01-.01zm8.28-1.558c-.01.58.01 1.177.07 1.795h-.88v-1.36h-.03c-.06.16-.16.33-.27.5-.11.18-.26.35-.44.51-.18.15-.41.27-.68.36-.27.11-.59.17-.98.17-.89-.01-1.54-.29-1.93-.84-.39-.54-.59-1.24-.58-2.1V4.22h.91v4.632c0 .73.14 1.3.42 1.71.28.438.72.657 1.34.657.42 0 .77-.09 1.06-.27.3-.18.52-.39.67-.66.18-.28.3-.58.36-.9.07-.32.11-.64.11-.96V4.22h.91v5.824h-.06zm5.8-5.022h-1.68v4.94c0 .35.08.646.24.885.14.248.39.372.75.372.33 0 .61-.07.84-.19l.06.77c-.11.04-.26.08-.45.13-.2.05-.42.08-.66.08-.39 0-.71-.07-.94-.21-.22-.15-.39-.33-.5-.56-.1-.24-.16-.51-.19-.81-.03-.3-.04-.63-.04-.98V5.02h-1.45v-.8h1.45V2.38l.9-.328V4.22h1.68v.802h-.01zm1.25 5.714c.56.312 1.2.473 1.92.483.46 0 .84-.13 1.16-.38.31-.23.47-.56.48-.99-.01-.46-.19-.81-.54-1.07-.35-.25-.76-.48-1.23-.67-.22-.11-.43-.23-.63-.35-.2-.12-.4-.26-.58-.4-.16-.16-.3-.35-.41-.56-.1-.2-.16-.43-.16-.7.01-.76.26-1.3.75-1.62.48-.32 1.03-.47 1.66-.47.22 0 .49.02.83.06.34.05.67.15 1 .28l-.08.82c-.53-.23-1.08-.35-1.64-.36-.47 0-.85.09-1.13.26-.14.09-.26.22-.34.38-.08.16-.12.37-.12.63 0 .16.05.31.16.45.11.13.25.25.42.35.18.1.38.2.6.31.22.1.44.21.65.32.48.21.9.49 1.26.84s.54.83.55 1.45c0 .4-.08.73-.23 1-.17.28-.37.5-.62.67-.54.33-1.12.5-1.72.5-.71 0-1.4-.12-2.06-.36l.08-.92-.03.04zm11.21-5.557c-.52-.25-1.05-.38-1.58-.39-.88.01-1.56.3-2.03.88-.5.59-.74 1.36-.74 2.31 0 .89.24 1.63.73 2.23.47.63 1.12.95 1.95.96.57 0 1.12-.11 1.67-.34l.08.88c-.6.19-1.23.28-1.89.27-1.19-.03-2.07-.43-2.65-1.21-.59-.77-.88-1.7-.88-2.78.01-1.21.34-2.17 1.01-2.89.66-.73 1.54-1.1 2.63-1.11.45 0 .83.03 1.13.1.16.03.29.06.4.09.1.04.19.07.24.1l-.07.89v.01zM141.6.6h.9v4.9h.03c.2-.43.5-.78.896-1.06.39-.26.86-.39 1.4-.4.98.01 1.65.31 2.01.89.35.6.52 1.38.51 2.34v4.56h-.9V7.29c0-.337-.02-.656-.06-.958-.04-.288-.12-.54-.25-.76-.23-.477-.71-.72-1.45-.73-.79.02-1.36.333-1.7.942-.33.61-.5 1.266-.49 1.973v4.084h-.9V.63L141.6.6zm12.816 6.898c0-.7-.14-1.312-.43-1.836-.3-.53-.79-.803-1.47-.823-.67.02-1.19.29-1.58.83-.4.54-.59 1.15-.59 1.82h4.07zm.44 4.104c-.7.27-1.41.41-2.14.42-1.21-.025-2.08-.41-2.6-1.154-.52-.73-.78-1.676-.77-2.84.01-1.186.3-2.147.87-2.882.55-.73 1.3-1.1 2.24-1.108 1.03.02 1.79.394 2.26 1.123.45.72.68 1.61.68 2.66v.48h-5.06c0 .83.21 1.52.63 2.05.4.57 1.01.86 1.81.87.36 0 .74-.06 1.13-.19.39-.1.71-.23.94-.37v.96l.01-.01zm-56.47 7.744h4.8v.89h-3.81v3.73H103v.888h-3.63v4.92h-1V19.346h.016zm7.064 6.62c0 .906.21 1.655.63 2.245.402.62 1.01.94 1.81.95.8-.01 1.413-.32 1.84-.94.41-.59.61-1.34.61-2.24 0-.91-.2-1.67-.61-2.27-.426-.6-1.04-.9-1.84-.91-.805.01-1.41.32-1.817.91-.43.61-.64 1.37-.64 2.28l.017-.02zm-.99 0c0-1.086.28-2.013.84-2.78.55-.79 1.42-1.194 2.6-1.213 1.19.02 2.07.423 2.63 1.212.54.768.81 1.695.81 2.78 0 1.065-.28 1.987-.82 2.765-.56.793-1.44 1.203-2.63 1.227-1.18-.024-2.05-.434-2.6-1.227-.56-.778-.84-1.7-.84-2.765h.01zm8.88-2.11c0-.706-.02-1.27-.06-1.7h.9v1.46h.03c.17-.45.42-.83.73-1.147.31-.33.7-.49 1.16-.5.24.01.45.04.64.08v.97c-.206-.06-.43-.09-.67-.09-.36.01-.654.1-.885.27-.23.18-.42.42-.565.73-.14.3-.235.62-.29.97-.07.37-.1.73-.1 1.08v3.77h-.904v-5.92l.014.02zm4.396 4.793c.56.31 1.2.47 1.92.48.46 0 .84-.12 1.16-.37.316-.23.476-.56.486-.99-.01-.46-.19-.81-.54-1.07-.35-.25-.76-.47-1.23-.67-.22-.11-.43-.23-.64-.35-.2-.13-.39-.26-.58-.41-.16-.16-.3-.35-.41-.56-.1-.2-.15-.44-.15-.71.01-.76.26-1.3.75-1.62.473-.31 1.024-.47 1.65-.47.21 0 .49.02.826.05.336.06.67.15 1 .28l-.084.82c-.53-.23-1.08-.35-1.64-.36-.47 0-.842.09-1.12.26-.143.09-.26.22-.34.38-.08.15-.124.36-.124.62 0 .15.052.3.16.44.1.13.24.25.414.36.17.1.37.21.59.32.22.1.44.21.65.33.48.21.9.49 1.26.84s.54.83.55 1.45c0 .4-.08.73-.23 1-.17.28-.38.5-.63.67-.54.33-1.11.5-1.72.5-.71 0-1.4-.12-2.06-.36l.088-.93-.006.07zm11.186-5.58c-.52-.25-1.05-.38-1.58-.39-.89.01-1.562.3-2.04.88-.5.59-.74 1.36-.74 2.31 0 .89.247 1.63.73 2.23.47.63 1.12.95 1.95.96.57 0 1.13-.11 1.67-.34l.087.88c-.6.18-1.23.27-1.89.26-1.19-.03-2.07-.43-2.65-1.21-.59-.77-.88-1.7-.88-2.78.01-1.21.34-2.17 1.01-2.89.66-.73 1.54-1.1 2.63-1.11.45 0 .83.03 1.13.1.15.03.29.06.4.09.11.04.19.07.24.1l-.07.89v.02zm1.827-4.62h.9v4.87h.03c.21-.43.51-.78.9-1.06.4-.26.86-.39 1.4-.4.99.01 1.66.31 2.02.9.35.6.52 1.38.51 2.34v4.56h-.9v-4.5c0-.34-.02-.66-.06-.96-.05-.29-.13-.54-.25-.76-.23-.48-.72-.72-1.45-.73-.79.02-1.36.33-1.7.94-.34.6-.5 1.26-.49 1.97v4.08h-.91V18.45zm14.06 9.46c-.01.58.01 1.18.06 1.79h-.9v-1.36h-.03c-.07.16-.16.33-.28.5-.11.18-.26.35-.45.51-.18.15-.41.27-.68.36-.26.11-.59.17-.98.17-.89-.01-1.54-.29-1.93-.84-.4-.54-.59-1.24-.58-2.09V22.1h.9v4.63c0 .73.14 1.3.42 1.71.27.44.72.656 1.34.656.41 0 .76-.09 1.05-.27.29-.17.51-.39.67-.65.17-.27.29-.57.36-.9.07-.31.11-.63.11-.95v-4.22h.9v5.83l.01-.02zm2.54-4.01c0-.58-.02-1.18-.06-1.79h.88v1.36h.03c.09-.18.19-.36.3-.54.11-.18.26-.34.43-.49.18-.16.41-.28.68-.38.27-.09.6-.13.97-.13.9.01 1.56.29 1.95.84.38.54.56 1.23.56 2.09v4.88h-.91V25.1c0-.73-.13-1.3-.39-1.73-.29-.41-.74-.62-1.37-.63-.82.02-1.39.32-1.72.89-.17.27-.29.57-.36.89-.07.33-.11.67-.11 1.01v4.216h-.91v-5.82l.01-.024zm8.86 2.04c-.01.78.15 1.46.49 2.05.33.62.88.93 1.65.95.82-.02 1.4-.35 1.75-.99.33-.62.5-1.29.5-2.02 0-.95-.16-1.72-.46-2.3-.32-.59-.9-.89-1.73-.9-.44 0-.79.09-1.07.28-.28.18-.51.43-.68.75-.16.3-.27.64-.35 1.02-.07.38-.1.76-.1 1.14l-.01.02zm5.29 3.18c0 1.08-.26 1.99-.77 2.72-.54.73-1.43 1.11-2.7 1.13-.49-.01-.93-.07-1.34-.16-.4-.11-.7-.18-.9-.24l.08-.94c.61.33 1.33.51 2.17.53.59-.01 1.05-.12 1.39-.33.35-.2.61-.48.77-.84.17-.36.28-.77.33-1.24.04-.47.06-.97.06-1.51h-.03c-.52 1.01-1.27 1.51-2.24 1.49-1.16-.03-1.97-.46-2.43-1.28-.24-.38-.41-.79-.51-1.23-.12-.44-.17-.87-.17-1.3-.01-1.19.22-2.15.71-2.87.48-.74 1.25-1.12 2.32-1.13.48 0 .91.05 1.28.16.35.13.69.42 1.02.87h.02v-.86h.9v6.99l.02.04zm1.91-.48c.56.32 1.2.48 1.92.49.45 0 .84-.12 1.16-.37.31-.23.47-.56.48-.98-.01-.46-.19-.81-.54-1.07-.35-.25-.76-.48-1.23-.68-.22-.11-.44-.23-.64-.35-.21-.12-.4-.25-.58-.4-.17-.16-.31-.34-.41-.55-.11-.2-.16-.44-.16-.7.01-.76.26-1.3.75-1.62.48-.31 1.03-.47 1.66-.47.21 0 .48.02.82.06.33.06.66.15.99.28l-.08.82c-.53-.23-1.08-.34-1.64-.35-.47 0-.85.08-1.12.26-.15.09-.26.22-.34.38-.09.15-.13.36-.13.62 0 .16.05.3.16.45.11.13.24.25.42.36.17.1.37.2.59.31.23.1.44.21.66.33.48.2.9.48 1.26.84.36.35.54.83.55 1.45 0 .4-.08.73-.23 1-.16.28-.37.5-.62.67-.54.33-1.11.5-1.72.5-.71 0-1.4-.12-2.06-.36l.08-.92-.01-.01zm6.95-2.71c-.01.78.15 1.46.49 2.05.33.62.88.94 1.65.96.82-.02 1.4-.35 1.75-.99.33-.62.49-1.29.49-2.02 0-.95-.15-1.72-.46-2.3-.32-.59-.9-.88-1.73-.89-.43 0-.79.09-1.06.28-.28.18-.51.43-.68.75-.16.3-.27.64-.35 1.02-.06.38-.1.76-.1 1.14zm5.29 3.18c0 1.09-.26 1.99-.77 2.72-.53.73-1.43 1.11-2.69 1.13-.49-.01-.93-.06-1.34-.16-.39-.1-.69-.18-.89-.24l.07-.94c.61.34 1.33.51 2.17.53.59-.01 1.05-.12 1.39-.33.35-.2.61-.48.77-.84.17-.36.29-.77.33-1.24.04-.47.06-.97.06-1.51h-.03c-.52 1.01-1.27 1.51-2.24 1.49-1.16-.03-1.97-.46-2.43-1.28-.25-.38-.42-.79-.51-1.22-.12-.44-.18-.87-.18-1.3-.01-1.19.23-2.15.72-2.87.48-.74 1.25-1.12 2.32-1.13.49 0 .91.05 1.28.16.35.132.7.42 1.03.87h.03v-.86h.9v6.99l-.01.01zm6.98-3.71c0-.7-.14-1.31-.43-1.84s-.78-.8-1.46-.82c-.67.02-1.2.3-1.58.84-.4.54-.6 1.15-.6 1.82h4.07zm.44 4.1c-.69.27-1.41.41-2.14.42-1.21-.02-2.07-.41-2.6-1.15-.52-.73-.77-1.67-.76-2.84.01-1.18.3-2.15.87-2.88.55-.73 1.29-1.1 2.24-1.11 1.03.02 1.78.4 2.26 1.13.45.71.68 1.6.68 2.65v.48h-5.06c0 .83.21 1.51.62 2.05.4.57 1.01.86 1.81.87.36 0 .73-.06 1.13-.2.4-.11.71-.23.94-.37v.95l.01-.02zm11.58.24V24.7c0-.28-.02-.54-.06-.78-.06-.23-.16-.43-.29-.6-.12-.17-.28-.31-.5-.41-.21-.09-.47-.13-.79-.13-.53 0-1 .22-1.41.66-.42.453-.64 1.162-.65 2.12v4.21h-.9V24.7c0-.28-.02-.54-.07-.78-.06-.23-.15-.43-.29-.6-.12-.173-.28-.31-.49-.414-.21-.09-.47-.13-.79-.13-.53 0-1 .22-1.41.658-.42.46-.64 1.165-.65 2.124v4.21h-.9v-5.83c0-.58-.02-1.18-.06-1.79h.91v1.29l.03.012c.06-.14.16-.295.28-.466.09-.17.23-.33.41-.47.18-.15.4-.28.67-.39.27-.1.6-.145.99-.145.18 0 .37.02.58.06.19.04.39.12.59.24.2.11.37.27.52.48.15.22.25.49.31.83h.03c.19-.46.49-.84.91-1.14.41-.3.92-.46 1.52-.47.77.01 1.37.25 1.78.71.41.46.61 1.08.61 1.84v5.25h-.9l.01-.03zm7.88-4.32c0-.7-.14-1.31-.42-1.83-.3-.53-.79-.8-1.47-.82-.67.02-1.2.3-1.58.84-.4.54-.6 1.15-.6 1.82h4.06v-.01zm.44 4.11c-.69.27-1.4.41-2.14.42-1.21-.03-2.07-.41-2.59-1.15-.52-.73-.78-1.67-.77-2.84.01-1.18.3-2.14.87-2.88.55-.73 1.29-1.1 2.24-1.11 1.03.02 1.78.4 2.26 1.13.45.71.68 1.6.68 2.65v.48h-5.06c0 .83.21 1.51.62 2.05.4.57 1.01.86 1.81.87.36 0 .74-.07 1.13-.2.4-.11.71-.23.94-.38v.96zm2.53.24h.9v-7.6h-.9v7.62-.02zm0-9.65h.9V18.9h-.9v1.256-.017zm3.32 3.82c0-.59-.02-1.18-.06-1.79h.89v1.35h.03c.08-.18.19-.36.3-.54.12-.18.26-.34.43-.49.19-.16.41-.29.68-.38.27-.09.6-.13.97-.13.91.01 1.56.29 1.95.84.38.53.57 1.23.57 2.08v4.87h-.9v-4.64c0-.73-.13-1.3-.39-1.73-.29-.41-.74-.62-1.37-.63-.81.02-1.38.32-1.71.89-.17.27-.29.57-.36.88-.07.33-.11.67-.11 1.01v4.21h-.9v-5.83l-.03.03zm7.76 4.7c.56.31 1.2.47 1.92.48.46 0 .84-.13 1.16-.37.31-.23.47-.56.48-.99-.01-.46-.19-.81-.54-1.07-.35-.25-.76-.48-1.23-.68-.22-.11-.43-.22-.63-.35-.21-.12-.4-.26-.58-.4-.17-.16-.3-.35-.41-.56-.11-.2-.16-.43-.16-.7.01-.76.26-1.3.75-1.62.48-.31 1.03-.47 1.66-.47.21 0 .48.02.82.06.33.06.66.15.99.28l-.08.82c-.54-.23-1.08-.35-1.65-.36-.47 0-.85.08-1.13.26-.15.09-.26.22-.34.38-.09.15-.13.36-.13.62 0 .15.06.3.17.44.1.13.24.25.42.36.17.1.37.21.59.32.22.1.43.21.65.33.48.2.9.48 1.26.84.35.35.54.83.55 1.45 0 .4-.08.73-.24 1-.16.28-.37.5-.62.67-.54.33-1.11.5-1.72.5-.71 0-1.39-.12-2.06-.36l.09-.93v.04zm11.19-5.55c-.52-.25-1.05-.38-1.58-.39-.89.01-1.57.3-2.04.88-.5.59-.74 1.36-.74 2.31 0 .89.24 1.63.72 2.23.48.63 1.13.95 1.96.96.57 0 1.13-.11 1.67-.34l.08.88c-.6.19-1.23.28-1.9.27-1.18-.03-2.07-.43-2.65-1.21-.585-.77-.88-1.7-.88-2.78.01-1.21.35-2.17 1.01-2.89.66-.73 1.54-1.1 2.64-1.11.45 0 .83.03 1.13.1.153.03.29.06.4.09.11.04.192.07.25.1l-.07.89-.018-.005zm1.84-4.6h.9v4.87h.03c.2-.42.5-.78.89-1.06.39-.25.86-.39 1.4-.4.98.01 1.65.31 2.01.9.35.6.52 1.38.51 2.35v4.56h-.9V25.2c0-.34-.02-.66-.05-.96-.04-.29-.12-.54-.25-.76-.23-.48-.71-.72-1.45-.73-.79.02-1.36.33-1.7.94-.33.61-.5 1.27-.49 1.97v4.08h-.9V18.51zm12.47 7.4h-.26c-.4 0-.79.01-1.19.03-.41.03-.79.12-1.13.25-.34.12-.61.3-.82.55-.22.25-.33.59-.33 1.01 0 .49.16.84.47 1.04.29.22.65.33 1.07.33.53 0 .95-.11 1.26-.33.3-.21.52-.46.66-.75.14-.31.22-.616.24-.914.02-.315.03-.57.03-.77v-.46l-.01.004zm.09 2.62h-.03c-.21.44-.54.78-.98 1.02-.43.24-.89.37-1.37.38-.51-.01-.93-.1-1.24-.26-.33-.15-.58-.34-.76-.57-.3-.5-.45-.94-.43-1.33 0-.64.15-1.14.45-1.51.29-.37.66-.64 1.12-.8.45-.17.94-.28 1.48-.33.52-.03 1.02-.05 1.5-.05h.18v-.39c.03-1.31-.53-1.97-1.68-1.97-.76-.01-1.49.2-2.17.63v-.92c.68-.33 1.41-.5 2.17-.52 1.75-.02 2.61.92 2.59 2.84v3.36c-.01.58.01 1.11.08 1.6h-.9v-1.2l-.02.03zm3.87-5.6h-1.49v-.81h1.4v-.56c0-.41.02-.81.05-1.2.02-.38.09-.72.22-1.02.12-.32.32-.56.59-.74.26-.18.62-.26 1.08-.26.15 0 .31 0 .48.01.16.03.29.07.37.13l-.06.82c-.21-.12-.45-.17-.72-.17-.31 0-.53.07-.69.21-.17.16-.28.35-.33.58-.06.23-.09.47-.09.73-.01.26-.02.52-.02.77v.66h1.66v.8h-1.66v6.82h-.91v-6.8l.11.03zm7.41-.03h-1.68v4.94c0 .35.08.64.23.88.14.25.39.37.75.37.33 0 .61-.06.84-.18l.05.77c-.1.04-.25.09-.45.13-.2.06-.42.08-.66.08-.39 0-.71-.07-.94-.21-.22-.14-.39-.32-.5-.55-.1-.24-.16-.51-.19-.8-.03-.3-.04-.63-.04-.98V22.9h-1.45v-.8h1.45v-1.8l.9-.33v2.165h1.68v.8l.01-.035zM0 29.79V13.14h10.17v10.05h2.99c2.01.01 3.36-.72 4.11-2.08.75-1.36.96-3.26.97-5.69-.005-2.51-.235-4.43-1.005-5.79-.768-1.36-2.127-2.07-4.115-2.06H0V1.45h15.49c3.988 0 7.33.7 9.664 2.8 2.334 2.09 3.736 5.63 3.738 11.45-.003 5.424-1.507 8.916-3.957 11.076s-5.907 3.016-9.887 3.016H0z"/>
    </symbol>
    <symbol id="logo_sub">
      <path d="M303.9 785.06c-16.8-18.03-33.62-35.98-50.42-53.8-.18 4.84-.3 9.68-.38 14.53-.15 6-.2 14.3-.2 24.8 0 2.7 0 6.1.1 10.1l.18 12.6c.07 4.4.16 8.8.3 13.4.12 4.5.24 8.7.4 12.6.1 3.8.24 7.2.38 10.1.1 2.9.25 4.9.38 5.9-2.08-.3-4.33-.4-6.8-.4-2.57 0-4.96.1-7.16.4.26-1.3.55-3.7.87-7.2.33-3.5.6-7.7.87-12.5.26-4.9.53-10.1.87-15.8.3-5.7.5-11.4.7-17.1.2-5.7.3-11.3.5-16.7s.2-10.3.2-14.6c0-12.4-.1-23.1-.1-32-.1-8.9-.2-15.6-.5-20h3.1l25.3 27.5c8.8 9.6 17.8 19.3 26.7 28.9l25.2 26.9c7.9 8.4 14.9 15.7 20.8 21.6V778c0-13.6-.1-26.8-.3-39.7-.2-12.86-.6-25-1.3-36.35 2.6.63 4.8.95 6.6.95 1.5 0 3.6-.3 6.2-.95-.3 2.86-.6 7.1-.9 12.8-.4 6.1-.7 12.17-1 18.25-.4 6.46-.6 12.8-.9 19-.3 6.2-.4 11.2-.4 14.93v11.64c0 4.4 0 9 .1 13.75 0 4.8.1 9.6.2 14.46 0 4.85.1 9.38.2 13.57v17.4H351c-14.85-17.2-30.7-34.8-47.5-52.84zm89.7-57.8c-.34-8.2-.7-16.58-1.08-25.1 1.68.25 3.3.48 4.86.67 1.56.2 3.1.3 4.65.3 1.55 0 3.1-.1 4.67-.3 1.52-.2 3.15-.42 4.83-.67-.4 8.52-.75 16.9-1.06 25.1-.33 8.38-.5 16.75-.5 25.12v33.36c0 8.54.17 16.94.5 25.2.3 8.28.67 16.43 1.06 24.46-3.16-.28-6.33-.42-9.5-.4-3.36 0-6.52.13-9.5.4.37-8.03.73-16.18 1.07-24.45.3-8.27.47-16.67.47-25.2v-33.37c0-8.53-.16-16.9-.47-25.1zm54.9-.28c-.35-8.27-.7-16.54-1.1-24.82 5.84.25 11.6.48 17.37.67 5.75.2 11.54.3 17.36.3s11.58-.1 17.26-.3c5.6-.2 11.4-.42 17.2-.67-.4 1.9-.6 3.86-.6 5.8 0 1.96.2 3.9.6 5.84-4.2-.27-7.9-.52-11.4-.78s-7.1-.52-10.9-.77c-3.9-.26-8-.5-12.5-.7-4.6-.2-10-.28-16.3-.28-.2 4.15-.3 8.08-.5 11.83-.2 3.76-.3 8.02-.3 12.8 0 5.04 0 9.96.1 14.73 0 4.8.1 8.42.1 10.87 5.6 0 10.8-.05 15.3-.2 4.5-.13 8.6-.28 12.4-.48 3.7-.2 7.2-.38 10.4-.6 3.1-.18 6.1-.4 9-.66-.4 1.98-.6 4-.6 6 0 1.97.2 3.9.6 5.82-3.4-.38-7.3-.7-11.8-.96-4.5-.25-8.9-.4-13.4-.48-4.5-.06-8.7-.13-12.6-.2-3.2-.05-6.3-.08-9.4-.1 0 1.16-.1 2.44-.1 3.78-.1 1.72-.2 3.43-.2 5.14v19.2c0 7.38.1 13.46.1 18.24.1 4.78.2 8.4.3 10.85h13.6c4.9 0 9.7-.1 14.4-.3 4.7-.17 9.2-.44 13.4-.75 4.2-.34 7.8-.8 10.9-1.46-.3.9-.4 1.9-.5 3-.1 1.1-.1 2.1-.1 3 0 2.08.2 3.76.6 5.06-5.8-.27-11.6-.4-17.4-.4h-35c-5.8 0-11.7.13-17.7.4.4-8.27.7-16.53 1.1-24.74.3-8.2.4-16.58.4-25.1V752.2c0-8.4-.2-16.82-.5-25.22zm97.92.3c-.33-8.38-.68-16.75-1.05-25.12 4.88.25 9.77.48 14.63.67 4.84.2 9.7.3 14.64.3 4.9 0 9.8-.16 14.63-.5 4.86-.3 9.73-.47 14.64-.47 11.4 0 21.2 1.48 29.2 4.47 8.1 2.96 14.8 7.2 19.9 12.7 5.2 5.5 9 12.2 11.4 20.16 2.4 7.9 3.6 16.9 3.6 26.8 0 12.9-2.2 23.8-6.7 32.6-4.4 8.8-10.1 16-17 21.4-6.9 5.4-14.5 9.2-22.9 11.5-8.3 2.2-16.3 3.4-23.9 3.4-4.4 0-8.7-.1-13-.2-4.3-.2-8.6-.2-13-.2h-13c-4.2 0-8.6.1-13 .4.4-8.1.7-16.2 1.1-24.5.3-8.3.5-16.7.5-25.2v-33.3c0-8.6-.2-16.9-.5-25.1zm17.54 99.57c2.72.65 6.4 1.15 11.06 1.46 4.65.4 9.44.5 14.35.5 7.1 0 14.22-.8 21.33-2.5 7.13-1.6 13.48-4.8 19.1-9.5 5.64-4.6 10.22-11 13.78-19.1 3.55-8 5.35-18.5 5.35-31.3 0-11.2-1.4-20.5-4.2-27.7-2.76-7.2-6.57-12.9-11.43-17.1-4.84-4.2-10.64-7.1-17.36-8.7-6.72-1.6-14.1-2.4-22.1-2.4-5.8 0-11.25.2-16.3.6-5.03.4-9.56.9-13.58 1.4-.4 6.5-.68 13-.88 19.5-.18 6.9-.27 13.8-.28 20.7V786c0 13.94.4 27.65 1.16 41.1zm134.3-99.87c-.3-8.27-.67-16.54-1.06-24.82 5.83.25 11.62.48 17.36.67 5.75.2 11.54.3 17.36.3s11.58-.1 17.26-.3c5.7-.2 11.43-.42 17.26-.67-.78 3.84-.78 7.8 0 11.64-4.15-.27-7.92-.52-11.35-.78-3.5-.26-7.1-.52-10.9-.77-3.8-.26-8-.5-12.5-.7-4.6-.2-10-.28-16.3-.28-.1 4.15-.3 8.08-.5 11.83-.2 3.76-.3 8.02-.3 12.8 0 5.04 0 9.96.1 14.73.1 4.8.1 8.42.1 10.87 5.7 0 10.8-.05 15.3-.2 4.5-.13 8.6-.28 12.4-.48 3.7-.2 7.2-.38 10.4-.6 3.1-.18 6.1-.4 9-.66-.4 1.98-.6 4-.6 6 0 1.97.2 3.9.6 5.82-3.4-.38-7.3-.7-11.8-.96-4.5-.25-8.9-.4-13.4-.48-4.5-.06-8.7-.13-12.6-.2-3.2-.05-6.3-.08-9.4-.1 0 1.16 0 2.44-.1 3.78-.1 1.37-.1 3.08-.1 5.14v19.2c0 7.38 0 13.46.1 18.24.1 4.78.1 8.4.3 10.85h13.5c4.9 0 9.7-.1 14.4-.3 4.7-.17 9.2-.44 13.4-.75 4.2-.34 7.8-.8 10.9-1.46-.3.98-.5 2-.5 3-.1 1-.1 2-.1 3 0 2.08.2 3.76.6 5.06-5.8-.27-11.6-.4-17.4-.4h-35.2c-5.8 0-11.7.13-17.7.4.4-8.27.8-16.53 1.1-24.74.3-8.2.5-16.58.5-25.1V752.2c0-8.54-.2-16.94-.5-25.22zm97.95.3c-.3-8.22-.6-16.6-1-25.12 3.8.25 7.4.48 11.1.67 3.7.2 7.3.3 11.1.3s7.5-.16 11.1-.5c3.7-.3 7.4-.47 11.1-.47 5.5 0 10.6.52 15.6 1.55 4.9 1.1 9.2 2.8 12.9 5.2 3.7 2.4 6.6 5.6 8.7 9.4 2.2 3.9 3.2 8.8 3.2 14.6 0 6.3-1.4 11.6-4.1 16-2.8 4.5-6.1 8.2-10.2 11.1-4 2.9-8.3 5.2-12.8 6.8-4.6 1.7-8.7 2.7-12.5 3.2 1.5 2 3.7 4.7 6.4 8.2 2.7 3.5 5.7 7.4 9.1 11.6l10.4 13.2 10.5 13.2c3.1 3.9 6.3 7.8 9.5 11.6 3 3.5 5.4 6.2 7.2 8-1.9-.3-3.9-.4-5.8-.4H876c-1.94 0-3.8.1-5.6.4l-8.84-12.2c-3.95-5.4-8.3-11.2-13.1-17.4-4.8-6.2-9.67-12.4-14.6-18.5-5-6.1-9.5-11.3-13.7-15.6h-7.4v14c0 8.6.16 17 .47 25.2.33 8.3.7 16.5 1.1 24.5-3-.2-6.18-.4-9.5-.4-3.4 0-6.56.2-9.5.4.35-8 .7-16.1 1.02-24.4.3-8.3.5-16.7.5-25.2v-33.5c0-8.5-.2-16.9-.5-25.1zm22.3 36.95c2.2.1 4.5.17 7.1.17 4 0 8.2-.44 12.5-1.34 4.4-.92 8.3-2.5 12-4.76 3.7-2.26 6.7-5.3 9.1-9.12 2.4-3.8 3.6-8.62 3.6-14.45 0-5.04-.9-9.2-2.8-12.5-1.9-3.3-4.3-5.92-7.2-7.86-2.9-1.92-6.2-3.27-9.7-3.98-3.5-.7-6.9-1.1-10.3-1.1-4.5 0-8.3.1-11.2.3-3 .2-5.5.4-7.5.7l-.8 21.1c-.2 6.9-.4 13.9-.4 20.9v11c1.8.4 3.8.6 6 .8zm97.6 53.02c1.8 2.4 3.9 4.56 6.4 6.5 2.5 1.94 5.5 3.53 8.8 4.76 3.4 1.3 7.1 1.9 11.3 1.9 4.3 0 8.1-.7 11.6-2.2 3.4-1.5 6.4-3.5 8.8-6 2.4-2.5 4.3-5.5 5.6-8.9 1.3-3.4 2-7.1 2-10.9 0-5.9-1.5-10.6-4.5-14.1s-6.8-6.4-11.3-8.7c-4.5-2.3-9.4-4.4-14.6-6.4-5.2-1.9-10.1-4.3-14.6-7.2-4.5-2.9-8.3-6.6-11.3-11.1s-4.6-10.6-4.6-18.2c0-5.4 1-10.3 2.9-14.8 2-4.4 4.8-8.4 8.5-11.5 3.7-3.2 8.2-5.7 13.3-7.6 5.2-1.8 11-2.7 17.5-2.7 6.2 0 11.6.8 16.1 2.3 4.5 1.5 8.7 3.8 12.6 6.9-1.2 2.2-2.1 4.6-2.9 7-.8 2.5-1.6 5.6-2.3 9.3H973c-.65-1.8-1.53-3.8-2.63-5.9-1.1-2.1-2.6-4.1-4.42-5.9-1.9-1.8-4.12-3.4-6.7-4.6-2.6-1.2-5.7-1.8-9.32-1.8-3.6 0-6.9.6-9.94 1.8-3.1 1.2-5.7 2.8-8 5s-4 4.7-5.3 7.7-1.9 6.2-1.9 9.7c0 6.1 1.5 10.9 4.5 14.4s6.8 6.5 11.3 8.9c4.5 2.4 9.4 4.5 14.6 6.4 5.2 1.9 10.1 4.2 14.6 6.9s8.3 6.2 11.3 10.5c3.1 4.3 4.6 10 4.6 17.1 0 5.9-1.1 11.6-3.2 16.9-2.1 5.3-5.2 9.9-9.3 13.8-4.1 4-9.1 7-14.9 9.1-5.9 2.2-12.6 3.2-20.1 3.2-8 0-14.5-1.1-19.5-3.2s-9.2-4.5-12.5-7.2c1.1-2.9 1.9-5.6 2.4-8 .4-2.3.8-5.4 1.2-9.2h2.3c1.1 2.4 2.5 4.7 4.2 7.1zm156.8-93.27c3.6 8.7 7.4 17.54 11.1 26.46 3.8 8.87 7.5 17.73 11.3 26.57l10.6 24.6 9 20.3c2.7 6 4.9 10.5 6.5 13.6-1.7-.2-3.4-.4-5.1-.4H1106c-1.6 0-3.3.2-5.1.4-.9-3-2.14-6.5-3.7-10.7-1.6-4.4-3.34-8.8-5.13-13.2-1.85-4.6-3.8-9.2-5.7-13.9-1.92-4.7-3.75-9.2-5.43-13.4l-12.6-.3c-4.25 0-8.52-.1-12.8-.1-4 0-7.93.1-11.8.1l-11.84.3c-3.9 9.6-7.7 19.2-11.28 28.8-3.4 9.2-5.9 16.7-7.57 22.6-2.24-.2-4.6-.4-7.2-.4-2.6 0-5 .2-7.2.4 10.4-22.4 20.6-44.9 30.66-67.5 10.1-22.7 20.1-45.4 30.1-68.2h3.7l10 24.4zm-39.1-52.87c2-1.9 4.3-2.9 7-2.9 2.8 0 5.1 1 7 3 2 2 2.9 4.3 2.9 7s-.9 5.1-2.9 7c-1.9 2-4.2 2.9-7 2.9-2.7 0-5-.9-6.9-2.9-1.9-1.9-2.9-4.2-2.9-7 0-2.7 1-5 2.9-7zm1.6 104c3.4 0 6.9.1 10.5.2 3.7.1 7.1.2 10.5.2 3.6 0 7.2 0 10.9-.1 3.6 0 7.3-.2 10.9-.3l-21.5-49.2-21.1 49.3zm36.6-103.9c2-1.9 4.3-2.9 7-2.9s5.1 1 7 2.9c2 2 2.9 4.3 2.9 7s-.9 5.1-2.9 7c-1.9 2-4.2 2.9-7 2.9-2.7 0-5-.9-7-2.9-1.9-1.9-2.9-4.2-2.9-7 0-2.7 1-5 2.9-7zM1239.3 831c-2.5 1.2-5.54 2.3-9.1 3.3-3.56.97-7.52 1.84-11.92 2.6-4.4.8-9 1.18-13.8 1.18-10.22 0-19.66-1.4-28.33-4.3-8.66-2.9-16.1-7.33-22.4-13.3-6.26-5.92-11.2-13.2-14.72-21.8-3.55-8.6-5.32-18.4-5.32-29.34 0-11 1.8-20.8 5.4-29.4 3.5-8.57 8.5-15.86 14.9-21.8 6.4-5.95 14-10.5 23-13.57 8.9-3.12 18.7-4.7 29.5-4.7 8.5 0 16.3.88 23.3 2.6 7 1.78 13.3 3.88 18.7 6.3-1 1.85-1.9 4.3-2.5 7.4-.6 2.58-1.1 5.16-1.6 7.75l-1.2.4c-1.3-1.6-3.1-3.3-5.4-5.3-2.3-1.92-5-3.8-8.1-5.6-3.1-1.8-6.6-3.34-10.5-4.57-3.8-1.2-8.1-1.83-12.7-1.83-7.6 0-14.7 1.25-21.2 3.7-6.5 2.47-12.2 6.26-17.1 11.35-4.8 5.1-8.6 11.6-11.3 19.4-2.7 7.85-4.1 17.1-4.1 27.86 0 10.7 1.4 20 4.1 27.8 2.7 7.8 6.5 14.3 11.3 19.4 4.9 5.1 10.5 8.9 17.1 11.33 6.5 2.45 13.6 3.68 21.2 3.68 4.6 0 8.9-.55 12.9-1.72 4-1.2 7.6-2.57 10.9-4.2 3.3-1.65 6.3-3.4 9-5.26 2.6-1.9 4.9-3.54 6.7-4.96l.8.76-1.7 11.43c-1.2 1-3 2.2-5.5 3.4zm132.08-103.56c-.3-8.2-.7-16.6-1.08-25.1 1.7.24 3.3.47 4.84.66 1.56.2 3.1.3 4.67.3s3.1-.1 4.7-.3c1.6-.2 3.2-.44 4.9-.7-.4 8.5-.7 16.9-1.1 25.1-.3 8.4-.5 16.76-.5 25.1v33.4c0 8.53.2 16.93.5 25.2s.7 16.42 1.1 24.45c-3-.27-6.1-.4-9.5-.4-3.3 0-6.5.13-9.5.4.4-8.03.8-16.2 1.1-24.45.4-8.27.5-16.67.5-25.2v-17.5l-20.2-.3c-6.5-.04-13.3-.07-20.3-.07s-13.7.04-20.2.1c-6.5.07-13.3.17-20.3.3v17.5c0 8.52.2 16.92.5 25.2.3 8.26.7 16.4 1.1 24.44-3-.3-6.1-.4-9.5-.4-3.3 0-6.5.1-9.5.4.4-8.1.8-16.2 1.1-24.5.3-8.3.5-16.7.5-25.2v-33.4c0-8.54-.2-16.9-.5-25.1-.3-8.2-.7-16.6-1.1-25.1 1.7.24 3.3.5 4.9.7 1.6.2 3.1.3 4.7.3s3.1-.1 4.7-.3c1.6-.2 3.2-.46 4.9-.7l-1 25.1c-.3 8.4-.5 16.75-.5 25.1v6.8c7 .14 13.8.26 20.3.4 6.6.15 13.3.2 20.3.2s13.8-.05 20.3-.2l20.3-.36v-6.8c0-8.3-.1-16.7-.5-25.1zm55.26 89.98c1.7 2.4 3.9 4.58 6.4 6.5 2.5 1.96 5.4 3.55 8.8 4.78 3.33 1.24 7.1 1.85 11.2 1.85 4.28 0 8.1-.74 11.55-2.23 3.4-1.5 6.3-3.5 8.7-6.03 2.4-2.6 4.2-5.5 5.5-9 1.3-3.4 1.9-7.1 1.9-10.9 0-6-1.5-10.7-4.6-14.2s-6.9-6.4-11.4-8.8c-4.5-2.4-9.4-4.5-14.6-6.4-5.3-2-10.2-4.4-14.7-7.3-4.6-2.9-8.3-6.6-11.4-11.2-3.1-4.5-4.6-10.6-4.6-18.2 0-5.5 1-10.4 2.9-14.9 2-4.5 4.8-8.3 8.5-11.6 3.6-3.3 8.1-5.8 13.2-7.6 5.1-1.8 11-2.7 17.4-2.7 6.2 0 11.6.7 16.1 2.2 4.5 1.4 8.8 3.7 12.6 6.9-1.1 2.2-2.1 4.5-2.9 6.9-.8 2.4-1.5 5.5-2.3 9.3h-2.3c-.7-1.8-1.5-3.8-2.6-5.9-1.1-2.2-2.6-4.1-4.5-5.9-1.9-1.9-4.1-3.4-6.7-4.6-2.6-1.3-5.7-1.9-9.3-1.9-3.7 0-7 .6-10 1.8-3.1 1.1-5.7 2.8-8 4.9-2.3 2.2-4 4.7-5.3 7.7-1.2 3-1.9 6.2-1.9 9.7 0 6.1 1.5 10.9 4.5 14.4s6.8 6.4 11.3 8.8c4.5 2.4 9.4 4.5 14.6 6.4 5.2 1.9 10.1 4.2 14.6 6.9s8.3 6.2 11.3 10.5 4.5 10 4.5 17.1c0 5.9-1.1 11.6-3.2 16.9-2.1 5.2-5.3 9.9-9.3 13.9-4.1 3.9-9.1 6.9-15 9.1-5.9 2.1-12.6 3.2-20.1 3.2-8 0-14.5-1.1-19.5-3.2-5-2.2-9.2-4.6-12.5-7.3 1.1-3 2-5.7 2.4-8.1.4-2.4.9-5.5 1.3-9.2h2.3c1 2.3 2.4 4.7 4.2 7zm97.5-89.96c-.3-8.4-.7-16.8-1.06-25.1l4.86.6c1.54.2 3.1.3 4.64.3 1.55 0 3.1-.1 4.65-.3 1.57-.2 3.2-.4 4.87-.7-.4 8.5-.75 16.9-1.07 25.1-.3 8.4-.5 16.77-.5 25.1v33.38c0 8.54.2 16.94.5 25.2.3 8.3.7 16.43 1.1 24.46-3.18-.25-6.35-.4-9.5-.4-3.38 0-6.55.16-9.5.4.4-8 .72-16.15 1.04-24.42.33-8.25.48-16.65.48-25.2v-33.4c0-8.5-.14-16.9-.46-25.1zm55.3 89.9c1.75 2.4 3.9 4.56 6.4 6.5 2.5 1.94 5.46 3.5 8.8 4.76 3.38 1.22 7.1 1.83 11.26 1.83 4.24 0 8.1-.75 11.5-2.24 3.45-1.5 6.34-3.5 8.74-6 2.4-2.5 4.26-5.5 5.5-8.9 1.3-3.4 1.97-7 1.97-10.9 0-5.9-1.5-10.6-4.6-14.1-3-3.5-6.8-6.4-11.3-8.7-4.5-2.3-9.4-4.5-14.6-6.4-5.2-1.9-10.1-4.4-14.6-7.3-4.5-2.9-8.4-6.7-11.3-11.2-3.1-4.5-4.6-10.6-4.6-18.2 0-5.4 1-10.4 2.9-14.8 2-4.5 4.8-8.3 8.5-11.5 3.7-3.2 8.1-5.7 13.3-7.5 5.2-1.8 11-2.7 17.5-2.7 6.2 0 11.6.8 16.1 2.3 4.5 1.5 8.7 3.8 12.6 6.9-1.2 2.2-2.2 4.6-2.9 7-.8 2.5-1.6 5.6-2.3 9.3h-2.4c-.6-1.8-1.5-3.7-2.6-5.9-1.1-2.1-2.6-4.1-4.5-5.9-1.8-1.8-4.1-3.3-6.7-4.5-2.6-1.2-5.6-1.8-9.3-1.8-3.6 0-6.9.6-10 1.8-3 1.1-5.7 2.8-7.9 4.9-2.2 2.2-4 4.8-5.2 7.7-1.2 3-1.8 6.2-1.8 9.7 0 6.1 1.5 10.9 4.5 14.3 3.1 3.5 6.8 6.5 11.4 8.9 4.5 2.4 9.4 4.5 14.6 6.4 5.2 1.9 10.1 4.2 14.6 6.9s8.3 6.3 11.3 10.5 4.5 10 4.5 17.1c0 6-1 11.6-3.2 16.9-2.1 5.2-5.2 9.9-9.3 13.9-4 4-9 7-14.9 9.1-5.9 2.1-12.5 3.2-20 3.2-8 0-14.5-1.1-19.5-3.2-4.9-2.2-9.1-4.6-12.5-7.3 1.2-2.9 2-5.6 2.4-8 .5-2.4.9-5.4 1.3-9.2h2.4c1 2.3 2.4 4.7 4.2 7.1zm192.8 13.58c-2.55 1.2-5.6 2.3-9.1 3.3-3.6.97-7.6 1.84-12 2.6-4.4.8-8.96 1.2-13.75 1.2-10.2 0-19.7-1.47-28.4-4.36-8.7-2.9-16.1-7.33-22.4-13.3-6.3-5.92-11.2-13.2-14.7-21.8-3.5-8.6-5.3-18.4-5.3-29.36 0-11 1.8-20.8 5.3-29.4 3.5-8.57 8.5-15.86 14.9-21.8 6.4-5.95 14-10.5 23-13.57 8.9-3.13 18.7-4.7 29.4-4.7 8.5 0 16.3.9 23.4 2.64 7 1.7 13.3 3.8 18.7 6.3-1.1 1.8-1.9 4.3-2.5 7.4-.6 2.5-1.1 5.1-1.6 7.7l-1.2.4c-1.3-1.6-3.2-3.3-5.5-5.3-2.4-1.9-5.1-3.8-8.2-5.6-3.1-1.8-6.6-3.3-10.5-4.5-3.9-1.3-8.1-1.9-12.8-1.9-7.6 0-14.7 1.2-21.3 3.7-6.5 2.4-12.2 6.2-17.1 11.3-4.8 5.1-8.6 11.5-11.3 19.4-2.7 7.8-4.1 17.1-4.1 27.8s1.4 20 4.1 27.8c2.7 7.8 6.5 14.3 11.3 19.4 4.9 5.1 10.6 8.9 17.1 11.3 6.5 2.5 13.6 3.7 21.2 3.7 4.6 0 8.9-.6 12.9-1.8 3.9-1.2 7.5-2.6 10.8-4.2s6.3-3.4 8.9-5.3c2.6-1.9 4.8-3.6 6.7-5l.7.7-1.8 11.4c-1.2 1-3 2.2-5.6 3.4zm132.05-103.56c-.4-8.34-.7-16.7-1.1-25.1 1.7.27 3.3.5 4.8.7 1.5.2 3.1.3 4.6.3 1.5 0 3.1-.1 4.6-.3 1.5-.2 3.1-.4 4.8-.67-.4 8.4-.8 16.8-1.1 25.1-.3 8.4-.5 16.8-.5 25.1v33.4c0 8.6.2 17 .5 25.2.3 8.3.7 16.4 1.1 24.5-3-.2-6.1-.4-9.5-.4-3.4 0-6.5.2-9.5.4.4-8 .7-16.2 1.1-24.4.3-8.2.4-16.6.4-25.2v-17.5l-20.3-.3H1864l-20.3.1-20.25.3V786c0 8.5.12 16.9.44 25.2.3 8.3.7 16.4 1.1 24.43-3-.26-6.2-.4-9.6-.4-3.4 0-6.5.14-9.5.4.4-8.02.7-16.17 1-24.44.3-8.3.5-16.7.5-25.2v-33.4c0-8.6-.2-16.9-.5-25.1-.3-8.2-.7-16.6-1.1-25.1 1.7.2 3.3.5 4.8.7 1.5.2 3.1.3 4.6.3 1.6 0 3.2-.1 4.7-.3 1.6-.2 3.2-.5 4.9-.7-.4 8.5-.8 16.9-1.1 25.1-.3 8.4-.5 16.7-.5 25.1v6.8l20.2.3c6.5.1 13.3.2 20.2.2 6.9 0 13.7-.1 20.2-.2l20.2-.4v-6.8c0-8.6-.2-16.9-.5-25.1zm54.9-.3c-.4-8.23-.7-16.5-1.1-24.8 5.8.27 11.6.5 17.3.7 5.7.2 11.5.3 17.3.3 5.8 0 11.5-.1 17.2-.3 5.7-.2 11.4-.4 17.2-.67-.4 1.9-.6 3.9-.6 5.8 0 2 .2 3.9.6 5.9l-11.4-.8-10.9-.8c-3.8-.2-8-.5-12.5-.7-4.5-.2-9.9-.3-16.3-.3-.1 4.1-.3 8.1-.5 11.8s-.3 8-.3 12.8c0 5 0 9.9.1 14.7 0 4.8.1 8.4.1 10.9 5.7 0 10.8-.1 15.3-.2 4.5-.2 8.6-.3 12.4-.5s7.2-.4 10.4-.6c3.1-.2 6.1-.4 9-.7-.4 2-.6 4-.6 6s.1 3.9.5 5.8c-3.4-.4-7.3-.7-11.7-.9-4.5-.2-8.9-.4-13.4-.4l-12.6-.2c-3.1 0-6.3-.1-9.4-.1 0 1.2-.1 2.5-.1 3.8-.1 1.4-.1 3.1-.1 5.2V798c0 7.36 0 13.44.1 18.2 0 4.74.1 8.4.3 10.8h13.6c4.9 0 9.7-.1 14.4-.3 4.7-.16 9.2-.43 13.4-.74 4.2-.36 7.8-.8 10.9-1.5-.3.9-.5 1.9-.5 3-.1 1.1-.1 2.1-.1 3 0 2.1.2 3.8.6 5.1-5.8-.3-11.6-.4-17.4-.4h-35.2c-5.8 0-11.7.1-17.7.4.4-8.3.8-16.56 1.1-24.8.3-8.2.5-16.53.5-25.1v-33.3c0-8.5-.2-16.9-.5-25.2zm153.2 90.3c1.7 2.4 3.8 4.57 6.4 6.5 2.5 1.95 5.4 3.54 8.8 4.77 3.3 1.25 7.1 1.86 11.2 1.86 4.2 0 8.1-.7 11.5-2.2 3.4-1.5 6.3-3.5 8.7-6 2.4-2.5 4.2-5.5 5.5-8.9 1.3-3.4 1.9-7 1.9-10.9 0-5.9-1.5-10.6-4.6-14.1s-6.8-6.4-11.4-8.7c-4.5-2.3-9.4-4.5-14.6-6.4-5.2-1.9-10.1-4.4-14.6-7.3-4.6-2.9-8.3-6.6-11.4-11.1-3.1-4.5-4.6-10.6-4.6-18.2 0-5.4.9-10.3 2.9-14.8 1.9-4.4 4.8-8.3 8.4-11.5 3.7-3.2 8.1-5.7 13.3-7.6 5.2-1.8 11-2.7 17.4-2.7 6.2 0 11.5.8 16.1 2.2 4.5 1.5 8.7 3.8 12.6 6.9-1.2 2.2-2.2 4.6-3 7-.8 2.5-1.6 5.6-2.4 9.3h-2.4c-.6-1.8-1.5-3.7-2.6-5.9-1.1-2.1-2.6-4.1-4.5-5.9-1.9-1.8-4.1-3.3-6.7-4.5-2.6-1.3-5.7-1.9-9.3-1.9-3.7 0-7 .6-10 1.8-3.1 1.1-5.7 2.8-8 4.9-2.2 2.2-4 4.7-5.2 7.7-1.2 3-1.8 6.2-1.8 9.7 0 6.1 1.5 10.9 4.5 14.4s6.8 6.5 11.3 8.9c4.5 2.4 9.4 4.5 14.6 6.4 5.2 1.9 10.1 4.2 14.6 6.9 4.5 2.8 8.3 6.2 11.3 10.5 3.1 4.3 4.6 10 4.6 17.1 0 5.9-1.1 11.5-3.2 16.8-2.1 5.2-5.3 9.9-9.3 13.9-4.1 4-9.1 7-14.9 9.1-5.9 2.2-12.6 3.2-20.1 3.2-8.1 0-14.5-1.1-19.5-3.2s-9.2-4.5-12.6-7.2c1.2-3 2-5.7 2.4-8.1.44-2.3.86-5.4 1.26-9.2h2.3c1.05 2.4 2.44 4.7 4.2 7.1zm124.4-105c-3.4 0-6.9.04-10.6.1-3.7.06-7.4.18-11.1.4-3.7.2-7.3.42-10.7.7-3.4.25-6.5.6-9.2.95.6-2.33.9-4.4.9-6.2 0-1.43-.3-3.44-1-6 8.5.23 16.8.46 25 .65 8.1.2 16.5.3 25 .3s16.8-.1 25-.3c8.1-.2 16.5-.45 25-.7-.7 2.6-1 4.64-1 6.2 0 1.7.3 3.7.9 6-2.7-.38-5.8-.7-9.2-.96-3.6-.3-7.1-.5-10.7-.7-3.7-.2-7.4-.3-11.1-.4-3.7-.06-7.2-.1-10.6-.1-.4 13.4-.6 26.8-.6 40.14v33.36c0 8.53.2 16.93.5 25.2.3 8.3.7 16.42 1.1 24.45-3.2-.3-6.4-.4-9.5-.4-3.2 0-6.4.1-9.5.4.3-8.05.7-16.2 1-24.47.3-8.3.5-16.7.5-25.2v-33.4c0-13.45-.2-26.85-.6-40.16zm175.1 123.16c-1.7-.28-3.4-.4-5.2-.4h-10.3c-1.6 0-3.3.1-5.2.4-.9-3-2.2-6.6-3.7-10.8-1.7-4.4-3.4-8.8-5.2-13.2-1.9-4.56-3.8-9.2-5.8-13.94-1.8-4.5-3.7-8.94-5.4-13.44-4.2-.13-8.4-.23-12.6-.3-4.3-.05-8.6-.1-12.8-.1-4.1 0-8 .05-11.9.1-3.9.07-7.9.17-11.9.3-3.9 9.53-7.7 19.12-11.2 28.8-3.4 9.12-5.9 16.64-7.6 22.6-2.3-.27-4.6-.4-7.2-.4-2.6 0-5 .13-7.2.4 10.3-22.43 20.6-44.93 30.6-67.5 9.9-22.36 19.9-45.13 30-68.27h3.7c3.1 7.5 6.4 15.6 10.1 24.3 3.6 8.7 7.3 17.5 11 26.4 3.7 8.9 7.5 17.8 11.2 26.6s7.2 17 10.5 24.5l8.9 20.3c2.6 5.9 4.8 10.5 6.5 13.6zM2326 775.2c3.34 0 6.83.1 10.5.2 3.6.1 7.1.2 10.43.2 3.6 0 7.22 0 10.83-.1 3.6-.06 7.25-.16 10.87-.3l-21.5-49.25-21.13 49.3zm216.2 60.34c-1.7-.27-3.4-.4-5.1-.4h-10.3c-1.6 0-3.3.12-5.14.4-.9-3-2.1-6.58-3.7-10.78-1.6-4.42-3.3-8.8-5.1-13.2-1.86-4.57-3.8-9.22-5.7-13.95-1.9-4.7-3.75-9.2-5.4-13.5l-12.6-.3c-4.3 0-8.56-.1-12.8-.1-4 0-7.98.1-11.86.1l-11.83.3c-4.1 10.1-7.9 19.7-11.2 28.8-3.36 9.2-5.87 16.7-7.55 22.6-2.2-.2-4.6-.4-7.2-.4-2.6 0-4.96.2-7.16.4 10.4-22.4 20.6-44.9 30.66-67.5 10.1-22.7 20.14-45.4 30.07-68.2h3.7l10 24.3c3.6 8.7 7.3 17.6 11.1 26.5 3.7 8.9 7.5 17.8 11.2 26.6 3.7 8.8 7.3 17 10.5 24.6 3.3 7.6 6.3 14.3 8.9 20.3 2.7 6 4.8 10.5 6.5 13.6zm-85.9-60.34c3.38 0 6.88.07 10.5.2 3.6.1 7.1.2 10.47.2 3.6 0 7.24-.04 10.86-.1 3.6-.07 7.26-.2 10.87-.3l-21.56-49.27-21.14 49.3zm121.2-62.84c-3.34 0-6.86.03-10.54.1-3.62.05-7.3.17-11 .37-3.7.2-7.2.4-10.63.67-3.45.3-6.5.6-9.24 1 .6-2.37 1-4.4 1-6.2 0-1.47-.4-3.48-1-6 8.5.2 16.9.42 25 .6 8.1.2 16.5.3 25 .3s16.8-.1 25-.3c8.1-.2 16.5-.43 25-.7-.6 2.6-1 4.66-1 6.2 0 1.7.3 3.7.9 6-2.7-.36-5.8-.7-9.2-.94-3.4-.25-7-.48-10.7-.67-3.7-.2-7.4-.4-11.1-.4-3.7-.1-7.2-.1-10.6-.1-.4 13.3-.5 26.7-.5 40.1v33.3c0 8.5.2 16.9.5 25.2.3 8.2.7 16.4 1.1 24.4-3.2-.3-6.3-.4-9.5-.4-3.4 0-6.5.1-9.5.4.4-8.1.7-16.2 1.1-24.5.3-8.3.5-16.7.5-25.2v-33.4c0-13.5-.2-26.9-.6-40.2zm82.37 105c1.73 2.4 3.87 4.56 6.4 6.5 2.5 1.94 5.45 3.53 8.8 4.76 3.37 1.3 7.1 1.9 11.26 1.9 4.27 0 8.1-.7 11.55-2.2 3.4-1.5 6.33-3.5 8.7-6 2.4-2.5 4.24-5.5 5.54-8.9 1.3-3.43 1.96-7.1 1.96-10.97 0-5.95-1.53-10.66-4.57-14.16s-6.8-6.4-11.3-8.8c-4.5-2.3-9.4-4.4-14.6-6.4-5.2-1.9-10.1-4.3-14.6-7.3-4.5-2.9-8.4-6.7-11.3-11.2-3-4.6-4.5-10.6-4.5-18.3 0-5.4 1-10.4 2.9-14.8 1.9-4.5 4.8-8.3 8.4-11.6 3.7-3.3 8.2-5.8 13.3-7.6 5.2-1.8 11-2.7 17.5-2.7 6.2 0 11.6.7 16.1 2.2 4.5 1.5 8.7 3.8 12.6 6.9-1.2 2.2-2.1 4.5-2.9 6.9-.8 2.4-1.6 5.5-2.3 9.3h-2.3c-.6-1.8-1.5-3.8-2.6-5.9-1.1-2.2-2.6-4.1-4.4-5.9-1.8-1.9-4.1-3.4-6.7-4.6-2.5-1.3-5.6-1.9-9.3-1.9-3.6 0-6.9.6-10 1.8-3 1.1-5.6 2.8-7.9 4.9s-4 4.7-5.2 7.7c-1.2 3-1.8 6.2-1.8 9.7 0 6.1 1.5 10.9 4.5 14.3 3.1 3.5 6.9 6.4 11.4 8.8 4.5 2.4 9.4 4.5 14.6 6.4 5.2 1.9 10.1 4.2 14.7 6.9 4.5 2.7 8.3 6.2 11.3 10.5 3.1 4.3 4.6 10 4.6 17.1 0 5.9-1.1 11.5-3.2 16.8-2.1 5.2-5.3 9.9-9.3 13.8-4.1 3.9-9 7-14.9 9.1-5.9 2.1-12.6 3.2-20.1 3.2-8 0-14.5-1.1-19.5-3.2-5-2.2-9.1-4.6-12.5-7.3 1.2-3 2-5.7 2.4-8.1.5-2.4.9-5.4 1.3-9.2h2.3c1 2.3 2.4 4.7 4.2 7.1zm135.45-33.06v12H2747v-12h48.28zm183.9-61.5c-.1-10-.44-16.8-1-20.6 1.44.24 2.78.48 4.1.67 1.27.2 2.57.3 3.87.3 1.6 0 3.6-.3 5.8-.92-.4 4.54-.8 9.9-1.2 16.2-.4 6.27-.7 13-1 20.18l-.8 22.1c-.2 7.6-.5 14.9-.6 22.06-.1 8.6-1.4 16.4-3.9 23.2-2.5 6.8-6.1 12.6-10.8 17.4-4.7 4.8-10.4 8.4-17.2 10.9-6.8 2.4-14.5 3.7-23.3 3.7-19.4 0-33.5-4.4-42.3-13.2-8.8-8.8-13.2-22.7-13.2-41.7 0-6.1.1-11.5.5-16.2.3-4.7.4-9.6.4-14.5 0-10.9-.2-20.5-.4-28.9-.3-8.4-.5-15.5-.8-21.4 1.5.2 3.2.5 5 .6 1.7.2 3.4.3 5.1.3 1.4 0 2.8-.1 4.1-.3 1.4-.2 2.7-.5 4.2-.7-.3 2.8-.6 6.5-.8 11.1-.3 5.2-.6 10.4-.8 15.6-.3 5.8-.5 12.1-.6 18.8-.1 6.7-.2 13.7-.2 20.9 0 4.4 0 8.9.2 13.7.1 4.6.6 9.2 1.3 13.8.8 4.5 2 8.7 3.8 12.8 1.7 4.1 4.2 7.6 7.4 10.7s7.3 5.4 12.2 7.2c4.9 1.7 11 2.6 18.2 2.6 7.1 0 13-1.1 17.9-3.1 4.8-2.1 8.8-4.8 11.9-8.2 3.1-3.3 5.5-7.2 7.2-11.6 1.8-4.4 3-9 3.8-13.7.8-4.8 1.2-9.6 1.3-14.4.1-4.8.2-9.2.2-13.2 0-18.4-.1-32.5-.2-42.5zm112.7 62.3c-16.8-18-33.6-35.92-50.44-53.8-.15 3.6-.26 8.45-.4 14.53-.13 6.1-.2 14.36-.2 24.84 0 2.7.03 6.05.1 10.05l.2 12.6c.06 4.4.15 8.9.3 13.4.12 4.54.25 8.7.4 12.6.1 3.9.24 7.3.37 10.2.17 2.9.3 4.9.4 5.9-2.04-.25-4.3-.4-6.8-.4-2.6 0-5 .15-7.2.4.3-1.3.6-3.7.9-7.16.36-3.5.6-7.7.9-12.53.23-4.84.55-10.1.86-15.8.3-5.7.6-11.4.8-17.1.2-5.7.4-11.23.5-16.7s.2-10.23.2-14.5c0-12.4 0-23.1-.1-32 0-8.95-.2-15.6-.5-20h3.1l25.4 27.45c9 9.76 17.9 19.4 26.8 28.9l25.2 26.96c8 8.47 14.9 15.7 20.9 21.6v-26.3c0-13.53-.1-26.8-.2-39.62-.2-12.88-.6-25-1.3-36.37 2.6.6 4.8.9 6.6.9 1.6 0 3.6-.3 6.2-.97l-.9 12.8c-.3 5.68-.6 11.76-.9 18.22l-.9 19c-.2 6.2-.4 11.2-.4 14.93v11.65c0 4.4.1 9 .1 13.77l.2 14.4.2 13.57c.1 4.2.1 7.86.1 10.97v6.4h-2.7c-14.8-17.2-30.7-34.8-47.5-52.8zm89.7-57.8c-.36-8.2-.7-16.6-1.1-25.1 4.9.25 9.8.48 14.65.67 4.86.2 9.7.3 14.67.3 4.9 0 9.76-.1 14.6-.5 4.9-.3 9.74-.42 14.65-.42 11.4 0 21.1 1.5 29.2 4.5 8.1 2.96 14.7 7.2 19.9 12.7 5.2 5.5 8.9 12.2 11.3 20.16 2.4 8 3.6 16.9 3.6 26.9 0 12.9-2.2 23.8-6.7 32.7-4.5 8.9-10.1 16-17.1 21.5-7 5.5-14.6 9.3-22.9 11.6-8.4 2.3-16.4 3.4-24 3.4-4.4 0-8.7-.1-13-.2-4.3-.1-8.6-.2-13-.2h-13c-4.3 0-8.6.1-13 .4.4-8 .7-16.2 1.1-24.5.3-8.2.4-16.6.4-25.2v-33.4c0-8.5-.2-16.9-.5-25.1zm17.5 99.6c2.7.64 6.4 1.14 11.06 1.45 4.65.3 9.45.5 14.37.5 7.1 0 14.2-.9 21.4-2.6 7.1-1.66 13.5-4.84 19.1-9.5 5.6-4.64 10.2-11 13.74-19.1 3.5-8.06 5.3-18.52 5.3-31.3 0-11.26-1.4-20.5-4.2-27.75-2.8-7.2-6.6-12.93-11.5-17.14-4.9-4.2-10.6-7.1-17.4-8.7-6.7-1.6-14.1-2.43-22.1-2.43-5.8 0-11.3.2-16.3.6-5.1.4-9.6.87-13.6 1.4-.4 6.5-.7 13-.9 19.5-.2 6.87-.3 13.76-.3 20.64v33.32c0 13.9.4 27.6 1.1 41.1zM101.6 960.34c-.12-9.94-.45-16.8-.98-20.55l4.1.6c1.28.2 2.58.3 3.87.3 1.7 0 3.6-.3 5.8-1-.4 4.5-.8 9.9-1.2 16.2-.4 6.3-.7 13-1 20.1-.3 7.1-.6 14.5-.8 22.1-.3 7.5-.5 14.9-.6 22-.2 8.6-1.5 16.4-4 23.2-2.5 6.8-6.1 12.7-10.8 17.5-4.7 4.8-10.4 8.4-17.2 10.9-6.8 2.5-14.6 3.7-23.4 3.7-19.4 0-33.5-4.4-42.3-13.2-8.8-8.8-13.2-22.7-13.2-41.7 0-6.1.2-11.4.5-16.2.3-4.7.5-9.6.5-14.5 0-10.9-.2-20.5-.4-28.9-.3-8.4-.5-15.5-.8-21.4 1.5.2 3.2.4 5 .6 1.8.2 3.5.3 5 .3 1.4 0 2.8-.1 4.1-.3 1.4-.2 2.8-.5 4.2-.7-.3 2.8-.5 6.5-.8 11.1-.3 4.6-.5 9.8-.8 15.6-.3 6.3-.5 12.5-.6 18.8-.1 6.7-.2 13.7-.2 20.9 0 4.4.1 8.9.2 13.6.1 4.6.6 9.2 1.3 13.7.8 4.5 2 8.7 3.8 12.8 1.7 4 4.3 7.7 7.5 10.7 3.2 3 7.3 5.4 12.2 7.2 4.9 1.7 11 2.6 18.2 2.6 7.1 0 13.1-1 18-3.1 4.8-2.1 8.8-4.8 11.9-8.2 3.1-3.4 5.5-7.3 7.2-11.7s3-9 3.7-13.8c.8-4.8 1.2-9.6 1.3-14.3.2-4.8.2-9.2.2-13.2 0-18.4 0-32.5-.2-42.5zm112.67 62.35c-16.78-18-33.58-36-50.45-53.9-.12 3.6-.24 8.5-.38 14.5-.13 6.1-.17 14.3-.17 24.8 0 2.7.03 6.1.08 10.1.08 4 .13 8.2.2 12.6s.16 8.9.28 13.3l.4 12.6c.14 3.8.26 7.2.4 10.2.13 2.9.25 4.8.37 5.9-2.06-.3-4.32-.4-6.77-.4-2.6 0-5 .1-7.2.4.27-1.3.56-3.7.9-7.2.3-3.5.6-7.7.87-12.5.25-4.9.54-10.2.85-15.8.34-5.7.6-11.4.8-17.1.2-5.7.35-11.3.47-16.7.13-5.5.2-10.3.2-14.6 0-12.4-.04-23.1-.1-32-.06-8.9-.22-15.6-.5-20h3.1l25.33 27.4c9 9.8 17.9 19.4 26.76 28.9l25.2 26.9c8 8.5 14.9 15.7 20.9 21.6v-26.4c0-13.6-.1-26.8-.3-39.7-.2-12.9-.6-25-1.3-36.4 2.6.6 4.8.9 6.6.9 1.6 0 3.7-.3 6.2-1-.2 2.8-.5 7.1-.8 12.8-.3 5.7-.6 11.7-.9 18.2-.3 6.4-.6 12.8-.8 19-.2 6.2-.4 11.2-.4 14.9v11.6c0 4.4 0 9 .1 13.7l.2 14.4c.1 4.8.1 9.3.2 13.5.1 4.2.1 7.8.1 10.9v6.4H262c-14.9-17.2-30.74-34.8-47.56-52.9zm89.7-57.8c-.33-8.2-.7-16.6-1.07-25.1l4.83.6c1.56.2 3.1.3 4.65.3 1.56 0 3.1-.1 4.68-.3 1.6-.2 3.22-.4 4.83-.7-.4 8.5-.8 16.9-1.1 25.1-.3 8.4-.5 16.7-.5 25.1v33.3c0 8.5.1 16.9.4 25.2.3 8.2.7 16.4 1 24.4-3-.3-6.2-.4-9.5-.4-3.4 0-6.6.1-9.5.4.4-8 .7-16.2 1-24.5.3-8.3.4-16.7.4-25.2V990c0-8.54-.2-16.9-.5-25.1zm82.9 80.5c-4.5-11.4-9.08-22.7-13.68-34l-15-36.5c-4.9-11.8-9.8-23.6-14.7-35.3l5.2.6c1.7.2 3.3.2 4.8.2s3.1-.1 4.8-.3c1.6-.2 3.4-.4 5.2-.7 3 9 6.1 17.9 9.4 26.8 3.5 9.6 7.1 19.1 10.8 28.6l11.7 29.5c4 10 8.1 19.9 12.2 29.7 2.3-5.3 4.8-11.2 7.5-17.7 2.7-6.6 5.4-13.4 8.2-20.4 2.8-7 5.5-14.2 8.2-21.5l7.8-21.1c2.4-6.3 4.7-12.5 6.9-18.8 1.8-5 3.5-10.1 5.2-15.1 2.8.6 5.2 1 7.1 1 1.9 0 4.3-.3 7.1-1-9.9 22.2-19.6 44.5-29.1 66.9-9.2 21.9-18.2 44.1-26.7 66.3-2.2-.3-4.3-.4-6.4-.4-2.6 0-4.8.1-6.4.4-3.6-9.2-7.3-18.4-10.9-27.6zm102.3-80.9c-.34-8.3-.68-16.6-1.07-24.9 5.8.2 11.6.5 17.37.6 5.75.2 11.53.3 17.36.3 5.82 0 11.56-.1 17.26-.3 5.6-.2 11.4-.4 17.2-.7-.4 1.9-.6 3.8-.6 5.8 0 1.9.2 3.9.6 5.8-3.8-.3-7.6-.5-11.4-.8l-10.8-.8c-3.8-.3-8-.5-12.5-.7-4.5-.2-10-.3-16.3-.3-.2 4.1-.3 8-.5 11.8-.2 3.7-.3 8-.3 12.8 0 5 0 9.9.1 14.7 0 4.7.1 8.4.1 10.8 5.7 0 10.8-.1 15.3-.2s8.7-.3 12.4-.5l10.3-.6c3.1-.2 6.2-.4 9-.7-.4 1.9-.6 4-.6 6 0 1.9.2 3.8.6 5.8-3.4-.4-7.3-.7-11.8-1s-8.9-.4-13.4-.5l-12.6-.2c-4-.1-7.1-.1-9.4-.1 0 1.2-.1 2.5-.1 3.8-.1 1.7-.1 3.4-.1 5.1v19.2c0 7.3 0 13.4.1 18.2 0 4.8.1 8.4.3 10.9h13.5c4.9 0 9.7-.1 14.4-.3 4.7-.2 9.1-.4 13.3-.8 4.1-.3 7.8-.8 10.9-1.5-.3 1-.4 2-.5 3-.1 1.1-.1 2.1-.1 3 0 2.1.2 3.7.6 5-5.8-.3-11.6-.4-17.4-.4h-35.2c-5.9 0-11.7.1-17.7.4.4-8.3.7-16.5 1-24.7.3-8.2.5-16.6.5-25.1v-33.3c0-8.6-.2-17-.5-25.2zm97.94.3c-.3-8.2-.6-16.6-1-25.2 3.8.2 7.5.5 11.1.6 3.6.2 7.3.3 11.1.3s7.5-.2 11.1-.5c3.6-.3 7.3-.5 11.1-.5 5.4 0 10.6.5 15.5 1.5s9.2 2.8 12.9 5.2c3.7 2.4 6.6 5.5 8.7 9.4 2.1 3.9 3.2 8.7 3.2 14.5 0 6.2-1.4 11.5-4.1 16-2.7 4.4-6.1 8.1-10.2 11-4 2.9-8.3 5.2-12.8 6.8-4.6 1.6-8.8 2.7-12.5 3.2 2.2 2.7 4.3 5.4 6.5 8.1 2.7 3.5 5.7 7.3 9.1 11.5 3.4 4.2 6.9 8.6 10.5 13.2 3.6 4.6 7.1 9 10.5 13.2 3.1 3.9 6.3 7.7 9.5 11.5 3 3.5 5.4 6.1 7.2 8-1.9-.3-3.8-.4-5.8-.4H667c-1.95 0-3.8.1-5.63.4-1.9-2.7-4.86-6.8-8.8-12.2-3.94-5.5-8.32-11.3-13.1-17.5-4.8-6.3-9.7-12.4-14.63-18.5-5-6.1-9.55-11.3-13.7-15.6h-7.4v14.2c0 8.5.17 16.9.5 25.2.3 8.3.68 16.4 1.06 24.4-2.94-.2-6.1-.4-9.5-.4-3.33 0-6.5.2-9.5.4.4-8 .77-16.1 1.1-24.4.4-8.4.5-16.8.5-25.2v-33c0-8.4-.13-16.8-.5-25.1zm22.3 36.9c2.2.1 4.5.2 7.1.2 4.1 0 8.2-.5 12.6-1.4 4.4-.9 8.3-2.5 12-4.8 3.6-2.3 6.6-5.3 9-9.1 2.4-3.8 3.6-8.6 3.6-14.5 0-5-.9-9.2-2.8-12.5-1.9-3.3-4.3-5.9-7.3-7.9s-6.2-3.3-9.7-4c-3.5-.7-6.9-1.1-10.3-1.1-4.5 0-8.3.1-11.2.3-2.5.1-5 .3-7.5.6-.3 7.1-.5 14.1-.8 21.1-.2 6.9-.4 13.9-.4 20.9v11.1c1.8.4 3.8.6 5.9.8zm97.6 53c1.8 2.4 4 4.6 6.4 6.5 2.5 1.9 5.5 3.5 8.8 4.7 3.4 1.2 7.1 1.8 11.3 1.8 4.3 0 8.1-.8 11.6-2.2 3.4-1.5 6.3-3.5 8.7-6 2.4-2.6 4.3-5.5 5.6-9 1.3-3.5 2-7.1 2-11 0-6-1.5-10.7-4.5-14.2s-6.8-6.4-11.3-8.7c-4.5-2.3-9.4-4.5-14.6-6.4-5.2-2-10.1-4.4-14.6-7.3-4.5-2.9-8.3-6.6-11.3-11.2-3-4.5-4.5-10.6-4.5-18.2 0-5.5 1-10.4 2.9-14.9s4.8-8.3 8.5-11.6c3.7-3.2 8.1-5.7 13.3-7.5 5.2-1.9 11-2.7 17.5-2.7 6.2 0 11.6.7 16.1 2.2 4.5 1.5 8.7 3.8 12.6 6.8-1.2 2.3-2.2 4.6-2.9 7-.8 2.5-1.6 5.6-2.3 9.3H764c-.63-1.8-1.5-3.7-2.6-5.9-1.1-2.1-2.6-4.1-4.5-5.9-1.84-1.8-4.1-3.3-6.64-4.5-2.6-1.3-5.7-1.9-9.3-1.9s-7 .6-10 1.7c-3.04 1.1-5.7 2.8-7.95 4.9-2.2 2.1-4 4.7-5.2 7.6-1.2 3-1.8 6.2-1.8 9.7 0 6.1 1.5 10.8 4.6 14.3 3 3.5 6.8 6.4 11.3 8.8 4.5 2.4 9.4 4.5 14.7 6.4 5.2 1.9 10.1 4.1 14.6 6.9 4.5 2.7 8.3 6.2 11.4 10.4 3.1 4.3 4.6 9.9 4.6 17.1 0 6-1 11.6-3.2 16.9-2 5.2-5.2 9.9-9.3 13.8-4.1 3.9-9 7-14.9 9.1-5.9 2.1-12.6 3.2-20 3.2-8 0-14.5-1.1-19.5-3.2-4.9-2.1-9.1-4.6-12.5-7.3 1.2-2.9 2-5.6 2.4-8 .5-2.4.9-5.5 1.3-9.2h2.3c1.1 2.3 2.5 4.7 4.2 7.1zm97.6-90c-.3-8.2-.6-16.6-1-25.1 1.7.2 3.3.5 4.9.6 1.6.2 3.1.3 4.7.3s3.1-.1 4.7-.3c1.6-.2 3.2-.4 4.8-.7-.3 8.3-.7 16.7-1 25.1-.3 8.4-.5 16.7-.5 25.1v33.4c0 8.5.2 16.9.5 25.2s.7 16.4 1 24.4c-2.9-.3-6.1-.4-9.5-.4-3.3 0-6.5.1-9.5.3.4-8 .8-16.2 1.1-24.5.3-8.3.5-16.7.5-25.2v-33.4c0-8.5-.1-16.9-.4-25.1zm81.8-15c-3.3 0-6.9 0-10.6.1-3.7 0-7.4.2-11 .3-3.7.2-7.2.4-10.6.7-3 .2-6.1.5-9.2.9.7-2.3 1-4.4 1-6.2 0-1.4-.3-3.4-1-6 8.5.2 16.9.5 25 .6 8.2.2 16.5.3 25.1.3 8.5 0 16.9-.1 25-.3 8.1-.2 16.5-.4 25-.7-.6 2.6-1 4.6-1 6.2 0 1.7.3 3.7 1 6-2.7-.4-5.8-.7-9.2-1-3.4-.3-7-.5-10.7-.7-3.7-.2-7.4-.3-11.1-.4-3.7 0-7.2-.1-10.5-.1-.4 13.3-.6 26.7-.6 40.2v33.4c0 8.5.2 16.9.5 25.2s.7 16.4 1.1 24.4c-2.9-.3-6.1-.4-9.5-.4-3.3 0-6.5.1-9.5.4.4-8 .8-16.2 1.1-24.4.4-8.3.5-16.7.5-25.2v-33c0-13.5-.2-26.9-.6-40.2zm141.2 11.7l11.1 26.4c3.8 8.9 7.5 17.7 11.3 26.6 3.8 8.8 7.3 16.9 10.6 24.5l8.9 20.3c2.7 5.9 4.8 10.5 6.5 13.5-1.7-.3-3.4-.4-5.1-.4h-10.2c-1.6 0-3.3.1-5.1.4-.9-3-2.1-6.6-3.6-10.8-1.6-4.5-3.4-8.9-5.1-13.2-1.9-4.6-3.8-9.3-5.7-14l-5.4-13.5c-4.2-.2-8.4-.3-12.6-.3-4.2-.1-8.5-.1-12.8-.1-4 0-7.9 0-11.8.1-3.9 0-7.8.1-11.8.3-3.9 9.5-7.6 19.1-11.2 28.8-3.3 9.1-5.9 16.6-7.5 22.6-2.2-.3-4.6-.4-7.2-.4-2.6 0-5 .1-7.2.4 10.4-22.4 20.6-44.9 30.6-67.5 10.1-22.7 20.2-45.5 30.1-68.3h3.7c3.1 7.5 6.5 15.6 10.1 24.3zm-39.2-52.9c2-2 4.3-2.9 7-2.9s5 .9 7 2.9c2 1.9 2.9 4.2 2.9 7 0 2.7-.9 5-2.9 6.9-1.9 1.9-4.2 2.9-7 2.9-2.7 0-5-1-6.9-2.9-2-1.9-2.9-4.3-2.9-7s.9-5.1 2.9-7zm1.6 103.9c3.4 0 6.9 0 10.5.2 3.6.1 7.1.2 10.5.2 7.3 0 14.5-.2 21.7-.4l-21.7-49-21.1 49.2zm36.7-104c2-1.9 4.3-2.9 7-2.9s5 1 7 2.9 3 4.2 3 6.9-1 5-3 6.9c-1.9 2-4.3 3-6.9 3-2.7 0-5-1-7-2.9-1.9-1.9-2.9-4.3-2.9-7s1-5.1 2.9-7zm98.9 41.1c-3.3 0-6.9.1-10.5.1-3.7.1-7.4.2-11 .4-3.7.2-7.2.5-10.7.7-3.1.2-6.1.6-9.2 1 .7-2.3 1-4.4 1-6.2 0-1.4-.3-3.4-1-6 8.6.3 16.9.5 25.1.7 8.2.2 16.5.2 25 .2 8.6 0 16.9-.1 25-.3 8.2-.2 16.5-.4 25-.7-.6 2.5-.9 4.6-.9 6.2 0 1.6.3 3.6 1 6-3.1-.4-6.1-.8-9.2-1-3.6-.3-7.1-.5-10.7-.7-3.7-.2-7.4-.3-11-.4-3.7-.1-7.2-.1-10.6-.1-.4 13.3-.6 26.7-.6 40.1v33.4c0 8.5.2 16.9.5 25.2.3 8.2.7 16.4 1.1 24.4-2.9-.3-6.1-.4-9.5-.4-3.3 0-6.5.1-9.5.3.4-8 .8-16.1 1.1-24.4.3-8.3.5-16.7.5-25.2v-33c0-13.5-.2-26.9-.6-40.2zm82.4 105.1c1.7 2.3 3.9 4.5 6.4 6.4 2.5 1.9 5.5 3.5 8.8 4.8 3.4 1.2 7.1 1.8 11.3 1.8 4.2 0 8.1-.7 11.5-2.2 3.4-1.5 6.3-3.5 8.7-6 2.4-2.5 4.3-5.5 5.6-8.9 1.3-3.4 1.9-7.1 1.9-11 0-5.9-1.5-10.6-4.5-14.1s-6.8-6.4-11.3-8.8c-4.8-2.4-9.7-4.6-14.7-6.4-5.2-1.9-10.1-4.4-14.6-7.3-4.5-2.9-8.3-6.6-11.4-11.2-3-4.5-4.5-10.6-4.5-18.2 0-5.5 1-10.4 2.9-14.9s4.8-8.3 8.4-11.6c3.7-3.2 8.2-5.8 13.3-7.6 5.2-1.9 11-2.8 17.5-2.8 6.2 0 11.6.7 16.1 2.2 4.5 1.5 8.7 3.8 12.6 6.9-1.2 2.2-2.2 4.6-2.9 7-.8 2.5-1.6 5.5-2.3 9.3h-2.3c-.6-1.8-1.5-3.8-2.6-5.9-1.1-2.1-2.6-4.1-4.5-5.9-1.9-1.8-4.1-3.3-6.7-4.6-2.6-1.3-5.7-1.9-9.3-1.9-3.6 0-6.9.6-10 1.7-3 1.1-5.6 2.8-7.9 4.9-2.2 2.1-4 4.7-5.2 7.6-1.2 3-1.8 6.2-1.8 9.7 0 6.1 1.5 10.9 4.6 14.4s6.8 6.5 11.4 8.8c4.5 2.4 9.4 4.5 14.6 6.4 5.2 1.9 10.1 4.2 14.6 6.9 4.5 2.6 8.3 6.2 11.3 10.5 3.1 4.2 4.6 9.9 4.6 17 0 5.9-1 11.5-3.2 16.8-2.1 5.3-5.2 10-9.3 13.9-4 3.9-9 7-14.9 9.1-5.9 2.1-12.6 3.2-20.1 3.2-8 0-14.5-1.1-19.5-3.2s-9.1-4.5-12.5-7.3c1.2-2.9 2-5.6 2.4-8 .5-2.4.9-5.5 1.3-9.2h2.4c1 2.3 2.4 4.7 4.2 7.1zm97.6-90.3c-.3-8.3-.7-16.6-1.1-24.8 3.4.2 6.8.5 10.3.7 3.4.2 6.9.3 10.3.3 3.4 0 6.8-.2 10.3-.5 3.5-.3 7-.5 10.3-.5 5.6 0 10.8.4 15.7 1.2 4.9.8 9.3 2.3 13 4.5 3.8 2.1 6.7 5 8.9 8.6 2.2 3.6 3.3 8.1 3.3 13.6 0 9.6-3 17.1-9 22.5-6 5.4-13.8 9.2-23.5 11.4v.4c11.5.5 20.6 3.3 27.2 8.3 6.7 5.1 10 13.2 10 24.3 0 7.2-1.5 13.3-4.4 18.2-3 4.9-6.9 8.9-11.6 11.9-4.8 3-10.1 5.1-15.8 6.4-5.6 1.2-11.4 1.8-17.2 1.8-3.1 0-6.2-.1-9.4-.2-3.1-.1-6.2-.2-9.4-.2h-9.4c-3.1 0-6.3.1-9.4.4.4-8.3.8-16.5 1.1-24.7.3-8.2.5-16.6.5-25.1v-33.3c0-8.6-.2-17-.5-25.2zm40.3 33.3c4.5-.9 8.5-2.4 12-4.6s6.4-5 8.5-8.5c2.2-3.6 3.2-8.1 3.2-13.5 0-5.3-.9-9.6-2.9-12.7s-4.4-5.7-7.4-7.4c-3-1.8-6.3-2.9-10-3.5-3.7-.6-7.5-.9-11.2-.9-3.3 0-6.2.1-8.5.3-2.3.2-4.4.4-6.2.6l-.8 18.5c-.2 6.1-.4 12.3-.4 18.4V999h10.5c4.5 0 9-.42 13.5-1.32zm-23.5 47.9c.3 6.5.5 13 .8 19.6 2.5.3 5.4.5 8.7.7 3.4.2 6.8.3 10.3.3 4.2 0 8.1-.7 12-2.2 3.8-1.4 7.2-3.5 10-6.3 2.9-2.8 5.1-6.2 6.8-10.3 1.7-4.1 2.6-8.7 2.6-13.9 0-5.6-1-10.1-3-13.7-2-3.6-4.9-6.4-8.7-8.4s-8.2-3.4-13.5-4.2c-5.2-.8-11.1-1.2-17.5-1.2h-8.7v19.8c0 6.6.1 13.1.4 19.6zm102.7-81c-.3-8.2-.6-16.6-1-25.1l4.9.6c1.6.2 3.1.3 4.7.3s3.1-.1 4.7-.3c1.6-.2 3.2-.4 4.9-.7-.4 8.5-.8 16.9-1.1 25.1-.3 8.2-.5 16.6-.5 25.1v33.4c0 8.5.2 16.9.5 25.2s.7 16.4 1.1 24.4c-3-.3-6.1-.4-9.5-.4-3.3 0-6.5.1-9.5.4.4-8 .8-16.2 1.1-24.5.4-8.4.5-16.8.5-25.2v-33c0-8.6-.1-16.9-.5-25.1zm54.9-.3c-.3-8.3-.7-16.6-1.1-24.9 3.4.2 6.8.5 10.3.6 3.5.2 7 .2 10.3.2 3.4 0 6.8-.1 10.3-.5 3.5-.3 7-.5 10.3-.5 5.6 0 10.8.4 15.7 1.2 4.9.8 9.3 2.3 13 4.4 3.8 2.1 6.7 5 8.9 8.6 2.2 3.6 3.3 8.1 3.3 13.6 0 9.6-3 17.1-9 22.5-6 5.4-13.9 9.2-23.6 11.4v.4c11.5.6 20.6 3.3 27.3 8.4s10 13.1 10 24.2c0 7.2-1.5 13.3-4.4 18.2-3 4.9-6.8 8.9-11.6 12-4.8 3-10 5.1-15.8 6.4-5.6 1.2-11.4 1.8-17.1 1.8-3.1 0-6.3-.1-9.5-.2-3.1-.2-6.3-.2-9.4-.2h-9.4c-3.2 0-6.3.1-9.4.4.4-8.3.8-16.5 1.1-24.8.3-8.2.5-16.6.5-25.1V989c0-8.53-.2-16.9-.5-25.2zm40.4 33.3c4.5-.9 8.5-2.4 12-4.5 3.5-2.2 6.3-5 8.5-8.6 2.2-3.6 3.2-8.1 3.2-13.5 0-5.3-.9-9.6-2.9-12.7-1.9-3.2-4.4-5.7-7.4-7.4-2.9-1.8-6.3-2.9-10-3.5-3.7-.6-7.5-.9-11.2-.9-3.3 0-6.2.1-8.5.3-2.1.1-4.1.3-6.2.6l-.8 18.5c-.3 6.1-.4 12.3-.4 18.4V999h10.4c4.6 0 9-.45 13.5-1.35zm-23.5 47.9l.7 19.6c2.5.3 5.3.5 8.7.7 3.4.2 6.8.3 10.3.3 4.2 0 8.1-.7 11.9-2.2 3.8-1.4 7.2-3.5 10-6.3 2.9-2.8 5.1-6.2 6.8-10.3 1.7-4.1 2.5-8.7 2.5-13.9 0-5.6-1-10.1-3-13.7-2-3.5-4.9-6.3-8.6-8.3s-8.3-3.4-13.5-4.2c-5.3-.8-11.1-1.1-17.6-1.1h-8.7v19.8c0 6.6.1 13.1.4 19.6zm102.7-81c-.4-8.2-.7-16.6-1.1-25.1 1.7.2 3.3.5 4.8.7 1.6.2 3.1.3 4.7.3s3.1-.1 4.7-.2c1.6-.2 3.2-.4 4.9-.7-.4 8.3-.7 16.7-1 25.1-.4 8.4-.5 16.7-.5 25.1 0 16.3 0 30.4.2 42.4l.3 32.1c9.2 0 18-.1 26.4-.3 8.4-.2 17.4-1 27.1-2.3-.6 2.3-.9 4.2-.9 5.8 0 1.4.3 3.1 1 5.2-5.9-.3-11.9-.4-17.8-.4h-36c-6 0-11.9.1-17.9.4.4-8 .8-16.2 1.1-24.4.4-8.3.5-16.7.5-25.3v-33c0-8.6-.1-16.9-.5-25.1zm97.9 0c-.3-8.2-.7-16.6-1.1-25.1 1.7.2 3.3.5 4.9.7 1.6.2 3.1.3 4.7.3s3.1-.1 4.7-.2c1.6-.2 3.2-.4 4.9-.7-.4 8.5-.8 16.9-1.1 25.1-.3 8.4-.5 16.7-.5 25.1v33.4c0 8.5.2 16.9.5 25.2.3 8.2.7 16.4 1.1 24.4-3-.3-6.2-.4-9.5-.4-3.4 0-6.5.1-9.5.4.4-8 .7-16.2 1.1-24.4.3-8.3.5-16.7.5-25.3v-33c0-8.6-.1-16.9-.4-25.1zm49.8 12.4c3.6-8.6 8.5-15.9 14.9-21.8 6.4-6 14.1-10.5 23-13.6 8.9-3.1 18.7-4.7 29.3-4.7 10.7 0 20.6 1.6 29.5 4.6 8.9 3.1 16.6 7.6 23 13.6 6.4 5.9 11.4 13.2 14.9 21.8 3.6 8.6 5.3 18.4 5.3 29.4s-1.7 20.7-5.3 29.3c-3.5 8.6-8.5 15.9-14.9 21.8-6.4 6-14.1 10.4-23 13.3-8.9 2.9-18.7 4.4-29.5 4.4-10.6 0-20.3-1.5-29.3-4.4-8.9-2.9-16.6-7.4-23-13.3-6.4-6-11.3-13.2-14.9-21.8-3.5-8.6-5.3-18.4-5.3-29.4s1.8-20.8 5.3-29.4zm116.8 1.6c-2.7-7.8-6.5-14.3-11.3-19.4-4.8-5.1-10.5-8.9-17-11.3-6.5-2.5-13.6-3.7-21.2-3.7-7.5 0-14.5 1.2-21 3.6-6.5 2.4-12.2 6.2-17 11.3-4.8 5.1-8.6 11.6-11.3 19.4-2.7 7.8-4 17.1-4 27.8s1.3 20 4 27.9c2.8 7.8 6.5 14.3 11.4 19.3 4.8 5.1 10.5 8.9 17 11.4 6.6 2.5 13.6 3.7 21.1 3.7 7.6 0 14.7-1.2 21.3-3.7 6.6-2.4 12.3-6.2 17.1-11.4 4.9-5.1 8.7-11.6 11.4-19.4 2.7-7.8 4.1-17.1 4.1-27.8 0-10.8-1.3-20-4-27.9zm70.4-29c-3.3 0-6.9 0-10.5.1-3.7.1-7.4.2-11.1.4-3.7.2-7.2.4-10.7.7-3.4.3-6.5.6-9.2 1 .7-2.4 1-4.4 1-6.2 0-1.4-.3-3.5-.9-6l25 .6c8.2.2 16.5.3 25.1.3 8.5 0 16.9-.1 25-.3 8.2-.2 16.5-.4 25-.7-.6 2.6-.9 4.7-.9 6.2 0 1.7.3 3.7 1 6-3.1-.4-6.1-.7-9.2-.9-3.4-.3-7-.5-10.7-.7-3.7-.2-7.3-.3-11-.4-3.7-.1-7.2-.1-10.6-.1-.3 13.3-.5 26.7-.5 40.1v33.4c0 8.5.2 16.9.5 25.2s.7 16.4 1 24.4c-3-.2-6.1-.4-9.5-.4-3.4 0-6.5.1-9.5.3.4-8 .8-16.2 1.1-24.4.3-8.4.5-16.8.5-25.2v-33c0-13.5-.2-26.9-.6-40.2zm178.8 15.1c-.3-8.2-.6-16.6-1-25.1 1.7.3 3.3.5 4.8.7 1.5.2 3.1.3 4.6.3 1.5 0 3.1-.1 4.6-.3 1.6-.2 3.2-.4 4.9-.7-.4 8.5-.7 16.9-1 25.1-.3 8.4-.5 16.7-.5 25.1v33.3c0 8.5.2 16.9.5 25.2.3 8.2.7 16.4 1.1 24.4-3-.3-6.1-.4-9.5-.4-3.4 0-6.5.1-9.5.3.4-8 .8-16.2 1.1-24.4.4-8.3.5-16.7.5-25.2v-17.5c-7-.1-13.7-.3-20.2-.3-6.6-.1-13.3-.1-20.3-.1s-13.7 0-20.3.1c-6.5 0-13.3.2-20.2.3v17.5c0 8.5.2 16.9.5 25.2.3 8.2.7 16.4 1.1 24.4-3-.2-6.1-.4-9.5-.4-3.4 0-6.5.2-9.5.4.4-8 .7-16.1 1.1-24.4.3-8.3.5-16.7.5-25.2v-33c0-8.6-.2-16.9-.5-25.1-.3-8.4-.7-16.8-1.1-25.2 1.7.3 3.3.5 4.9.7 1.6.2 3.1.3 4.7.3s3.1-.1 4.7-.3c1.6-.2 3.2-.4 4.9-.7l-1 25.1c-.3 8.4-.5 16.7-.5 25.1v6.8l20.3.4c13.5.2 27.1.2 40.6 0l20.3-.4V990c0-8.53-.1-16.9-.5-25.1zm54.9-.3c-.3-8.3-.6-16.5-1-24.8 5.8.2 11.6.5 17.4.6 5.8.2 11.5.3 17.4.3 5.8 0 11.5-.1 17.2-.3 5.7-.2 11.5-.4 17.3-.7-.4 1.9-.5 3.9-.5 5.8s.2 3.9.6 5.8l-11.3-.8-10.9-.8c-3.8-.3-8-.5-12.5-.7-4.5-.2-9.9-.3-16.3-.3-.1 3.9-.3 7.9-.5 11.8-.2 3.7-.2 8-.2 12.8 0 5 0 9.9.1 14.7 0 4.7.1 8.4.1 10.8 5.7 0 10.8-.1 15.3-.2s8.7-.3 12.4-.5c3.5-.1 6.9-.3 10.4-.6l9-.6c-.4 2-.6 4-.6 6 0 1.9.2 3.9.6 5.8-3.4-.4-7.3-.7-11.8-1s-8.9-.4-13.4-.5l-12.6-.2c-3.9 0-7.1-.1-9.4-.1 0 1.3 0 2.6-.1 3.8-.1 1.4-.1 3.1-.1 5.2v19.2c0 7.4 0 13.5.1 18.2.1 4.8.2 8.4.3 10.8h13.6c4.9 0 9.8-.1 14.5-.3 4.7-.2 9.2-.5 13.4-.8 4.2-.3 7.9-.8 11-1.4-.3.9-.4 1.9-.5 3s-.1 2.1-.1 3c0 2.1.2 3.8.6 5.1-5.7-.3-11.5-.4-17.3-.4H2185c-5.8 0-11.7.1-17.64.3.4-8.3.8-16.5 1.1-24.8.3-8.2.5-16.6.5-25.1V989c0-8.57-.2-16.96-.5-25.2zm98 84c.3-8.3.5-16.7.5-25.2v-33c0-8.6-.2-16.9-.5-25.1-.3-8.3-.7-16.6-1.1-25.2 1.7.2 3.3.5 4.9.6 1.6.2 3.1.3 4.7.3s3.1-.1 4.7-.3c1.6-.2 3.2-.4 4.9-.7-.4 8.5-.7 16.9-1 25.1-.3 8.4-.5 16.7-.5 25.1v10.6c0 1 .4 1.5 1.2 1.5.6 0 1.4-.6 2.7-1.8 4.5-3.9 9.3-8.3 14.3-13.2 5-4.9 10-10 15-15.3 5.1-5.4 10.1-10.8 15-16.2 4.9-5.5 9.7-10.9 14.2-16 1.5.2 2.8.5 4.1.6 1.3.2 2.6.3 3.9.3 1.6 0 3.1-.1 4.7-.3 1.6-.2 3.1-.4 4.7-.7-4.5 3.8-9.6 8.4-15.3 13.7-5.8 5.3-11.5 10.8-17.2 16.3-5.6 5.3-11 10.8-16.5 16.3-5.2 5.3-9.6 10-13.1 14 10.7 11.9 21.2 23.9 31.7 35.9 10.8 12.3 21.6 24.6 32.5 36.8-1.9-.3-3.9-.4-5.8-.4H2347c-1.72 0-3.5.1-5.3.4-4.67-5.3-9.8-11.4-15.43-18.3-5.45-6.7-10.94-13.3-16.46-19.9-4.8-5.8-9.7-11.5-14.5-17.3-4.3-5.1-7.5-8.7-9.6-10.8-1-1-1.8-1.5-2.3-1.5-.7 0-1 .4-1 1.2v16.9c0 8.5.2 16.9.5 25.2.3 8.2.7 16.4 1.1 24.4-2.9-.3-6.1-.4-9.5-.4-3.3 0-6.5.1-9.5.4.4-8 .8-16.2 1.1-24.5zm278.7-92.1c-2.9-2.4-6.1-4.4-9.7-6.2-3.5-1.7-7.5-3.2-11.8-4.3-4.3-1.1-8.9-1.7-13.8-1.7-8 0-15.5 1.2-22.4 3.7-6.9 2.4-12.9 6.2-18 11.3-5.1 5.1-9.1 11.5-12 19.4-2.9 7.8-4.3 17.1-4.3 27.8 0 9.5 1.3 18 3.9 25.6 2.6 7.7 6.4 14.1 11.4 19.3 5 5.3 11.1 9.3 18.2 12.1 7.2 2.9 15.3 4.3 24.4 4.3 2.9 0 5.7-.1 8.6-.4 3-.2 5.8-.6 8.6-1.1 2.8-.5 5.4-1.2 7.8-1.9 2.4-.8 4.4-1.7 6.1-2.7l.3-11.7c0-3.9.1-7.8.1-11.9 0-4.5 0-9-.2-13.6-.2-4.5-.4-8.8-.7-13 3.3.7 6.4 1 9.3 1 1.4 0 2.8-.1 4.2-.2 1.5-.1 2.8-.4 4.1-.8-.2 3-.4 7.7-.5 14.1-.1 6.4-.2 14.9-.2 25.3 0 2.6.1 5.3.1 7.9.1 2.7.1 5.3.1 7.9-2.7 1-6.1 2.1-10.2 3.2-4 1.1-8.4 2-13 2.7-4.5.7-9.1 1.3-13.7 1.9-4.6.6-8.7.9-12.5.9-11.5 0-21.9-1.4-31.1-4.2-9.3-2.8-17.1-7.1-23.6-12.9-6.5-5.8-11.5-13.1-14.9-21.7-3.5-8.7-5.2-18.7-5.2-30.1 0-11 1.8-20.8 5.4-29.4 3.6-8.6 8.8-15.9 15.4-21.9 6.6-5.9 14.6-10.4 23.9-13.5 9.4-3.1 19.8-4.6 31.2-4.6 6.6 0 12.4.4 17.6 1.1 5.1.7 9.6 1.6 13.6 2.8 3.9 1.2 7.4 2.4 10.4 3.7 3 1.3 5.7 2.5 8 3.7-1 1.8-1.9 4.2-2.8 7-.8 2.8-1.4 5.5-1.6 7.9h-2.3c-1.9-2.3-4.3-4.6-7.2-7zm42.4 20.8c3.6-8.6 8.6-15.9 15-21.8 6.4-6 14.1-10.5 23-13.6 8.9-3.1 18.7-4.6 29.3-4.6 10.7 0 20.5 1.6 29.4 4.7 8.9 3.2 16.6 7.7 23 13.6 6.4 6 11.3 13.3 14.9 21.8 3.5 8.6 5.3 18.4 5.3 29.4s-1.8 20.7-5.3 29.3c-3.5 8.6-8.5 15.9-14.9 21.8s-14 10.4-23 13.3c-8.9 2.9-18.7 4.3-29.4 4.3-10.6 0-20.3-1.5-29.3-4.4-9-2.9-16.6-7.3-23-13.3-6.4-5.9-11.4-13.2-15-21.8-3.5-8.6-5.3-18.4-5.3-29.4s1.8-20.8 5.3-29.4zm116.8 1.5c-2.7-7.8-6.5-14.3-11.4-19.4-4.9-5.1-10.6-8.9-17.1-11.4-6.5-2.5-13.6-3.7-21.3-3.7-7.5 0-14.5 1.2-21.1 3.7-6.5 2.4-12.2 6.2-17 11.3-4.8 5.1-8.6 11.5-11.3 19.3-2.7 7.9-4 17.1-4 27.9 0 10.7 1.4 20 4.1 27.8 2.7 7.8 6.5 14.3 11.4 19.4 4.8 5.1 10.5 8.9 17 11.3 6.5 2.4 13.6 3.6 21.1 3.6 7.7 0 14.8-1.2 21.3-3.7s12.2-6.3 17.1-11.4c4.8-5.1 8.6-11.6 11.3-19.4 2.7-7.8 4.1-17.1 4.1-27.8 0-10.8-1.4-20-4.1-27.9zm-75.6-70.1c2-2 4.3-2.9 7-2.9s5.1.9 7 2.9c2 1.9 2.9 4.3 2.9 7s-.9 5-2.9 7c-1.9 2-4.2 3-7 3-2.7 0-5-.9-7-2.9-1.9-1.9-2.9-4.2-2.9-6.9s1-5.1 2.9-7zm38.2 0c2-2 4.3-2.9 7-2.9 2.8 0 5.1.9 7 2.9 2 1.9 2.9 4.3 2.9 7s-.9 5-2.9 7c-1.9 2-4.3 3-7 3s-5-.9-6.9-2.9c-1.9-1.9-2.9-4.2-2.9-6.9s1-5.1 2.9-7zm115 41.1c-3.3 0-6.8 0-10.5.1-3.7 0-7.4.2-11 .3-3.6.2-7.2.4-10.6.7-3.4.2-6.5.6-9.2.9.7-2.3 1-4.4 1-6.2 0-1.4-.4-3.4-1-6 8.5.3 16.9.5 25 .7 8.1.2 16.5.3 25 .3s16.8-.1 25-.3c8.3-.2 16.7-.4 25-.7-.7 2.5-1 4.6-1 6.2 0 1.6.3 3.6 1 6-3-.4-6.1-.8-9.2-1-3.4-.3-6.9-.5-10.6-.7-3.7-.2-7.3-.3-11-.4-3.7-.1-7.2-.1-10.6-.1-.4 13.3-.6 26.7-.6 40.1v33.3c0 8.5.2 16.9.5 25.2s.7 16.4 1.1 24.4c-3-.3-6.1-.4-9.5-.4-3.4 0-6.5.1-9.5.4.4-8 .8-16.2 1.1-24.4.3-8.3.5-16.7.5-25.2v-33c0-13.5-.2-26.9-.6-40.2zm108.9 0c-3.3 0-6.9 0-10.6.1-3.6 0-7.3.2-11 .3-3.6.2-7.2.4-10.6.7-3.4.2-6.5.6-9.2.9.7-2.3 1-4.4 1-6.2 0-1.4-.3-3.4-1-6 8.6.3 16.9.5 25 .7 8.1.2 16.5.3 25 .3 8.6 0 16.9-.1 25-.3 8.2-.2 16.5-.4 25-.7-.6 2.5-1 4.6-1 6.2 0 1.6.4 3.6 1 6-3-.4-6.1-.8-9.2-1-3.4-.3-7-.5-10.7-.7-3.7-.2-7.3-.3-11-.4-3.7-.1-7.2-.1-10.5-.1-.4 13.3-.6 26.7-.6 40.1v33.3c0 8.5.2 16.9.5 25.2s.7 16.4 1.1 24.4c-3-.3-6.1-.4-9.5-.4-3.4 0-6.5.1-9.5.4l1.1-24.4c.3-8.3.5-16.7.5-25.2v-33c0-13.5-.1-26.9-.5-40.2zm82 15c-.3-8.4-.7-16.7-1-25.1 1.6.3 3.2.5 4.9.7 1.6.2 3.1.3 4.7.3s3.1-.1 4.7-.3c1.6-.2 3.2-.4 4.9-.7-.4 8.5-.8 16.9-1.1 25.1-.3 8.3-.5 16.7-.5 25.1v33.3c0 8.5.2 16.9.5 25.2s.7 16.4 1.1 24.4c-3.1-.3-6.3-.4-9.5-.4-3.4 0-6.5.1-9.5.3.4-8 .8-16.1 1.1-24.4.3-8.4.5-16.8.5-25.2v-33c0-8.6-.2-16.9-.5-25.1zm117.1 57.8c-16.7-18-33.6-35.9-50.4-53.8l-.3 14.5c-.2 6.1-.2 14.3-.2 24.8 0 2.7 0 6.1.1 10.1s.1 8.2.2 12.6c0 4.4.1 8.9.3 13.4l.4 12.6c.1 3.9.2 7.3.4 10.2.1 2.9.2 4.9.4 5.9-2-.3-4.3-.4-6.7-.4-2.6 0-5 .1-7.2.4.2-1.3.6-3.7.9-7.2.4-3.5.6-7.7.9-12.5l.9-15.8c.3-5.7.6-11.4.8-17.1l.5-16.7c.1-5.4.2-10.3.2-14.5 0-12.4 0-23.1-.1-32-.1-8.9-.2-15.6-.5-20h3.1l25.3 27.5c9 9.8 17.9 19.4 26.8 28.9 8.4 9 16.8 18 25.3 27 7.9 8.5 14.9 15.7 20.8 21.6v-26.4c0-13.5 0-26.7-.3-39.6-.2-12.9-.6-25-1.2-36.4 2.6.6 4.8.9 6.6.9 1.6 0 3.7-.3 6.2-1-.2 2.8-.5 7.1-.8 12.8-.3 5.7-.7 11.7-1 18.2l-.9 19c-.2 6.2-.4 11.2-.4 14.9v11.6c0 4.4.1 9 .1 13.7l.2 14.5.2 13.6c.1 4.2.1 7.8.1 10.9v6.4h-2.7c-14.8-17.2-30.7-34.8-47.5-52.9zm194.1-66.2c-2.9-2.4-6.1-4.4-9.7-6.1-3.5-1.8-7.5-3.2-11.8-4.3-4.3-1.1-8.9-1.7-13.8-1.7-8 0-15.5 1.2-22.4 3.7-6.9 2.4-12.9 6.2-18 11.3-5.1 5.1-9.1 11.5-12 19.4-2.9 7.8-4.4 17.1-4.4 27.8 0 9.4 1.3 17.9 3.9 25.6 2.6 7.6 6.4 14 11.3 19.3 5 5.2 11.1 9.2 18.3 12.1 7.2 2.8 15.3 4.2 24.3 4.2 2.7 0 5.5-.1 8.5-.4 2.9-.3 5.8-.7 8.6-1.2 2.6-.5 5.2-1.2 7.8-2 2.4-.8 4.5-1.7 6.1-2.7l.3-11.7c.1-3.9.1-7.8.1-11.8 0-4.5-.1-9.1-.3-13.6-.2-4.5-.4-8.9-.7-13 3.3.6 6.4.9 9.4.9 1.4 0 2.8-.1 4.2-.2 1.4-.1 2.7-.4 4.1-.8-.3 3-.5 7.7-.6 14.1-.1 6.4-.2 14.8-.2 25.3 0 2.6 0 5.2.1 7.8 0 2.7.1 5.3.1 7.9-2.7 1-6.1 2.1-10.1 3.2s-8.4 2-13 2.7c-4.6.7-9.1 1.3-13.7 1.9-4.6.6-8.8.9-12.5.9-11.5 0-21.9-1.4-31.2-4.2-9.2-2.8-17.1-7.1-23.5-12.9-6.4-5.9-11.4-13.1-14.9-21.8-3.5-8.7-5.2-18.7-5.2-30.1 0-11 1.8-20.8 5.4-29.4 3.6-8.6 8.7-15.9 15.3-21.8 6.6-5.9 14.6-10.5 23.9-13.6 9.4-3.1 19.8-4.6 31.2-4.6 6.6 0 12.5.3 17.6 1 5.1.7 9.6 1.6 13.6 2.8 3.9 1.1 7.4 2.4 10.3 3.7 2.7 1.1 5.4 2.3 8 3.6-1 1.8-2 4.1-2.8 7-.8 2.9-1.4 5.5-1.6 8h-2.4c-1.9-2.4-4.4-4.7-7.3-7zm47.5 8.1c-.3-8.3-.6-16.6-1-24.9l17.4.6c5.8.2 11.6.3 17.4.2 5.9 0 11.6-.1 17.3-.3 5.8-.2 11.5-.4 17.3-.7-.4 1.9-.6 3.9-.6 5.8 0 2 .2 3.9.6 5.8-4.2-.2-8-.5-11.4-.7-3.4-.3-7-.6-10.9-.8-4.1-.3-8.3-.5-12.5-.7-4.5-.2-9.9-.3-16.3-.3-.1 3.9-.2 7.9-.4 11.8-.2 3.7-.3 8-.3 12.8 0 5 0 9.9.1 14.7 0 4.8.1 8.4.1 10.9 5.7 0 10.8-.1 15.3-.2s8.6-.3 12.4-.5l10.4-.6c3-.2 6-.4 9-.7-.4 2-.5 4-.5 6s.2 3.9.6 5.9c-3.4-.4-7.3-.7-11.7-1-4.5-.3-9-.4-13.4-.5l-12.5-.2c-3.1-.1-6.3-.1-9.4-.1 0 1.2 0 2.4-.1 3.8-.1 1.3-.1 3-.1 5.1v19.2c0 7.4 0 13.4.1 18.2.1 4.8.2 8.4.3 10.9h13.6c5 0 9.8-.1 14.5-.3 4.4-.2 8.9-.5 13.4-.8 4.2-.3 7.8-.8 10.9-1.5-.3.9-.4 1.9-.5 3 0 1-.1 2-.1 3 0 2 .2 3.7.6 5-5.8-.3-11.6-.4-17.4-.4H3348c-5.8 0-11.7.1-17.65.4.4-8.3.8-16.5 1.1-24.8.3-8.2.5-16.6.5-25.1V989c0-8.54-.2-16.93-.5-25.2zm160.1 58.1c-16.8-18-33.6-36-50.4-53.9l-.4 14.5c-.1 6.1-.2 14.3-.2 24.8 0 2.7.1 6.1.1 10.1.1 4 .2 8.2.2 12.6.1 4.4.2 8.9.4 13.4.1 4.5.2 8.8.4 12.6.1 3.8.3 7.2.4 10.2.2 2.9.3 4.8.4 5.9-2-.3-4.3-.4-6.7-.4-2.6 0-5 .1-7.2.4.2-1.3.5-3.7.9-7.2.3-3.5.6-7.7.8-12.5l.9-15.8c.3-5.7.6-11.4.7-17.1.2-5.7.4-11.3.5-16.7.1-5.5.2-10.3.2-14.6 0-12.4 0-23.1-.1-32 0-8.9-.2-15.6-.4-20h3.1c7.9 8.5 16.3 17.7 25.3 27.4 8.9 9.7 17.8 19.3 26.8 28.9l25.2 27c8 8.4 15 15.6 20.9 21.6V1015c0-13.54-.1-26.75-.3-39.63-.2-12.8-.7-24.9-1.3-36.3 2.6.7 4.8 1 6.6 1 1.6 0 3.6-.3 6.2-1-.2 2.9-.5 7.1-.8 12.8-.4 5.7-.7 11.8-1 18.27l-.9 19c-.3 6.2-.4 11.2-.4 15v11.6c0 4.4 0 9 .1 13.73l.2 14.5c0 4.8.1 9.4.2 13.6 0 4.2.1 7.8.1 10.9v6.4h-2.7c-14.9-17.2-30.7-34.8-47.5-52.8zM2101 284.5v104.1h107.4c4.4 0 8.7-.3 12.75-.7-6.1 10.9-14.52 19-25.64 24.9-11.1 5.8-24.4 8.64-39.8 8.64h-107.4v-137h52.7zm0-190.5v96.1h100.93c4.98 0 9.7-.3 14.2-.8-3.2 6.4-7.6 12-13.15 16.7-13.16 11.3-31.1 17-53.7 17h-101V94h52.67zm177.6 195.4c-2.36-3.2-4.85-6.4-7.5-9.4-5.64-8.26-13.37-14.88-23.2-19.88-6.3-3.75-11.9-6.5-17.8-8.76 10.7-4.1 20.7-10.6 29.94-19.46 9.3-9.05 16.67-20.06 22.24-33.04 5.75-13.15 8.64-27.46 8.64-42.9 0-24.9-5.52-46.6-16.62-65.1-10.92-18.75-26.75-33.06-47.53-42.95-20.6-10-44.44-15.1-71.62-15.1h-122.7V0h175.34c27.1 0 51 5.05 71.6 15.14 20.7 9.86 36.6 24.18 47.5 42.9 11.1 18.52 16.7 40.24 16.7 65.12 0 15.45-2.9 29.76-8.7 42.9-5.6 13-13 24-22.3 33.06-9.3 8.85-19.3 15.33-30 19.43 19.3 7.42 35.5 20.07 48.4 37.97 12.9 17.9 19.4 40.04 19.4 66.37 0 27.1-5.8 50.3-17.3 69.4-11.4 18.9-27.4 33.3-48.2 43.2-5.5 2.6-11.2 4.8-17 6.7 4.6-5.2 8.8-10.9 12.5-17 11.5-19.2 17.2-42.3 17.2-69.5 0-26.4-6.5-48.5-19.4-66.4zM1478.7 30.8c6.84 4.9 13.52 10.4 20 16.4l-43.87 43.2c-9.04-8.84-18.7-15.73-29-20.67-10.3-5.16-21-8.75-32.1-10.8-11.1-2.28-23.37-3.4-36.74-3.4-13.2 0-25 1.8-35.4 5.34 1.6-5.37 3.8-10.5 6.7-15.3 6.5-10.7 16-19.03 28.3-25 12.3-5.97 27-8.96 44.1-8.96 13.3 0 25.6 1.2 36.7 3.4 11.1 2.1 21.8 5.7 32.1 10.8 3.1 1.5 6.1 3.1 9 4.9zm-34.07 310.9c1.46-5.67 2.2-11.75 2.2-18.2 0-20.4-5.97-35.9-17.9-46.65-5.36-5.3-11.64-9.3-18.84-12-7-2.9-17.1-5.22-30.2-7.1l-53.2-7.4c-36.6-5.13-65.1-17.2-85.5-36.12-21.8-20.37-32.7-48.97-32.7-85.8 0-26.14 6.1-49.2 18.2-69.16 10.2-16.93 24.3-30.6 42.2-41-11 19.27-16.6 41.35-16.6 66.24 0 36.9 10.9 65.5 32.7 85.8 20.4 18.9 48.8 31 85.5 36.1l53.1 7.4c13.1 1.9 23.2 4.3 30.2 7.1 7.2 2.7 13.5 6.7 18.8 12.1 11.9 10.7 17.9 26.3 17.9 46.6 0 21.9-8.3 38.8-24.7 51-6.3 4.6-13.4 8.4-21.4 11.2zM1193 394.5l44.2-43.6c21.13 21.1 44.28 36.2 69.47 45.4 25.53 9.1 55.47 13.6 89.84 13.6 23.7 0 45.3-2.9 64.9-8.6 13.5-4.1 25.8-9.54 36.9-16.3-7.4 12.95-17.3 24.27-29.6 34-14.6 11.52-31.7 20.27-51.2 26.23-19.5 5.77-41.1 8.6-64.8 8.65-34.4 0-64.3-4.54-89.8-13.6-25.3-9.26-48.5-24.48-69.7-45.68zM1614.48 0h52.68v295.1c0 19.76 3.8 37.06 11.42 51.86 1.46 2.8 3.07 5.53 4.8 8.17-9.06-1.94-17.42-5.05-25.07-9.33-14-8.03-24.8-19.35-32.4-33.95-7.6-14.83-11.4-32.12-11.4-51.87V0zm307.34 298.2c0 30.45-7 57.52-20.9 81.18-14.03 23.67-33.36 41.98-58.06 54.94-24.5 12.98-52.07 19.46-82.73 19.46-30.45 0-57.93-6.48-82.4-19.46-14.25-7.53-26.7-16.85-37.4-28.02 20.47 8.24 42.84 12.34 67.1 12.34 30.66 0 58.25-6.47 82.74-19.44 24.7-12.95 44.06-31.27 58.06-54.95 14-23.65 21-50.7 21-81.18V0h52.64v298.2z"/>
    </symbol>
    <symbol id="logo_gesis">
        <path fill-rule="nonzero" d="M135.6 73.76c-4.67 1.16-7.34 2.34-14.53 2.34-24.58 0-30.6-25.6-30.6-43.14h46.65c0-6.53 0-32.1-28.26-32.1C85.62.86 76.6 17.4 76.6 40.16c0 29.24 15.54 43.95 39.3 43.95 9 0 13.2-1.3 19.7-3.1v-7.2zM90.8 25.6c0-4.35 3-18.06 17.22-18.06 14.22 0 16.22 11.2 16.22 18.06H90.8zM194.97 3.7C191.8 3.02 184.77.85 176.4.85c-18.05 0-27.25 8.02-27.25 21.73 0 13.53 11.53 17.7 21.57 23.57 9.36 5.52 17.05 8.7 17.05 16.72 0 9.02-7.52 12.86-16.72 12.86-10.37 0-20.56-6.52-22.23-7.52v12.6c3.84 1.5 10.7 3.4 21.57 3.4 20.9 0 29.7-11.2 29.7-23.6 0-11.2-6-16.7-13.7-21.2-13.9-8.3-25.5-11-25.5-20.5 0-6.5 6.5-9.5 13.7-9.5 9.3 0 17.5 4.9 20.2 6.4m22.8 66.7H230V2.7h-12.3m77.1 1.02C291.63 3 284.6.84 276.25.84 258.2.84 249 8.88 249 22.6c0 13.53 11.54 17.7 21.57 23.57 9.37 5.52 17.06 8.7 17.06 16.72 0 9-7.53 12.8-16.72 12.8-10.3 0-20.5-6.5-22.2-7.5v12.5c3.9 1.5 10.7 3.3 21.6 3.3 20.9 0 29.8-11.2 29.8-23.6 0-11.2-6-16.7-13.7-21.2-13.9-8.4-25.4-11.1-25.4-20.6 0-6.5 6.6-9.6 13.7-9.6 9.4 0 17.6 4.9 20.3 6.4"/>
        <path d="M48.13 73.87l-.02 7.96c0 5.86 0 26.93-21.7 26.93-9.3 0-16.4-3.68-23.2-7.53v13.7c5.2 1.7 12.2 3.02 20.8 3.02 24.3 0 36.6-11.03 36.6-35.28V2.57H48.1v5.8C44.84 4.3 39.7.7 31.27.7 12.03.7 0 18.43 0 40.67 0 62.9 11.52 82.14 31.76 82.14c7.16 0 12.68-4.18 16.37-8.27zm-35-32.54c0-13.87 4-33.35 17.22-33.35 14.05 0 19.4 19.14 19.4 33.35 0 14.9-5.7 33.53-19.23 33.53-13.2 0-17.4-19.8-17.4-33.53z"/>
        <path fill-rule="nonzero" d="M114.45 112.42h3.27v18.37h7.58v2.1h-10.85m20.27-10.1c0-1.1-.4-3.2-2.62-3.2-2.32 0-2.76 2.3-2.82 3.1h5.44zm2.67 9.5c-1.3.5-2.4.8-4.2.8-3.9 0-7.1-2.3-7.1-8 0-3.9 1.5-6.8 6-6.8s5.4 3 5.4 5.8H129c0 2.8 1.24 7.4 5.5 7.4.9 0 1.8-.2 2.7-.6v1.3zm3.4-13.7h3v14.1h-3v-14.1zm-.1-6.4h3.3v2.9h-3.3v-3zm13.2 19.7c2.4 0 3-3.2 3-6.1 0-2.5-.6-5.8-3.1-5.8-2.3 0-2.9 3-2.9 5.7 0 3.6.5 6.1 2.9 6.1m-3-11.2h.1c.7-.9 1.6-2.3 4-2.3 3.8 0 5.3 3.2 5.3 7.5 0 5.3-2.6 7.4-6.3 7.4-5.5 0-6-3.7-6-7.4v-13.5h3m12.4 6.3h3v3.4c.4-1.1 1.8-3.7 4.9-3.7 2.5 0 3.5 2.1 3.5 4.1v10.3h-3V124c0-1.8-.3-3.4-1.8-3.4-3 0-3.8 4.65-3.8 6.4v5.86h-3M179 118.7h3v14.1h-3v-14.1zm-.1-6.4h3.25v3H179v-3zm6 18.7l7.04-10.4h-6.57v-1.8h9.7v1.76l-7 10.4h7.2v1.97h-10.4m12.2-5.8h10.2v-2.7h-10.2m13.9 8.5h3.3v-20.5h-3.2m7.7 6.38h3v3.4h.1c.5-1 1.9-3.7 5-3.7 2.5 0 3.6 2.1 3.6 4.2V133h-3v-8.87c0-1.8-.2-3.4-1.8-3.4-3 0-3.8 4.64-3.8 6.4v5.85h-3m22.8-11.37c-1-.7-2.1-1.4-3.5-1.4-.9 0-2 .4-2 1.5 0 2.6 6.5 2.8 6.5 7.3 0 3-2.35 4.3-5.35 4.3-1.85 0-3.1-.3-3.8-.6V130c.84.6 2.24 1.5 3.9 1.5 1.7 0 2.44-.9 2.44-1.8 0-2.5-6.4-3-6.4-7.05 0-2.15 1.42-4.1 4.95-4.1 1.6 0 2.9.44 3.4.6m11.5 14c-.6.14-1.4.2-2.1.2-2.8 0-4.4-.86-4.4-3.6v-9.34h-2.2v-1.5h2.3v-3.3l3-1.8v5.2h3.9v1.6h-3.9v8.2c0 2.1.2 3.1 2.1 3.1.5 0 1 0 1.4-.2"/>
        <path d="M256 118.78h3v14.15h-3m-.13-20.5h3.24v2.96h-3.2"/>
        <path fill-rule="nonzero" d="M270.73 133.04c-.6.15-1.4.2-2.08.2-2.82 0-4.46-.85-4.46-3.58v-9.33h-2.3v-1.55h2.2v-3.33l3-1.8v5.13h3.9v1.55h-3.9v8.14c0 2.08.2 3.1 2.1 3.1.4 0 .9-.07 1.4-.25m11.3-1.75h-.1c-.5 1.04-1.8 3.68-5 3.68-2.5 0-3.6-2.08-3.6-4.13v-10.34h3v8.86c0 1.78.2 3.38 1.8 3.38 2.9 0 3.8-4.63 3.8-6.4v-5.84h3v14.15h-3m14.6.1c-.6.16-1.4.2-2.1.2-2.8 0-4.5-.84-4.5-3.57v-9.33h-2.3v-1.55h2.3v-3.33l3-1.8v5.13h3.9v1.55H293v8.14c0 2.08.2 3.1 2.13 3.1.48 0 1-.07 1.4-.25M4.15 150H1.7v-1.55h2.46v-1.33c0-2.62.63-5.35 5.38-5.35 1.22 0 2.3.18 3 .33v2.05c-.62-.27-1.42-.66-2.64-.66-2.44 0-2.73 1.7-2.73 3.2v1.7h4v1.6h-4v12.6h-3m16.28-20h3.24v3h-3.3v-3zm-5.74 0H18v3h-3.3v-3zm7.3 16.6c-.4 1-1.8 3.7-4.9 3.7-2.5 0-3.5-2.1-3.5-4.2v-10.3h3v8.8c0 1.8.3 3.4 1.8 3.4 3 0 3.8-4.6 3.8-6.4v-5.8h3v14.1H22v-3.3zm7.2-10.8h3v3.6h.1c1-1.9 2-3.7 4.6-3.9v3.1c-2.9.1-4.6 1-4.6 4.8v6.5h-3M57.9 145c-.74-.43-2.85-1.4-5.1-1.4-1.8 0-3.1 1.03-3.1 2.57 0 4.37 9.7 4.2 9.7 10.67 0 4.3-3.3 6-7.46 6-2.3 0-4.56-.53-5.2-.77V159c.94.52 3.3 1.8 5.7 1.8 2.16 0 3.7-.9 3.7-2.97 0-4.7-9.65-4.4-9.65-10.8 0-3.32 2.4-5.25 6.7-5.25 1.9 0 3.9.4 4.7.53m9.4 19.4c2.7 0 3-3.5 3-6.1 0-2.6-.3-6.1-3-6.1s-3 3.6-3 6.2.3 6.2 2.9 6.2m-6.2-6.2c0-4.8 2.1-7.4 6.2-7.4s6.3 2.6 6.3 7.4c0 4.8-2.1 7.4-6.3 7.4s-6.2-2.6-6.2-7.4m14 5.1l7-10.4h-6.7v-1.8H85v1.8l-7 10.4h7.2v2H74.9m13.05-14.1h3v14.1h-3v-14.1zm-.12-6.4h3.24v3H87.8v-2.9zm14.4 13.9c-1.24.1-4.62.4-4.62 3 0 1.3.8 2.1 1.8 2.1 1.1 0 2.9-1 2.9-3.4V156zm0 4.7h-.05c-.47.8-1.72 2.3-3.98 2.3-2.23 0-3.86-1.6-3.86-3.5 0-4.4 6.03-4.6 7.9-4.7v-1.2c0-1.5 0-4.1-2-4.1-1.83 0-2.16 1.4-2.27 3.1H94.8c.15-2.1 1-4.3 5.44-4.3 4.6 0 5 2.6 5 5.4v9.1h-3v-2zm7.23 2h3v-20.5h-3m6.32 6.4h2.87L121 159h.07l2.8-10.23h2.17l2.94 10.2h.05l2.2-10.2h2.52l-3.3 14.2h-2.6l-3-9.52h-.07l-2.7 9.6h-2.6m17.56-14.1h3V163h-3v-14.1zm-.12-6.37h3.24v2.95h-3.24v-2.9zm14.54 9.13c-1-.7-2.14-1.4-3.57-1.4-1 0-2 .4-2 1.5 0 2.5 6.4 2.8 6.4 7.3 0 3-2.4 4.3-5.4 4.3-1.9 0-3.1-.4-3.8-.6V160c.8.6 2.2 1.5 3.9 1.5 1.7 0 2.4-.9 2.4-1.8 0-2.5-6.4-3-6.4-7.03 0-2.1 1.4-4.07 4.9-4.07 1.5 0 2.8.4 3.3.57m11.8 2.57c-1-.7-2.2-1.4-3.6-1.4-1 0-2 .4-2 1.5 0 2.5 6.5 2.78 6.5 7.3 0 3-2.4 4.28-5.4 4.28-1.8 0-3.1-.4-3.8-.6V160c.8.6 2.2 1.5 3.9 1.5 1.7 0 2.4-.9 2.4-1.8 0-2.5-6.4-3-6.4-7.05 0-2.1 1.4-4.04 4.9-4.04 1.5 0 2.8.4 3.3.6m11.6 3.9c0-1.1-.4-3.1-2.6-3.1-2.3 0-2.8 2.4-2.8 3.2h5.4zm2.7 9.6c-1.3.5-2.4.8-4.1.8-4 0-7.1-2.3-7.1-8 0-3.9 1.6-6.8 6-6.8 4.6 0 5.4 3.1 5.4 5.8H169c0 2.8 1.24 7.4 5.5 7.4.9 0 1.8-.2 2.7-.6v1.4zm3.3-13.7h3v3.3c.47-1 1.84-3.6 4.96-3.6 2.5 0 3.6 2.1 3.6 4.2V163h-3v-9c0-1.74-.3-3.34-1.8-3.34-2.97 0-3.8 4.6-3.8 6.4v5.83h-3m22.8-11.4c-1-.7-2.13-1.4-3.55-1.4-.9 0-2 .4-2 1.5 0 2.5 6.5 2.8 6.5 7.3 0 3-2.4 4.3-5.4 4.3-1.8 0-3.04-.4-3.8-.6v-2.8c.9.6 2.3 1.5 3.97 1.5 1.75 0 2.46-.9 2.46-1.8 0-2.5-6.4-3-6.4-7.1 0-2.2 1.4-4.1 4.94-4.1 1.5 0 2.85.4 3.35.5m13.9 13.5c-1.2.5-2.5.7-3.74.7-4.5 0-7.1-2.7-7.1-8 0-4.27 2-6.88 6-6.88 3.8 0 5.1 2 5.1 4.9h-3.1c0-1.7-.2-3.7-2.03-3.7-1.7 0-2.6 2-2.6 4.55 0 3.4 1.5 7.4 5.1 7.4.9 0 1.7-.2 2.5-.6m2.6-18.7h3v9.7h.1c.5-1 1.87-3.6 5-3.6 2.5 0 3.5 2.03 3.5 4.1v10.3h-3V154c0-1.8-.24-3.4-1.8-3.4-2.93 0-3.8 4.65-3.8 6.4v5.86h-3m22.7-6.6c-1.2.1-4.6.34-4.6 2.95 0 1.3.75 2.2 1.7 2.2 1.1 0 2.9-1 2.9-3.4v-1.6zm0 4.65c-.46.9-1.7 2.3-3.97 2.3-2.2 0-3.84-1.6-3.84-3.5 0-4.4 6-4.6 7.9-4.7v-1.2c0-1.5 0-4.1-2-4.1-1.86 0-2.2 1.5-2.3 3.1h-3.2c.12-2.1.95-4.3 5.4-4.3 4.6 0 5 2.6 5 5.4v9.1h-3v-2zm8.15-10.6h-2.43v-1.5h2.5v-1.3c0-2.6.6-5.4 5.34-5.4 1.26 0 2.3.2 3 .4v2.1c-.6-.2-1.4-.6-2.6-.6-2.4 0-2.7 1.8-2.7 3.3v1.7h4v1.4h-4V163h-3m16.7.1c-.6.13-1.4.2-2.04.2-2.8 0-4.5-.87-4.5-3.6V150h-2v-1.55h2.23v-3.32l3-1.82v5.2h3.8v1.5h-3.87v8.2c0 2.1.2 3.1 2.15 3.1.45 0 1 0 1.4-.2m10.2-8.4c0-1.1-.4-3.2-2.64-3.2-2.35 0-2.8 2.4-2.85 3.2h5.43zm2.65 9.6c-1.25.5-2.35.8-4.13.8-3.9 0-7.06-2.3-7.06-8 0-3.9 1.55-6.7 6-6.7 4.6 0 5.47 3.1 5.47 5.8h-8.46c0 2.8 1.26 7.5 5.5 7.5.9 0 1.8-.2 2.7-.6v1.4zm3.33-13.2h3v3.4h.07c.47-1 1.84-3.6 4.96-3.6 2.5 0 3.57 2.1 3.57 4.2v10.4h-3v-8.8c0-1.8-.25-3.4-1.8-3.4-2.94 0-3.8 4.7-3.8 6.4v5.9h-3"/>
    </symbol>
    <symbol id="logo_zbw">
        <path d="M34.37 36.94c0-3.2-2.53-5.73-5.72-5.73-3.2 0-5.62 2.6-5.62 5.8s2.42 5.6 5.6 5.6c3.2 0 5.74-2.4 5.74-5.6M16.1 52.2c3.17 0 5.7-2.46 5.7-5.66s-2.53-5.72-5.7-5.72c-3.2 0-5.64 2.5-5.64 5.7s2.42 5.6 5.62 5.6m23.7 19.7H10.8V58.1c0-3.32-2.2-5.3-5.4-5.3S0 54.78 0 58.1v20.8C0 81 .88 82 2.97 82h36.8c3.3 0 5.3-1.98 5.3-5.07 0-3.1-2-5.07-5.3-5.07m2.33-70.4H5.3C1.97 1.46 0 3.44 0 6.53 0 9.6 1.98 11.6 5.3 11.6h28.96v13.77c0 3.3 2.2 5.3 5.4 5.3s5.4-2 5.4-5.3V4.55c0-2.1-.88-3.1-2.97-3.1m58.9 63.9c0 3.98-1.8 6.5-5.9 6.5H71.6v-27.1h22.03c4.63 0 7.38 1.88 7.38 6.3v14.3zM71.6 11.6h22.5c4.08 0 5.84 2.53 5.84 6.5v10.46c0 4.4-2.42 6.28-6.28 6.28H71.63V11.6zm32.1 27.98c4.4-1.53 7-4.1 7-10.82V18.32c0-11.02-6.6-16.86-16.84-16.86H63.8c-2.1 0-2.97 1-2.97 3.1V78.9c0 2.1.88 3.1 2.97 3.1h31.18c10.25 0 16.86-5.84 16.86-16.86V51.26c0-7.13-2.34-10.57-8.1-11.67v-.1zm85.88-39c-3.2 0-5.4 1.98-5.4 5.5v59.28c0 3.97-1.76 6.5-5.83 6.5h-6.28c-4.47 0-6-2.42-6-6.28V14.9c0-3.52-2.1-5.5-5.3-5.5-3.2 0-5.3 1.98-5.3 5.5v50.68c0 3.86-1.53 6.28-5.94 6.28h-6.28c-4.1 0-5.85-2.53-5.85-6.5V6.1c0-3.54-2.2-5.52-5.4-5.52s-5.4 1.98-5.4 5.5v59.06c0 11.02 6.6 16.86 16.84 16.86h5.6c7.22 0 9.77-.57 11.7-4.94 1.9 4.37 4.36 4.94 11.7 4.94h5.6c10.3 0 16.9-5.84 16.9-16.86V6.1c0-3.54-2.2-5.52-5.4-5.52"/>
        <path d="M217.37 14.2c1.68-.06 2.12-.24 2.12-.87V3.7c0-.62-.5-.8-2.2-.86v-1h6.3v1c-1.7.06-2.1.24-2.1.87V14h1.9c2.6 0 3.2-.96 4-3.72l.8.04-.2 4.9h-10.7v-1m14.4-4.6l4.1-.1c0-1.67-.6-2.93-2-2.93-1.1 0-2.1.6-2.2 3zm-2.1 1c0-2.77 1.8-4.9 4.4-4.9 2.9 0 3.9 2.37 3.8 4.7h-6.2v.03c0 2.05 1 3.67 2.9 3.67 1.1 0 2-.65 2.8-1.64l.5.54c-.7 1.26-1.9 2.34-3.9 2.34-2.8 0-4.4-2.05-4.4-4.73zm10.9-8.2c0-.76.5-1.3 1.2-1.3s1.2.5 1.2 1.3c0 .75-.5 1.3-1.3 1.3s-1.2-.5-1.2-1.28zm-1.1 11.8c1.2-.02 1.4-.22 1.4-.7V7.9c0-.62-.3-.98-1.5-1v-1l3.3-.08v7.67c0 .5.2.7 1.4.7v1h-4.7v-1zm13.3-3.87c0-1.97-1-3.33-2.4-3.33-.9 0-1.5.26-2.2.85v5.07c.5.98 1.2 1.42 2.2 1.42 1.6 0 2.3-1.46 2.3-4zm-6.5 3.3V3.12c0-.6-.4-.97-1.5-1v-1l3.4-.07v5.9c.7-.68 1.6-1.23 2.8-1.23 2.4 0 3.8 1.9 3.8 4.52 0 2.72-1.7 5.12-4.4 5.12-1.1 0-2-.4-2.9-1.04l-.7 1.16h-.7l.1-1.83zm9.9.57c1.2-.02 1.5-.22 1.5-.7V7.88c0-.62-.3-.98-1.5-1V5.9l3.3-.08v1.4c1-.75 2.2-1.46 3.5-1.46 1.4 0 2.3 1 2.3 2.82v4.9c0 .5.3.7 1.4.72v.98H262v-.98c1-.02 1.3-.22 1.3-.7V9.3c0-1.6-.6-2.08-1.77-2.08-.9 0-1.7.4-2.28.73v5.54c0 .5.25.7 1.25.7v1H256v-1m13-11.8c0-.8.5-1.4 1.23-1.4s1.22.5 1.22 1.3-.5 1.3-1.24 1.3c-.7 0-1.2-.5-1.2-1.3zm-1 11.8c1.15-.1 1.43-.3 1.43-.8V7.9c0-.62-.28-.98-1.44-1v-1l3.3-.08v7.67c0 .5.2.7 1.4.7v1h-4.8v-1zm5.95.4l5.48-7.9h-1.5c-1.5 0-1.96.2-2.94 2.5l-.8-.1.2-3.4h7.4v.5l-5.5 7.9h1.7c1.3 0 1.9-.2 2.9-2.6l.7.1-.2 3.6H274l-.07-.5M284 10.9h5.12V9.36H284m6.76 4.84c1.68-.06 2.12-.24 2.12-.87V3.7c0-.62-.44-.8-2.12-.86v-1h6.3v1c-1.68.06-2.12.24-2.12.87v9.7c0 .7.44.8 2.12.9v1h-6.3v-1m7.6 0c1.16 0 1.46-.2 1.46-.7V7.9c0-.6-.3-.98-1.46-1v-1l3.3-.08v1.4c1.06-.75 2.2-1.46 3.52-1.46 1.38 0 2.36 1 2.36 2.82v4.9c0 .5.28.7 1.46.72v.98h-4.62v-.98c1.02-.02 1.28-.22 1.28-.7V9.3c0-1.6-.58-2.08-1.72-2.08-.9 0-1.66.4-2.24.73v5.54c0 .5.26.7 1.26.7v1h-4.6v-1m11.6 0c1.16 0 1.48-.2 1.48-.7V6.9h-1.7v-.7l1.7-.36V5.5c0-1.75.54-2.87 1.26-3.6.64-.65 1.42-.97 2.2-.97 1.5 0 2.28.8 2.28 1.85 0 .63-.4 1.1-.98 1.1-.52 0-1.14-.35-1.14-1.3 0-.15.02-.33.06-.54-.18-.08-.34-.12-.5-.12-.32 0-.62.13-.84.35-.34.34-.46.87-.46 2.45v1.2h2.44v1.06h-2.44v6.53c0 .5.42.7 2 .8v1h-5.36v-.9m13.88-3.7c0-2.6-.98-3.8-2.58-3.8-1.58 0-2.4 1.2-2.4 3.9s.98 3.9 2.58 3.9c1.56 0 2.4-1.1 2.4-3.8zm-7.06.1c0-2.8 1.84-4.8 4.58-4.8 2.82 0 4.56 2 4.56 4.8 0 2.9-1.84 4.9-4.56 4.9-2.86 0-4.58-1.9-4.58-4.8zm10.48 3.7c1.16 0 1.46-.2 1.46-.7V7.9c0-.6-.3-.98-1.46-1v-1l3.3-.08V7.4c.7-.9 1.52-1.64 2.56-1.64 1.02 0 1.54.7 1.54 1.58 0 .65-.48 1.22-1.1 1.22-.6 0-1.16-.32-1.16-1.1 0-.1.02-.22.04-.34-.9-.04-1.42.57-1.84 1.08v5.3c0 .48.36.68 1.68.7v.98h-5.02v-.98m14.3.02c1-.02 1.16-.22 1.16-.7V9.34c0-1.62-.6-2.1-1.74-2.1-.9 0-1.46.38-2.04.72v5.54c0 .5.14.7 1.14.72v.98h-4.48v-.98c1.16-.02 1.46-.22 1.46-.7V7.88c0-.62-.3-.98-1.46-1V5.9l3.3-.08v1.4c1.06-.75 2.02-1.46 3.34-1.46 1.02 0 1.82.6 2.18 1.66 1.16-1 2.3-1.66 3.56-1.66 1.38 0 2.28 1 2.28 2.82v4.9c0 .5.3.7 1.47.72v.98h-4.5v-.98c1-.02 1.15-.22 1.15-.7V9.34c0-1.62-.52-2.1-1.66-2.1-.66 0-1.28.3-2.16.88.02.27.04.43.04.6v4.78c0 .5.18.7 1.34.72v.98h-4.38v-.98m16.8-1.42v-2.3c-2.8.64-3.32 1.06-3.32 2.22 0 .67.34 1.3 1.38 1.3.8 0 1.5-.6 1.94-1.22zm-5.42.4c0-.82.38-1.66 1.22-2.12 1.52-.86 3.9-1.2 4.2-1.45v-.56c0-1.7-.46-2.34-1.76-2.34-.64 0-1 .14-1.32.4.16.35.2.68.2.96 0 .6-.38 1.1-1.06 1.1-.72 0-1.16-.6-1.16-1.2 0-1.4 1.7-2.3 3.62-2.3 2.08 0 3.36.9 3.36 2.9v4.3c0 1 .08 1.3 1.4 1.1l.1.7c-.74.2-1.14.4-1.68.4-1.06 0-1.42-.4-1.52-1.6h-.18c-.8.9-1.72 1.6-2.9 1.6-1.68 0-2.52-1-2.52-2.2zm10.76-.38V6.98h-1.62v-.73l1.65-.37V3.24l1.83-.73V6h2.8v1h-2.8v5.6c0 1.1.35 1.57 1.2 1.57.55 0 .93-.43 1.37-1.07l.6.45c-.74 1.36-1.4 1.8-2.7 1.8-1.58 0-2.34-1-2.34-2.53m7.1-10.4c0-.76.5-1.3 1.2-1.3s1.2.5 1.2 1.3c0 .75-.5 1.3-1.3 1.3s-1.3-.5-1.3-1.28zm-1.1 11.8c1.1-.02 1.4-.22 1.4-.7V7.9c0-.62-.3-.98-1.5-1v-1l3.3-.08v7.67c0 .5.3.7 1.4.7v1h-4.8v-1zm13-3.7c0-2.65-1-3.8-2.6-3.8s-2.4 1.16-2.4 3.82 1 3.83 2.6 3.83c1.5 0 2.4-1.17 2.4-3.83zm-7.1.05c0-2.82 1.8-4.85 4.5-4.85 2.8 0 4.5 1.95 4.5 4.77 0 2.8-1.9 4.8-4.6 4.8-2.9 0-4.6-2-4.6-4.8zm10.4 3.65c1.1-.02 1.4-.22 1.4-.7V7.88c0-.62-.3-.98-1.5-1V5.9l3.3-.08v1.4c1-.75 2.2-1.46 3.5-1.46 1.3 0 2.3 1 2.3 2.82v4.9c0 .5.3.7 1.5.72v.98H392v-.98c1-.02 1.27-.22 1.27-.7V9.3c0-1.6-.6-2.08-1.7-2.08-.9 0-1.66.4-2.2.73v5.54c0 .5.22.7 1.22.7v1H386v-1m12-2h.83c.9 1.5 1.8 2.1 2.93 2.1.9 0 1.4-.6 1.4-1.2 0-.9-.6-1.4-2.3-1.9-2-.6-2.8-1.4-2.8-2.7 0-1.8 1.3-3 3.25-3 .6 0 1.4.2 1.8.6l.4-.6h.8v2.8h-.8c-.7-1.2-1.3-1.9-2.3-1.9-.9 0-1.4.5-1.4 1.2 0 .8.7 1.2 2.2 1.6 2 .5 2.8 1.3 2.8 2.7 0 1.7-.9 3.1-3.1 3.1-.8 0-1.7-.3-2.2-.7l-.5.7h-.7v-3m8.3 2.4l5.5-7.9h-1.5c-1.5 0-1.9.2-2.9 2.5l-.7-.1.2-3.4h7.4l.1.5-5.5 7.8h1.8c1.3 0 1.9-.2 2.9-2.6h.7l-.2 3.5h-7.7l-.1-.5m11.6-5l4.1-.1c.1-1.7-.5-3-1.9-3-1.1 0-2.1.6-2.2 3zm-2 1c0-2.8 1.8-4.9 4.4-4.9 3 0 4 2.3 3.8 4.7h-6c0 2 1 3.7 2.9 3.7 1.1 0 2-.7 2.8-1.7l.6.5c-.7 1.3-1.9 2.3-3.9 2.3-2.8 0-4.4-2.1-4.4-4.8zm9.7 3.6c1.2-.1 1.5-.3 1.5-.7V7.9c0-.63-.3-1-1.5-1v-1l3.3-.08v1.4c1-.75 2.2-1.46 3.5-1.46 1.4 0 2.3 1 2.3 2.82v4.9c0 .5.3.7 1.5.72v.98h-4.6v-.98c1-.02 1.3-.22 1.3-.7V9.3c0-1.6-.6-2.08-1.7-2.08-.9 0-1.6.4-2.2.73v5.54c0 .5.3.7 1.3.7v1H426v-1m12.8-1.4V7H437v-.73l1.63-.37V3.24l1.8-.73V6h2.8v1h-2.8v5.6c0 1.1.4 1.57 1.2 1.57.6 0 1-.43 1.4-1.07l.6.45c-.7 1.36-1.4 1.8-2.7 1.8-1.6 0-2.3-1-2.3-2.53m6 1.4c1.13-.02 1.4-.22 1.4-.7V7.88c0-.62-.3-.98-1.43-1V5.9l3.3-.08V7.4c.7-.9 1.5-1.64 2.56-1.64s1.52.7 1.52 1.58c0 .65-.5 1.22-1.1 1.22-.6 0-1.17-.32-1.17-1.1 0-.1 0-.22.1-.34-.9-.04-1.4.57-1.9 1.08v5.3c0 .48.4.68 1.7.7v.98h-5v-.98m9.6-1.66V7.7c0-.62-.4-.76-1.5-.8v-1l3.3-.1v6c0 1.6.6 2.08 1.9 2.08.9 0 1.5-.3 2.1-.6V7.7c0-.62-.4-.76-1.5-.8v-1l3.3-.1v7.7c0 .5.3.68 1.4.72v.96h-3.3V14c-1 .73-2 1.34-3.3 1.34-1.4 0-2.4-1-2.4-2.82m16.2 1.7c1-.02 1.16-.22 1.16-.7V9.34c0-1.62-.6-2.1-1.72-2.1-.9 0-1.4.38-2 .72v5.54c0 .5.2.7 1.2.72v.98h-4.5v-.98c1.17-.02 1.47-.22 1.47-.7V7.88c0-.62-.3-.98-1.4-1V5.9l3.3-.08v1.4c1.1-.75 2.08-1.46 3.4-1.46 1 0 1.8.6 2.2 1.66 1.1-1 2.3-1.66 3.5-1.66 1.4 0 2.3 1 2.3 2.82v4.9c0 .5.3.7 1.45.72v.98H476v-.98c1-.02 1.1-.22 1.1-.7V9.34c0-1.62-.56-2.1-1.7-2.1-.65 0-1.3.3-2.15.88 0 .27.04.43.04.6v4.78c0 .5.1.7 1.3.72v.98H470v-.98m-244.5 11.9c-.3-.95-.6-1.2-1.9-1.5v-.93h5.44v.9c-1.3.1-1.65.5-1.45 1.1l2.5 8.1h.2l2.1-6.7c.6-2.1.7-2.3-1.2-2.6v-.9h4.8v.9c-1.4.3-1.8.7-2.4 2.5l-3.4 10.2H229l-2.74-8.7-3.23 8.6H222l-3.4-11.3c-.24-.9-.64-1.2-2.04-1.5v-1h5.5v.9c-1.3.1-1.54.4-1.3 1.2l2.3 8h.2l2.66-7-.25-.8m12-1.8c0-.8.5-1.3 1.28-1.3s1.25.5 1.25 1.3c0 .7-.5 1.3-1.23 1.3s-1.25-.5-1.25-1.3zm-1.1 11.8c1.2 0 1.48-.2 1.48-.7v-5.6c0-.6-.27-1-1.43-1v-1l3.3-.1V35c0 .5.24.7 1.4.7v1h-4.76v-1zm6 0c1.16 0 1.46-.2 1.46-.7v-5.6c0-.6-.3-1-1.48-1v-1l3.3-.1V29c.7-.9 1.5-1.63 2.54-1.63 1 0 1.5.7 1.5 1.58 0 .68-.5 1.25-1.1 1.25-.6 0-1.2-.3-1.2-1.1v-.32c-.9-.05-1.4.56-1.9 1.06v5.3c0 .5.3.7 1.6.7v1h-5v-1m9.6-1.37v-5.8h-1.6V28l1.6-.37v-2.6l1.8-.8v3.4h2.8v1.05H254v5.65c0 1.1.37 1.55 1.2 1.55.57 0 .95-.4 1.4-1.08l.6.46c-.76 1.4-1.4 1.8-2.7 1.8-1.6 0-2.37-1-2.37-2.5m6.22-.6h.82c.9 1.5 1.78 2.17 2.94 2.17 1 0 1.5-.55 1.5-1.2 0-.85-.6-1.36-2.3-1.8-2-.56-2.8-1.43-2.8-2.7 0-1.77 1.3-2.97 3.3-2.97.6 0 1.4.25 1.8.6l.4-.6h.7v2.77h-.8c-.7-1.2-1.2-1.84-2.2-1.84-1 0-1.5.5-1.5 1.2 0 .8.7 1.2 2.2 1.6 2 .5 2.8 1.3 2.8 2.7 0 1.7-1 3.1-3.1 3.1-.8 0-1.7-.3-2.2-.7l-.5.7h-.7v-3m8.2-1.7c0-2.8 2-4.9 4.5-4.9 2.1 0 3.4 1.1 3.4 2.3 0 .8-.5 1.5-1.2 1.5s-1.1-.4-1.1-1c0-.5.4-.9.7-1.1-.2-.3-.9-.7-1.6-.7-1.5 0-2.6.9-2.6 3.5 0 2.4 1 4 2.9 4 1.1 0 2-.6 2.6-1.4l.6.5c-.8 1.2-1.9 2.1-3.8 2.1-2.6 0-4.3-2-4.3-4.7m9 3.6c1.2 0 1.5-.2 1.5-.7V25c0-.6-.4-.98-1.5-1v-1l3.4-.08v6.17c1-.8 2.1-1.5 3.5-1.5 1.3 0 2.3 1 2.3 2.8v4.9c0 .5.3.7 1.4.7v1H282v-1c1-.1 1.3-.3 1.3-.7v-4.2c0-1.6-.6-2.1-1.7-2.1-.9 0-1.7.4-2.28.7v5.5c0 .5.28.7 1.28.7v1H276v-1m17.3-1.4v-2.3c-2.8.6-3.3 1-3.3 2.2 0 .6.3 1.3 1.37 1.3.8 0 1.5-.6 1.9-1.2zm-5.4.4c0-.8.36-1.7 1.2-2.1 1.56-.9 3.9-1.2 4.2-1.5v-.6c0-1.7-.42-2.4-1.72-2.4-.6 0-1 .1-1.3.4.2.3.2.7.2.9 0 .6-.4 1.1-1 1.1-.77 0-1.2-.6-1.2-1.2 0-1.4 1.7-2.3 3.6-2.3 2.1 0 3.34.9 3.34 2.9v4.3c0 1 .1 1.3 1.4 1.1l.1.7c-.7.3-1.1.4-1.66.4-1.04 0-1.4-.4-1.5-1.6h-.2c-.8.9-1.7 1.6-2.9 1.6-1.7 0-2.5-1-2.5-2.2zm9.45 1c1.18 0 1.5-.2 1.5-.7v-6.5H297V28l1.7-.36v-.4c0-1.74.5-2.86 1.25-3.6.66-.64 1.4-.96 2.2-.96 1.5 0 2.3.8 2.3 1.85 0 .62-.4 1.1-1 1.1-.5 0-1.1-.36-1.1-1.3 0-.16 0-.34.1-.54-.2-.1-.4-.2-.5-.2-.4 0-.7.1-.9.3-.35.3-.5.8-.5 2.4v1.2h2.5v1h-2.47V35c0 .5.4.63 2 .7v1H297v-1m8.28-1.2v-5.8h-1.6V28l1.64-.37v-2.6l1.84-.78v3.4h2.8v1.07h-2.8v5.62c0 1.1.34 1.55 1.18 1.55.56 0 .94-.4 1.38-1l.6.5c-.74 1.4-1.4 1.8-2.68 1.8-1.6 0-2.36-1-2.36-2.5M217.38 58c1.67-.07 2.1-.25 2.1-.88v-9.7c0-.6-.44-.8-2.12-.85v-1h6.3v1c-1.68.06-2.12.24-2.12.87v10.3h1.88c2.64 0 3.26-.9 4.02-3.7l.82.07-.14 4.9h-10.76v-1m14.4-4.6h4.13c0-1.7-.6-2.9-2-2.9-1.1 0-2.1.7-2.2 3zm-2.05 1.1c0-2.8 1.8-4.9 4.4-4.9 3 0 4 2.4 3.8 4.7h-6.1v.1c0 2.1 1 3.7 3 3.7 1.1 0 2-.6 2.8-1.6l.6.6c-.7 1.3-1.9 2.4-3.9 2.4-2.8 0-4.4-2-4.4-4.7zm10.9-8.2c0-.7.5-1.3 1.3-1.3s1.3.6 1.3 1.3-.5 1.3-1.2 1.3-1.2-.5-1.2-1.2zM239.5 58c1.2-.04 1.48-.24 1.48-.73v-5.6c0-.6-.28-.97-1.44-1v-.97l3.3-.1v7.67c0 .5.27.7 1.45.72v.9h-4.8V58zm13.3-3.9c0-1.97-1-3.33-2.4-3.33-.9 0-1.5.26-2.2.85v5.1c.5.97 1.26 1.4 2.28 1.4 1.66 0 2.36-1.46 2.36-4.02zm-6.5 3.3V46.8c0-.6-.4-.97-1.5-1v-1l3.4-.07v5.9c.7-.68 1.6-1.23 2.85-1.23 2.46 0 3.86 1.9 3.86 4.52 0 2.72-1.7 5.12-4.3 5.12-1.1 0-2-.4-2.8-1.04l-.6 1.16h-.7l.1-1.83zm9.9.57c1.2-.02 1.5-.22 1.5-.7V51.6c0-.63-.3-1-1.46-1v-1l3.3-.07v1.4c1.05-.75 2.2-1.46 3.5-1.46 1.4 0 2.37 1 2.37 2.82v4.9c0 .5.3.7 1.5.7v1h-4.6v-1c1.1 0 1.3-.2 1.3-.7V53c0-1.6-.6-2.08-1.7-2.08-.9 0-1.6.4-2.2.73v5.54c0 .5.3.7 1.3.7v1h-4.6v-1m12.9-11.8c0-.8.5-1.3 1.3-1.3s1.3.5 1.3 1.3-.5 1.3-1.2 1.3-1.2-.5-1.2-1.3zM268 57.9c1.15-.03 1.43-.23 1.43-.7v-5.6c0-.6-.26-1-1.42-1v-1l3.4-.07v7.67c0 .5.3.7 1.5.73v.98H268V58zm5.95.47l5.46-7.88h-1.5c-1.5 0-1.9.2-2.9 2.5l-.7-.1.2-3.5h7.4l.1.5-5.4 7.8h1.8c1.3 0 2-.3 2.9-2.7h.8l-.2 3.5H274l-.07-.5m14.17-.5c1.67-.1 2.1-.2 2.1-.9V47c0-.6-.43-.8-2.1-.84v-1h6.3v1c-1.68.02-2.13.2-2.13.83v10c0 .6.45.8 2.13.8v1h-6.3v-1m7.6 0c1.16-.1 1.46-.3 1.46-.7v-5.6c0-.7-.3-1-1.47-1v-1l3.3-.1v1.4c1-.8 2.2-1.5 3.5-1.5 1.4 0 2.3 1 2.3 2.8V57c0 .5.3.7 1.4.7v1h-4.6v-1c1 0 1.3-.2 1.3-.7v-4c0-1.6-.6-2.08-1.8-2.08-.9 0-1.7.4-2.3.73v5.54c0 .5.2.7 1.2.7v1h-4.6v-1m11.6 0c1.1 0 1.4-.2 1.4-.7v-6.6H307v-.8l1.7-.4V49c0-1.74.55-2.86 1.27-3.6.65-.64 1.43-.96 2.2-.96 1.5 0 2.3.8 2.3 1.84 0 .64-.4 1.1-.98 1.1s-1.2-.34-1.2-1.3v-.53c-.2-.07-.4-.1-.5-.1-.3 0-.6.13-.9.35-.4.33-.5.86-.5 2.44v1.2h2.5v1.1h-2.5v6.52c0 .5.4.65 2 .7v1H307v-.93m13.8-3.7c0-2.64-1-3.8-2.6-3.8s-2.4 1.2-2.4 3.85.97 3.83 2.57 3.83c1.57 0 2.4-1.1 2.4-3.8zm-7.07.06c0-2.9 1.85-4.9 4.6-4.9 2.8 0 4.55 1.9 4.55 4.7 0 2.8-1.85 4.8-4.57 4.8-2.9 0-4.6-2-4.6-4.8zm10.5 3.6c1.15 0 1.45-.2 1.45-.7v-5.6c0-.7-.3-1-1.47-1v-1l3.3-.1V51c.7-.9 1.5-1.6 2.6-1.6s1.6.7 1.6 1.6c0 .67-.5 1.2-1.1 1.2-.6 0-1.1-.3-1.1-1.1v-.3c-.9-.05-1.4.56-1.8 1.06v5.3c0 .5.4.7 1.7.7v.97h-5V58m14.3 0c1-.03 1.2-.23 1.2-.7v-4.2c0-1.63-.6-2.1-1.7-2.1-.9 0-1.4.37-2 .7v5.55c0 .5.2.7 1.2.73v.98h-4.5V58c1.2-.03 1.5-.23 1.5-.7v-5.7c0-.62-.3-.98-1.4-1v-.98l3.3-.08v1.4c1.1-.75 2.1-1.46 3.4-1.46 1 0 1.8.6 2.17 1.66 1.2-1 2.3-1.66 3.6-1.66 1.4 0 2.3 1 2.3 2.82v4.9c0 .5.3.7 1.44.72v.98h-4.5v-.98c1-.02 1.1-.22 1.1-.7v-4.17c0-1.62-.5-2.1-1.64-2.1-.7 0-1.3.3-2.2.88v5.38c0 .5.2.7 1.3.8v1h-4.4v-1m16.8-1.4v-2.3c-2.8.7-3.4 1.1-3.4 2.2 0 .7.4 1.3 1.4 1.3.8 0 1.5-.6 1.9-1.2zm-5.4.4c0-.8.4-1.6 1.2-2.1 1.5-.8 3.9-1.2 4.2-1.4V53c0-1.7-.46-2.33-1.76-2.33-.6 0-1 .15-1.3.4.2.35.2.68.2.96 0 .6-.36 1.14-1 1.14-.7 0-1.2-.58-1.2-1.17 0-1.4 1.7-2.33 3.6-2.33 2.1 0 3.4 1 3.4 2.9v4.3c0 1 .1 1.3 1.4 1.2l.1.8c-.8.23-1.2.36-1.7.36-1.1 0-1.4-.4-1.5-1.55h-.2c-.8.9-1.76 1.6-2.9 1.6-1.7 0-2.56-.95-2.56-2.14zm10.7-.4v-5.9H359V50l1.66-.37V47l1.8-.73v3.43h2.8v1.06h-2.8v5.6c0 1.1.36 1.57 1.2 1.57.55 0 .93-.5 1.4-1.1l.6.4c-.78 1.34-1.4 1.8-2.7 1.8-1.6 0-2.4-1-2.4-2.55m7.1-10.4c0-.77.5-1.3 1.24-1.3s1.24.52 1.24 1.3-.5 1.3-1.24 1.3-1.24-.5-1.24-1.27zm-1.1 11.8c1.15-.03 1.4-.23 1.4-.7v-5.6c0-.6-.3-.98-1.42-1v-.98l3.35-.1v7.68c0 .5.3.7 1.4.72v.98h-4.8v-.97zM380 54.2c0-2.65-1-3.8-2.6-3.8-1.57 0-2.4 1.2-2.4 3.84s1 3.83 2.6 3.83c1.55 0 2.4-1.18 2.4-3.84zm-7.1.05c0-2.82 1.87-4.85 4.6-4.85 2.8 0 4.57 1.96 4.57 4.78 0 2.8-1.84 4.84-4.56 4.84-2.8 0-4.5-1.95-4.5-4.8zm10.5 3.65c1.17 0 1.47-.2 1.47-.7v-5.6c0-.63-.3-1-1.46-1v-1l3.3-.07v1.4c1.1-.75 2.2-1.46 3.6-1.46s2.4 1 2.4 2.82v4.9c0 .5.3.7 1.5.7v1h-4.6v-1c1.1 0 1.3-.2 1.3-.7V53c0-1.6-.5-2.08-1.7-2.08-.9 0-1.6.4-2.2.73v5.54c0 .5.3.7 1.3.7v1h-4.6v-1m15.9-5.6c0-4.1 3.1-7.2 6.8-7.2 1.4 0 2.4.4 3.1.9l.7-.9h.8V50h-.7c-.9-2.3-2-3.6-4-3.6-2.3 0-4.3 2.06-4.3 5.9 0 3.63 2.2 5.5 4.7 5.5 2.3 0 3.2-1.16 4.1-2.86l.9.45c-.8 1.9-2.5 3.8-5.4 3.8-3.7 0-6.4-2.7-6.4-6.9m15.1.9l4.1-.1c0-1.7-.6-3-2-3-1.1 0-2 .6-2.2 3zm-2 1c0-2.8 1.8-4.9 4.4-4.9 3 0 4 2.3 3.8 4.7l-6.1-.1v.1c0 2 1 3.6 2.9 3.6 1.2 0 2-.7 2.8-1.7l.6.5c-.7 1.2-1.9 2.3-3.9 2.3-2.8 0-4.4-2.1-4.4-4.8zm9.8 3.6c1.2-.1 1.5-.3 1.5-.7v-5.6c0-.7-.3-1-1.4-1v-1l3.3-.1v1.4c1.1-.8 2.2-1.5 3.6-1.5s2.4 1 2.4 2.8V57c0 .5.3.7 1.5.7v1H429v-1c1 0 1.3-.2 1.3-.7v-4c0-1.6-.5-2.08-1.7-2.08-.9 0-1.6.4-2.2.73v5.54c0 .5.27.7 1.27.7v1H423v-1m12.8-1.4v-5.9H434v-.8l1.64-.4v-2.6l1.9-.8v3.4h2.8v1h-3V56c0 1.1.4 1.57 1.2 1.57.6 0 1-.4 1.4-1.06l.6.5c-.72 1.4-1.4 1.8-2.7 1.8-1.6 0-2.32-1-2.32-2.5m6 1.4c1.1 0 1.4-.2 1.4-.7v-5.6c0-.6-.3-1-1.47-1v-1l3.3-.1V51c.7-.9 1.5-1.64 2.57-1.64 1 0 1.54.7 1.54 1.57 0 .65-.5 1.22-1.1 1.22-.6 0-1.1-.34-1.1-1.1 0-.1 0-.23.1-.35-.9-.03-1.4.58-1.8 1.08v5.3c0 .5.38.7 1.7.72v.98H441v-.98m10.4-4.62l4.14-.07c.02-1.6-.54-2.9-1.94-2.9-1.1 0-2.04.7-2.2 3zm-2.05 1.03c0-2.7 1.77-4.9 4.37-4.9 2.94 0 3.94 2.4 3.78 4.7h-6.14v.1c0 2.1 1 3.7 2.95 3.7 1.1 0 2-.6 2.8-1.6l.6.5c-.7 1.3-1.9 2.4-3.9 2.4-2.8 0-4.3-2-4.3-4.7zm-232.2 25c1.17 0 1.5-.2 1.5-.7V72H217v-.73l1.7-.36v-.4c0-1.7.53-2.8 1.25-3.6.64-.6 1.42-.9 2.2-.9 1.5 0 2.28.8 2.28 1.8 0 .6-.4 1.1-.98 1.1-.52 0-1.14-.3-1.14-1.3 0-.1.1-.3.1-.5-.2-.1-.3-.1-.5-.1-.3 0-.6.2-.8.4-.3.4-.4.9-.4 2.5V71h2.4v1.06h-2.4v6.53c0 .4.5.6 2 .7v.9h-5.3v-1m13.9-3.7c0-2.7-1-3.8-2.6-3.8-1.5 0-2.4 1.1-2.4 3.8s1 3.8 2.6 3.8 2.4-1.2 2.4-3.9zm-7 0c0-2.8 1.9-4.9 4.6-4.9 2.9 0 4.6 1.9 4.6 4.7 0 2.8-1.8 4.8-4.5 4.8-2.8 0-4.5-2-4.5-4.8zm10.5 3.6c1.2-.1 1.5-.3 1.5-.7V73c0-.6-.3-.97-1.4-1v-.96l3.3-.1v1.6c.7-.9 1.6-1.65 2.6-1.65s1.6.7 1.6 1.5c0 .6-.4 1.2-1.1 1.2-.6 0-1.1-.3-1.1-1.1v-.4c-.9-.1-1.4.5-1.8 1.1v5.3c0 .4.4.7 1.7.7v.9h-5v-1m12.7 0c1.7-.1 2.1-.3 2.1-.9v-9.6c0-.6-.4-.8-2.1-.9v-1h10.9v4.2h-.8c-.7-2.3-1-3.1-3.2-3.1H252v4.7h.9c1.5 0 2-.1 2.5-2.2h.7V76h-.8c-.5-2.13-1-2.25-2.47-2.25h-.9V79h2.65c2.6 0 3.2-1.1 3.9-3.47l.8.02-.1 4.6h-11.5v-1m13.3-3.55c0-2.8 2-4.9 4.5-4.9 2.04 0 3.34 1.1 3.34 2.4 0 .8-.5 1.47-1.2 1.47s-1.2-.44-1.2-1.05c0-.57.4-.96.64-1.1-.2-.35-.87-.7-1.6-.7-1.5 0-2.55.9-2.55 3.47 0 2.4 1 3.9 3 3.9 1.1 0 1.9-.7 2.6-1.5l.6.5c-.8 1.2-1.9 2.1-3.8 2.1-2.6 0-4.3-2.1-4.3-4.8m16.3-.1c0-2.7-.9-3.8-2.5-3.8s-2.4 1.1-2.4 3.8 1 3.8 2.6 3.8c1.58 0 2.4-1.2 2.4-3.9zm-7 0c0-2.8 1.9-4.9 4.6-4.9 2.8 0 4.6 1.9 4.6 4.7s-2 4.9-4.7 4.9c-2.8 0-4.6-2-4.6-4.8zm10.4 3.7c1.2-.1 1.5-.3 1.5-.7V73c0-.6-.3-.97-1.4-1v-.96l3.3-.1v1.42c1.08-.75 2.2-1.47 3.5-1.47 1.4 0 2.4 1 2.4 2.8v4.9c0 .5.28.7 1.46.7v1h-4.6v-1c1 0 1.3-.3 1.3-.7v-4.2c0-1.6-.6-2.1-1.76-2.1-.9 0-1.7.4-2.3.7v5.5c0 .4.2.7 1.2.7v.9h-4.6v-1m18.6-3.7c0-2.7-1-3.8-2.6-3.8s-2.4 1.1-2.4 3.8 1 3.8 2.6 3.8c1.5 0 2.4-1.2 2.4-3.9zm-7.1 0c0-2.8 1.8-4.9 4.6-4.9s4.6 1.9 4.6 4.7c0 2.8-1.9 4.8-4.6 4.8-2.87 0-4.6-2-4.6-4.8zm16.5 3.6c1 0 1.2-.2 1.2-.7v-4.1c0-1.7-.6-2.1-1.8-2.1-.9 0-1.47.3-2.05.7v5.5c0 .4.2.7 1.2.7v1h-4.5v-1c1.2 0 1.5-.2 1.5-.7V73c0-.6-.3-.97-1.5-1v-.96l3.3-.1v1.42c1.1-.75 2-1.47 3.32-1.47 1 0 1.8.6 2.16 1.6 1.2-1 2.3-1.7 3.6-1.7 1.3 0 2.2 1 2.2 2.8v4.9c0 .5.3.7 1.5.7v1H314v-1c1-.1 1.16-.3 1.16-.7v-4.1c0-1.7-.53-2.1-1.67-2.1-.7-.1-1.3.3-2.2.8v5.4c0 .5.1.7 1.3.7v1h-4.4v-1m12.4-11.8c0-.8.5-1.3 1.2-1.3s1.2.5 1.2 1.2-.5 1.3-1.3 1.3-1.3-.5-1.3-1.3zm-1.1 11.8c1.2-.1 1.4-.3 1.4-.7V73c0-.6-.3-.97-1.5-1v-.96l3.3-.1v7.7c0 .47.3.68 1.5.7v.97h-4.8v-.9zm6-3.6c0-2.9 2-4.9 4.5-4.9 2.1 0 3.4 1.1 3.4 2.3 0 .8-.5 1.4-1.2 1.4s-1.2-.4-1.2-1 .3-1 .6-1.1c-.2-.4-.9-.7-1.6-.7-1.5 0-2.6.9-2.6 3.5 0 2.4 1 3.9 2.9 3.9 1.1 0 1.9-.7 2.6-1.5l.5.5c-.9 1.2-1.9 2.1-3.9 2.1-2.6 0-4.3-2.1-4.3-4.8m9.5 1.7h.8c.9 1.5 1.8 2.1 2.9 2.1.9 0 1.4-.6 1.4-1.2 0-.9-.6-1.4-2.3-1.9-2.1-.5-2.9-1.4-2.9-2.7 0-1.8 1.3-3 3.3-3 .6 0 1.4.3 1.8.6l.3-.6h.7v2.8h-.8c-.7-1.2-1.3-1.8-2.2-1.8s-1.5.5-1.5 1.2c0 .8.7 1.2 2.2 1.6 2 .5 2.8 1.3 2.8 2.7 0 1.7-1 3.1-3.2 3.1-.88 0-1.7-.3-2.2-.7l-.6.7h-.7v-3"/>
    </symbol>
    <symbol id="logo_gbv">
        <path d="M0 200.1V.1h454v200H0"/>
        <path fill="#FFF" d="M397 29h31v145h-31z"/>
        <path fill="#FFF" d="M217.75 41.38c11.22 0 16.24-.37 18.9-.74 1.18.37 1.7 1.66 1.52 2.96-4.02 4.26-16.4 24.62-25.6 39.98l-27.12 45.17c-2.85 4.44-13.4 22.02-13.4 24.24 0 2 2.35 2.6 5.36 2.7 3.4.2 7.2.3 19.5.3 15.4 0 23.8-1 29-4.3 4.7-3.2 8.7-9.6 12.2-19.6 1.5-1.1 4.9-.4 5.4 1.4-1.5 12.2-5.2 25.7-8 30.4-4.5-.2-9.3-.4-14.4-.4-5.2-.2-10.5-.2-16.5-.2H161c-9.2 0-14.58.2-17.6.5-.84-.4-1.34-1.7-1-2.8 2.5-3.5 11.88-16.48 19.07-28.7L198.3 71c6.7-11.3 11.5-19.43 11.5-21.1 0-1.3-2.5-1.3-5.7-1.3h-20.3c-12.7 0-20.6 1.67-24.78 6.3-3.33 3.7-6 9.44-7.7 14.06-1.65 1.3-4.7.52-5.34-1.3 2.5-10.77 5.37-20.9 7.2-31.1.7-.77 2.2-.77 2.86 0 1.17 4.23 4.35 4.6 17.57 4.6h44.2m135.7 101.1c0 6.5.9 11.3 4.1 13 .5.72.5 2.2-.2 2.75-1.8 0-4.8.6-8 1.5-10.4 2.6-22.9 5-32.4 5-20.1 0-39-5.9-51.5-20.3-9.9-11.3-14.73-26.8-14.73-42.4 0-15.5 4.85-31.4 15.4-43.4 11.88-13.9 30.13-21.8 53.4-21.8 7.86 0 16.4 1.5 22.25 2.8 3.85.9 8.7 1.63 10.7 1.63.2 5.57 1.35 15 2.2 29.45-.85 1.88-4.53 2.06-5.37.4C345.43 52.9 333.53 44 317 44c-29.47 0-43.7 23.5-43.7 54.98 0 14.8 3 30.73 12.05 42.57 9.04 11.85 22.43 15.74 32.3 15.74 8.04 0 12.9-1.5 14.9-4.3 1-1.7 1.5-5 1.5-11.7v-6.7c0-13.2-.16-14.3-11.37-16.3l-6.03-1.1c-1.17-1.3-1.17-4.5.17-5.4 6.53.3 14.56.5 26.1.5 7.54 0 13.23-.2 20.43-.6 1.68.9 1.84 4 .34 5.3l-3.1.53c-6.2.92-7.2 2.6-7.2 13.9v10.7m-252.8-27.1c-6.7 16.9-14.6 38.55-17.4 48-.4.57-1.7.94-2.9.94s-2.4-.4-3.2-.96c-2-7.4-4.7-16.5-7.7-24.3L40.2 61.1c-4.67-12.42-6.18-15-12.87-16.5l-4.02-.9c-1.1-1.3-1.1-4.64.5-5.2 6.6.37 13.8.56 20.3.56 7.5 0 13.2-.2 22.1-.56 1.5 1.1 1.7 4.08.2 5.37L62.2 45c-3.7.95-5 1.87-5 3.35 0 1.7 1.3 5.76 8.2 24.64l12.03 33c3 8.3 7.6 19.2 9.2 23.5 9.1-23.4 19.1-48.9 28-74.1 2.7-7.4 2.2-8.9-2.8-10.2l-4.8-1.3c-1.18-1.5-1-4.5.33-5.4 6.88.4 12.57.6 17.9.6 6.05 0 11.57-.2 16.26-.6 1.3.9 1.13 3.9.3 5.4l-4.2.9c-3.84.9-7.5 2.2-10.37 7.6-4.7 8.9-9.55 21.3-17.08 40l-9.4 22.9"/>
    </symbol>
</svg>
