<?xml version="1.0" encoding="UTF-8" standalone="no"?>
<!-- Created with Inkscape (http://www.inkscape.org/) -->

<svg
   xmlns:dc="http://purl.org/dc/elements/1.1/"
   xmlns:cc="http://creativecommons.org/ns#"
   xmlns:rdf="http://www.w3.org/1999/02/22-rdf-syntax-ns#"
   xmlns:svg="http://www.w3.org/2000/svg"
   xmlns="http://www.w3.org/2000/svg"
   xmlns:sodipodi="http://sodipodi.sourceforge.net/DTD/sodipodi-0.dtd"
   xmlns:inkscape="http://www.inkscape.org/namespaces/inkscape"
   version="1.1"
   id="svg3723"
   xml:space="preserve"
   width="1730.88"
   height="730.33466"
   viewBox="0 0 1730.88 730.33466"
   sodipodi:docname="Know-Center-Logo-CMYK.svg"
   inkscape:version="0.92.4 (5da689c313, 2019-01-14)"><metadata
     id="metadata3729"><rdf:RDF><cc:Work
         rdf:about=""><dc:format>image/svg+xml</dc:format><dc:type
           rdf:resource="http://purl.org/dc/dcmitype/StillImage" /><dc:title></dc:title></cc:Work></rdf:RDF></metadata><defs
     id="defs3727"><clipPath
       clipPathUnits="userSpaceOnUse"
       id="clipPath3741"><path
         d="M 0,547.751 H 1298.158 V 0 H 0 Z"
         id="path3739"
         inkscape:connector-curvature="0" /></clipPath></defs><sodipodi:namedview
     pagecolor="#ffffff"
     bordercolor="#666666"
     borderopacity="1"
     objecttolerance="10"
     gridtolerance="10"
     guidetolerance="10"
     inkscape:pageopacity="0"
     inkscape:pageshadow="2"
     inkscape:window-width="1450"
     inkscape:window-height="911"
     id="namedview3725"
     showgrid="false"
     inkscape:zoom="28.397116"
     inkscape:cx="1208.3797"
     inkscape:cy="165.11613"
     inkscape:window-x="2379"
     inkscape:window-y="41"
     inkscape:window-maximized="0"
     inkscape:current-layer="g3731" /><g
     id="g3731"
     inkscape:groupmode="layer"
     inkscape:label="Know-Center-Logo-CMYK"
     transform="matrix(1.3333333,0,0,-1.3333333,0,730.33467)"><path
       d="M 0,0 H 1298.158 V 547.751 H 0 Z"
       style="fill:#219ade;fill-opacity:1;fill-rule:nonzero;stroke:none"
       id="path3733"
       inkscape:connector-curvature="0" /><g
       id="g3735"><g
         id="g3737"
         clip-path="url(#clipPath3741)"><g
           id="g3743"
           transform="translate(463.5664,214.0991)"><path
             d="m 0,0 v -6.192 c 0,-8.606 -7.008,-15.617 -15.62,-15.617 h -190.814 c -8.601,0 -15.619,7.011 -15.619,15.617 v 190.833 c 0,8.607 7.018,15.617 15.619,15.617 H -15.62 c 8.612,0 15.62,-7.01 15.62,-15.617 v -6.191 h 28.564 v 6.191 c 0,24.358 -19.824,44.178 -44.184,44.178 h -190.814 c -24.349,0 -44.173,-19.82 -44.173,-44.178 V -6.192 c 0,-24.357 19.824,-44.16 44.173,-44.16 H -15.62 c 24.36,0 44.184,19.803 44.184,44.16 l 0,6.192 z"
             style="fill:#ffffff;fill-opacity:1;fill-rule:nonzero;stroke:none"
             id="path3745"
             inkscape:connector-curvature="0" /></g><g
           id="g3747"
           transform="translate(332.6299,370.1597)"><path
             d="M 0,0 H 58.648 L 44.163,-53.384 h 0.363 L 86.271,0 h 72.952 l -67.111,-71.625 27.634,-62.587 H 56.583 L 36.834,-80.269 H 36.46 l -13.159,-53.943 h -57.888 z"
             style="fill:#ffffff;fill-opacity:1;fill-rule:nonzero;stroke:none"
             id="path3749"
             inkscape:connector-curvature="0" /></g><g
           id="g3751"
           transform="translate(738.4258,166.8716)"><path
             d="m 0,0 c -5.456,8.219 -11.426,11.771 -22.178,11.771 -19.877,0 -30.041,-23.654 -31.57,-41.132 -1.22,-13.935 5.285,-20.565 16.016,-20.565 11.424,0 20.209,6.405 27.654,15.769 h 0.235 l -3.541,-15.545 c -8.729,-9.818 -20.38,-12.338 -27.237,-12.338 -23.976,0 -27.324,16.679 -25.816,33.815 2.269,26.058 15.684,54.155 46.42,54.155 11.426,0 20.359,-3.654 24.157,-11.073 z"
             style="fill:#ffffff;fill-opacity:1;fill-rule:nonzero;stroke:none"
             id="path3753"
             inkscape:connector-curvature="0" /></g><g
           id="g3755"
           transform="translate(798.1973,148.9385)"><path
             d="m 0,0 c 0.737,1.821 1.102,3.541 1.229,5.021 0.803,9.138 -6.034,13.145 -14.271,13.145 -11.875,0 -19.257,-7.318 -23.515,-18.166 z m -3.734,-34.854 c -5.467,-5.133 -14.175,-9.252 -24.221,-9.252 -18.626,0 -25.965,11.436 -24.531,27.882 2.342,26.73 18.347,46.495 39.936,46.495 15.984,0 24.735,-7.197 23.365,-22.964 C 10.259,1.03 8.237,-5.151 6.141,-10.738 h -45.693 c -0.343,-1.265 -0.599,-2.854 -0.781,-5.031 -0.974,-11.193 3.948,-17.591 15.48,-17.591 9.03,0 16.796,3.991 24.018,10.731 z"
             style="fill:#ffffff;fill-opacity:1;fill-rule:nonzero;stroke:none"
             id="path3757"
             inkscape:connector-curvature="0" /></g><g
           id="g3759"
           transform="translate(835.6514,177.6099)"><path
             d="M 0,0 H 12.335 L 7.874,-17.144 H 8.099 C 15.556,-6.397 25.269,1.6 38.749,1.6 c 10.517,0 16.422,-5.719 15.48,-16.457 -0.203,-2.287 -0.63,-4.565 -1.294,-6.852 L 39.937,-71.17 H 26.928 l 11.126,42.499 c 0.695,2.741 1.315,5.94 1.529,8.339 0.492,5.707 -2.406,9.139 -9.489,9.139 -16.904,0 -24.232,-15.991 -27.847,-29.936 L -5.638,-71.17 h -13.02 z"
             style="fill:#ffffff;fill-opacity:1;fill-rule:nonzero;stroke:none"
             id="path3761"
             inkscape:connector-curvature="0" /></g><g
           id="g3763"
           transform="translate(906.8262,164.3604)"><path
             d="M 0,0 1.947,7.997 C 13.513,9.596 23.771,18.39 28.715,30.495 h 4.45 L 27.838,11.417 H 48.977 L 46.035,0 H 24.553 l -6.312,-22.507 c -0.641,-2.286 -4.258,-14.737 -4.45,-16.911 -0.418,-4.798 1.016,-9.364 8.322,-9.364 4.793,0 10.175,2.624 14.09,5.598 l -2.931,-11.425 c -5.649,-3.079 -12.549,-4.919 -18.038,-4.919 -10.163,0 -15.394,6.74 -14.527,16.678 0.449,5.141 1.315,8.46 2.643,13.258 L 11.641,0 Z"
             style="fill:#ffffff;fill-opacity:1;fill-rule:nonzero;stroke:none"
             id="path3765"
             inkscape:connector-curvature="0" /></g><g
           id="g3767"
           transform="translate(1012.0547,148.9385)"><path
             d="M 0,0 C 0.738,1.821 1.102,3.541 1.241,5.021 2.033,14.159 -4.804,18.166 -13.03,18.166 -24.916,18.166 -32.298,10.848 -36.556,0 Z m -3.733,-34.854 c -5.467,-5.133 -14.176,-9.252 -24.222,-9.252 -18.625,0 -25.953,11.436 -24.53,27.882 2.342,26.73 18.346,46.495 39.936,46.495 15.994,0 24.735,-7.197 23.365,-22.964 C 10.26,1.03 8.238,-5.151 6.141,-10.738 h -45.692 c -0.343,-1.265 -0.589,-2.854 -0.781,-5.031 -0.974,-11.193 3.947,-17.591 15.48,-17.591 9.03,0 16.796,3.991 24.018,10.731 z"
             style="fill:#ffffff;fill-opacity:1;fill-rule:nonzero;stroke:none"
             id="path3769"
             inkscape:connector-curvature="0" /></g><g
           id="g3771"
           transform="translate(1049.2852,177.6099)"><path
             d="M 0,0 H 11.992 L 6.696,-18.732 6.804,-18.965 C 11.232,-11.316 18.305,1.6 28.585,1.6 30.757,1.6 33.442,0.91 34.844,0 l -3.595,-13.712 c -1.861,1.029 -4.407,1.829 -7.264,1.829 C 9.788,-12.225 5.627,-28.449 1.646,-43.874 L -5.403,-71.17 h -13.031 z"
             style="fill:#ffffff;fill-opacity:1;fill-rule:nonzero;stroke:none"
             id="path3773"
             inkscape:connector-curvature="0" /></g><g
           id="g3775"
           transform="translate(332.5874,369.8442)"><path
             d="M 0,0 H 58.722 L 44.237,-53.459 h 0.375 L 86.388,0 h 73.027 l -67.186,-71.7 27.666,-62.678 H 56.658 l -19.76,54.015 H 36.524 L 23.343,-134.378 H -34.62 Z"
             style="fill:#ffffff;fill-opacity:1;fill-rule:nonzero;stroke:none"
             id="path3777"
             inkscape:connector-curvature="0" /></g><g
           id="g3779"
           transform="translate(502.9141,369.8442)"><path
             d="m 0,0 h 66.062 l 12.046,-77.91 h 0.374 L 98.809,0 h 57.953 L 120.634,-134.378 H 56.658 l -15.812,70.004 h -0.385 l -18.637,-70.004 h -57.952 z"
             style="fill:#ffffff;fill-opacity:1;fill-rule:nonzero;stroke:none"
             id="path3781"
             inkscape:connector-curvature="0" /></g><g
           id="g3783"
           transform="translate(728.5723,316.0132)"><path
             d="m 0,0 c -5.082,-9.594 -9.414,-24.841 -9.414,-31.608 0,-13.929 9.414,-17.125 17.106,-17.125 13.758,0 19.396,2.434 25.044,12.792 2.066,3.774 9.234,18.259 9.234,33.507 0,9.778 -5.264,15.804 -18.284,15.804 C 14.485,13.37 6.762,12.811 0,0 m -47.992,28.618 c 16.176,25.772 44.216,29.174 78.461,29.174 34.063,0 73.037,-1.321 73.037,-43.288 0,-19.393 -8.099,-51.188 -22.777,-73.967 -14.688,-23.336 -50.068,-25.026 -76.973,-25.026 -41.788,0 -73.016,1.3 -73.016,43.285 0,19.374 7.895,48.364 21.268,69.822"
             style="fill:#ffffff;fill-opacity:1;fill-rule:nonzero;stroke:none"
             id="path3785"
             inkscape:connector-curvature="0" /></g><g
           id="g3787"
           transform="translate(849.3984,369.8442)"><path
             d="m 0,0 h 59.472 l -6.601,-91.836 h 0.385 L 85.072,0 h 58.713 l -9.062,-91.836 h 0.396 L 170.316,0 h 65.485 L 168.049,-134.378 H 98.242 l 7.157,93.358 h -0.395 L 73.765,-134.378 H 0 Z"
             style="fill:#ffffff;fill-opacity:1;fill-rule:nonzero;stroke:none"
             id="path3789"
             inkscape:connector-curvature="0" /></g></g></g></g></svg>