<svg xmlns="http://www.w3.org/2000/svg" width="1731" height="731" viewBox="0 0 1731 731">
  <g fill="none" transform="matrix(1 0 0 -1 0 730.335)">
    <polygon fill="#219ADE" points="0 0 1730.877 0 1730.877 730.335 0 730.335"/>
    <path fill="#FFF" d="M618.088518,285.46546 L618.088518,277.20946 C618.088518,265.734793 608.744518,256.386794 597.261852,256.386794 L342.843191,256.386794 C331.375192,256.386794 322.017859,265.734793 322.017859,277.20946 L322.017859,531.653453 C322.017859,543.129453 331.375192,552.47612 342.843191,552.47612 L597.261852,552.47612 C608.744518,552.47612 618.088518,543.129453 618.088518,531.653453 L618.088518,523.398787 L656.17385,523.398787 L656.17385,531.653453 C656.17385,564.130786 629.741851,590.557452 597.261852,590.557452 L342.843191,590.557452 C310.377859,590.557452 283.94586,564.130786 283.94586,531.653453 L283.94586,277.20946 C283.94586,244.733461 310.377859,218.329461 342.843191,218.329461 L597.261852,218.329461 C629.741851,218.329461 656.17385,244.733461 656.17385,277.20946 L656.17385,285.46546 L618.088518,285.46546 Z"/>
    <polygon fill="#FFF" points="443.507 493.546 521.704 493.546 502.391 422.368 502.875 422.368 558.535 493.546 655.804 493.546 566.323 398.046 603.168 314.597 518.951 314.597 492.619 386.521 492.12 386.521 474.575 314.597 397.391 314.597"/>
    <path fill="#FFF" d="M984.567709 222.495461C977.293042 233.454127 969.333042 238.190127 954.997043 238.190127 928.494377 238.190127 914.942377 206.651462 912.903711 183.347462 911.277044 164.767463 919.950377 155.927463 934.258377 155.927463 949.490376 155.927463 961.203709 164.467463 971.130376 176.952796L971.443709 176.952796 966.722376 156.226129C955.083709 143.135463 939.549043 139.775463 930.406377 139.775463 898.438378 139.775463 893.974378 162.014129 895.985044 184.862129 899.010378 219.606128 916.897044 257.068794 957.878376 257.068794 973.113042 257.068794 985.023709 252.196794 990.087709 242.304794L984.567709 222.495461zM1064.26304 198.584662C1065.24571 201.012662 1065.73237 203.305995 1065.90171 205.279328 1066.97237 217.463328 1057.85637 222.805994 1046.87371 222.805994 1031.04037 222.805994 1021.19771 213.048661 1015.52037 198.584662L1064.26304 198.584662zM1059.28437 152.112663C1051.99504 145.268663 1040.38437 139.776663 1026.98971 139.776663 1002.15504 139.776663 992.369709 155.024663 994.281708 176.952662 997.404375 212.592661 1018.74437 238.945994 1047.52971 238.945994 1068.84171 238.945994 1080.50971 229.349994 1078.68304 208.327328 1077.94171 199.957995 1075.24571 191.716662 1072.45104 184.267329L1011.52704 184.267329C1011.06971 182.580662 1010.72837 180.461995 1010.48571 177.559329 1009.18704 162.635329 1015.74971 154.104663 1031.12571 154.104663 1043.16571 154.104663 1053.52037 159.425996 1063.14971 168.412662L1059.28437 152.112663zM1114.20184 236.813194L1130.64851 236.813194 1124.70051 213.954528 1125.00051 213.954528C1134.94317 228.283861 1147.89384 238.946527 1165.86717 238.946527 1179.88984 238.946527 1187.76317 231.321194 1186.50717 217.003861 1186.2365 213.954528 1185.66717 210.917195 1184.78184 207.867861L1167.45117 141.919863 1150.10584 141.919863 1164.9405 198.585195C1165.86717 202.239862 1166.69384 206.505195 1166.97917 209.703861 1167.63517 217.313195 1163.77117 221.889194 1154.32717 221.889194 1131.78851 221.889194 1122.01784 200.567862 1117.19784 181.974529L1106.68451 141.919863 1089.32451 141.919863 1114.20184 236.813194zM1209.10157 219.147195L1211.69757 229.809861C1227.1189 231.941861 1240.79624 243.667194 1247.38824 259.807194L1253.32157 259.807194 1246.2189 234.369861 1274.40423 234.369861 1270.48157 219.147195 1241.8389 219.147195 1233.4229 189.137862C1232.56824 186.089862 1227.74557 169.488529 1227.48957 166.589863 1226.93224 160.192529 1228.84424 154.104529 1238.58557 154.104529 1244.97624 154.104529 1252.15224 157.603196 1257.37224 161.568529L1253.46424 146.335196C1245.93224 142.229863 1236.73224 139.77653 1229.41357 139.77653 1215.8629 139.77653 1208.88824 148.763196 1210.04424 162.013863 1210.6429 168.868529 1211.79757 173.293862 1213.56824 179.691196L1224.6229 219.147195 1209.10157 219.147195zM1349.40623 198.584662C1350.39023 201.012662 1350.87557 203.305995 1351.0609 205.279328 1352.1169 217.463328 1343.0009 222.805994 1332.0329 222.805994 1316.1849 222.805994 1306.34223 213.048661 1300.6649 198.584662L1349.40623 198.584662zM1344.4289 152.112663C1337.13957 145.268663 1325.52757 139.776663 1312.1329 139.776663 1287.29957 139.776663 1277.5289 155.024663 1279.42623 176.952662 1282.5489 212.592661 1303.88757 238.945994 1332.67423 238.945994 1353.99957 238.945994 1365.65423 229.349994 1363.82757 208.327328 1363.08623 199.957995 1360.39023 191.716662 1357.59423 184.267329L1296.67157 184.267329C1296.21423 182.580662 1295.88623 180.461995 1295.63023 177.559329 1294.33157 162.635329 1300.8929 154.104663 1316.27023 154.104663 1328.31023 154.104663 1338.6649 159.425996 1348.29423 168.412662L1344.4289 152.112663zM1399.0469 236.813194L1415.03623 236.813194 1407.9749 211.837195 1408.1189 211.526528C1414.0229 221.725194 1423.45356 238.946527 1437.16023 238.946527 1440.05623 238.946527 1443.63623 238.026527 1445.50556 236.813194L1440.71223 218.530528C1438.2309 219.902528 1434.83623 220.969194 1431.0269 220.969194 1412.09756 220.513194 1406.54956 198.881195 1401.24156 178.314529L1391.8429 141.919863 1374.46823 141.919863 1399.0469 236.813194z"/>
    <polygon fill="#FFF" points="443.45 493.126 521.746 493.126 502.433 421.847 502.933 421.847 558.634 493.126 656.003 493.126 566.422 397.526 603.31 313.955 518.994 313.955 492.647 385.975 492.149 385.975 474.574 313.955 397.29 313.955"/>
    <polygon fill="#FFF" points="670.552 493.126 758.635 493.126 774.696 389.246 775.195 389.246 802.297 493.126 879.568 493.126 831.397 313.955 746.096 313.955 725.013 407.294 724.5 407.294 699.651 313.955 622.381 313.955"/>
    <path fill="#FFF" d="M971.429709,421.350923 C964.653709,408.558923 958.877709,388.22959 958.877709,379.206924 C958.877709,360.634924 971.429709,356.373591 981.685709,356.373591 C1000.02971,356.373591 1007.54704,359.618924 1015.07771,373.429591 C1017.83237,378.461591 1027.38971,397.774923 1027.38971,418.10559 C1027.38971,431.142923 1020.37104,439.177589 1003.01104,439.177589 C990.743042,439.177589 980.445709,438.432256 971.429709,421.350923 M907.440377,459.508255 C929.008377,493.870921 966.395043,498.406921 1012.05504,498.406921 C1057.47237,498.406921 1109.43771,496.645588 1109.43771,440.689589 C1109.43771,414.832256 1098.63904,372.438924 1079.06837,342.066925 C1059.48437,310.952259 1012.31104,308.698926 976.437709,308.698926 C920.720377,308.698926 879.083045,310.432259 879.083045,366.412258 C879.083045,392.244257 889.609711,430.897589 907.440377,459.508255"/>
    <polygon fill="#FFF" points="1132.531 493.126 1211.827 493.126 1203.026 370.678 1203.539 370.678 1245.96 493.126 1324.245 493.126 1312.162 370.678 1312.69 370.678 1359.619 493.126 1446.932 493.126 1356.597 313.955 1263.521 313.955 1273.063 438.432 1272.536 438.432 1230.884 313.955 1132.531 313.955"/>
  </g>
</svg>
