<?xml version="1.0" encoding="UTF-8"?>
<svg width="481px" height="82px" viewBox="0 0 481 82" version="1.1" xmlns="http://www.w3.org/2000/svg" xmlns:xlink="http://www.w3.org/1999/xlink">
    <!-- Generator: Sketch 43.2 (39069) - http://www.bohemiancoding.com/sketch -->
    <title>Artboard</title>
    <desc>Created with Sketch.</desc>
    <defs></defs>
    <g id="Page-1" stroke="none" stroke-width="1" fill="none" fill-rule="evenodd">
        <g id="Artboard">
            <g id="logo_zbw">
                <path d="M34.374,36.936 C34.374,33.742 31.84,31.208 28.645,31.208 C25.45,31.208 23.027,33.742 23.027,36.936 C23.027,40.133 25.45,42.556 28.645,42.556 C31.84,42.556 34.374,40.133 34.374,36.936" id="Fill-1" fill="#6F8F9D"></path>
                <path d="M16.085,52.14 C19.281,52.14 21.814,49.718 21.814,46.52 C21.814,43.326 19.281,40.792 16.085,40.792 C12.89,40.792 10.467,43.326 10.467,46.52 C10.467,49.718 12.89,52.14 16.085,52.14" id="Fill-2" fill="#6F8F9D"></path>
                <path d="M39.773,71.861 L10.796,71.861 L10.796,58.089 C10.796,54.784 8.593,52.804 5.398,52.804 C2.204,52.804 0,54.784 0,58.089 L0,78.913 C0,81.005 0.88,82 2.974,82 L39.773,82 C43.079,82 45.062,80.015 45.062,76.931 C45.062,73.845 43.079,71.861 39.773,71.861" id="Fill-3" fill="#6F8F9D"></path>
                <path d="M42.086,1.46 L5.287,1.46 C1.982,1.46 0,3.444 0,6.53 C0,9.611 1.982,11.595 5.287,11.595 L34.264,11.595 L34.264,25.367 C34.264,28.672 36.468,30.656 39.663,30.656 C42.858,30.656 45.062,28.672 45.062,25.367 L45.062,4.546 C45.062,2.45 44.18,1.46 42.086,1.46" id="Fill-4" fill="#6F8F9D"></path>
                <path d="M101.043,65.361 C101.043,69.33 99.279,71.861 95.203,71.861 L71.627,71.861 L71.627,44.759 L93.664,44.759 C98.29,44.759 101.043,46.631 101.043,51.039 L101.043,65.361 Z M71.627,11.595 L94.101,11.595 C98.177,11.595 99.941,14.13 99.941,18.098 L99.941,28.564 C99.941,32.972 97.519,34.843 93.664,34.843 L71.627,34.843 L71.627,11.595 Z M103.738,39.585 C108.108,38.045 110.74,35.477 110.74,28.757 L110.74,18.318 C110.74,7.3 104.129,1.46 93.882,1.46 L63.804,1.46 C61.712,1.46 60.83,2.45 60.83,4.546 L60.83,78.913 C60.83,81.005 61.712,82 63.804,82 L94.984,82 C105.232,82 111.842,76.159 111.842,65.142 L111.842,51.259 C111.842,44.133 109.503,40.694 103.738,39.585 L103.738,39.585 Z" id="Fill-5" fill="#6F8F9D"></path>
                <path d="M189.604,0.578 C186.411,0.578 184.208,2.561 184.208,6.085 L184.208,65.361 C184.208,69.33 182.443,71.861 178.366,71.861 L172.087,71.861 C167.681,71.861 166.135,69.438 166.135,65.582 L166.135,14.9 C166.135,11.376 164.043,9.392 160.851,9.392 C157.654,9.392 155.562,11.376 155.562,14.9 L155.562,65.582 C155.562,69.438 154.017,71.861 149.61,71.861 L143.331,71.861 C139.255,71.861 137.491,69.33 137.491,65.361 L137.491,6.085 C137.491,2.561 135.287,0.578 132.093,0.578 C128.9,0.578 126.696,2.561 126.696,6.085 L126.696,65.142 C126.696,76.159 133.307,82 143.55,82 L149.154,82 C156.381,82 158.93,81.432 160.843,77.062 C162.759,81.432 165.223,82 172.544,82 L178.148,82 C188.396,82 195.005,76.159 195.005,65.142 L195.005,6.085 C195.005,2.561 192.802,0.578 189.604,0.578" id="Fill-6" fill="#6F8F9D"></path>
                <path d="M217.366,14.201 C219.046,14.141 219.487,13.958 219.487,13.329 L219.487,3.709 C219.487,3.08 219.046,2.897 217.366,2.836 L217.366,1.842 L223.667,1.842 L223.667,2.836 C221.987,2.897 221.547,3.08 221.547,3.709 L221.547,13.978 L223.427,13.978 C226.068,13.978 226.688,13.024 227.449,10.264 L228.268,10.305 L228.129,15.196 L217.366,15.196 L217.366,14.201" id="Fill-7" fill="#1A1918"></path>
                <path d="M231.748,9.615 L235.889,9.534 C235.91,7.849 235.35,6.591 233.949,6.591 C232.848,6.591 231.908,7.281 231.748,9.615 Z M229.707,10.629 C229.707,7.849 231.488,5.718 234.09,5.718 C237.029,5.718 238.029,8.093 237.869,10.427 L231.729,10.406 L231.729,10.447 C231.729,12.497 232.709,14.12 234.67,14.12 C235.789,14.12 236.67,13.471 237.469,12.477 L238.029,13.024 C237.289,14.283 236.109,15.358 234.09,15.358 C231.289,15.358 229.707,13.309 229.707,10.629 L229.707,10.629 Z" id="Fill-8" fill="#1A1918"></path>
                <path d="M240.59,2.431 C240.59,1.66 241.09,1.112 241.83,1.112 C242.57,1.112 243.07,1.619 243.07,2.39 C243.07,3.161 242.57,3.689 241.83,3.689 C241.09,3.689 240.59,3.202 240.59,2.431 Z M239.488,14.222 C240.65,14.201 240.93,13.999 240.93,13.511 L240.93,7.89 C240.93,7.281 240.65,6.916 239.488,6.895 L239.488,5.921 L242.811,5.84 L242.811,13.511 C242.811,13.999 243.07,14.201 244.25,14.222 L244.25,15.196 L239.488,15.196 L239.488,14.222 L239.488,14.222 Z" id="Fill-9" fill="#1A1918"></path>
                <path d="M252.791,10.346 C252.791,8.377 251.811,7.017 250.371,7.017 C249.49,7.017 248.85,7.281 248.17,7.87 L248.17,12.943 C248.65,13.917 249.41,14.364 250.432,14.364 C252.092,14.364 252.791,12.902 252.791,10.346 Z M246.289,13.653 L246.289,3.121 C246.289,2.512 245.91,2.146 244.75,2.126 L244.75,1.132 L248.17,1.051 L248.17,6.957 C248.891,6.267 249.771,5.718 251.012,5.718 C253.451,5.718 254.852,7.626 254.852,10.244 C254.852,12.963 253.15,15.358 250.49,15.358 C249.391,15.358 248.49,14.973 247.631,14.323 L246.99,15.48 L246.23,15.48 L246.289,13.653 L246.289,13.653 Z" id="Fill-10" fill="#1A1918"></path>
                <path d="M256.191,14.222 C257.352,14.201 257.65,13.999 257.65,13.511 L257.65,7.89 C257.65,7.281 257.352,6.916 256.191,6.895 L256.191,5.921 L259.492,5.84 L259.492,7.24 C260.553,6.49 261.691,5.779 263.012,5.779 C264.393,5.779 265.373,6.774 265.373,8.6 L265.373,13.511 C265.373,13.999 265.652,14.201 266.834,14.222 L266.834,15.196 L262.213,15.196 L262.213,14.222 C263.232,14.201 263.492,13.999 263.492,13.511 L263.492,9.331 C263.492,7.707 262.912,7.24 261.771,7.24 C260.871,7.24 260.111,7.626 259.531,7.971 L259.531,13.511 C259.531,13.999 259.791,14.201 260.791,14.222 L260.791,15.196 L256.191,15.196 L256.191,14.222" id="Fill-11" fill="#1A1918"></path>
                <path d="M269.072,2.431 C269.072,1.66 269.572,1.112 270.313,1.112 C271.053,1.112 271.553,1.619 271.553,2.39 C271.553,3.161 271.053,3.689 270.313,3.689 C269.572,3.689 269.072,3.202 269.072,2.431 Z M267.973,14.222 C269.133,14.201 269.412,13.999 269.412,13.511 L269.412,7.89 C269.412,7.281 269.133,6.916 267.973,6.895 L267.973,5.921 L271.293,5.84 L271.293,13.511 C271.293,13.999 271.553,14.201 272.734,14.222 L272.734,15.196 L267.973,15.196 L267.973,14.222 L267.973,14.222 Z" id="Fill-12" fill="#1A1918"></path>
                <path d="M273.934,14.709 L279.395,6.834 L277.895,6.834 C276.395,6.834 275.953,7.038 274.973,9.331 L274.232,9.29 L274.434,5.881 L281.834,5.881 L281.895,6.368 L276.453,14.242 L278.193,14.242 C279.494,14.242 280.115,13.999 281.094,11.604 L281.834,11.645 L281.635,15.196 L273.992,15.196 L273.934,14.709" id="Fill-13" fill="#1A1918"></path>
                <polygon id="Fill-14" fill="#1A1918" points="283.994 10.913 289.115 10.913 289.115 9.351 283.994 9.351"></polygon>
                <path d="M290.756,14.201 C292.436,14.141 292.875,13.958 292.875,13.329 L292.875,3.709 C292.875,3.08 292.436,2.897 290.756,2.836 L290.756,1.842 L297.057,1.842 L297.057,2.836 C295.377,2.897 294.936,3.08 294.936,3.709 L294.936,13.329 C294.936,13.958 295.377,14.141 297.057,14.201 L297.057,15.196 L290.756,15.196 L290.756,14.201" id="Fill-15" fill="#1A1918"></path>
                <path d="M298.357,14.222 C299.518,14.201 299.816,13.999 299.816,13.511 L299.816,7.89 C299.816,7.281 299.518,6.916 298.357,6.895 L298.357,5.921 L301.658,5.84 L301.658,7.24 C302.719,6.49 303.857,5.779 305.178,5.779 C306.559,5.779 307.539,6.774 307.539,8.6 L307.539,13.511 C307.539,13.999 307.818,14.201 309,14.222 L309,15.196 L304.379,15.196 L304.379,14.222 C305.398,14.201 305.658,13.999 305.658,13.511 L305.658,9.331 C305.658,7.707 305.078,7.24 303.938,7.24 C303.037,7.24 302.277,7.626 301.697,7.971 L301.697,13.511 C301.697,13.999 301.957,14.201 302.957,14.222 L302.957,15.196 L298.357,15.196 L298.357,14.222" id="Fill-16" fill="#1A1918"></path>
                <path d="M309.959,14.222 C311.119,14.201 311.439,13.999 311.439,13.511 L311.439,6.977 L309.738,6.977 L309.738,6.246 L311.439,5.881 L311.439,5.495 C311.439,3.75 311.979,2.634 312.699,1.903 C313.34,1.254 314.119,0.929 314.9,0.929 C316.4,0.929 317.18,1.741 317.18,2.776 C317.18,3.405 316.779,3.872 316.199,3.872 C315.68,3.872 315.061,3.527 315.061,2.593 C315.061,2.431 315.08,2.248 315.119,2.045 C314.939,1.964 314.779,1.923 314.619,1.923 C314.299,1.923 314,2.045 313.779,2.269 C313.439,2.613 313.318,3.141 313.318,4.724 L313.318,5.921 L315.76,5.921 L315.76,6.977 L313.318,6.977 L313.318,13.511 C313.318,13.999 313.74,14.161 315.32,14.222 L315.32,15.196 L309.959,15.196 L309.959,14.222" id="Fill-17" fill="#1A1918"></path>
                <path d="M323.84,10.528 C323.84,7.87 322.861,6.713 321.26,6.713 C319.68,6.713 318.859,7.87 318.859,10.528 C318.859,13.187 319.84,14.364 321.439,14.364 C323,14.364 323.84,13.187 323.84,10.528 Z M316.779,10.569 C316.779,7.748 318.619,5.718 321.359,5.718 C324.182,5.718 325.922,7.666 325.922,10.487 C325.922,13.329 324.08,15.358 321.359,15.358 C318.5,15.358 316.779,13.41 316.779,10.569 L316.779,10.569 Z" id="Fill-18" fill="#1A1918"></path>
                <path d="M327.26,14.222 C328.42,14.201 328.721,13.999 328.721,13.511 L328.721,7.89 C328.721,7.281 328.42,6.916 327.26,6.895 L327.26,5.921 L330.561,5.84 L330.561,7.423 C331.262,6.53 332.082,5.779 333.121,5.779 C334.143,5.779 334.662,6.49 334.662,7.362 C334.662,8.012 334.182,8.58 333.563,8.58 C332.961,8.58 332.4,8.255 332.4,7.484 C332.4,7.382 332.422,7.261 332.441,7.139 C331.541,7.099 331.021,7.707 330.602,8.215 L330.602,13.511 C330.602,13.999 330.961,14.201 332.281,14.222 L332.281,15.196 L327.26,15.196 L327.26,14.222" id="Fill-19" fill="#1A1918"></path>
                <path d="M341.563,14.222 C342.563,14.201 342.723,13.999 342.723,13.511 L342.723,9.351 C342.723,7.728 342.123,7.24 340.982,7.24 C340.082,7.24 339.521,7.626 338.941,7.971 L338.941,13.511 C338.941,13.999 339.082,14.201 340.082,14.222 L340.082,15.196 L335.602,15.196 L335.602,14.222 C336.762,14.201 337.061,13.999 337.061,13.511 L337.061,7.89 C337.061,7.281 336.762,6.916 335.602,6.895 L335.602,5.921 L338.902,5.84 L338.902,7.24 C339.963,6.49 340.922,5.779 342.242,5.779 C343.262,5.779 344.063,6.388 344.424,7.443 C345.584,6.429 346.723,5.779 347.984,5.779 C349.363,5.779 350.264,6.774 350.264,8.6 L350.264,13.511 C350.264,13.999 350.564,14.201 351.725,14.222 L351.725,15.196 L347.223,15.196 L347.223,14.222 C348.225,14.201 348.383,13.999 348.383,13.511 L348.383,9.351 C348.383,7.728 347.863,7.24 346.723,7.24 C346.063,7.24 345.443,7.545 344.563,8.133 C344.582,8.397 344.604,8.56 344.604,8.722 L344.604,13.511 C344.604,13.999 344.783,14.201 345.943,14.222 L345.943,15.196 L341.563,15.196 L341.563,14.222" id="Fill-20" fill="#1A1918"></path>
                <path d="M358.363,12.801 L358.363,10.487 C355.563,11.137 355.043,11.563 355.043,12.72 C355.043,13.39 355.383,14.019 356.424,14.019 C357.223,14.019 357.924,13.43 358.363,12.801 Z M352.941,13.187 C352.941,12.375 353.322,11.543 354.162,11.076 C355.684,10.224 358.063,9.879 358.363,9.635 L358.363,9.067 C358.363,7.362 357.904,6.733 356.604,6.733 C355.963,6.733 355.604,6.875 355.283,7.139 C355.443,7.484 355.482,7.809 355.482,8.093 C355.482,8.702 355.104,9.229 354.422,9.229 C353.703,9.229 353.262,8.681 353.262,8.093 C353.262,6.692 354.963,5.779 356.883,5.779 C358.963,5.779 360.244,6.733 360.244,8.681 L360.244,12.984 C360.244,13.978 360.324,14.283 361.645,14.12 L361.725,14.892 C361.004,15.155 360.604,15.277 360.064,15.277 C359.004,15.277 358.643,14.892 358.543,13.714 L358.363,13.714 C357.563,14.627 356.643,15.317 355.463,15.317 C353.783,15.317 352.941,14.384 352.941,13.187 L352.941,13.187 Z" id="Fill-21" fill="#1A1918"></path>
                <path d="M363.686,12.821 L363.686,6.977 L362.084,6.977 L362.084,6.246 L363.725,5.881 L363.725,3.243 L365.564,2.512 L365.564,5.921 L368.365,5.921 L368.365,6.977 L365.564,6.977 L365.564,12.598 C365.564,13.714 365.906,14.161 366.746,14.161 C367.307,14.161 367.686,13.734 368.125,13.085 L368.727,13.552 C367.986,14.912 367.326,15.358 366.045,15.358 C364.445,15.358 363.686,14.343 363.686,12.821" id="Fill-22" fill="#1A1918"></path>
                <path d="M370.805,2.431 C370.805,1.66 371.305,1.112 372.045,1.112 C372.785,1.112 373.285,1.619 373.285,2.39 C373.285,3.161 372.785,3.689 372.045,3.689 C371.305,3.689 370.805,3.202 370.805,2.431 Z M369.705,14.222 C370.865,14.201 371.145,13.999 371.145,13.511 L371.145,7.89 C371.145,7.281 370.865,6.916 369.705,6.895 L369.705,5.921 L373.025,5.84 L373.025,13.511 C373.025,13.999 373.285,14.201 374.467,14.222 L374.467,15.196 L369.705,15.196 L369.705,14.222 L369.705,14.222 Z" id="Fill-23" fill="#1A1918"></path>
                <path d="M382.746,10.528 C382.746,7.87 381.768,6.713 380.166,6.713 C378.586,6.713 377.766,7.87 377.766,10.528 C377.766,13.187 378.746,14.364 380.346,14.364 C381.906,14.364 382.746,13.187 382.746,10.528 Z M375.686,10.569 C375.686,7.748 377.525,5.718 380.266,5.718 C383.088,5.718 384.828,7.666 384.828,10.487 C384.828,13.329 382.986,15.358 380.266,15.358 C377.406,15.358 375.686,13.41 375.686,10.569 L375.686,10.569 Z" id="Fill-24" fill="#1A1918"></path>
                <path d="M386.166,14.222 C387.326,14.201 387.627,13.999 387.627,13.511 L387.627,7.89 C387.627,7.281 387.326,6.916 386.166,6.895 L386.166,5.921 L389.467,5.84 L389.467,7.24 C390.527,6.49 391.668,5.779 392.988,5.779 C394.369,5.779 395.348,6.774 395.348,8.6 L395.348,13.511 C395.348,13.999 395.629,14.201 396.809,14.222 L396.809,15.196 L392.188,15.196 L392.188,14.222 C393.207,14.201 393.469,13.999 393.469,13.511 L393.469,9.331 C393.469,7.707 392.889,7.24 391.748,7.24 C390.848,7.24 390.088,7.626 389.508,7.971 L389.508,13.511 C389.508,13.999 389.768,14.201 390.768,14.222 L390.768,15.196 L386.166,15.196 L386.166,14.222" id="Fill-25" fill="#1A1918"></path>
                <path d="M398.188,12.253 L399.029,12.253 C399.949,13.734 400.809,14.404 401.969,14.404 C402.889,14.404 403.389,13.836 403.389,13.207 C403.389,12.334 402.789,11.827 401.109,11.38 C399.088,10.833 398.289,9.96 398.289,8.681 C398.289,6.916 399.588,5.718 401.568,5.718 C402.209,5.718 402.949,5.982 403.35,6.307 L403.709,5.718 L404.43,5.718 L404.43,8.499 L403.59,8.499 C402.889,7.301 402.309,6.672 401.328,6.672 C400.35,6.672 399.848,7.18 399.848,7.89 C399.848,8.702 400.529,9.107 402.029,9.514 C404.029,10.061 404.83,10.853 404.83,12.233 C404.83,13.937 403.85,15.358 401.67,15.358 C400.828,15.358 399.969,15.054 399.449,14.627 L398.908,15.358 L398.188,15.358 L398.188,12.253" id="Fill-26" fill="#1A1918"></path>
                <path d="M406.51,14.709 L411.971,6.834 L410.471,6.834 C408.971,6.834 408.531,7.038 407.551,9.331 L406.811,9.29 L407.01,5.881 L414.412,5.881 L414.473,6.368 L409.031,14.242 L410.771,14.242 C412.072,14.242 412.691,13.999 413.672,11.604 L414.412,11.645 L414.211,15.196 L406.57,15.196 L406.51,14.709" id="Fill-27" fill="#1A1918"></path>
                <path d="M417.992,9.615 L422.133,9.534 C422.152,7.849 421.592,6.591 420.191,6.591 C419.092,6.591 418.152,7.281 417.992,9.615 Z M415.951,10.629 C415.951,7.849 417.732,5.718 420.332,5.718 C423.273,5.718 424.273,8.093 424.113,10.427 L417.971,10.406 L417.971,10.447 C417.971,12.497 418.951,14.12 420.912,14.12 C422.033,14.12 422.912,13.471 423.713,12.477 L424.273,13.024 C423.533,14.283 422.352,15.358 420.332,15.358 C417.531,15.358 415.951,13.309 415.951,10.629 L415.951,10.629 Z" id="Fill-28" fill="#1A1918"></path>
                <path d="M425.633,14.222 C426.793,14.201 427.092,13.999 427.092,13.511 L427.092,7.89 C427.092,7.281 426.793,6.916 425.633,6.895 L425.633,5.921 L428.934,5.84 L428.934,7.24 C429.994,6.49 431.133,5.779 432.453,5.779 C433.834,5.779 434.814,6.774 434.814,8.6 L434.814,13.511 C434.814,13.999 435.094,14.201 436.275,14.222 L436.275,15.196 L431.654,15.196 L431.654,14.222 C432.674,14.201 432.934,13.999 432.934,13.511 L432.934,9.331 C432.934,7.707 432.354,7.24 431.213,7.24 C430.313,7.24 429.553,7.626 428.973,7.971 L428.973,13.511 C428.973,13.999 429.232,14.201 430.232,14.222 L430.232,15.196 L425.633,15.196 L425.633,14.222" id="Fill-29" fill="#1A1918"></path>
                <path d="M438.455,12.821 L438.455,6.977 L436.854,6.977 L436.854,6.246 L438.494,5.881 L438.494,3.243 L440.334,2.512 L440.334,5.921 L443.135,5.921 L443.135,6.977 L440.334,6.977 L440.334,12.598 C440.334,13.714 440.676,14.161 441.516,14.161 C442.076,14.161 442.455,13.734 442.895,13.085 L443.496,13.552 C442.756,14.912 442.096,15.358 440.814,15.358 C439.215,15.358 438.455,14.343 438.455,12.821" id="Fill-30" fill="#1A1918"></path>
                <path d="M444.455,14.222 C445.615,14.201 445.914,13.999 445.914,13.511 L445.914,7.89 C445.914,7.281 445.615,6.916 444.455,6.895 L444.455,5.921 L447.756,5.84 L447.756,7.423 C448.455,6.53 449.275,5.779 450.316,5.779 C451.336,5.779 451.855,6.49 451.855,7.362 C451.855,8.012 451.377,8.58 450.756,8.58 C450.156,8.58 449.596,8.255 449.596,7.484 C449.596,7.382 449.615,7.261 449.635,7.139 C448.736,7.099 448.215,7.707 447.795,8.215 L447.795,13.511 C447.795,13.999 448.156,14.201 449.477,14.222 L449.477,15.196 L444.455,15.196 L444.455,14.222" id="Fill-31" fill="#1A1918"></path>
                <path d="M454.016,12.537 L454.016,7.707 C454.016,7.078 453.695,6.936 452.535,6.895 L452.535,5.921 L455.896,5.82 L455.896,11.807 C455.896,13.43 456.477,13.897 457.736,13.897 C458.637,13.897 459.197,13.613 459.816,13.309 L459.816,7.707 C459.816,7.078 459.438,6.936 458.336,6.895 L458.336,5.921 L461.697,5.82 L461.697,13.511 C461.697,14.019 461.998,14.201 463.158,14.242 L463.158,15.196 L459.857,15.196 L459.857,14.019 C458.857,14.749 457.816,15.358 456.496,15.358 C455.057,15.358 454.016,14.364 454.016,12.537" id="Fill-32" fill="#1A1918"></path>
                <path d="M470.219,14.222 C471.219,14.201 471.379,13.999 471.379,13.511 L471.379,9.351 C471.379,7.728 470.779,7.24 469.639,7.24 C468.738,7.24 468.178,7.626 467.598,7.971 L467.598,13.511 C467.598,13.999 467.738,14.201 468.738,14.222 L468.738,15.196 L464.258,15.196 L464.258,14.222 C465.418,14.201 465.717,13.999 465.717,13.511 L465.717,7.89 C465.717,7.281 465.418,6.916 464.258,6.895 L464.258,5.921 L467.559,5.84 L467.559,7.24 C468.619,6.49 469.578,5.779 470.898,5.779 C471.918,5.779 472.719,6.388 473.08,7.443 C474.24,6.429 475.379,5.779 476.641,5.779 C478.02,5.779 478.92,6.774 478.92,8.6 L478.92,13.511 C478.92,13.999 479.221,14.201 480.381,14.222 L480.381,15.196 L475.879,15.196 L475.879,14.222 C476.881,14.201 477.039,13.999 477.039,13.511 L477.039,9.351 C477.039,7.728 476.52,7.24 475.379,7.24 C474.719,7.24 474.1,7.545 473.219,8.133 C473.238,8.397 473.26,8.56 473.26,8.722 L473.26,13.511 C473.26,13.999 473.439,14.201 474.6,14.222 L474.6,15.196 L470.219,15.196 L470.219,14.222" id="Fill-33" fill="#1A1918"></path>
                <path d="M225.708,26.127 C225.408,25.174 225.088,24.93 223.768,24.626 L223.768,23.692 L229.209,23.692 L229.209,24.626 C227.869,24.788 227.529,25.153 227.729,25.803 L230.209,33.9 L230.389,33.9 L232.529,27.224 C233.189,25.174 233.25,24.91 231.369,24.626 L231.369,23.692 L236.211,23.692 L236.211,24.626 C234.85,24.91 234.391,25.377 233.789,27.203 L230.449,37.371 L229.248,37.371 L226.508,28.685 L223.268,37.371 L222.067,37.371 L218.667,26.067 C218.406,25.194 218.006,24.93 216.606,24.626 L216.606,23.692 L222.107,23.692 L222.107,24.626 C220.807,24.788 220.547,25.113 220.787,25.904 L223.107,33.9 L223.288,33.9 L225.947,26.919 L225.708,26.127" id="Fill-34" fill="#1A1918"></path>
                <path d="M237.77,24.281 C237.77,23.51 238.27,22.962 239.01,22.962 C239.75,22.962 240.25,23.469 240.25,24.24 C240.25,25.011 239.75,25.539 239.01,25.539 C238.27,25.539 237.77,25.052 237.77,24.281 Z M236.668,36.072 C237.83,36.051 238.109,35.849 238.109,35.361 L238.109,29.74 C238.109,29.131 237.83,28.766 236.668,28.746 L236.668,27.771 L239.99,27.69 L239.99,35.361 C239.99,35.849 240.25,36.051 241.43,36.072 L241.43,37.046 L236.668,37.046 L236.668,36.072 L236.668,36.072 Z" id="Fill-35" fill="#1A1918"></path>
                <path d="M242.629,36.072 C243.789,36.051 244.09,35.849 244.09,35.361 L244.09,29.74 C244.09,29.131 243.789,28.766 242.629,28.746 L242.629,27.771 L245.93,27.69 L245.93,29.273 C246.631,28.38 247.451,27.629 248.49,27.629 C249.512,27.629 250.031,28.34 250.031,29.212 C250.031,29.862 249.551,30.43 248.932,30.43 C248.33,30.43 247.77,30.105 247.77,29.334 C247.77,29.232 247.791,29.111 247.811,28.989 C246.91,28.949 246.391,29.557 245.971,30.064 L245.971,35.361 C245.971,35.849 246.33,36.051 247.65,36.072 L247.65,37.046 L242.629,37.046 L242.629,36.072" id="Fill-36" fill="#1A1918"></path>
                <path d="M252.291,34.671 L252.291,28.827 L250.689,28.827 L250.689,28.096 L252.33,27.731 L252.33,25.093 L254.17,24.362 L254.17,27.771 L256.971,27.771 L256.971,28.827 L254.17,28.827 L254.17,34.448 C254.17,35.564 254.512,36.011 255.352,36.011 C255.912,36.011 256.291,35.585 256.73,34.936 L257.332,35.402 C256.592,36.762 255.932,37.208 254.65,37.208 C253.051,37.208 252.291,36.193 252.291,34.671" id="Fill-37" fill="#1A1918"></path>
                <path d="M258.551,34.103 L259.393,34.103 C260.313,35.585 261.172,36.254 262.332,36.254 C263.252,36.254 263.752,35.686 263.752,35.057 C263.752,34.185 263.152,33.677 261.473,33.23 C259.451,32.683 258.652,31.81 258.652,30.531 C258.652,28.766 259.951,27.568 261.932,27.568 C262.572,27.568 263.313,27.833 263.713,28.157 L264.072,27.568 L264.793,27.568 L264.793,30.349 L263.953,30.349 C263.252,29.151 262.672,28.522 261.691,28.522 C260.713,28.522 260.211,29.03 260.211,29.74 C260.211,30.552 260.893,30.958 262.393,31.363 C264.393,31.912 265.193,32.703 265.193,34.083 C265.193,35.788 264.213,37.208 262.033,37.208 C261.191,37.208 260.332,36.904 259.813,36.478 L259.271,37.208 L258.551,37.208 L258.551,34.103" id="Fill-38" fill="#1A1918"></path>
                <path d="M266.732,32.479 C266.732,29.659 268.752,27.568 271.254,27.568 C273.314,27.568 274.613,28.685 274.613,29.902 C274.613,30.714 274.113,31.384 273.414,31.384 C272.734,31.384 272.254,30.937 272.254,30.329 C272.254,29.781 272.613,29.395 272.895,29.232 C272.693,28.908 272.033,28.563 271.293,28.563 C269.793,28.563 268.752,29.456 268.752,32.033 C268.752,34.448 269.732,35.97 271.693,35.97 C272.814,35.97 273.654,35.321 274.334,34.529 L274.895,35.077 C274.055,36.315 273.033,37.208 271.053,37.208 C268.434,37.208 266.732,35.179 266.732,32.479" id="Fill-39" fill="#1A1918"></path>
                <path d="M275.693,36.072 C276.854,36.051 277.174,35.849 277.174,35.361 L277.174,24.951 C277.174,24.342 276.793,23.977 275.633,23.956 L275.633,22.982 L279.055,22.901 L279.055,29.07 C280.135,28.319 281.234,27.629 282.555,27.629 C283.916,27.629 284.895,28.624 284.895,30.45 L284.895,35.361 C284.895,35.849 285.195,36.051 286.355,36.072 L286.355,37.046 L281.734,37.046 L281.734,36.072 C282.734,36.051 283.016,35.849 283.016,35.361 L283.016,31.181 C283.016,29.557 282.436,29.091 281.295,29.091 C280.395,29.091 279.635,29.476 279.055,29.821 L279.055,35.361 C279.055,35.849 279.314,36.051 280.314,36.072 L280.314,37.046 L275.693,37.046 L275.693,36.072" id="Fill-40" fill="#1A1918"></path>
                <path d="M292.996,34.651 L292.996,32.338 C290.195,32.987 289.676,33.413 289.676,34.57 C289.676,35.24 290.016,35.869 291.057,35.869 C291.855,35.869 292.557,35.28 292.996,34.651 Z M287.574,35.037 C287.574,34.225 287.955,33.393 288.795,32.926 C290.316,32.074 292.695,31.729 292.996,31.485 L292.996,30.917 C292.996,29.212 292.537,28.583 291.236,28.583 C290.596,28.583 290.236,28.725 289.916,28.989 C290.076,29.334 290.115,29.659 290.115,29.943 C290.115,30.552 289.736,31.08 289.055,31.08 C288.336,31.08 287.895,30.531 287.895,29.943 C287.895,28.542 289.596,27.629 291.516,27.629 C293.596,27.629 294.877,28.583 294.877,30.531 L294.877,34.834 C294.877,35.828 294.957,36.133 296.277,35.97 L296.357,36.742 C295.637,37.005 295.236,37.127 294.697,37.127 C293.637,37.127 293.275,36.742 293.176,35.564 L292.996,35.564 C292.195,36.478 291.275,37.167 290.096,37.167 C288.416,37.167 287.574,36.234 287.574,35.037 L287.574,35.037 Z" id="Fill-41" fill="#1A1918"></path>
                <path d="M297.037,36.072 C298.197,36.051 298.518,35.849 298.518,35.361 L298.518,28.827 L296.816,28.827 L296.816,28.096 L298.518,27.731 L298.518,27.345 C298.518,25.6 299.057,24.484 299.777,23.753 C300.418,23.104 301.197,22.779 301.979,22.779 C303.479,22.779 304.258,23.591 304.258,24.626 C304.258,25.255 303.857,25.722 303.277,25.722 C302.758,25.722 302.139,25.377 302.139,24.443 C302.139,24.281 302.158,24.098 302.197,23.896 C302.018,23.814 301.857,23.773 301.697,23.773 C301.377,23.773 301.078,23.896 300.857,24.119 C300.518,24.463 300.396,24.991 300.396,26.574 L300.396,27.771 L302.838,27.771 L302.838,28.827 L300.396,28.827 L300.396,35.361 C300.396,35.849 300.818,36.011 302.398,36.072 L302.398,37.046 L297.037,37.046 L297.037,36.072" id="Fill-42" fill="#1A1918"></path>
                <path d="M305.277,34.671 L305.277,28.827 L303.678,28.827 L303.678,28.096 L305.318,27.731 L305.318,25.093 L307.158,24.362 L307.158,27.771 L309.959,27.771 L309.959,28.827 L307.158,28.827 L307.158,34.448 C307.158,35.564 307.498,36.011 308.338,36.011 C308.898,36.011 309.279,35.585 309.719,34.936 L310.318,35.402 C309.578,36.762 308.918,37.208 307.639,37.208 C306.037,37.208 305.277,36.193 305.277,34.671" id="Fill-43" fill="#1A1918"></path>
                <path d="M217.366,57.901 C219.046,57.84 219.487,57.658 219.487,57.028 L219.487,47.409 C219.487,46.78 219.046,46.597 217.366,46.536 L217.366,45.542 L223.667,45.542 L223.667,46.536 C221.987,46.597 221.547,46.78 221.547,47.409 L221.547,57.678 L223.427,57.678 C226.068,57.678 226.688,56.724 227.449,53.964 L228.268,54.004 L228.129,58.896 L217.366,58.896 L217.366,57.901" id="Fill-44" fill="#1A1918"></path>
                <path d="M231.748,53.314 L235.889,53.233 C235.91,51.549 235.35,50.291 233.949,50.291 C232.848,50.291 231.908,50.981 231.748,53.314 Z M229.707,54.329 C229.707,51.549 231.488,49.418 234.09,49.418 C237.029,49.418 238.029,51.792 237.869,54.126 L231.729,54.106 L231.729,54.146 C231.729,56.196 232.709,57.82 234.67,57.82 C235.789,57.82 236.67,57.17 237.469,56.176 L238.029,56.724 C237.289,57.982 236.109,59.058 234.09,59.058 C231.289,59.058 229.707,57.008 229.707,54.329 L229.707,54.329 Z" id="Fill-45" fill="#1A1918"></path>
                <path d="M240.59,46.13 C240.59,45.359 241.09,44.812 241.83,44.812 C242.57,44.812 243.07,45.319 243.07,46.09 C243.07,46.861 242.57,47.389 241.83,47.389 C241.09,47.389 240.59,46.902 240.59,46.13 Z M239.488,57.921 C240.65,57.901 240.93,57.698 240.93,57.211 L240.93,51.59 C240.93,50.981 240.65,50.615 239.488,50.595 L239.488,49.621 L242.811,49.54 L242.811,57.211 C242.811,57.698 243.07,57.901 244.25,57.921 L244.25,58.896 L239.488,58.896 L239.488,57.921 L239.488,57.921 Z" id="Fill-46" fill="#1A1918"></path>
                <path d="M252.791,54.045 C252.791,52.077 251.811,50.717 250.371,50.717 C249.49,50.717 248.85,50.981 248.17,51.569 L248.17,56.643 C248.65,57.617 249.41,58.063 250.432,58.063 C252.092,58.063 252.791,56.602 252.791,54.045 Z M246.289,57.353 L246.289,46.82 C246.289,46.211 245.91,45.846 244.75,45.826 L244.75,44.832 L248.17,44.751 L248.17,50.656 C248.891,49.966 249.771,49.418 251.012,49.418 C253.451,49.418 254.852,51.326 254.852,53.944 C254.852,56.663 253.15,59.058 250.49,59.058 C249.391,59.058 248.49,58.672 247.631,58.023 L246.99,59.18 L246.23,59.18 L246.289,57.353 L246.289,57.353 Z" id="Fill-47" fill="#1A1918"></path>
                <path d="M256.191,57.921 C257.352,57.901 257.65,57.698 257.65,57.211 L257.65,51.59 C257.65,50.981 257.352,50.615 256.191,50.595 L256.191,49.621 L259.492,49.54 L259.492,50.94 C260.553,50.189 261.691,49.479 263.012,49.479 C264.393,49.479 265.373,50.474 265.373,52.3 L265.373,57.211 C265.373,57.698 265.652,57.901 266.834,57.921 L266.834,58.896 L262.213,58.896 L262.213,57.921 C263.232,57.901 263.492,57.698 263.492,57.211 L263.492,53.03 C263.492,51.407 262.912,50.94 261.771,50.94 C260.871,50.94 260.111,51.326 259.531,51.671 L259.531,57.211 C259.531,57.698 259.791,57.901 260.791,57.921 L260.791,58.896 L256.191,58.896 L256.191,57.921" id="Fill-48" fill="#1A1918"></path>
                <path d="M269.072,46.13 C269.072,45.359 269.572,44.812 270.313,44.812 C271.053,44.812 271.553,45.319 271.553,46.09 C271.553,46.861 271.053,47.389 270.313,47.389 C269.572,47.389 269.072,46.902 269.072,46.13 Z M267.973,57.921 C269.133,57.901 269.412,57.698 269.412,57.211 L269.412,51.59 C269.412,50.981 269.133,50.615 267.973,50.595 L267.973,49.621 L271.293,49.54 L271.293,57.211 C271.293,57.698 271.553,57.901 272.734,57.921 L272.734,58.896 L267.973,58.896 L267.973,57.921 L267.973,57.921 Z" id="Fill-49" fill="#1A1918"></path>
                <path d="M273.934,58.408 L279.395,50.534 L277.895,50.534 C276.395,50.534 275.953,50.737 274.973,53.03 L274.232,52.99 L274.434,49.581 L281.834,49.581 L281.895,50.067 L276.453,57.942 L278.193,57.942 C279.494,57.942 280.115,57.698 281.094,55.303 L281.834,55.344 L281.635,58.896 L273.992,58.896 L273.934,58.408" id="Fill-50" fill="#1A1918"></path>
                <path d="M288.096,57.901 C289.775,57.84 290.215,57.658 290.215,57.028 L290.215,47.409 C290.215,46.78 289.775,46.597 288.096,46.536 L288.096,45.542 L294.396,45.542 L294.396,46.536 C292.717,46.597 292.275,46.78 292.275,47.409 L292.275,57.028 C292.275,57.658 292.717,57.84 294.396,57.901 L294.396,58.896 L288.096,58.896 L288.096,57.901" id="Fill-51" fill="#1A1918"></path>
                <path d="M295.695,57.921 C296.855,57.901 297.156,57.698 297.156,57.211 L297.156,51.59 C297.156,50.981 296.855,50.615 295.695,50.595 L295.695,49.621 L298.996,49.54 L298.996,50.94 C300.057,50.189 301.197,49.479 302.518,49.479 C303.898,49.479 304.877,50.474 304.877,52.3 L304.877,57.211 C304.877,57.698 305.158,57.901 306.338,57.921 L306.338,58.896 L301.717,58.896 L301.717,57.921 C302.736,57.901 302.998,57.698 302.998,57.211 L302.998,53.03 C302.998,51.407 302.418,50.94 301.277,50.94 C300.377,50.94 299.617,51.326 299.037,51.671 L299.037,57.211 C299.037,57.698 299.297,57.901 300.297,57.921 L300.297,58.896 L295.695,58.896 L295.695,57.921" id="Fill-52" fill="#1A1918"></path>
                <path d="M307.297,57.921 C308.457,57.901 308.777,57.698 308.777,57.211 L308.777,50.676 L307.078,50.676 L307.078,49.946 L308.777,49.581 L308.777,49.195 C308.777,47.45 309.318,46.334 310.037,45.603 C310.678,44.954 311.459,44.629 312.238,44.629 C313.738,44.629 314.52,45.44 314.52,46.476 C314.52,47.105 314.119,47.571 313.539,47.571 C313.02,47.571 312.398,47.227 312.398,46.293 C312.398,46.13 312.418,45.948 312.459,45.745 C312.279,45.664 312.119,45.623 311.959,45.623 C311.639,45.623 311.338,45.745 311.119,45.968 C310.777,46.313 310.658,46.841 310.658,48.424 L310.658,49.621 L313.1,49.621 L313.1,50.676 L310.658,50.676 L310.658,57.211 C310.658,57.698 311.078,57.86 312.658,57.921 L312.658,58.896 L307.297,58.896 L307.297,57.921" id="Fill-53" fill="#1A1918"></path>
                <path d="M321.18,54.228 C321.18,51.569 320.199,50.413 318.6,50.413 C317.02,50.413 316.199,51.569 316.199,54.228 C316.199,56.886 317.18,58.063 318.779,58.063 C320.34,58.063 321.18,56.886 321.18,54.228 Z M314.117,54.269 C314.117,51.448 315.959,49.418 318.699,49.418 C321.52,49.418 323.26,51.366 323.26,54.188 C323.26,57.028 321.42,59.058 318.699,59.058 C315.838,59.058 314.117,57.109 314.117,54.269 L314.117,54.269 Z" id="Fill-54" fill="#1A1918"></path>
                <path d="M324.6,57.921 C325.76,57.901 326.059,57.698 326.059,57.211 L326.059,51.59 C326.059,50.981 325.76,50.615 324.6,50.595 L324.6,49.621 L327.9,49.54 L327.9,51.123 C328.6,50.23 329.42,49.479 330.461,49.479 C331.48,49.479 332,50.189 332,51.062 C332,51.711 331.521,52.28 330.9,52.28 C330.301,52.28 329.74,51.955 329.74,51.184 C329.74,51.082 329.76,50.96 329.779,50.839 C328.881,50.798 328.359,51.407 327.939,51.914 L327.939,57.211 C327.939,57.698 328.301,57.901 329.621,57.921 L329.621,58.896 L324.6,58.896 L324.6,57.921" id="Fill-55" fill="#1A1918"></path>
                <path d="M338.9,57.921 C339.902,57.901 340.061,57.698 340.061,57.211 L340.061,53.051 C340.061,51.427 339.461,50.94 338.32,50.94 C337.42,50.94 336.861,51.326 336.281,51.671 L336.281,57.211 C336.281,57.698 336.42,57.901 337.42,57.921 L337.42,58.896 L332.939,58.896 L332.939,57.921 C334.1,57.901 334.4,57.698 334.4,57.211 L334.4,51.59 C334.4,50.981 334.1,50.615 332.939,50.595 L332.939,49.621 L336.24,49.54 L336.24,50.94 C337.301,50.189 338.262,49.479 339.582,49.479 C340.602,49.479 341.402,50.088 341.762,51.143 C342.922,50.128 344.063,49.479 345.322,49.479 C346.703,49.479 347.604,50.474 347.604,52.3 L347.604,57.211 C347.604,57.698 347.902,57.901 349.063,57.921 L349.063,58.896 L344.563,58.896 L344.563,57.921 C345.563,57.901 345.723,57.698 345.723,57.211 L345.723,53.051 C345.723,51.427 345.203,50.94 344.063,50.94 C343.402,50.94 342.781,51.245 341.902,51.833 C341.922,52.097 341.941,52.259 341.941,52.422 L341.941,57.211 C341.941,57.698 342.121,57.901 343.281,57.921 L343.281,58.896 L338.9,58.896 L338.9,57.921" id="Fill-56" fill="#1A1918"></path>
                <path d="M355.703,56.501 L355.703,54.188 C352.902,54.837 352.383,55.263 352.383,56.419 C352.383,57.089 352.723,57.718 353.764,57.718 C354.563,57.718 355.264,57.13 355.703,56.501 Z M350.281,56.886 C350.281,56.075 350.662,55.243 351.502,54.776 C353.023,53.923 355.402,53.579 355.703,53.335 L355.703,52.767 C355.703,51.062 355.244,50.433 353.943,50.433 C353.303,50.433 352.943,50.575 352.623,50.839 C352.783,51.184 352.822,51.508 352.822,51.792 C352.822,52.401 352.443,52.929 351.762,52.929 C351.043,52.929 350.602,52.381 350.602,51.792 C350.602,50.392 352.303,49.479 354.223,49.479 C356.303,49.479 357.584,50.433 357.584,52.381 L357.584,56.684 C357.584,57.678 357.664,57.982 358.984,57.82 L359.064,58.591 C358.344,58.855 357.943,58.977 357.404,58.977 C356.344,58.977 355.982,58.591 355.883,57.414 L355.703,57.414 C354.902,58.327 353.982,59.017 352.803,59.017 C351.123,59.017 350.281,58.084 350.281,56.886 L350.281,56.886 Z" id="Fill-57" fill="#1A1918"></path>
                <path d="M361.023,56.521 L361.023,50.676 L359.424,50.676 L359.424,49.946 L361.064,49.581 L361.064,46.942 L362.904,46.211 L362.904,49.621 L365.705,49.621 L365.705,50.676 L362.904,50.676 L362.904,56.298 C362.904,57.414 363.244,57.86 364.084,57.86 C364.645,57.86 365.025,57.434 365.465,56.785 L366.064,57.251 C365.324,58.611 364.664,59.058 363.385,59.058 C361.783,59.058 361.023,58.043 361.023,56.521" id="Fill-58" fill="#1A1918"></path>
                <path d="M368.145,46.13 C368.145,45.359 368.645,44.812 369.385,44.812 C370.125,44.812 370.625,45.319 370.625,46.09 C370.625,46.861 370.125,47.389 369.385,47.389 C368.645,47.389 368.145,46.902 368.145,46.13 Z M367.045,57.921 C368.205,57.901 368.484,57.698 368.484,57.211 L368.484,51.59 C368.484,50.981 368.205,50.615 367.045,50.595 L367.045,49.621 L370.365,49.54 L370.365,57.211 C370.365,57.698 370.625,57.901 371.807,57.921 L371.807,58.896 L367.045,58.896 L367.045,57.921 L367.045,57.921 Z" id="Fill-59" fill="#1A1918"></path>
                <path d="M380.086,54.228 C380.086,51.569 379.107,50.413 377.506,50.413 C375.926,50.413 375.105,51.569 375.105,54.228 C375.105,56.886 376.086,58.063 377.686,58.063 C379.246,58.063 380.086,56.886 380.086,54.228 Z M373.025,54.269 C373.025,51.448 374.865,49.418 377.605,49.418 C380.428,49.418 382.168,51.366 382.168,54.188 C382.168,57.028 380.326,59.058 377.605,59.058 C374.746,59.058 373.025,57.109 373.025,54.269 L373.025,54.269 Z" id="Fill-60" fill="#1A1918"></path>
                <path d="M383.506,57.921 C384.666,57.901 384.967,57.698 384.967,57.211 L384.967,51.59 C384.967,50.981 384.666,50.615 383.506,50.595 L383.506,49.621 L386.807,49.54 L386.807,50.94 C387.867,50.189 389.008,49.479 390.328,49.479 C391.709,49.479 392.688,50.474 392.688,52.3 L392.688,57.211 C392.688,57.698 392.969,57.901 394.148,57.921 L394.148,58.896 L389.527,58.896 L389.527,57.921 C390.547,57.901 390.809,57.698 390.809,57.211 L390.809,53.03 C390.809,51.407 390.229,50.94 389.088,50.94 C388.188,50.94 387.428,51.326 386.848,51.671 L386.848,57.211 C386.848,57.698 387.107,57.901 388.107,57.921 L388.107,58.896 L383.506,58.896 L383.506,57.921" id="Fill-61" fill="#1A1918"></path>
                <path d="M399.389,52.381 C399.389,48.302 402.43,45.217 406.211,45.217 C407.59,45.217 408.57,45.684 409.311,46.13 L409.932,45.278 L410.752,45.278 L410.752,50.007 L410.051,50.007 C409.15,47.713 407.971,46.395 406.01,46.395 C403.709,46.395 401.709,48.464 401.709,52.3 C401.709,55.933 403.93,57.8 406.371,57.8 C408.631,57.8 409.592,56.643 410.432,54.938 L411.313,55.385 C410.492,57.333 408.771,59.22 405.85,59.22 C402.09,59.22 399.389,56.501 399.389,52.381" id="Fill-62" fill="#1A1918"></path>
                <path d="M414.49,53.314 L418.631,53.233 C418.652,51.549 418.092,50.291 416.691,50.291 C415.59,50.291 414.65,50.981 414.49,53.314 Z M412.449,54.329 C412.449,51.549 414.23,49.418 416.832,49.418 C419.771,49.418 420.771,51.792 420.611,54.126 L414.471,54.106 L414.471,54.146 C414.471,56.196 415.451,57.82 417.412,57.82 C418.531,57.82 419.412,57.17 420.211,56.176 L420.771,56.724 C420.031,57.982 418.852,59.058 416.832,59.058 C414.031,59.058 412.449,57.008 412.449,54.329 L412.449,54.329 Z" id="Fill-63" fill="#1A1918"></path>
                <path d="M422.211,57.921 C423.371,57.901 423.672,57.698 423.672,57.211 L423.672,51.59 C423.672,50.981 423.371,50.615 422.211,50.595 L422.211,49.621 L425.512,49.54 L425.512,50.94 C426.572,50.189 427.713,49.479 429.033,49.479 C430.414,49.479 431.393,50.474 431.393,52.3 L431.393,57.211 C431.393,57.698 431.674,57.901 432.854,57.921 L432.854,58.896 L428.232,58.896 L428.232,57.921 C429.252,57.901 429.514,57.698 429.514,57.211 L429.514,53.03 C429.514,51.407 428.934,50.94 427.793,50.94 C426.893,50.94 426.133,51.326 425.553,51.671 L425.553,57.211 C425.553,57.698 425.813,57.901 426.813,57.921 L426.813,58.896 L422.211,58.896 L422.211,57.921" id="Fill-64" fill="#1A1918"></path>
                <path d="M435.033,56.521 L435.033,50.676 L433.434,50.676 L433.434,49.946 L435.074,49.581 L435.074,46.942 L436.914,46.211 L436.914,49.621 L439.715,49.621 L439.715,50.676 L436.914,50.676 L436.914,56.298 C436.914,57.414 437.254,57.86 438.094,57.86 C438.654,57.86 439.035,57.434 439.475,56.785 L440.074,57.251 C439.334,58.611 438.674,59.058 437.395,59.058 C435.793,59.058 435.033,58.043 435.033,56.521" id="Fill-65" fill="#1A1918"></path>
                <path d="M441.035,57.921 C442.195,57.901 442.494,57.698 442.494,57.211 L442.494,51.59 C442.494,50.981 442.195,50.615 441.035,50.595 L441.035,49.621 L444.336,49.54 L444.336,51.123 C445.035,50.23 445.855,49.479 446.896,49.479 C447.916,49.479 448.436,50.189 448.436,51.062 C448.436,51.711 447.957,52.28 447.336,52.28 C446.736,52.28 446.176,51.955 446.176,51.184 C446.176,51.082 446.195,50.96 446.215,50.839 C445.316,50.798 444.795,51.407 444.375,51.914 L444.375,57.211 C444.375,57.698 444.736,57.901 446.057,57.921 L446.057,58.896 L441.035,58.896 L441.035,57.921" id="Fill-66" fill="#1A1918"></path>
                <path d="M451.436,53.314 L455.576,53.233 C455.598,51.549 455.037,50.291 453.637,50.291 C452.535,50.291 451.596,50.981 451.436,53.314 Z M449.395,54.329 C449.395,51.549 451.176,49.418 453.777,49.418 C456.717,49.418 457.717,51.792 457.557,54.126 L451.416,54.106 L451.416,54.146 C451.416,56.196 452.396,57.82 454.357,57.82 C455.477,57.82 456.357,57.17 457.156,56.176 L457.717,56.724 C456.977,57.982 455.797,59.058 453.777,59.058 C450.977,59.058 449.395,57.008 449.395,54.329 L449.395,54.329 Z" id="Fill-67" fill="#1A1918"></path>
                <path d="M217.206,79.337 C218.366,79.316 218.687,79.113 218.687,78.626 L218.687,72.092 L216.986,72.092 L216.986,71.36 L218.687,70.995 L218.687,70.61 C218.687,68.864 219.227,67.748 219.947,67.018 C220.587,66.368 221.367,66.044 222.147,66.044 C223.647,66.044 224.428,66.855 224.428,67.891 C224.428,68.52 224.028,68.986 223.447,68.986 C222.927,68.986 222.307,68.642 222.307,67.708 C222.307,67.546 222.327,67.363 222.367,67.16 C222.187,67.079 222.027,67.038 221.867,67.038 C221.547,67.038 221.247,67.16 221.027,67.383 C220.687,67.729 220.567,68.256 220.567,69.839 L220.567,71.036 L223.007,71.036 L223.007,72.092 L220.567,72.092 L220.567,78.626 C220.567,79.113 220.987,79.275 222.567,79.337 L222.567,80.311 L217.206,80.311 L217.206,79.337" id="Fill-68" fill="#1A1918"></path>
                <path d="M231.088,75.643 C231.088,72.984 230.107,71.827 228.508,71.827 C226.928,71.827 226.107,72.984 226.107,75.643 C226.107,78.302 227.088,79.479 228.688,79.479 C230.248,79.479 231.088,78.302 231.088,75.643 Z M224.027,75.684 C224.027,72.862 225.867,70.833 228.607,70.833 C231.428,70.833 233.168,72.781 233.168,75.603 C233.168,78.443 231.328,80.473 228.607,80.473 C225.748,80.473 224.027,78.524 224.027,75.684 L224.027,75.684 Z" id="Fill-69" fill="#1A1918"></path>
                <path d="M234.508,79.337 C235.668,79.316 235.969,79.113 235.969,78.626 L235.969,73.005 C235.969,72.396 235.668,72.03 234.508,72.01 L234.508,71.036 L237.809,70.955 L237.809,72.538 C238.51,71.645 239.33,70.894 240.369,70.894 C241.391,70.894 241.91,71.605 241.91,72.477 C241.91,73.126 241.43,73.694 240.811,73.694 C240.209,73.694 239.648,73.37 239.648,72.599 C239.648,72.497 239.67,72.376 239.689,72.254 C238.789,72.213 238.27,72.822 237.85,73.329 L237.85,78.626 C237.85,79.113 238.209,79.316 239.529,79.337 L239.529,80.311 L234.508,80.311 L234.508,79.337" id="Fill-70" fill="#1A1918"></path>
                <path d="M247.25,79.316 C248.93,79.255 249.369,79.072 249.369,78.443 L249.369,68.824 C249.369,68.195 248.93,68.013 247.25,67.951 L247.25,66.957 L258.092,66.957 L258.152,71.138 L257.332,71.158 C256.631,68.885 256.332,68.094 254.092,68.094 L251.43,68.094 L251.43,72.822 L252.35,72.822 C253.83,72.822 254.291,72.781 254.791,70.671 L255.531,70.671 L255.531,76.19 L254.791,76.19 C254.291,74.08 253.83,73.958 252.35,73.958 L251.43,73.958 L251.43,79.174 L254.092,79.174 C256.732,79.174 257.313,78.038 258.012,75.684 L258.832,75.704 L258.732,80.311 L247.25,80.311 L247.25,79.316" id="Fill-71" fill="#1A1918"></path>
                <path d="M260.471,75.744 C260.471,72.924 262.492,70.833 264.992,70.833 C267.053,70.833 268.354,71.949 268.354,73.167 C268.354,73.979 267.854,74.648 267.152,74.648 C266.473,74.648 265.992,74.202 265.992,73.593 C265.992,73.045 266.354,72.659 266.633,72.497 C266.434,72.173 265.773,71.827 265.033,71.827 C263.533,71.827 262.492,72.721 262.492,75.298 C262.492,77.713 263.473,79.235 265.434,79.235 C266.553,79.235 267.393,78.586 268.074,77.794 L268.633,78.342 C267.793,79.58 266.773,80.473 264.793,80.473 C262.172,80.473 260.471,78.443 260.471,75.744" id="Fill-72" fill="#1A1918"></path>
                <path d="M276.773,75.643 C276.773,72.984 275.795,71.827 274.193,71.827 C272.613,71.827 271.793,72.984 271.793,75.643 C271.793,78.302 272.773,79.479 274.373,79.479 C275.934,79.479 276.773,78.302 276.773,75.643 Z M269.713,75.684 C269.713,72.862 271.553,70.833 274.293,70.833 C277.115,70.833 278.855,72.781 278.855,75.603 C278.855,78.443 277.014,80.473 274.293,80.473 C271.434,80.473 269.713,78.524 269.713,75.684 L269.713,75.684 Z" id="Fill-73" fill="#1A1918"></path>
                <path d="M280.193,79.337 C281.354,79.316 281.654,79.113 281.654,78.626 L281.654,73.005 C281.654,72.396 281.354,72.03 280.193,72.01 L280.193,71.036 L283.494,70.955 L283.494,72.355 C284.555,71.605 285.695,70.894 287.016,70.894 C288.396,70.894 289.375,71.889 289.375,73.715 L289.375,78.626 C289.375,79.113 289.656,79.316 290.836,79.337 L290.836,80.311 L286.215,80.311 L286.215,79.337 C287.234,79.316 287.496,79.113 287.496,78.626 L287.496,74.445 C287.496,72.822 286.916,72.355 285.775,72.355 C284.875,72.355 284.115,72.741 283.535,73.086 L283.535,78.626 C283.535,79.113 283.795,79.316 284.795,79.337 L284.795,80.311 L280.193,80.311 L280.193,79.337" id="Fill-74" fill="#1A1918"></path>
                <path d="M298.836,75.643 C298.836,72.984 297.857,71.827 296.256,71.827 C294.676,71.827 293.855,72.984 293.855,75.643 C293.855,78.302 294.836,79.479 296.436,79.479 C297.996,79.479 298.836,78.302 298.836,75.643 Z M291.775,75.684 C291.775,72.862 293.615,70.833 296.355,70.833 C299.178,70.833 300.918,72.781 300.918,75.603 C300.918,78.443 299.076,80.473 296.355,80.473 C293.496,80.473 291.775,78.524 291.775,75.684 L291.775,75.684 Z" id="Fill-75" fill="#1A1918"></path>
                <path d="M308.217,79.337 C309.219,79.316 309.377,79.113 309.377,78.626 L309.377,74.466 C309.377,72.843 308.777,72.355 307.637,72.355 C306.736,72.355 306.178,72.741 305.598,73.086 L305.598,78.626 C305.598,79.113 305.736,79.316 306.736,79.337 L306.736,80.311 L302.256,80.311 L302.256,79.337 C303.416,79.316 303.717,79.113 303.717,78.626 L303.717,73.005 C303.717,72.396 303.416,72.03 302.256,72.01 L302.256,71.036 L305.557,70.955 L305.557,72.355 C306.617,71.605 307.578,70.894 308.898,70.894 C309.918,70.894 310.719,71.503 311.078,72.559 C312.238,71.544 313.379,70.894 314.639,70.894 C316.02,70.894 316.92,71.889 316.92,73.715 L316.92,78.626 C316.92,79.113 317.219,79.316 318.379,79.337 L318.379,80.311 L313.879,80.311 L313.879,79.337 C314.879,79.316 315.039,79.113 315.039,78.626 L315.039,74.466 C315.039,72.843 314.52,72.355 313.379,72.355 C312.719,72.355 312.098,72.659 311.219,73.248 C311.238,73.512 311.258,73.675 311.258,73.837 L311.258,78.626 C311.258,79.113 311.438,79.316 312.598,79.337 L312.598,80.311 L308.217,80.311 L308.217,79.337" id="Fill-76" fill="#1A1918"></path>
                <path d="M320.619,67.546 C320.619,66.774 321.119,66.227 321.859,66.227 C322.6,66.227 323.1,66.733 323.1,67.505 C323.1,68.276 322.6,68.804 321.859,68.804 C321.119,68.804 320.619,68.316 320.619,67.546 Z M319.518,79.337 C320.68,79.316 320.959,79.113 320.959,78.626 L320.959,73.005 C320.959,72.396 320.68,72.03 319.518,72.01 L319.518,71.036 L322.84,70.955 L322.84,78.626 C322.84,79.113 323.1,79.316 324.279,79.337 L324.279,80.311 L319.518,80.311 L319.518,79.337 L319.518,79.337 Z" id="Fill-77" fill="#1A1918"></path>
                <path d="M325.498,75.744 C325.498,72.924 327.52,70.833 330.02,70.833 C332.08,70.833 333.381,71.949 333.381,73.167 C333.381,73.979 332.881,74.648 332.18,74.648 C331.5,74.648 331.02,74.202 331.02,73.593 C331.02,73.045 331.381,72.659 331.66,72.497 C331.461,72.173 330.801,71.827 330.061,71.827 C328.561,71.827 327.52,72.721 327.52,75.298 C327.52,77.713 328.5,79.235 330.461,79.235 C331.58,79.235 332.42,78.586 333.102,77.794 L333.66,78.342 C332.82,79.58 331.801,80.473 329.82,80.473 C327.199,80.473 325.498,78.443 325.498,75.744" id="Fill-78" fill="#1A1918"></path>
                <path d="M334.98,77.368 L335.82,77.368 C336.74,78.85 337.602,79.52 338.762,79.52 C339.682,79.52 340.182,78.951 340.182,78.321 C340.182,77.449 339.582,76.941 337.9,76.495 C335.881,75.947 335.08,75.074 335.08,73.796 C335.08,72.03 336.381,70.833 338.361,70.833 C339.002,70.833 339.742,71.097 340.141,71.422 L340.502,70.833 L341.221,70.833 L341.221,73.613 L340.381,73.613 C339.682,72.416 339.102,71.787 338.121,71.787 C337.141,71.787 336.641,72.294 336.641,73.005 C336.641,73.816 337.32,74.223 338.82,74.628 C340.822,75.176 341.621,75.968 341.621,77.348 C341.621,79.053 340.641,80.473 338.461,80.473 C337.621,80.473 336.76,80.169 336.24,79.742 L335.701,80.473 L334.98,80.473 L334.98,77.368" id="Fill-79" fill="#1A1918"></path>
            </g>
        </g>
    </g>
</svg>