<?xml version="1.0" encoding="UTF-8"?>
<svg width="84px" height="30px" viewBox="0 0 84 30" version="1.1" xmlns="http://www.w3.org/2000/svg" xmlns:xlink="http://www.w3.org/1999/xlink">
    <!-- Generator: Sketch 43.2 (39069) - http://www.bohemiancoding.com/sketch -->
    <title>Artboard</title>
    <desc>Created with Sketch.</desc>
    <defs>
        <polygon id="path-1" points="52.846 15.299 52.846 29.94 0.101 29.94 0.101 0.658 52.846 0.658"></polygon>
    </defs>
    <g id="Page-1" stroke="none" stroke-width="1" fill="none" fill-rule="evenodd">
        <g id="Artboard">
            <g id="dfg_logo_blau_4c">
                <path d="M0,29.503 L15.048,29.503 C19.027,29.503 22.484,28.648 24.935,26.487 C27.386,24.327 28.889,20.835 28.892,15.412 C28.89,9.588 27.488,6.051 25.154,3.956 C22.82,1.859 19.478,1.155 15.49,1.156 L15.49,1.155 L0,1.155 L0,7.277 L13.12,7.277 C15.108,7.267 16.467,7.972 17.235,9.336 C18.005,10.689 18.236,12.615 18.239,15.122 C18.236,17.545 18.025,19.449 17.272,20.804 C16.52,22.166 15.17,22.896 13.16,22.884 L10.171,22.884 L10.171,12.85 L0,12.85 L0,29.503" id="Fill-1" fill="#005093"></path>
                <g id="Group-5" transform="translate(31.000000, 0.000000)">
                    <mask id="mask-2" fill="white">
                        <use xlink:href="#path-1"></use>
                    </mask>
                    <g id="Clip-3"></g>
                    <polyline id="Fill-2" fill="#005093" mask="url(#mask-2)" points="0.101 29.503 10.272 29.503 10.272 19.22 22.943 19.22 22.943 12.85 10.272 12.85 10.272 7.277 22.943 7.277 22.943 1.155 0.101 1.155 0.101 29.503"></polyline>
                    <path d="M29.947,4.233 C26.942,6.61 25.043,10.145 25.039,14.915 C25.043,20.007 26.871,23.75 29.834,26.25 C32.799,28.749 36.926,30 41.533,30 C45.849,29.999 49.258,29.564 52.846,28.5 L52.846,15.42 L44.203,15.42 L44.203,23.038 L44.012,23.112 C43.285,23.39 42.379,23.378 41.613,23.382 C39.385,23.388 37.797,22.456 36.822,21.012 C35.846,19.569 35.453,17.648 35.451,15.619 C35.449,12.923 36.365,10.81 37.988,9.398 C39.61,7.985 41.905,7.277 44.627,7.277 C47.41,7.277 49.604,7.903 51.164,8.726 L51.164,1.673 C48.594,1.045 46.638,0.66 41.533,0.658 L41.531,0.658 C37.086,0.658 32.953,1.859 29.947,4.233" id="Fill-4" fill="#005093" mask="url(#mask-2)"></path>
                </g>
            </g>
        </g>
    </g>
</svg>