<svg xmlns="http://www.w3.org/2000/svg" width="768" height="286" viewBox="0 0 768 286">
  <g fill="none">
    <path fill="#000" d="M566.48841 279.23036C562.73744 281.20802 558.84328 282.69127 554.8059 283.68009 550.76841 284.66892 546.60074 285.16333 542.30287 285.16333 532.58695 285.16333 524.88978 282.21804 519.21134 276.32745 513.53287 270.43688 510.69365 262.44857 510.69365 252.36251 510.69365 242.1635 513.58497 234.13988 519.36762 228.29162 525.15025 222.44347 533.06883 219.51931 543.12337 219.51931 547.00448 219.51931 550.72283 219.9149 554.27842 220.7059 557.83391 221.49702 561.18759 222.66949 564.33945 224.2233L564.33945 237.3182C561.0834 235.31234 557.84694 233.81497 554.63006 232.8261 551.4131 231.83733 548.18966 231.34291 544.95975 231.34286 538.96869 231.34291 534.3517 233.15811 531.10875 236.78848 527.86576 240.41893 526.24427 245.61027 526.24429 252.36251 526.24427 259.05831 527.80715 264.22846 530.93293 267.87297 534.05866 271.51752 538.49983 273.33979 544.25646 273.33978 545.8193 273.33979 547.27147 273.23384 548.61299 273.02194 549.95441 272.81006 551.15913 272.4781 552.22714 272.02605L552.22714 259.73634 543.04524 259.73634 543.04524 248.80273 566.48841 248.80273 566.48841 279.23036zM611.57745 249.39603C610.35316 248.77451 609.13541 248.31542 607.92422 248.01873 606.71295 247.72212 605.49522 247.57379 604.27099 247.57376 600.67635 247.57379 597.90875 248.82395 595.9682 251.32424 594.02761 253.82459 593.05732 257.40555 593.05734 262.06714L593.05734 283.93436 579.06958 283.93436 579.06958 236.47064 593.05734 236.47064 593.05734 244.26825C594.85463 241.16055 596.91893 238.89331 599.25025 237.46653 601.58151 236.03983 604.37515 235.32642 607.63118 235.32642 608.10001 235.32642 608.60795 235.34766 609.15499 235.38999 609.70195 235.43242 610.49643 235.52423 611.53837 235.66545L611.57745 249.39603zM638.22453 262.57568C635.30714 262.57568 633.11259 263.11249 631.64091 264.18606 630.16918 265.25966 629.43334 266.84179 629.43334 268.93243 629.43334 270.8536 630.02591 272.35802 631.21112 273.44572 632.39628 274.53344 634.04381 275.07729 636.15372 275.07729 638.78453 275.07729 640.99861 274.05316 642.79596 272.00486 644.59323 269.95659 645.49191 267.3927 645.49191 264.3132L645.49191 262.57568 638.22453 262.57568zM659.59689 256.85461L659.59689 283.93436 645.49191 283.93436 645.49191 276.89956C643.61643 279.78129 641.50654 281.87902 639.16226 283.19274 636.81792 284.50646 633.96566 285.16333 630.60549 285.16333 626.07313 285.16333 622.39386 283.72953 619.56767 280.86193 616.74146 277.99434 615.32836 274.27211 615.32836 269.69524 615.32836 264.12958 617.09311 260.04714 620.62261 257.4479 624.1521 254.84873 629.6938 253.54913 637.24773 253.5491L645.49191 253.5491 645.49191 252.36251C645.49188 249.96111 644.61927 248.20241 642.87409 247.08641 641.12885 245.97048 638.40684 245.4125 634.70805 245.41246 631.71252 245.4125 628.92539 245.7374 626.34665 246.38716 623.76789 247.037 621.37149 248.0117 619.15741 249.31127L619.15741 237.74198C622.15293 236.95097 625.16146 236.35061 628.18304 235.94091 631.20459 235.5313 634.22614 235.32642 637.24773 235.32642 645.14024 235.32642 650.83823 237.01454 654.34171 240.39063 657.84512 243.76681 659.59689 249.2548 659.59689 256.85461L659.59689 256.85461zM670.53705 236.47064L708.71034 236.47064 708.71034 247.06521 685.65789 273.08551 708.71034 273.08551 708.71034 283.93436 669.56025 283.93436 669.56025 273.33978 692.6127 247.31949 670.53705 247.31949 670.53705 236.47064zM509.95111 211.14746L509.95111 97.35144 468.77639 97.35144 468.77639 74.18115 579.04894 74.18115 579.04894 97.35144 537.96886 97.35144 537.96886 211.14746 509.95111 211.14746zM597.03331 74.18115L625.05104 74.18115 625.05104 148.36345C625.051 160.13551 625.39807 167.7655 626.09224 171.25346 627.29116 176.8592 630.14657 181.35934 634.65848 184.75388 639.17029 188.14848 645.33861 189.84576 653.16345 189.84574 661.11435 189.84576 667.10913 188.24191 671.14781 185.03417 675.18631 181.82649 677.61577 177.88692 678.43621 173.21545 679.25645 168.54407 679.66662 160.7895 679.66671 149.95174L679.66671 74.18115 707.68447 74.18115 707.68447 146.12116C707.68447 162.56464 706.92711 174.18092 705.41276 180.97003 703.89816 187.7592 701.10586 193.48947 697.03583 198.16089 692.96557 202.83232 687.52294 206.5539 680.70792 209.3256 673.8927 212.09732 664.99519 213.48318 654.01534 213.48318 640.76364 213.48318 630.71449 211.97274 623.86786 208.95189 617.02115 205.93104 611.61008 202.00704 607.63461 197.17989 603.6591 192.35277 601.04032 187.29205 599.77828 181.99774 597.94828 174.14978 597.03331 162.56464 597.03331 147.24231L597.03331 74.18115z"/>
    <path fill="#EE2556" d="M240.48597,0.44316 L240.48597,71.65005 L155.35344,71.65005 L155.35344,142.88051 L141.07436,142.88051 L141.07436,71.65005 L0.168588,71.65005 L0.168588,212.55582 L71.399046,212.55582 L71.399046,283.78628 L212.30481,283.78628 L212.30481,212.55582 L296.2592,212.55582 L296.2592,141.34893 L310.56184,141.34893 L310.56184,212.55582 L451.46761,212.55582 L451.46761,71.65005 L381.39173,71.65005 L381.39173,0.44316 L240.48597,0.44316 Z M719.18857,235.41177 L719.18857,284.16328 L767.94007,284.16328 L767.94007,235.41177 L719.18857,235.41177 Z" opacity=".97"/>
  </g>
</svg>
