<?xml version="1.0" encoding="utf-8"?>
<!-- Generator: Adobe Illustrator 15.0.2, SVG Export Plug-In . SVG Version: 6.00 Build 0)  -->
<!DOCTYPE svg PUBLIC "-//W3C//DTD SVG 1.1//EN" "http://www.w3.org/Graphics/SVG/1.1/DTD/svg11.dtd">
<svg version="1.1" id="Ebene_1" xmlns="http://www.w3.org/2000/svg" xmlns:xlink="http://www.w3.org/1999/xlink" x="0px" y="0px"
	 width="250.885px" height="111.417px" viewBox="0 0 250.885 111.417" enable-background="new 0 0 250.885 111.417"
	 xml:space="preserve">
<g>
	<path d="M17.856,59.161c0,2.016-0.18,3.948-0.54,5.796s-0.732,3.756-1.116,5.725c1.728-0.961,3.432-1.896,5.112-2.809
		c1.68-0.911,3.503-1.703,5.472-2.376l0.432-0.144l2.016,6.047l-0.576,0.217c-1.92,0.72-3.84,1.188-5.76,1.404
		c-1.92,0.215-3.888,0.396-5.904,0.539c1.584,1.345,3.071,2.653,4.464,3.924c1.392,1.273,2.688,2.749,3.888,4.429l0.36,0.504
		l-5.256,3.672l-0.288-0.433c-1.152-1.727-2.149-3.443-2.988-5.147c-0.84-1.703-1.692-3.468-2.556-5.292
		c-0.864,1.824-1.716,3.589-2.556,5.292c-0.84,1.704-1.836,3.421-2.988,5.147l-0.288,0.433l-5.256-3.672l0.36-0.504
		c1.2-1.68,2.496-3.155,3.888-4.429c1.392-1.271,2.88-2.579,4.464-3.924c-2.016-0.144-3.984-0.324-5.904-0.539
		c-1.92-0.217-3.841-0.685-5.76-1.404L0,71.4l2.016-6.047l0.432,0.144c1.968,0.673,3.792,1.465,5.472,2.376
		c1.68,0.912,3.384,1.848,5.112,2.809c-0.385-1.969-0.756-3.877-1.116-5.725s-0.54-3.78-0.54-5.796v-0.576h6.48V59.161z"/>
	<path d="M33.155,72.058c1.536-0.384,3.564-0.792,6.084-1.225c2.52-0.432,5.436-0.647,8.748-0.647c2.4,0,4.416,0.323,6.048,0.972
		c1.631,0.648,2.999,1.597,4.104,2.844c0.335-0.239,0.864-0.576,1.584-1.008c0.72-0.432,1.607-0.852,2.664-1.26
		c1.055-0.407,2.232-0.768,3.528-1.08c1.296-0.312,2.688-0.468,4.176-0.468c2.88,0,5.231,0.421,7.056,1.26
		c1.824,0.841,3.251,2.028,4.284,3.563c1.031,1.537,1.728,3.361,2.088,5.473c0.36,2.113,0.54,4.417,0.54,6.912v21.023h-6.696V88.833
		c0-2.207-0.108-4.104-0.324-5.688s-0.625-2.904-1.224-3.96c-0.601-1.056-1.417-1.836-2.448-2.34
		c-1.033-0.505-2.365-0.757-3.996-0.757c-2.257,0-4.116,0.301-5.58,0.9c-1.465,0.602-2.46,1.141-2.988,1.62
		c0.383,1.249,0.671,2.616,0.864,4.104c0.191,1.488,0.288,3.049,0.288,4.68v21.023h-6.696V88.833c0-2.207-0.12-4.104-0.36-5.688
		c-0.241-1.584-0.66-2.904-1.26-3.96c-0.601-1.056-1.417-1.836-2.448-2.34c-1.033-0.505-2.34-0.757-3.924-0.757
		c-0.673,0-1.393,0.025-2.16,0.072c-0.768,0.049-1.5,0.108-2.196,0.18c-0.696,0.072-1.332,0.157-1.908,0.252
		c-0.576,0.098-0.96,0.17-1.152,0.217v31.607h-6.696V72.058z"/>
	<path d="M88.494,89.473c0-3.312,0.479-6.203,1.44-8.677c0.96-2.471,2.232-4.523,3.816-6.155s3.407-2.855,5.472-3.672
		c2.063-0.815,4.176-1.224,6.336-1.224c5.04,0,8.903,1.572,11.592,4.715c2.688,3.145,4.032,7.934,4.032,14.365
		c0,0.287,0,0.66,0,1.115c0,0.457-0.024,0.877-0.072,1.26H95.478c0.288,3.889,1.416,6.84,3.384,8.856
		c1.968,2.017,5.04,3.024,9.216,3.024c2.352,0,4.332-0.204,5.94-0.612c1.608-0.407,2.819-0.804,3.636-1.188l0.936,5.616
		c-0.817,0.433-2.245,0.889-4.284,1.368c-2.041,0.479-4.356,0.72-6.948,0.72c-3.265,0-6.084-0.493-8.46-1.476
		c-2.376-0.983-4.333-2.34-5.868-4.068c-1.537-1.729-2.676-3.779-3.42-6.156C88.866,94.909,88.494,92.306,88.494,89.473z
		 M114.041,85.801c0.047-3.024-0.708-5.509-2.268-7.452c-1.56-1.943-3.708-2.916-6.444-2.916c-1.537,0-2.893,0.301-4.068,0.9
		c-1.177,0.601-2.172,1.38-2.988,2.34c-0.817,0.961-1.452,2.064-1.908,3.312c-0.457,1.249-0.756,2.521-0.9,3.816H114.041z"/>
	<path d="M132.532,70.752h14.184v5.615h-14.184v17.281c0,1.871,0.144,3.42,0.432,4.644s0.72,2.185,1.296,2.88
		c0.576,0.696,1.296,1.188,2.16,1.477c0.864,0.287,1.872,0.432,3.024,0.432c2.016,0,3.636-0.228,4.86-0.684s2.076-0.78,2.556-0.973
		l1.296,5.544c-0.673,0.337-1.848,0.757-3.528,1.261c-1.681,0.504-3.6,0.756-5.76,0.756c-2.544,0-4.644-0.324-6.3-0.973
		c-1.656-0.648-2.988-1.619-3.996-2.916c-1.008-1.296-1.717-2.891-2.124-4.787c-0.408-1.896-0.612-4.092-0.612-6.589V60.313
		l6.696-1.152V70.752z"/>
	<path d="M166.787,70.186c0.576,0,1.235,0.036,1.98,0.108c0.744,0.072,1.476,0.168,2.196,0.287c0.72,0.121,1.379,0.241,1.98,0.36
		c0.6,0.12,1.044,0.229,1.332,0.324l-1.152,5.832c-0.529-0.191-1.404-0.42-2.628-0.685c-1.224-0.263-2.797-0.396-4.716-0.396
		c-1.249,0-2.484,0.133-3.708,0.396c-1.224,0.265-2.028,0.445-2.412,0.541v31.463h-6.696V72.562c1.584-0.576,3.552-1.116,5.904-1.62
		C161.218,70.438,163.859,70.186,166.787,70.186z"/>
	<path d="M182.656,64.21c-1.2,0-2.221-0.396-3.06-1.188c-0.841-0.792-1.26-1.86-1.26-3.204s0.419-2.412,1.26-3.204
		c0.839-0.792,1.859-1.188,3.06-1.188c1.2,0,2.22,0.396,3.06,1.188c0.839,0.792,1.26,1.86,1.26,3.204s-0.421,2.412-1.26,3.204
		C184.876,63.813,183.856,64.21,182.656,64.21z M186.041,108.417h-6.696V70.978h6.696V108.417z"/>
	<path d="M209.366,108.984c-3.024,0-5.677-0.479-7.956-1.44c-2.28-0.959-4.201-2.303-5.76-4.031
		c-1.561-1.729-2.726-3.78-3.492-6.156c-0.769-2.376-1.152-5.004-1.152-7.884s0.42-5.52,1.26-7.92
		c0.84-2.399,2.027-4.476,3.564-6.228c1.535-1.752,3.42-3.12,5.652-4.104c2.231-0.983,4.716-1.476,7.451-1.476
		c1.68,0,3.359,0.144,5.04,0.432c1.68,0.288,3.288,0.744,4.824,1.367l-1.512,5.688c-1.008-0.479-2.173-0.864-3.492-1.151
		c-1.32-0.289-2.725-0.433-4.212-0.433c-3.744,0-6.613,1.177-8.604,3.528c-1.992,2.352-2.987,5.785-2.987,10.296
		c0,2.017,0.227,3.864,0.684,5.544c0.456,1.681,1.176,3.121,2.16,4.32c0.983,1.2,2.243,2.123,3.78,2.771
		c1.535,0.648,3.407,0.973,5.616,0.973c1.774,0,3.384-0.168,4.823-0.504c1.44-0.336,2.567-0.695,3.384-1.08l0.937,5.615
		c-0.385,0.241-0.937,0.469-1.656,0.684c-0.72,0.217-1.536,0.408-2.448,0.576s-1.884,0.313-2.916,0.433
		C211.321,108.924,210.325,108.984,209.366,108.984z"/>
	<path d="M236.053,103.296c2.736,0,4.764-0.359,6.084-1.079s1.98-1.872,1.98-3.456c0-1.631-0.648-2.928-1.944-3.889
		c-1.296-0.959-3.433-2.039-6.408-3.239c-1.439-0.576-2.82-1.163-4.14-1.765c-1.32-0.6-2.46-1.307-3.42-2.123
		c-0.961-0.816-1.728-1.801-2.304-2.953c-0.576-1.151-0.864-2.566-0.864-4.248c0-3.312,1.224-5.939,3.672-7.883
		c2.448-1.944,5.784-2.916,10.008-2.916c1.056,0,2.112,0.061,3.168,0.18c1.056,0.12,2.04,0.264,2.952,0.432
		c0.911,0.169,1.716,0.35,2.412,0.54c0.695,0.192,1.235,0.36,1.62,0.504l-1.224,5.761c-0.721-0.385-1.849-0.78-3.385-1.188
		c-1.536-0.407-3.384-0.612-5.544-0.612c-1.872,0-3.504,0.373-4.896,1.116c-1.393,0.745-2.088,1.908-2.088,3.492
		c0,0.816,0.155,1.536,0.468,2.159c0.312,0.625,0.792,1.188,1.439,1.693c0.648,0.504,1.452,0.971,2.412,1.403
		s2.112,0.889,3.456,1.368c1.775,0.672,3.359,1.332,4.752,1.98c1.392,0.647,2.58,1.403,3.564,2.268
		c0.983,0.863,1.739,1.908,2.268,3.132s0.792,2.725,0.792,4.5c0,3.456-1.284,6.073-3.852,7.849
		c-2.568,1.775-6.229,2.663-10.98,2.663c-3.312,0-5.903-0.276-7.775-0.827c-1.872-0.552-3.145-0.973-3.816-1.261l1.224-5.76
		c0.768,0.288,1.992,0.72,3.673,1.296C231.038,103.009,233.269,103.296,236.053,103.296z"/>
</g>
<g>
	<path fill="#EC6236" d="M89.275,57.068c-1.319,0-2.443-0.437-3.364-1.309c-0.926-0.87-1.387-2.045-1.387-3.523
		c0-1.478,0.46-2.653,1.387-3.525c0.921-0.87,2.045-1.307,3.364-1.307c1.32,0,2.443,0.437,3.367,1.307
		c0.924,0.872,1.386,2.048,1.386,3.525c0,1.479-0.462,2.653-1.386,3.523C91.718,56.632,90.595,57.068,89.275,57.068"/>
	<path fill="#449DD7" d="M89.275,46.612c-1.319,0-2.443-0.436-3.364-1.308c-0.926-0.87-1.387-2.046-1.387-3.523
		c0-1.479,0.46-2.653,1.387-3.525c0.921-0.87,2.045-1.307,3.364-1.307c1.32,0,2.443,0.437,3.367,1.307
		c0.924,0.872,1.386,2.047,1.386,3.525c0,1.478-0.462,2.653-1.386,3.523C91.718,46.177,90.595,46.612,89.275,46.612"/>
	<path fill="#9A9B9B" d="M89.275,54.639c-1.319,0-2.443-0.436-3.364-1.308c-0.926-0.87-1.387-2.045-1.387-3.523
		s0.46-2.653,1.387-3.525c0.921-0.87,2.045-1.307,3.364-1.307c1.32,0,2.443,0.437,3.367,1.307c0.924,0.872,1.386,2.047,1.386,3.525
		s-0.462,2.653-1.386,3.523C91.718,54.203,90.595,54.639,89.275,54.639"/>
</g>
<g>
	<path fill="#3D325E" d="M115.776,29.722c-1.319,0-2.443-0.437-3.365-1.309c-0.926-0.87-1.387-2.046-1.387-3.523
		c0-1.479,0.461-2.653,1.387-3.525c0.922-0.87,2.045-1.307,3.365-1.307c1.32,0,2.443,0.437,3.367,1.307
		c0.924,0.872,1.386,2.047,1.386,3.525c0,1.478-0.462,2.653-1.386,3.523C118.219,29.285,117.096,29.722,115.776,29.722"/>
	<path fill="#9A9B9B" d="M115.776,42.183c-1.319,0-2.443-0.436-3.365-1.308c-0.926-0.87-1.387-2.045-1.387-3.523
		c0-1.478,0.461-2.653,1.387-3.525c0.922-0.87,2.045-1.307,3.365-1.307c1.32,0,2.443,0.437,3.367,1.307
		c0.924,0.872,1.386,2.048,1.386,3.525c0,1.479-0.462,2.653-1.386,3.523C118.219,41.747,117.096,42.183,115.776,42.183"/>
	<path fill="#449DD7" d="M115.776,21.694c-1.319,0-2.443-0.434-3.365-1.307c-0.926-0.87-1.388-2.045-1.388-3.524
		c0-1.477,0.462-2.653,1.388-3.524c0.922-0.871,2.045-1.306,3.365-1.306c1.319,0,2.443,0.435,3.367,1.306s1.386,2.048,1.386,3.524
		c0,1.479-0.462,2.654-1.386,3.524C118.219,21.261,117.095,21.694,115.776,21.694"/>
	<path fill="#EC6236" d="M115.776,58.592c-1.319,0-2.443-0.435-3.365-1.307c-0.926-0.87-1.387-2.046-1.387-3.523
		c0-1.479,0.461-2.653,1.387-3.526c0.922-0.87,2.045-1.306,3.365-1.306c1.32,0,2.443,0.436,3.367,1.306
		c0.924,0.873,1.386,2.048,1.386,3.526c0,1.478-0.462,2.653-1.386,3.523C118.219,58.157,117.096,58.592,115.776,58.592"/>
	<path fill="#449DD7" d="M115.776,51.553c-1.319,0-2.443-0.434-3.365-1.306c-0.926-0.87-1.387-2.046-1.387-3.523
		c0-1.479,0.461-2.653,1.387-3.525c0.922-0.87,2.045-1.307,3.365-1.307c1.32,0,2.443,0.437,3.367,1.307
		c0.924,0.872,1.386,2.047,1.386,3.525c0,1.478-0.462,2.653-1.386,3.523C118.219,51.119,117.096,51.553,115.776,51.553"/>
</g>
<g>
	<path fill="#EC6236" d="M37.505,60.625c-1.319,0-2.443-0.436-3.364-1.308c-0.926-0.87-1.387-2.046-1.387-3.523
		c0-1.479,0.46-2.653,1.387-3.525c0.921-0.87,2.045-1.307,3.364-1.307c1.32,0,2.443,0.437,3.367,1.307
		c0.924,0.872,1.386,2.047,1.386,3.525c0,1.478-0.462,2.653-1.386,3.523C39.948,60.189,38.825,60.625,37.505,60.625"/>
	<g>
		<path fill="#449DD7" d="M37.505,50.726c-1.319,0-2.443-0.435-3.364-1.308c-0.926-0.87-1.387-2.045-1.387-3.523
			c0-1.478,0.46-2.653,1.387-3.525c0.921-0.87,2.045-1.306,3.364-1.306c1.32,0,2.443,0.436,3.367,1.306
			c0.924,0.872,1.386,2.048,1.386,3.525c0,1.479-0.462,2.653-1.386,3.523C39.948,50.291,38.825,50.726,37.505,50.726"/>
		<path fill="#9A9B9B" d="M37.505,64.103c-1.319,0-2.443-0.437-3.365-1.309c-0.926-0.87-1.387-2.046-1.387-3.523
			c0-1.479,0.461-2.653,1.387-3.525c0.922-0.87,2.045-1.307,3.365-1.307c1.32,0,2.443,0.437,3.367,1.307
			c0.924,0.872,1.386,2.047,1.386,3.525c0,1.478-0.462,2.653-1.386,3.523C39.948,63.666,38.825,64.103,37.505,64.103"/>
	</g>
</g>
<g>
	<path fill="#3D325E" d="M102.525,58.32c-1.319,0-2.443-0.436-3.365-1.308c-0.926-0.87-1.387-2.045-1.387-3.523
		c0-1.478,0.461-2.653,1.387-3.525c0.922-0.87,2.045-1.307,3.365-1.307c1.32,0,2.443,0.437,3.367,1.307
		c0.924,0.872,1.386,2.048,1.386,3.525c0,1.479-0.462,2.653-1.386,3.523C104.968,57.885,103.845,58.32,102.525,58.32"/>
	<path fill="#3D325E" d="M76.213,64.25c-1.319,0-2.443-0.436-3.365-1.308c-0.926-0.87-1.387-2.045-1.387-3.523
		c0-1.478,0.461-2.653,1.387-3.525c0.922-0.87,2.045-1.307,3.365-1.307c1.32,0,2.443,0.437,3.367,1.307
		c0.924,0.872,1.386,2.048,1.386,3.525c0,1.479-0.462,2.653-1.386,3.523C78.656,63.814,77.533,64.25,76.213,64.25"/>
	<g>
		<path fill="#EC6236" d="M76.213,16.963c-1.319,0-2.443-0.435-3.364-1.307c-0.926-0.87-1.387-2.046-1.387-3.523
			c0-1.479,0.461-2.653,1.387-3.525c0.921-0.87,2.045-1.307,3.364-1.307c1.32,0,2.443,0.437,3.367,1.307
			c0.924,0.872,1.386,2.047,1.386,3.525c0,1.478-0.462,2.653-1.386,3.523C78.656,16.528,77.533,16.963,76.213,16.963"/>
		<g>
			<g>
				<path fill="#9A9B9B" d="M76.213,10.623c-1.319,0-2.443-0.435-3.364-1.307c-0.926-0.87-1.387-2.046-1.387-3.523
					c0-1.479,0.461-2.653,1.387-3.526c0.921-0.87,2.045-1.306,3.364-1.306c1.32,0,2.443,0.436,3.367,1.306
					c0.924,0.873,1.386,2.048,1.386,3.526c0,1.478-0.462,2.653-1.386,3.523C78.656,10.188,77.533,10.623,76.213,10.623"/>
				<path fill="#449DD7" d="M76.213,27.104c-1.319,0-2.443-0.435-3.364-1.307c-0.926-0.87-1.387-2.046-1.387-3.523
					c0-1.479,0.461-2.653,1.387-3.525c0.921-0.87,2.045-1.307,3.364-1.307c1.32,0,2.443,0.437,3.367,1.307
					c0.924,0.872,1.386,2.047,1.386,3.525c0,1.478-0.462,2.653-1.386,3.523C78.656,26.669,77.533,27.104,76.213,27.104"/>
			</g>
			<path fill="#EC6236" d="M76.213,43.249c-1.319,0-2.443-0.435-3.364-1.307c-0.926-0.87-1.387-2.046-1.387-3.523
				c0-1.479,0.461-2.653,1.387-3.525c0.921-0.87,2.045-1.307,3.364-1.307c1.32,0,2.443,0.437,3.367,1.307
				c0.924,0.872,1.386,2.047,1.386,3.525c0,1.478-0.462,2.653-1.386,3.523C78.656,42.814,77.533,43.249,76.213,43.249"/>
		</g>
	</g>
</g>
<g>
	<g>
		<path fill="#449DD7" d="M102.525,16.032c-1.319,0-2.442-0.437-3.364-1.309c-0.926-0.87-1.387-2.046-1.387-3.523
			c0-1.479,0.461-2.653,1.387-3.525c0.922-0.87,2.045-1.307,3.364-1.307c1.32,0,2.443,0.437,3.367,1.307
			c0.924,0.872,1.386,2.047,1.386,3.525c0,1.478-0.462,2.653-1.386,3.523C104.968,15.596,103.845,16.032,102.525,16.032"/>
		<path fill="#449DD7" d="M102.525,40.846c-1.319,0-2.442-0.434-3.364-1.306c-0.926-0.87-1.387-2.046-1.387-3.523
			c0-1.479,0.461-2.653,1.387-3.525c0.922-0.87,2.045-1.307,3.364-1.307c1.32,0,2.443,0.437,3.367,1.307
			c0.924,0.872,1.386,2.047,1.386,3.525c0,1.478-0.462,2.653-1.386,3.523C104.968,40.412,103.845,40.846,102.525,40.846"/>
	</g>
	<path fill="#9A9B9B" d="M102.525,20.863c-1.319,0-2.442-0.436-3.364-1.309c-0.926-0.87-1.387-2.045-1.387-3.523
		c0-1.478,0.461-2.653,1.387-3.525c0.922-0.87,2.045-1.306,3.364-1.306c1.32,0,2.443,0.436,3.367,1.306
		c0.924,0.872,1.386,2.048,1.386,3.525c0,1.479-0.462,2.653-1.386,3.523C104.968,20.428,103.845,20.863,102.525,20.863"/>
	<path fill="#EC6236" d="M102.525,64.158c-1.319,0-2.442-0.435-3.364-1.308c-0.926-0.87-1.387-2.045-1.387-3.523
		c0-1.478,0.461-2.653,1.387-3.525c0.922-0.87,2.045-1.306,3.364-1.306c1.32,0,2.443,0.436,3.367,1.306
		c0.924,0.872,1.386,2.048,1.386,3.525c0,1.479-0.462,2.653-1.386,3.523C104.968,63.724,103.845,64.158,102.525,64.158"/>
</g>
<g>
	<path fill="#3D325E" d="M50.212,32.034c-1.319,0-2.443-0.435-3.364-1.307c-0.926-0.87-1.387-2.046-1.387-3.523
		c0-1.479,0.46-2.653,1.387-3.526c0.921-0.87,2.045-1.306,3.364-1.306c1.32,0,2.443,0.436,3.367,1.306
		c0.924,0.873,1.386,2.048,1.386,3.526c0,1.478-0.462,2.653-1.386,3.523C52.655,31.6,51.533,32.034,50.212,32.034"/>
	<g>
		<path fill="#EC6236" d="M50.212,27.203c-1.319,0-2.442-0.435-3.364-1.307c-0.926-0.87-1.387-2.046-1.387-3.523
			c0-1.479,0.461-2.653,1.387-3.526c0.922-0.87,2.045-1.306,3.364-1.306c1.32,0,2.443,0.436,3.367,1.306
			c0.924,0.873,1.386,2.048,1.386,3.526c0,1.478-0.462,2.653-1.386,3.523C52.655,26.769,51.533,27.203,50.212,27.203"/>
		<g>
			<g>
				<path fill="#9A9B9B" d="M50.212,20.863c-1.319,0-2.442-0.435-3.364-1.308c-0.926-0.87-1.387-2.045-1.387-3.523
					c0-1.478,0.461-2.653,1.387-3.525c0.922-0.87,2.045-1.306,3.364-1.306c1.32,0,2.443,0.436,3.367,1.306
					c0.924,0.872,1.386,2.048,1.386,3.525c0,1.479-0.462,2.653-1.386,3.523C52.655,20.429,51.533,20.863,50.212,20.863"/>
				<path fill="#449DD7" d="M50.212,37.344c-1.319,0-2.442-0.435-3.364-1.307c-0.926-0.87-1.387-2.046-1.387-3.523
					c0-1.479,0.461-2.653,1.387-3.526c0.922-0.87,2.045-1.306,3.364-1.306c1.32,0,2.443,0.436,3.367,1.306
					c0.924,0.873,1.386,2.048,1.386,3.526c0,1.478-0.462,2.653-1.386,3.523C52.655,36.909,51.533,37.344,50.212,37.344"/>
			</g>
			<path fill="#EC6236" d="M50.212,53.489c-1.319,0-2.442-0.435-3.364-1.307c-0.926-0.87-1.387-2.046-1.387-3.523
				c0-1.479,0.461-2.653,1.387-3.526c0.922-0.87,2.045-1.306,3.364-1.306c1.32,0,2.443,0.436,3.367,1.306
				c0.924,0.873,1.386,2.048,1.386,3.526c0,1.478-0.462,2.653-1.386,3.523C52.655,53.055,51.533,53.489,50.212,53.489"/>
		</g>
	</g>
</g>
<g>
	<g>
		<g>
			<path fill="#9A9B9B" d="M63.088,31.283c-1.319,0-2.443-0.437-3.365-1.309c-0.926-0.87-1.387-2.045-1.387-3.523
				s0.461-2.653,1.387-3.524c0.922-0.871,2.045-1.308,3.365-1.308c1.32,0,2.442,0.437,3.366,1.308s1.386,2.046,1.386,3.524
				s-0.462,2.653-1.386,3.523C65.53,30.847,64.408,31.283,63.088,31.283"/>
			<path fill="#EC6236" d="M63.088,33.87c-1.319,0-2.443-0.436-3.365-1.308c-0.926-0.87-1.387-2.046-1.387-3.523
				c0-1.479,0.461-2.653,1.387-3.525c0.922-0.87,2.045-1.307,3.365-1.307c1.32,0,2.442,0.437,3.366,1.307
				c0.924,0.872,1.386,2.047,1.386,3.525c0,1.478-0.462,2.653-1.386,3.523C65.53,33.435,64.408,33.87,63.088,33.87"/>
			<path fill="#449DD7" d="M63.088,53.082c-1.319,0-2.443-0.435-3.365-1.307c-0.926-0.87-1.387-2.046-1.387-3.523
				c0-1.479,0.461-2.653,1.387-3.525c0.922-0.87,2.045-1.307,3.365-1.307c1.32,0,2.442,0.437,3.366,1.307
				c0.924,0.872,1.386,2.047,1.386,3.525c0,1.478-0.462,2.653-1.386,3.523C65.53,52.647,64.408,53.082,63.088,53.082"/>
			<path fill="#9A9B9B" d="M63.088,58.92c-1.319,0-2.443-0.436-3.365-1.308c-0.926-0.87-1.387-2.045-1.387-3.523
				c0-1.478,0.461-2.653,1.387-3.525c0.922-0.87,2.045-1.307,3.365-1.307c1.32,0,2.442,0.437,3.366,1.307
				c0.924,0.872,1.386,2.048,1.386,3.525c0,1.479-0.462,2.653-1.386,3.523C65.53,58.484,64.408,58.92,63.088,58.92"/>
		</g>
		<path fill="#449DD7" d="M63.088,45.678c-1.319,0-2.443-0.435-3.365-1.307c-0.926-0.87-1.387-2.046-1.387-3.523
			c0-1.479,0.461-2.653,1.387-3.526c0.922-0.87,2.045-1.306,3.365-1.306c1.32,0,2.442,0.436,3.366,1.306
			c0.924,0.873,1.386,2.048,1.386,3.526c0,1.478-0.462,2.653-1.386,3.523C65.53,45.243,64.408,45.678,63.088,45.678"/>
	</g>
	<path fill="#3D325E" d="M63.087,47.009c-1.319,0-2.442-0.435-3.364-1.307c-0.926-0.87-1.387-2.046-1.387-3.523
		c0-1.479,0.461-2.653,1.387-3.526c0.922-0.87,2.045-1.306,3.364-1.306c1.32,0,2.443,0.436,3.367,1.306
		c0.924,0.873,1.386,2.048,1.386,3.526c0,1.478-0.462,2.653-1.386,3.523C65.53,46.574,64.408,47.009,63.087,47.009"/>
</g>
<path fill="#3D325E" d="M37.505,43.75c-1.319,0-2.443-0.436-3.364-1.308c-0.926-0.87-1.387-2.046-1.387-3.523
	c0-1.479,0.46-2.653,1.387-3.525c0.921-0.87,2.045-1.307,3.364-1.307c1.32,0,2.443,0.437,3.367,1.307
	c0.924,0.872,1.386,2.047,1.386,3.525c0,1.478-0.462,2.653-1.386,3.523C39.948,43.314,38.825,43.75,37.505,43.75"/>
<path fill="#3D325E" d="M89.275,24.207c-1.319,0-2.443-0.436-3.365-1.308c-0.926-0.87-1.387-2.045-1.387-3.523
	c0-1.478,0.461-2.653,1.387-3.525c0.922-0.87,2.045-1.307,3.365-1.307c1.32,0,2.443,0.437,3.367,1.307
	c0.924,0.872,1.386,2.048,1.386,3.525c0,1.479-0.462,2.653-1.386,3.523C91.718,23.771,90.596,24.207,89.275,24.207"/>
</svg>
