<?xml version="1.0" encoding="UTF-8"?>
<svg width="300px" height="164px" viewBox="0 0 300 164" version="1.1" xmlns="http://www.w3.org/2000/svg" xmlns:xlink="http://www.w3.org/1999/xlink">
    <!-- Generator: Sketch 43.2 (39069) - http://www.bohemiancoding.com/sketch -->
    <title>Artboard</title>
    <desc>Created with Sketch.</desc>
    <defs></defs>
    <g id="Page-1" stroke="none" stroke-width="1" fill="none" fill-rule="evenodd">
        <g id="Artboard" fill="#9A9B9B">
            <g id="logo_gesis" transform="translate(150.000000, 82.000000) scale(1, -1) translate(-150.000000, -82.000000) ">
                <path d="M135.61375,90.2436072 C130.933655,89.0753608 128.25593,87.9047447 121.068726,87.9047447 C96.4857881,87.9047447 90.4692004,113.485313 90.4692004,131.042186 L137.120859,131.042186 C137.120859,137.565882 137.120859,163.146451 108.862565,163.146451 C85.6161198,163.146451 76.5876838,146.594318 76.5876838,123.852612 C76.5876838,94.5872092 92.1421862,79.8763087 115.886262,79.8763087 C124.912328,79.8763087 129.090054,81.2104319 135.61375,83.0492944 L135.61375,90.2436072 Z M90.8033236,138.400005 C90.8033236,142.750716 93.8128023,156.461617 108.023703,156.461617 C122.236973,156.461617 124.244082,145.255456 124.244082,138.400005 L90.8033236,138.400005 Z" id="path50" fill-rule="nonzero"></path>
                <path d="M194.966825,160.305221 C191.78673,160.973467 184.760664,163.144083 176.405214,163.144083 C158.348342,163.144083 149.149289,155.122756 149.149289,141.411856 C149.149289,127.866832 160.684834,123.689107 170.722749,117.831287 C180.082939,112.314699 187.774882,109.139344 187.774882,101.110908 C187.774882,92.0824716 180.253555,88.2365 171.054503,88.2365 C160.684834,88.2365 150.488152,94.757827 148.815166,95.7601967 L148.815166,83.2199123 C152.661138,81.715173 159.518958,79.8763104 170.388626,79.8763104 C191.28673,79.8763104 200.149289,91.0824716 200.149289,103.456879 C200.149289,114.655931 194.125593,120.172519 186.440759,124.689107 C172.559242,133.051666 161.023697,135.727021 161.023697,145.255457 C161.023697,151.781524 167.542654,154.788633 174.734597,154.788633 C184.092417,154.788633 192.2891,149.937922 194.966825,148.433183" id="path54" fill-rule="nonzero"></path>
                <polygon id="path56" fill-rule="nonzero" points="217.751188 81.71517 230.12085 81.71517 230.12085 161.307583 217.751188 161.307583"></polygon>
                <path d="M294.817538,160.305221 C291.637443,160.973467 284.616116,163.144083 276.258296,163.144083 C258.199054,163.144083 249.000002,155.122756 249.000002,141.411856 C249.000002,127.866832 260.537917,123.689107 270.571092,117.831287 C279.938391,112.314699 287.625595,109.139344 287.625595,101.110908 C287.625595,92.0824716 280.099528,88.2365 270.905216,88.2365 C260.537917,88.2365 250.338865,94.757827 248.668249,95.7601967 L248.668249,83.2199123 C252.511851,81.715173 259.367301,79.8763104 270.236969,79.8763104 C291.137443,79.8763104 300.000002,91.0824716 300.000002,103.456879 C300.000002,114.655931 293.981045,120.172519 286.291472,124.689107 C272.409955,133.051666 260.87204,135.727021 260.87204,145.255457 C260.87204,151.781524 267.393367,154.788633 274.582941,154.788633 C283.9455,154.788633 292.142182,149.937922 294.817538,148.433183" id="path60" fill-rule="nonzero"></path>
                <path d="M48.1255929,90.1298622 L48.1113749,82.1654072 C48.1113749,76.3123266 48.1113749,55.2412365 26.3767777,55.2412365 C17.0094791,55.2412365 9.9881521,58.923701 3.13507149,62.7673029 L3.13507149,49.0564024 C8.31279662,47.3834166 15.338863,46.0469237 23.867299,46.0469237 C48.1113749,46.0469237 60.4881521,57.0848384 60.4881521,81.3265446 L60.4881521,161.421331 L48.1113749,161.421331 L48.1113749,155.618014 C44.8341237,159.703322 39.6824649,163.295739 31.2582943,163.295739 C12.0260668,163.295739 3.99999916e-07,145.570621 3.99999916e-07,123.331284 C3.99999916e-07,101.096687 11.5236971,81.8620897 31.7582943,81.8620897 C38.9194317,81.8620897 44.4431284,86.0374451 48.1255929,90.1298622 Z M13.1279625,122.665407 C13.1279625,136.542184 17.1421805,156.018488 30.353081,156.018488 C44.3981047,156.018488 49.746446,136.876308 49.746446,122.665407 C49.746446,107.783891 44.0639815,89.1417105 30.5189578,89.1417105 C17.3080573,89.1417105 13.1279625,108.954507 13.1279625,122.665407 Z" id="Combined-Shape"></path>
                <polyline id="path68" fill-rule="nonzero" points="114.452063 51.5795452 117.719836 51.5795452 117.719836 33.2146163 125.298035 33.2146163 125.298035 31.0748059 114.452063 31.0748059"></polyline>
                <path d="M134.717463,41.1198323 C134.717463,42.2193583 134.331207,44.299927 132.101349,44.299927 C129.783814,44.299927 129.338316,41.9207801 129.279074,41.1198323 L134.717463,41.1198323 Z M137.390449,31.5511119 C136.144003,31.0440028 135.044477,30.7477943 133.260117,30.7477943 C129.338316,30.7477943 126.189027,33.0653299 126.189027,38.771491 C126.189027,42.693292 127.762487,45.5463725 132.219833,45.5463725 C136.798032,45.5463725 137.658221,42.4871308 137.658221,39.7525337 L129.189027,39.7525337 C129.189027,36.9586948 130.437842,32.3236237 134.686657,32.3236237 C135.608458,32.3236237 136.499453,32.5013488 137.390449,32.9160408 L137.390449,31.5511119 Z" id="path72" fill-rule="nonzero"></path>
                <path d="M140.86675,45.2193575 L143.869125,45.2193575 L143.869125,31.0748075 L140.86675,31.0748075 L140.86675,45.2193575 Z M140.74825,51.579545 L143.987588,51.579545 L143.987588,48.6079825 L140.74825,48.6079825 L140.74825,51.579545 Z" id="path74" fill-rule="nonzero"></path>
                <path d="M153.91415,31.9966073 C156.350169,31.9966073 156.944955,35.2051381 156.944955,38.0890243 C156.944955,40.584285 156.378605,43.8236215 153.91415,43.8236215 C151.565809,43.8236215 151.001827,40.7620101 151.001827,38.0890243 C151.001827,34.4918679 151.447325,32.0250433 153.91415,31.9966073 M150.883344,43.2596404 L150.942586,43.2596404 C151.565809,44.1506357 152.516045,45.5463703 154.892823,45.5463703 C158.69851,45.5463703 160.212728,42.3378395 160.212728,38.0890243 C160.212728,32.8567968 157.658226,30.7477921 153.91415,30.7477921 C148.385714,30.7477921 147.880974,34.4326262 147.880974,38.0890243 L147.880974,51.5795457 L150.883344,51.5795457" id="path78" fill-rule="nonzero"></path>
                <path d="M163.333575,45.2193575 L166.333575,45.2193575 L166.333575,41.8615376 L166.392817,41.8615376 C166.86912,42.901822 168.236419,45.5463717 171.357272,45.5463717 C173.852532,45.5463717 174.921253,43.4681727 174.921253,41.41604 L174.921253,31.0748077 L171.921253,31.0748077 L171.921253,39.930258 C171.921253,41.7146182 171.65348,43.3188836 170.136893,43.3188836 C167.165329,43.3188836 166.333575,38.6838125 166.333575,36.9278883 L166.333575,31.0748077 L163.333575,31.0748077" id="path82" fill-rule="nonzero"></path>
                <path d="M179.200875,45.2193575 L182.20325,45.2193575 L182.20325,31.0748075 L179.200875,31.0748075 L179.200875,45.2193575 Z M179.082375,51.579545 L182.321713,51.579545 L182.321713,48.6079825 L179.082375,48.6079825 L179.082375,51.579545 Z" id="path84" fill-rule="nonzero"></path>
                <polyline id="path88" fill-rule="nonzero" points="184.904663 33.0368952 191.918881 43.4373692 185.350161 43.4373692 185.350161 45.2193597 195.07054 45.2193597 195.07054 43.4373692 188.056322 33.0368952 195.276701 33.0368952 195.276701 31.0748099 184.904663 31.0748099"></polyline>
                <polygon id="path90" fill-rule="nonzero" points="197.117937 36.88367 207.31225 36.88367 207.31225 39.58747 197.117937 39.58747"></polygon>
                <polygon id="path92" fill-rule="nonzero" points="211.053963 31.0748075 214.3241 31.0748075 214.3241 51.579545 211.053963 51.579545"></polygon>
                <path d="M218.750637,45.2193575 L221.753007,45.2193575 L221.753007,41.8615376 L221.812248,41.8615376 C222.286182,42.901822 223.65585,45.5463717 226.774334,45.5463717 C229.271964,45.5463717 230.340684,43.4681727 230.340684,41.41604 L230.340684,31.0748077 L227.338315,31.0748077 L227.338315,39.930258 C227.338315,41.7146182 227.072912,43.3188836 225.556324,43.3188836 C222.58476,43.3188836 221.753007,38.6838125 221.753007,36.9278883 L221.753007,31.0748077 L218.750637,31.0748077" id="path96" fill-rule="nonzero"></path>
                <path d="M241.57765,42.4278953 C240.568171,43.1103597 239.440209,43.8236298 238.013669,43.8236298 C237.061062,43.8236298 235.992342,43.4065682 235.992342,42.3378479 C235.992342,39.7809758 242.471015,39.544009 242.471015,35.0274213 C242.471015,31.9966156 240.091868,30.7478004 237.091868,30.7478004 C235.279072,30.7478004 234.030257,31.1340564 233.316986,31.3710232 L233.316986,34.136426 C234.179546,33.5416393 235.57528,32.650644 237.241157,32.650644 C238.963906,32.650644 239.677176,33.5416393 239.677176,34.4326346 C239.677176,36.9302649 233.28855,37.4350042 233.28855,41.4752886 C233.28855,43.615099 234.715091,45.5463787 238.250636,45.5463787 C239.767223,45.5463787 241.072911,45.1316867 241.57765,44.9823976" id="path100" fill-rule="nonzero"></path>
                <path d="M253.108463,30.9563322 C252.513676,30.8070431 251.712728,30.7478014 251.027894,30.7478014 C248.205619,30.7478014 246.570548,31.6103607 246.570548,34.3449578 L246.570548,43.6743417 L244.312254,43.6743417 L244.312254,45.2193654 L246.570548,45.2193654 L246.570548,48.5487493 L249.572918,50.3615455 L249.572918,45.2193654 L253.435477,45.2193654 L253.435477,43.6743417 L249.572918,43.6743417 L249.572918,35.5321616 C249.572918,33.4515929 249.779079,32.4421142 251.712728,32.4421142 C252.186662,32.4421142 252.693771,32.5013559 253.108463,32.6790811" id="path104" fill-rule="nonzero"></path>
                <polygon id="path106-path" points="255.989975 45.2193575 258.99235 45.2193575 258.99235 31.0748075 255.989975 31.0748075"></polygon>
                <polygon id="path106-path" points="255.871475 51.579545 259.110813 51.579545 259.110813 48.6079825 255.871475 48.6079825"></polygon>
                <path d="M270.729313,30.9563322 C270.134526,30.8070431 269.333578,30.7478014 268.648744,30.7478014 C265.826469,30.7478014 264.191398,31.6103607 264.191398,34.3449578 L264.191398,43.6743417 L261.933104,43.6743417 L261.933104,45.2193654 L264.191398,45.2193654 L264.191398,48.5487493 L267.193768,50.3615455 L267.193768,45.2193654 L271.056327,45.2193654 L271.056327,43.6743417 L267.193768,43.6743417 L267.193768,35.5321616 C267.193768,33.4515929 267.402299,32.4421142 269.333578,32.4421142 C269.809882,32.4421142 270.314621,32.5013559 270.729313,32.6790811" id="path110" fill-rule="nonzero"></path>
                <path d="M282.02315,34.4326325 L281.961539,34.4326325 C281.487605,33.3923481 280.151112,30.7477984 277.030259,30.7477984 C274.532629,30.7477984 273.463908,32.8283671 273.463908,34.8781301 L273.463908,45.2193624 L276.466278,45.2193624 L276.466278,36.3639121 C276.466278,34.5819216 276.731681,32.9776562 278.248268,32.9776562 C281.219832,32.9776562 282.051586,37.6127273 282.051586,39.3662818 L282.051586,45.2193624 L285.053956,45.2193624 L285.053956,31.0748126 L282.02315,31.0748126" id="path114" fill-rule="nonzero"></path>
                <path d="M296.610825,30.9563323 C296.018408,30.8070432 295.21509,30.7478014 294.532626,30.7478014 C291.707981,30.7478014 290.07291,31.6103607 290.07291,34.3449579 L290.07291,43.6743417 L287.814616,43.6743417 L287.814616,45.2193654 L290.07291,45.2193654 L290.07291,48.5487493 L293.07528,50.3615455 L293.07528,45.2193654 L296.937839,45.2193654 L296.937839,43.6743417 L293.07528,43.6743417 L293.07528,35.5321616 C293.07528,33.4515929 293.283811,32.4421142 295.21509,32.4421142 C295.691394,32.4421142 296.196133,32.501356 296.610825,32.6790811" id="path118" fill-rule="nonzero"></path>
                <path d="M4.1426495,14.0008825 L1.67582485,14.0008825 L1.67582485,15.5459062 L4.1426495,15.5459062 L4.1426495,16.8823991 C4.1426495,19.4985128 4.76824192,22.23311 9.5217964,22.23311 C10.7398059,22.23311 11.810896,22.0530152 12.5241661,21.9037261 L12.5241661,19.8539631 C11.8985737,20.1217356 11.0976258,20.5079915 9.8796163,20.5079915 C7.4412277,20.5079915 7.14501917,18.754437 7.14501917,17.240219 L7.14501917,15.5459062 L11.1568675,15.5459062 L11.1568675,14.0008825 L7.14501917,14.0008825 L7.14501917,1.39898675 L4.1426495,1.39898675" id="path122" fill-rule="nonzero"></path>
                <path d="M20.427013,21.339745 L23.66635,21.339745 L23.66635,18.339745 L20.427013,18.339745 L20.427013,21.339745 Z M14.692412,21.339745 L17.93175,21.339745 L17.93175,18.339745 L14.692412,18.339745 L14.692412,21.339745 Z M21.9436,4.75917 L21.88435,4.75917 C21.40805,3.7188825 20.07155,1.07197 16.9507,1.07197 C14.455437,1.07197 13.38435,3.1525325 13.38435,5.20467 L13.38435,15.545895 L16.386712,15.545895 L16.386712,6.690445 C16.386712,4.906095 16.652125,3.30182 18.168712,3.30182 C21.140275,3.30182 21.9744,7.936895 21.9744,9.690445 L21.9744,15.545895 L24.9744,15.545895 L24.9744,1.3989825 L21.943587,1.3989825 L21.9436,4.75917 Z" id="path124" fill-rule="nonzero"></path>
                <path d="M29.104738,15.5458945 L32.104738,15.5458945 L32.104738,11.9487381 L32.1639797,11.9487381 C33.1165863,13.8515817 34.1568707,15.6643779 36.7421788,15.8729087 L36.7421788,12.7520556 C33.8582925,12.6620082 32.104738,11.6809656 32.104738,7.87764804 L32.104738,1.39897505 L29.104738,1.39897505" id="path128" fill-rule="nonzero"></path>
                <path d="M57.7208503,18.87292 C56.9767744,19.2899816 54.8677697,20.2710243 52.6402815,20.2710243 C50.8251156,20.2710243 49.5478645,19.2307399 49.5478645,17.6857162 C49.5478645,13.3752897 59.2066322,13.4937731 59.2066322,7.07671145 C59.2066322,2.7662849 55.8772484,1.07197211 51.7469166,1.07197211 C49.429381,1.07197211 47.1710872,1.60751713 46.5478645,1.84685362 L46.5478645,5.02457875 C47.4672957,4.48903372 49.8464427,3.21178254 52.2540256,3.21178254 C54.3914664,3.21178254 55.9388597,4.1027778 55.9388597,6.18334652 C55.9388597,10.880029 46.2800919,10.5838205 46.2800919,16.9724461 C46.2800919,20.2994603 48.7469166,22.2307399 52.9957318,22.2307399 C54.8985754,22.2307399 56.9175327,21.844484 57.7208503,21.6975646" id="path132" fill-rule="nonzero"></path>
                <path d="M67.1402877,2.32078225 C69.8156432,2.32078225 70.1426574,5.88713297 70.1426574,8.47244103 C70.1426574,11.0577491 69.8156432,14.6240998 67.1402877,14.6240998 C64.495738,14.6240998 64.1687238,11.0577491 64.1687238,8.47244103 C64.1687238,5.88713297 64.495738,2.32078225 67.1402877,2.32078225 M60.8985816,8.47244103 C60.8985816,13.2568012 62.9791503,15.872915 67.1402877,15.872915 C71.3014252,15.872915 73.4104299,13.2568012 73.4104299,8.47244103 C73.4104299,3.68808083 71.3014252,1.07196708 67.1402877,1.07196708 C62.9791503,1.07196708 60.8985816,3.68808083 60.8985816,8.47244103" id="path136" fill-rule="nonzero"></path>
                <polyline id="path140" fill-rule="nonzero" points="74.92465 3.36107025 81.938868 13.7615442 75.3701476 13.7615442 75.3701476 15.5459044 85.0881571 15.5459044 85.0881571 13.7615442 78.0763088 3.36107025 85.2966879 3.36107025 85.2966879 1.39898494 74.92465 1.39898494"></polyline>
                <path d="M87.969662,15.545895 L90.972038,15.545895 L90.972038,1.3989825 L87.969662,1.3989825 L87.969662,15.545895 Z M87.851163,21.90372 L91.0905,21.90372 L91.0905,18.9321575 L87.851163,18.9321575 L87.851163,21.90372 Z" id="path142" fill-rule="nonzero"></path>
                <path d="M102.263512,8.02694475 C101.014697,7.93689736 97.6284409,7.66912484 97.6284409,5.05538076 C97.6284409,3.77812958 98.3701471,2.94400635 99.3511897,2.94400635 C100.391474,2.94400635 102.263512,3.9558547 102.263512,6.36106797 L102.263512,8.02694475 Z M102.263512,3.36106797 L102.20427,3.36106797 C101.730337,2.52931441 100.481521,1.07196844 98.2232276,1.07196844 C95.9933698,1.07196844 94.3582987,2.64779782 94.3582987,4.60988313 C94.3582987,8.97718172 100.391474,9.18571252 102.263512,9.27575992 L102.263512,10.5222054 C102.263512,12.0695988 102.263512,14.6241012 100.272991,14.6241012 C98.4317584,14.6241012 98.1023745,13.1975609 97.9862608,11.5340538 L94.834602,11.5340538 C94.9838911,13.6430585 95.8156447,15.8729163 100.272991,15.8729163 C104.879626,15.8729163 105.265882,13.2876083 105.265882,10.5222054 L105.265882,1.39898266 L102.263512,1.39898266 L102.263512,3.36106797 Z" id="path146" fill-rule="nonzero"></path>
                <polygon id="path148" fill-rule="nonzero" points="109.483888 1.401345 112.48625 1.401345 112.48625 21.90372 109.483888 21.90372"></polygon>
                <polyline id="path152" fill-rule="nonzero" points="115.813275 15.5458945 118.666356 15.5458945 121.014697 5.32314567 121.073939 5.32314567 123.867777 15.5458945 126.036024 15.5458945 128.979152 5.32314567 129.038393 5.32314567 131.237446 15.5458945 133.763512 15.5458945 130.464934 1.39897505 127.84882 1.39897505 124.84882 10.9676954 124.789578 10.9676954 122.114223 1.39897505 119.498109 1.39897505"></polyline>
                <path d="M137.059713,15.545895 L140.062088,15.545895 L140.062088,1.3989825 L137.059713,1.3989825 L137.059713,15.545895 Z M136.941212,21.90372 L140.180537,21.90372 L140.180537,18.9321575 L136.941212,18.9321575 L136.941212,21.90372 Z" id="path154" fill-rule="nonzero"></path>
                <path d="M151.47915,12.7520573 C150.469671,13.4345217 149.33934,14.1477918 147.912799,14.1477918 C146.962562,14.1477918 145.891472,13.7330999 145.891472,12.6620099 C145.891472,10.1075075 152.370145,9.86817099 152.370145,5.35158331 C152.370145,2.32077761 149.993368,1.07196245 146.990998,1.07196245 C145.178202,1.07196245 143.931757,1.45821837 143.218486,1.69755486 L143.218486,4.46058804 C144.078676,3.86580131 145.474411,2.97480605 147.140287,2.97480605 C148.863036,2.97480605 149.576306,3.86580131 149.576306,4.75916624 C149.576306,7.25442691 143.187681,7.75916625 143.187681,11.7994506 C143.187681,13.939261 144.614221,15.8729103 148.149766,15.8729103 C149.666354,15.8729103 150.974411,15.4558487 151.47915,15.3065596" id="path158" fill-rule="nonzero"></path>
                <path d="M163.246925,12.7520573 C162.237446,13.4345217 161.107115,14.1477918 159.680574,14.1477918 C158.730337,14.1477918 157.659247,13.7330999 157.659247,12.6620099 C157.659247,10.1075075 164.13792,9.86817099 164.13792,5.35158331 C164.13792,2.32077761 161.761143,1.07196245 158.758773,1.07196245 C156.945977,1.07196245 155.699532,1.45821837 154.986261,1.69755486 L154.986261,4.46058804 C155.846451,3.86580131 157.242186,2.97480605 158.908062,2.97480605 C160.633181,2.97480605 161.344081,3.86580131 161.344081,4.75916624 C161.344081,7.25442691 154.955456,7.75916625 154.955456,11.7994506 C154.955456,13.939261 156.381996,15.8729103 159.917541,15.8729103 C161.434129,15.8729103 162.742186,15.4558487 163.246925,15.3065596" id="path162" fill-rule="nonzero"></path>
                <path d="M174.8346,11.4440073 C174.8346,12.5435333 174.450714,14.624102 172.220856,14.624102 C169.90332,14.624102 169.455453,12.2473248 169.398581,11.4440073 L174.8346,11.4440073 Z M177.509955,1.87528686 C176.26114,1.37054752 175.161614,1.07196932 173.379624,1.07196932 C169.455453,1.07196932 166.306164,3.38950487 166.306164,9.09566601 C166.306164,13.0198366 167.881993,15.8729172 172.339339,15.8729172 C176.915169,15.8729172 177.777728,12.8113058 177.777728,10.0767087 L169.308534,10.0767087 C169.308534,7.2828698 170.557349,2.64779871 174.806164,2.64779871 C175.727965,2.64779871 176.61896,2.82552382 177.509955,3.24258544 L177.509955,1.87528686 Z" id="path166" fill-rule="nonzero"></path>
                <path d="M180.836962,15.5458945 L183.839332,15.5458945 L183.839332,12.1880746 L183.898573,12.1880746 C184.372507,13.228359 185.739806,15.8729087 188.860659,15.8729087 C191.355919,15.8729087 192.427009,13.79234 192.427009,11.742577 L192.427009,1.39897505 L189.42464,1.39897505 L189.42464,10.256795 C189.42464,12.0387855 189.156867,13.6430509 187.642649,13.6430509 C184.671085,13.6430509 183.839332,9.0079798 183.839332,7.25442529 L183.839332,1.39897505 L180.836962,1.39897505" id="path170" fill-rule="nonzero"></path>
                <path d="M203.663975,12.7520573 C202.654496,13.4345217 201.524165,14.1477918 200.099994,14.1477918 C199.147387,14.1477918 198.078667,13.7330999 198.078667,12.6620099 C198.078667,10.1075075 204.55734,9.86817099 204.55734,5.35158331 C204.55734,2.32077761 202.178193,1.07196245 199.178193,1.07196245 C197.365397,1.07196245 196.116582,1.45821837 195.403311,1.69755486 L195.403311,4.46058804 C196.265871,3.86580131 197.661605,2.97480605 199.325112,2.97480605 C201.050231,2.97480605 201.763501,3.86580131 201.763501,4.75916624 C201.763501,7.25442691 195.374875,7.75916625 195.374875,11.7994506 C195.374875,13.939261 196.801416,15.8729103 200.336961,15.8729103 C201.851179,15.8729103 203.159236,15.4558487 203.663975,15.3065596" id="path174" fill-rule="nonzero"></path>
                <path d="M217.602375,1.78523225 C216.384366,1.33973462 215.104745,1.07196211 213.827494,1.07196211 C209.341712,1.07196211 206.725598,3.77812325 206.725598,9.0364171 C206.725598,13.2567962 208.656878,15.87291 212.727968,15.87291 C216.531285,15.87291 217.810906,13.851583 217.810906,10.9392607 L214.659247,10.9392607 C214.659247,12.6335735 214.481522,14.6240948 212.609484,14.6240948 C210.884366,14.6240948 209.99337,12.6027678 209.99337,10.0482654 C209.99337,6.60039813 211.450716,2.64779149 215.076309,2.64779149 C215.936498,2.64779149 216.770622,2.8563223 217.602375,3.18333652" id="path178" fill-rule="nonzero"></path>
                <path d="M220.156875,21.9037202 L223.159245,21.9037202 L223.159245,12.1880804 L223.218486,12.1880804 C223.69242,13.2259951 225.059719,15.8729146 228.180572,15.8729146 C230.678202,15.8729146 231.746922,13.7923458 231.746922,11.7402131 L231.746922,1.39898088 L228.744553,1.39898088 L228.744553,10.2544311 C228.744553,12.0387913 228.47915,13.6430567 226.962562,13.6430567 C223.990998,13.6430567 223.159245,9.00798563 223.159245,7.25443113 L223.159245,1.39898088 L220.156875,1.39898088" id="path182" fill-rule="nonzero"></path>
                <path d="M242.860663,8.02694475 C241.611848,7.93689736 238.223222,7.66912484 238.223222,5.05538076 C238.223222,3.77812958 238.967298,2.94400635 239.948341,2.94400635 C240.988625,2.94400635 242.860663,3.9558547 242.860663,6.36106797 L242.860663,8.02694475 Z M242.860663,3.36106797 L242.799052,3.36106797 C242.325118,2.52931441 241.076303,1.07196844 238.818009,1.07196844 C236.590521,1.07196844 234.95545,2.64779782 234.95545,4.60988313 C234.95545,8.97718172 240.988625,9.18571252 242.860663,9.27575992 L242.860663,10.5222054 C242.860663,12.0695988 242.860663,14.6241012 240.867772,14.6241012 C239.02654,14.6241012 238.699526,13.1975609 238.581042,11.5340538 L235.429383,11.5340538 C235.578672,13.6430585 236.410426,15.8729163 240.867772,15.8729163 C245.474407,15.8729163 245.860663,13.2876083 245.860663,10.5222054 L245.860663,1.39898266 L242.860663,1.39898266 L242.860663,3.36106797 Z" id="path186" fill-rule="nonzero"></path>
                <path d="M250.972037,14.0008825 L248.505213,14.0008825 L248.505213,15.5459062 L250.972037,15.5459062 L250.972037,16.8823991 C250.972037,19.4985128 251.59526,22.23311 256.351184,22.23311 C257.569194,22.23311 258.637914,22.0530152 259.351184,21.9037261 L259.351184,19.8539631 C258.727962,20.1217356 257.924644,20.5079915 256.706635,20.5079915 C254.270616,20.5079915 253.974407,18.754437 253.974407,17.240219 L253.974407,15.5459062 L257.986255,15.5459062 L257.986255,14.0008825 L253.974407,14.0008825 L253.974407,1.39898675 L250.972037,1.39898675" id="path190" fill-rule="nonzero"></path>
                <path d="M267.64265,1.28049525 C267.047863,1.13120615 266.244546,1.07196444 265.562081,1.07196444 C262.739806,1.07196444 261.104735,1.93452369 261.104735,4.66912085 L261.104735,14.0008744 L258.846441,14.0008744 L258.846441,15.5458981 L261.104735,15.5458981 L261.104735,18.8729123 L264.107105,20.6857085 L264.107105,15.5458981 L267.969664,15.5458981 L267.969664,14.0008744 L264.107105,14.0008744 L264.107105,5.85632464 C264.107105,3.77812559 264.313266,2.76627724 266.244546,2.76627724 C266.720849,2.76627724 267.225588,2.82551895 267.64265,3.00324407" id="path194" fill-rule="nonzero"></path>
                <path d="M277.8654,11.4440073 C277.8654,12.5435333 277.479144,14.624102 275.249286,14.624102 C272.931751,14.624102 272.486253,12.2473248 272.427011,11.4440073 L277.8654,11.4440073 Z M280.538386,1.87528686 C279.29194,1.37054752 278.192414,1.07196932 276.408054,1.07196932 C272.486253,1.07196932 269.334594,3.38950487 269.334594,9.09566601 C269.334594,13.0198366 270.910424,15.8729172 275.36777,15.8729172 C279.943599,15.8729172 280.806158,12.8113058 280.806158,10.0767087 L272.336964,10.0767087 C272.336964,7.2828698 273.585779,2.64779871 277.834594,2.64779871 C278.756395,2.64779871 279.64739,2.82552382 280.538386,3.24258544 L280.538386,1.87528686 Z" id="path198" fill-rule="nonzero"></path>
                <path d="M283.86777,15.0436794 L286.86777,15.0436794 L286.86777,11.6858595 L286.927012,11.6858595 C287.403315,12.7261439 288.770614,15.3706936 291.891467,15.3706936 C294.386727,15.3706936 295.457817,13.2901249 295.457817,11.2403619 L295.457817,0.896759952 L292.455448,0.896759952 L292.455448,9.75457987 C292.455448,11.5365704 292.187675,13.1408358 290.673457,13.1408358 C287.699524,13.1408358 286.86777,8.5057647 286.86777,6.75221019 L286.86777,0.896759952 L283.86777,0.896759952" id="path210" fill-rule="nonzero"></path>
            </g>
        </g>
    </g>
</svg>