<svg xmlns="http://www.w3.org/2000/svg" width="389" height="140" viewBox="0 0 389 140">
  <g fill="#1E4B9B">
    <path d="M118.6,82.4 L118.6,6.8 C118.6,3.5 115.2,1.42108547e-14 111.9,1.42108547e-14 L7.1,1.42108547e-14 C3.8,1.42108547e-14 -7.10542736e-15,3.2 -7.10542736e-15,6.5 L-7.10542736e-15,82.4 C-7.10542736e-15,115.7 26.5,139.3 59.3,139.3 C92.1,139.3 118.6,115.8 118.6,82.4 M51.7,68.5 C37.4,72.4 22.6,63.9 18.8,49.6 C15.2,35.2 23.9,20.6 38.3,17 C52.6,13.2 67.4,21.7 71.2,36 C74.8,50.4 66.1,64.9 51.7,68.5"/>
    <path d="M119 82.2L119 6.8C119 3.5 115.6 0 112.3 0L7.1 0C3.8 0-7.10542736e-15 3.2-7.10542736e-15 6.5L-7.10542736e-15 82.2C-7.10542736e-15 115.5 26.6 139 59.5 139 92.4 139 119 115.6 119 82.2M51.7 68.1C37.4 72 22.6 63.5 18.8 49.3 15.2 35 23.9 20.5 38.3 16.9 52.6 13.1 67.4 21.6 71.2 35.8 74.8 50.1 66.1 64.5 51.7 68.1M262.7 78.6L271.7 67.8C276.8 72.5 281.9 75.2 287.9 75.2 294.9 75.2 299.3 71.7 299.3 65.7L299.3 65.5C299.3 59.7 294.4 56.2 287.2 56.2 283.3 56.3 279.5 57.1 275.8 58.8L267.2 53.1 269.2 19.5 311 19.5 311 32.7 282 32.7 281.2 44.5C284.1 43.7 287.1 43.3 290.1 43.3 303.3 43.3 313.8 49.7 313.8 65.2L313.8 65.3C313.8 79.7 303.6 89 288 89 278.6 89.2 269.4 85.5 262.7 78.6L262.7 78.6z"/>
    <polygon points="194.1 8.7 182 4.6 182 1 204 9.4 204 12.7 198 10.3 182 16.2 182 12.3"/>
    <path d="M154.8,40.4 C151.8,40.4 149.1,40.9 149.1,44.2 C149.1,45.5 149.4,46.8 149.9,48 L159.5,48 C160,46.8 160.3,45.5 160.3,44.2 C160.5,40.9 157.9,40.4 154.8,40.4 L154.8,40.4 Z M146.5,49.2 L147.4,48.9 C146.5,47.4 146.1,45.7 146,44 C146,38.2 149.6,37 154.8,37 C160.1,37 163.6,38.6 163.6,44.3 C163.6,45.6 163.3,47 162.7,48.1 L168.5,48.1 L168.5,51.6 L146.5,51.6 L146.5,49.2 L146.5,49.2 Z"/>
    <polygon points="162.4 129.4 162.4 132.9 143.2 132.9 143.2 139.2 140 139.2 140 123 143.2 123 143.2 129.4"/>
    <path d="M150.6 109.5C149 109.5 148.5 110.7 148.5 112.3 148.5 113.7 148.8 115 149.3 116.3L162.5 116.3 162.5 119.8 140 119.8 140 116.4 146.4 116.4C145.7 115 145.4 113.5 145.3 111.9 145.3 107.7 147.3 106 150.7 106L162.5 106 162.4 109.5 150.6 109.5 150.6 109.5zM151.7 69.6C156.4 69.6 160.1 68.8 160.1 64.1 160.1 59.4 156.3 58.7 151.7 58.7 147 58.7 143.3 59.5 143.3 64.2 143.3 68.9 147 69.6 151.7 69.6M151.7 73.3C145.6 73.3 140 71.5 140 64.2 140 56.7 145.6 55.1 151.7 55.1 157.8 55.1 163.4 56.9 163.4 64.2 163.4 71.8 157.8 73.3 151.7 73.3M149.2 8.2C149.2 7.8 149.1 5.4 151.4 5.4L163.2 5.4 163.2 2 151.4 2C148 2 146 3.7 146 7.9 146 9.7 146.5 11.5 147.4 13L146.5 13.3 146.5 15.6 163.3 15.6 163.3 12 150.1 12C149.5 10.9 149.2 9.5 149.2 8.2M153.5 30.7L153.5 23.5C151.3 23.5 148.9 24.1 148.9 26.9 149 29.7 151 30.5 153.5 30.7zM156.4 30.7C159.3 30.4 160.5 29.2 160.5 25.8 160.4 24 160.1 22.3 159.5 20.7L162.6 20.7C163.4 22.6 163.7 24.6 163.7 26.7 163.7 32.5 160.1 34.3 154.9 34.3 149.6 34.3 146.1 32.3 146.1 26.7 146.1 20.8 150.4 20 155 20L156.3 20 156.4 30.7 156.4 30.7zM153.7 98.8L153.7 91.6C151.5 91.6 149.1 92.2 149.1 95 149.2 97.7 151.1 98.7 153.7 98.8zM156.4 98.8C159.3 98.5 160.5 97.2 160.5 93.9 160.4 92.1 160.1 90.4 159.5 88.7L162.6 88.7C163.4 90.6 163.7 92.6 163.7 94.7 163.7 100.5 160.1 102.3 154.9 102.3 149.6 102.3 146.1 100.3 146.1 94.7 146.1 88.7 150.4 88 155 88L156.3 88 156.4 98.8 156.4 98.8zM177 125.5L191.3 125.5C196.4 125.5 196.8 128.5 196.8 130.4 196.8 132.3 196.4 135.3 191.3 135.3L177 135.3 177 138.8 191.7 138.8C198.9 138.8 200 133.6 200 130.5 200 127.3 198.9 122.2 191.7 122.2L177 122.2 177 125.5zM177.3 98C178.6 98 179.6 99 179.6 100.3 179.6 101.6 178.6 102.6 177.3 102.6 176 102.6 175 101.6 175 100.3 175 99 176 98 177.3 98M195.5 102.1L182 102.1 182 98.6 195.2 98.6C195.8 98.6 196.1 98.6 196.1 97.6L196.1 97 199.2 97C199.2 97.5 199.3 98.1 199.3 98.6 199.2 100.6 198.2 102.1 195.5 102.1M195.5 35.1L182 35.1 182 31.6 195.2 31.6C195.8 31.6 196.1 31.6 196.1 30.6L196.1 30 199.2 30C199.2 30.5 199.3 31.1 199.3 31.6 199.2 33.7 198.2 35.1 195.5 35.1"/>
    <polygon points="182 82.8 182 79 199.2 85.5 199.2 88.3 182 94.9 182 91.1 195 86.9"/>
    <path d="M189.4 67.3C187.2 67.3 184.8 67.9 184.8 70.6 184.8 73.3 186.7 74.3 189.4 74.5L189.4 67.3zM192.3 74.5C195.2 74.2 196.4 73 196.4 69.7 196.4 68 196 66.3 195.5 64.7L198.6 64.7C199.4 66.6 199.7 68.6 199.7 70.6 199.7 76.3 196.2 78 190.9 78 185.5 78 182.1 76 182.1 70.6 182.1 64.8 186.5 63.9 191 63.9L192.4 63.9 192.4 74.5 192.3 74.5 192.3 74.5zM185.4 52C185.3 52.8 185.2 53.5 185.2 54.3 185.2 55.4 185.4 56.5 185.9 57.6L199.2 57.6 199.2 61 182.4 61 182.4 58.6 183.3 58.3C182.5 57.1 182 55.6 182 54.1 182 53.4 182 52.6 182.1 51.9L185.4 51.9 185.4 52 185.4 52zM194.2 38C196.9 38 199.7 39.7 199.7 44.7 199.7 46.5 199.4 48.3 198.8 50L195.5 50C196.1 48.3 196.5 46.5 196.5 44.7 196.5 42 195.4 41.2 194.2 41.2 193 41.2 192.3 41.6 192.1 44.2 191.7 49.1 189.8 50.1 187.3 50.1 184.8 50.1 181.9 48.5 181.9 43.7 181.9 41.9 182.2 40.2 182.9 38.6L186.1 38.6C185.5 40.2 185.1 42 185.1 43.7 185.1 46.3 186.1 46.8 187.2 46.8 188.2 46.8 188.7 46.3 188.9 43.8 189.5 39.2 191.2 38 194.2 38M199.6 17C199.8 18.1 199.8 19.1 199.8 20.2 199.8 22.9 198.4 25 195.1 25L185.6 25 185.6 27.9 182.8 27.9 182.6 25 178.4 25 177.9 21.6 182.6 21.6 182.6 17 185.6 17 185.6 21.6 194.7 21.6C196.1 21.6 196.6 20.8 196.6 19.1 196.6 18.4 196.6 17.7 196.5 17L199.6 17zM185.2 111.1C185.2 110.7 185.1 108.4 187.4 108.4L199.2 108.4 199.2 105 187.4 105C184 105 182 106.7 182 110.8 182 112.6 182.5 114.3 183.4 115.8L182.5 116.1 182.5 118.4 199.2 118.4 199.2 115 186 115C185.5 113.7 185.2 112.3 185.2 111.1M177.3 31C178.6 31 179.6 32 179.6 33.3 179.6 34.6 178.6 35.6 177.3 35.6 176 35.6 175 34.6 175 33.3 175 32 176 31 177.3 31M354 19C334.7 19 319 34.7 319 54 319 73.3 334.6 89 354 89 373.4 89 389 73.3 389 54 389 34.7 373.3 19 354 19zM354 32C366.1 32 376 41.9 376 54 376 66.1 366.1 76 354 76 341.9 76 332 66.1 332 54 332 42 341.9 32.1 354 32z"/>
    <polygon points="194.1 8.7 182 4.6 182 1 204 9.4 204 12.7 198 10.3 182 16.2 182 12.3"/>
    <path d="M154.8,40.4 C151.8,40.4 149.1,40.9 149.1,44.2 C149.1,45.5 149.4,46.8 149.9,48 L159.5,48 C160,46.8 160.3,45.5 160.3,44.2 C160.5,40.9 157.9,40.4 154.8,40.4 L154.8,40.4 Z M146.5,49.2 L147.4,48.9 C146.5,47.4 146.1,45.7 146,44 C146,38.2 149.6,37 154.8,37 C160.1,37 163.6,38.6 163.6,44.3 C163.6,45.6 163.3,47 162.7,48.1 L168.5,48.1 L168.5,51.6 L146.5,51.6 L146.5,49.2 L146.5,49.2 Z"/>
    <polygon points="162.4 129.4 162.4 132.9 143.2 132.9 143.2 139.2 140 139.2 140 123 143.2 123 143.2 129.4"/>
    <path d="M150.6 109.5C149 109.5 148.5 110.7 148.5 112.3 148.5 113.7 148.8 115 149.3 116.3L162.5 116.3 162.5 119.8 140 119.8 140 116.4 146.4 116.4C145.7 115 145.4 113.5 145.3 111.9 145.3 107.7 147.3 106 150.7 106L162.5 106 162.4 109.5 150.6 109.5 150.6 109.5zM151.7 69.6C156.4 69.6 160.1 68.8 160.1 64.1 160.1 59.4 156.3 58.7 151.7 58.7 147 58.7 143.3 59.5 143.3 64.2 143.3 68.9 147 69.6 151.7 69.6M151.7 73.3C145.6 73.3 140 71.5 140 64.2 140 56.7 145.6 55.1 151.7 55.1 157.8 55.1 163.4 56.9 163.4 64.2 163.4 71.8 157.8 73.3 151.7 73.3M149.2 8.2C149.2 7.8 149.1 5.4 151.4 5.4L163.2 5.4 163.2 2 151.4 2C148 2 146 3.7 146 7.9 146 9.7 146.5 11.5 147.4 13L146.5 13.3 146.5 15.6 163.3 15.6 163.3 12 150.1 12C149.5 10.9 149.2 9.5 149.2 8.2M153.5 30.7L153.5 23.5C151.3 23.5 148.9 24.1 148.9 26.9 149 29.7 151 30.5 153.5 30.7zM156.4 30.7C159.3 30.4 160.5 29.2 160.5 25.8 160.4 24 160.1 22.3 159.5 20.7L162.6 20.7C163.4 22.6 163.7 24.6 163.7 26.7 163.7 32.5 160.1 34.3 154.9 34.3 149.6 34.3 146.1 32.3 146.1 26.7 146.1 20.8 150.4 20 155 20L156.3 20 156.4 30.7 156.4 30.7zM153.7 98.8L153.7 91.6C151.5 91.6 149.1 92.2 149.1 95 149.2 97.7 151.1 98.7 153.7 98.8zM156.4 98.8C159.3 98.5 160.5 97.2 160.5 93.9 160.4 92.1 160.1 90.4 159.5 88.7L162.6 88.7C163.4 90.6 163.7 92.6 163.7 94.7 163.7 100.5 160.1 102.3 154.9 102.3 149.6 102.3 146.1 100.3 146.1 94.7 146.1 88.7 150.4 88 155 88L156.3 88 156.4 98.8 156.4 98.8zM177 125.5L191.3 125.5C196.4 125.5 196.8 128.5 196.8 130.4 196.8 132.3 196.4 135.3 191.3 135.3L177 135.3 177 138.8 191.7 138.8C198.9 138.8 200 133.6 200 130.5 200 127.3 198.9 122.2 191.7 122.2L177 122.2 177 125.5zM177.3 98C178.6 98 179.6 99 179.6 100.3 179.6 101.6 178.6 102.6 177.3 102.6 176 102.6 175 101.6 175 100.3 175 99 176 98 177.3 98M195.5 102.1L182 102.1 182 98.6 195.2 98.6C195.8 98.6 196.1 98.6 196.1 97.6L196.1 97 199.2 97C199.2 97.5 199.3 98.1 199.3 98.6 199.2 100.6 198.2 102.1 195.5 102.1M195.5 35.1L182 35.1 182 31.6 195.2 31.6C195.8 31.6 196.1 31.6 196.1 30.6L196.1 30 199.2 30C199.2 30.5 199.3 31.1 199.3 31.6 199.2 33.7 198.2 35.1 195.5 35.1"/>
    <polygon points="182 82.8 182 79 199.2 85.5 199.2 88.3 182 94.9 182 91.1 195 86.9"/>
    <path d="M189.4 67.3C187.2 67.3 184.8 67.9 184.8 70.6 184.8 73.3 186.7 74.3 189.4 74.5L189.4 67.3zM192.3 74.5C195.2 74.2 196.4 73 196.4 69.7 196.4 68 196 66.3 195.5 64.7L198.6 64.7C199.4 66.6 199.7 68.6 199.7 70.6 199.7 76.3 196.2 78 190.9 78 185.5 78 182.1 76 182.1 70.6 182.1 64.8 186.5 63.9 191 63.9L192.4 63.9 192.4 74.5 192.3 74.5 192.3 74.5zM185.4 52C185.3 52.8 185.2 53.5 185.2 54.3 185.2 55.4 185.4 56.5 185.9 57.6L199.2 57.6 199.2 61 182.4 61 182.4 58.6 183.3 58.3C182.5 57.1 182 55.6 182 54.1 182 53.4 182 52.6 182.1 51.9L185.4 51.9 185.4 52 185.4 52zM194.2 38C196.9 38 199.7 39.7 199.7 44.7 199.7 46.5 199.4 48.3 198.8 50L195.5 50C196.1 48.3 196.5 46.5 196.5 44.7 196.5 42 195.4 41.2 194.2 41.2 193 41.2 192.3 41.6 192.1 44.2 191.7 49.1 189.8 50.1 187.3 50.1 184.8 50.1 181.9 48.5 181.9 43.7 181.9 41.9 182.2 40.2 182.9 38.6L186.1 38.6C185.5 40.2 185.1 42 185.1 43.7 185.1 46.3 186.1 46.8 187.2 46.8 188.2 46.8 188.7 46.3 188.9 43.8 189.5 39.2 191.2 38 194.2 38M199.6 17C199.8 18.1 199.8 19.1 199.8 20.2 199.8 22.9 198.4 25 195.1 25L185.6 25 185.6 27.9 182.8 27.9 182.6 25 178.4 25 177.9 21.6 182.6 21.6 182.6 17 185.6 17 185.6 21.6 194.7 21.6C196.1 21.6 196.6 20.8 196.6 19.1 196.6 18.4 196.6 17.7 196.5 17L199.6 17zM185.2 111.1C185.2 110.7 185.1 108.4 187.4 108.4L199.2 108.4 199.2 105 187.4 105C184 105 182 106.7 182 110.8 182 112.6 182.5 114.3 183.4 115.8L182.5 116.1 182.5 118.4 199.2 118.4 199.2 115 186 115C185.5 113.7 185.2 112.3 185.2 111.1M177.3 31C178.6 31 179.6 32 179.6 33.3 179.6 34.6 178.6 35.6 177.3 35.6 176 35.6 175 34.6 175 33.3 175 32 176 31 177.3 31"/>
    <polygon points="277.2 123 277.2 113.7 267.1 99 270.9 99 278.8 110.7 286.9 99 290.5 99 280.4 113.7 280.4 123"/>
    <polygon points="293.6 123 293.6 99 311.2 99 311.2 101.9 296.9 101.9 296.9 109.4 309.7 109.4 309.7 112.4 296.9 112.4 296.9 120.1 311.4 120.1 311.4 123"/>
    <path d="M330.6 114L325.8 103.1 320.9 114 330.6 114zM334.6 123L331.9 116.9 319.6 116.9 316.8 123 313.5 123 324.4 99 327 99 338 123 334.6 123zM352 110.8C355.5 110.8 357.7 109 357.7 106.3L357.7 106.2C357.7 103.5 355.6 101.9 352.1 101.9L345.2 101.9 345.2 110.8 352 110.8 352 110.8zM351.4 113.6L345.2 113.6 345.2 123 342 123 342 99 352.2 99C354.7 98.9 357.1 99.7 359 101.4 360.2 102.7 360.9 104.4 360.9 106.2L360.9 106.3C360.9 109.9 358.7 112.4 354.8 113.2L362.2 123 358.4 123 351.4 113.6 351.4 113.6zM374 123.4C370.4 123.4 367 122.1 364.4 119.6L364.2 119.4 366.2 117.1 366.4 117.3C368.4 119.4 371.2 120.5 374.2 120.5 377.1 120.5 379.1 119 379.1 116.8L379.1 116.7C379.1 114.8 378.2 113.6 373.3 112.6 368.4 111.6 365.3 110 365.3 105.7L365.3 105.6C365.3 101.8 368.6 99 373.2 99 376.2 98.9 379.2 99.9 381.5 101.9L381.7 102.1 379.9 104.5 379.7 104.3C377.9 102.7 375.6 101.8 373.2 101.8 370.5 101.8 368.6 103.2 368.6 105.3L368.6 105.4C368.6 107.3 369.5 108.5 374.7 109.6 380.1 110.8 382.5 112.8 382.5 116.4L382.5 116.5C382.2 120.6 378.8 123.4 374 123.4L374 123.4z"/>
    <rect width="3" height="139" x="232"/>
  </g>
</svg>
