<?xml version="1.0" encoding="UTF-8"?>
<svg width="1624px" height="55px" viewBox="0 0 1624 55" version="1.1" xmlns="http://www.w3.org/2000/svg" xmlns:xlink="http://www.w3.org/1999/xlink">
    <!-- Generator: Sketch 43.2 (39069) - http://www.bohemiancoding.com/sketch -->
    <title>Artboard</title>
    <desc>Created with Sketch.</desc>
    <defs></defs>
    <g id="Page-2" stroke="none" stroke-width="1" fill="none" fill-rule="evenodd">
        <g id="Artboard">
            <g id="Banner-Deco" transform="translate(0.000000, -92.000000)">
                <g>
                    <g id="Group-2" transform="translate(792.000000, 0.000000)">
                        <circle id="Oval-2" fill="#EB6236" cx="570.5" cy="118.5" r="18.5"></circle>
                        <circle id="Oval-2-Copy-8" fill="#EB6236" cx="654.5" cy="70.5" r="18.5"></circle>
                        <circle id="Oval-2-Copy-9" fill="#EB6236" cx="757.5" cy="46.5" r="18.5"></circle>
                        <circle id="Oval-2-Copy-10" fill="#EB6236" cx="757.5" cy="106.5" r="18.5"></circle>
                        <circle id="Oval-2-Copy-3" fill="#EB6236" cx="324.5" cy="89.5" r="18.5"></circle>
                        <circle id="Oval-2-Copy-4" fill="#EB6236" cx="224.5" cy="70.5" r="18.5"></circle>
                        <circle id="Oval-2-Copy-5" fill="#EB6236" cx="127.5" cy="81.5" r="18.5"></circle>
                        <circle id="Oval-2-Copy-6" fill="#EB6236" cx="45.5" cy="80.5" r="18.5"></circle>
                        <circle id="Oval-2-Copy-7" fill="#EB6236" cx="45.5" cy="80.5" r="18.5"></circle>
                        <circle id="Oval-2-Copy-11" fill="#EB6236" cx="80.5" cy="128.5" r="18.5"></circle>
                        <circle id="Oval-2-Copy-12" fill="#EB6236" cx="87.5" cy="32.5" r="18.5"></circle>
                        <circle id="Oval-2-Copy-13" fill="#EB6236" cx="178.5" cy="59.5" r="18.5"></circle>
                        <circle id="Oval-2-Copy" fill="#EB6236" cx="467.5" cy="95.5" r="18.5"></circle>
                        <circle id="Oval-2-Copy-2" fill="#EB6236" cx="504.5" cy="59.5" r="18.5"></circle>
                        <circle id="Oval-3" fill="#479CD7" cx="459.5" cy="45.5" r="17.5"></circle>
                        <circle id="Oval-3-Copy-3" fill="#479CD7" cx="397.5" cy="106.5" r="17.5"></circle>
                        <circle id="Oval-3-Copy-4" fill="#479CD7" cx="525.5" cy="113.5" r="17.5"></circle>
                        <circle id="Oval-3-Copy-5" fill="#479CD7" cx="635.5" cy="80.5" r="17.5"></circle>
                        <circle id="Oval-3-Copy-6" fill="#479CD7" cx="592.5" cy="45.5" r="17.5"></circle>
                        <circle id="Oval-3-Copy-7" fill="#479CD7" cx="728.5" cy="98.5" r="17.5"></circle>
                        <circle id="Oval-3-Copy-8" fill="#479CD7" cx="534.5" cy="70.5" r="17.5"></circle>
                        <circle id="Oval-3-Copy-9" fill="#479CD7" cx="349.5" cy="70.5" r="17.5"></circle>
                        <circle id="Oval-3-Copy-10" fill="#479CD7" cx="282.5" cy="52.5" r="17.5"></circle>
                        <circle id="Oval-3-Copy-12" fill="#479CD7" cx="293.5" cy="123.5" r="17.5"></circle>
                        <circle id="Oval-3-Copy-13" fill="#479CD7" cx="131.5" cy="63.5" r="17.5"></circle>
                        <circle id="Oval-3-Copy-14" fill="#479CD7" cx="90.5" cy="113.5" r="17.5"></circle>
                        <circle id="Oval-3-Copy-15" fill="#479CD7" cx="44.5" cy="52.5" r="17.5"></circle>
                        <circle id="Oval-3-Copy" fill="#3D315E" cx="562.5" cy="59.5" r="17.5"></circle>
                        <circle id="Oval-3-Copy-27" fill="#3D315E" cx="427.5" cy="52.5" r="17.5"></circle>
                        <circle id="Oval-3-Copy-28" fill="#3D315E" cx="498.5" cy="105.5" r="17.5"></circle>
                        <circle id="Oval-2-Copy-14" fill="#EB6236" cx="266.5" cy="39.5" r="18.5"></circle>
                        <circle id="Oval-2-Copy-15" fill="#EB6236" cx="364.5" cy="93.5" r="18.5"></circle>
                        <circle id="Oval-2-Copy-16" fill="#EB6236" cx="423.5" cy="120.5" r="18.5"></circle>
                        <circle id="Oval-2-Copy-17" fill="#EB6236" cx="401.5" cy="39.5" r="18.5"></circle>
                        <circle id="Oval-2-Copy-18" fill="#EB6236" cx="568.5" cy="32.5" r="18.5"></circle>
                        <circle id="Oval-2-Copy-19" fill="#EB6236" cx="552.5" cy="87.5" r="18.5"></circle>
                        <circle id="Oval-2-Copy-20" fill="#EB6236" cx="681.5" cy="32.5" r="18.5"></circle>
                        <circle id="Oval-2-Copy-21" fill="#EB6236" cx="807.5" cy="87.5" r="18.5"></circle>
                        <circle id="Oval-2-Copy-22" fill="#EB6236" cx="220.5" cy="120.5" r="18.5"></circle>
                        <circle id="Oval-3-Copy-29" fill="#3D315E" cx="652.5" cy="41.5" r="17.5"></circle>
                        <circle id="Oval-3-Copy-30" fill="#3D315E" cx="699.5" cy="79.5" r="17.5"></circle>
                        <circle id="Oval-3-Copy-31" fill="#3D315E" cx="751.5" cy="56.5" r="17.5"></circle>
                        <circle id="Oval-3-Copy-32" fill="#3D315E" cx="806.5" cy="34.5" r="17.5"></circle>
                        <circle id="Oval-3-Copy-33" fill="#3D315E" cx="778.5" cy="110.5" r="17.5"></circle>
                        <circle id="Oval-3-Copy-34" fill="#3D315E" cx="628.5" cy="117.5" r="17.5"></circle>
                        <circle id="Oval-3-Copy-35" fill="#3D315E" cx="410.5" cy="102.5" r="17.5"></circle>
                        <circle id="Oval-3-Copy-36" fill="#3D315E" cx="322.5" cy="59.5" r="17.5"></circle>
                        <circle id="Oval-3-Copy-37" fill="#3D315E" cx="267.5" cy="81.5" r="17.5"></circle>
                        <circle id="Oval-3-Copy-38" fill="#3D315E" cx="191.5" cy="71.5" r="17.5"></circle>
                        <circle id="Oval-3-Copy-39" fill="#3D315E" cx="129.5" cy="106.5" r="17.5"></circle>
                        <circle id="Oval-3-Copy-40" fill="#3D315E" cx="80.5" cy="71.5" r="17.5"></circle>
                        <circle id="Oval-3-Copy-41" fill="#3D315E" cx="104.5" cy="42.5" r="17.5"></circle>
                        <circle id="Oval-3-Copy-42" fill="#3D315E" cx="153.5" cy="80.5" r="17.5"></circle>
                        <circle id="Oval-3-Copy-43" fill="#3D315E" cx="55.5" cy="109.5" r="17.5"></circle>
                        <circle id="Oval-3-Copy-44" fill="#3D315E" cx="17.5" cy="76.5" r="17.5"></circle>
                        <circle id="Oval-3-Copy-2" fill="#9A9B9B" cx="627.5" cy="45.5" r="17.5"></circle>
                        <circle id="Oval-3-Copy-16" fill="#9A9B9B" cx="675.5" cy="87.5" r="17.5"></circle>
                        <circle id="Oval-3-Copy-17" fill="#9A9B9B" cx="738.5" cy="40.5" r="17.5"></circle>
                        <circle id="Oval-3-Copy-11" fill="#479CD7" cx="219.5" cy="88.5" r="17.5"></circle>
                        <circle id="Oval-3-Copy-45" fill="#479CD7" cx="144.5" cy="121.5" r="17.5"></circle>
                        <circle id="Oval-3-Copy-46" fill="#479CD7" cx="201.5" cy="35.5" r="17.5"></circle>
                        <circle id="Oval-3-Copy-47" fill="#479CD7" cx="366.5" cy="32.5" r="17.5"></circle>
                        <circle id="Oval-3-Copy-48" fill="#479CD7" cx="534.5" cy="24.5" r="17.5"></circle>
                        <circle id="Oval-3-Copy-49" fill="#479CD7" cx="571.5" cy="99.5" r="17.5"></circle>
                        <circle id="Oval-3-Copy-50" fill="#479CD7" cx="711.5" cy="35.5" r="17.5"></circle>
                        <circle id="Oval-3-Copy-51" fill="#479CD7" cx="814.5" cy="109.5" r="17.5"></circle>
                        <circle id="Oval-3-Copy-52" fill="#479CD7" cx="787.5" cy="27.5" r="17.5"></circle>
                        <circle id="Oval-3-Copy-53" fill="#479CD7" cx="108.5" cy="17.5" r="17.5"></circle>
                        <circle id="Oval-3-Copy-18" fill="#9A9B9B" cx="525.5" cy="51.5" r="17.5"></circle>
                        <circle id="Oval-3-Copy-19" fill="#9A9B9B" cx="441.5" cy="76.5" r="17.5"></circle>
                        <circle id="Oval-3-Copy-20" fill="#9A9B9B" cx="349.5" cy="52.5" r="17.5"></circle>
                        <circle id="Oval-3-Copy-21" fill="#9A9B9B" cx="242.5" cy="79.5" r="17.5"></circle>
                        <circle id="Oval-3-Copy-22" fill="#9A9B9B" cx="144.5" cy="58.5" r="17.5"></circle>
                        <circle id="Oval-3-Copy-23" fill="#9A9B9B" cx="63.5" cy="93.5" r="17.5"></circle>
                        <circle id="Oval-3-Copy-24" fill="#9A9B9B" cx="63.5" cy="42.5" r="17.5"></circle>
                        <circle id="Oval-3-Copy-25" fill="#9A9B9B" cx="201.5" cy="111.5" r="17.5"></circle>
                        <circle id="Oval-3-Copy-26" fill="#9A9B9B" cx="331.5" cy="111.5" r="17.5"></circle>
                    </g>
                    <g id="Group-2-Copy">
                        <circle id="Oval-2" fill="#EB6236" cx="570.5" cy="118.5" r="18.5"></circle>
                        <circle id="Oval-2-Copy-8" fill="#EB6236" cx="654.5" cy="70.5" r="18.5"></circle>
                        <circle id="Oval-2-Copy-9" fill="#EB6236" cx="757.5" cy="46.5" r="18.5"></circle>
                        <circle id="Oval-2-Copy-10" fill="#EB6236" cx="757.5" cy="106.5" r="18.5"></circle>
                        <circle id="Oval-2-Copy-3" fill="#EB6236" cx="324.5" cy="89.5" r="18.5"></circle>
                        <circle id="Oval-2-Copy-4" fill="#EB6236" cx="224.5" cy="70.5" r="18.5"></circle>
                        <circle id="Oval-2-Copy-5" fill="#EB6236" cx="127.5" cy="81.5" r="18.5"></circle>
                        <circle id="Oval-2-Copy-6" fill="#EB6236" cx="45.5" cy="80.5" r="18.5"></circle>
                        <circle id="Oval-2-Copy-7" fill="#EB6236" cx="45.5" cy="80.5" r="18.5"></circle>
                        <circle id="Oval-2-Copy-11" fill="#EB6236" cx="80.5" cy="128.5" r="18.5"></circle>
                        <circle id="Oval-2-Copy-12" fill="#EB6236" cx="87.5" cy="32.5" r="18.5"></circle>
                        <circle id="Oval-2-Copy-13" fill="#EB6236" cx="178.5" cy="59.5" r="18.5"></circle>
                        <circle id="Oval-2-Copy" fill="#EB6236" cx="467.5" cy="95.5" r="18.5"></circle>
                        <circle id="Oval-2-Copy-2" fill="#EB6236" cx="504.5" cy="59.5" r="18.5"></circle>
                        <circle id="Oval-3" fill="#479CD7" cx="459.5" cy="45.5" r="17.5"></circle>
                        <circle id="Oval-3-Copy-3" fill="#479CD7" cx="397.5" cy="106.5" r="17.5"></circle>
                        <circle id="Oval-3-Copy-4" fill="#479CD7" cx="525.5" cy="113.5" r="17.5"></circle>
                        <circle id="Oval-3-Copy-5" fill="#479CD7" cx="635.5" cy="80.5" r="17.5"></circle>
                        <circle id="Oval-3-Copy-6" fill="#479CD7" cx="592.5" cy="45.5" r="17.5"></circle>
                        <circle id="Oval-3-Copy-7" fill="#479CD7" cx="728.5" cy="98.5" r="17.5"></circle>
                        <circle id="Oval-3-Copy-8" fill="#479CD7" cx="534.5" cy="70.5" r="17.5"></circle>
                        <circle id="Oval-3-Copy-9" fill="#479CD7" cx="349.5" cy="70.5" r="17.5"></circle>
                        <circle id="Oval-3-Copy-10" fill="#479CD7" cx="282.5" cy="52.5" r="17.5"></circle>
                        <circle id="Oval-3-Copy-12" fill="#479CD7" cx="293.5" cy="123.5" r="17.5"></circle>
                        <circle id="Oval-3-Copy-13" fill="#479CD7" cx="131.5" cy="63.5" r="17.5"></circle>
                        <circle id="Oval-3-Copy-14" fill="#479CD7" cx="90.5" cy="113.5" r="17.5"></circle>
                        <circle id="Oval-3-Copy-15" fill="#479CD7" cx="44.5" cy="52.5" r="17.5"></circle>
                        <circle id="Oval-3-Copy" fill="#3D315E" cx="562.5" cy="59.5" r="17.5"></circle>
                        <circle id="Oval-3-Copy-27" fill="#3D315E" cx="427.5" cy="52.5" r="17.5"></circle>
                        <circle id="Oval-3-Copy-28" fill="#3D315E" cx="498.5" cy="105.5" r="17.5"></circle>
                        <circle id="Oval-2-Copy-14" fill="#EB6236" cx="266.5" cy="39.5" r="18.5"></circle>
                        <circle id="Oval-2-Copy-15" fill="#EB6236" cx="364.5" cy="93.5" r="18.5"></circle>
                        <circle id="Oval-2-Copy-16" fill="#EB6236" cx="423.5" cy="120.5" r="18.5"></circle>
                        <circle id="Oval-2-Copy-17" fill="#EB6236" cx="401.5" cy="39.5" r="18.5"></circle>
                        <circle id="Oval-2-Copy-18" fill="#EB6236" cx="568.5" cy="32.5" r="18.5"></circle>
                        <circle id="Oval-2-Copy-19" fill="#EB6236" cx="552.5" cy="87.5" r="18.5"></circle>
                        <circle id="Oval-2-Copy-20" fill="#EB6236" cx="681.5" cy="32.5" r="18.5"></circle>
                        <circle id="Oval-2-Copy-21" fill="#EB6236" cx="807.5" cy="87.5" r="18.5"></circle>
                        <circle id="Oval-2-Copy-22" fill="#EB6236" cx="220.5" cy="120.5" r="18.5"></circle>
                        <circle id="Oval-3-Copy-29" fill="#3D315E" cx="652.5" cy="41.5" r="17.5"></circle>
                        <circle id="Oval-3-Copy-30" fill="#3D315E" cx="699.5" cy="79.5" r="17.5"></circle>
                        <circle id="Oval-3-Copy-31" fill="#3D315E" cx="751.5" cy="56.5" r="17.5"></circle>
                        <circle id="Oval-3-Copy-32" fill="#3D315E" cx="806.5" cy="34.5" r="17.5"></circle>
                        <circle id="Oval-3-Copy-33" fill="#3D315E" cx="778.5" cy="110.5" r="17.5"></circle>
                        <circle id="Oval-3-Copy-34" fill="#3D315E" cx="628.5" cy="117.5" r="17.5"></circle>
                        <circle id="Oval-3-Copy-35" fill="#3D315E" cx="410.5" cy="102.5" r="17.5"></circle>
                        <circle id="Oval-3-Copy-36" fill="#3D315E" cx="322.5" cy="59.5" r="17.5"></circle>
                        <circle id="Oval-3-Copy-37" fill="#3D315E" cx="267.5" cy="81.5" r="17.5"></circle>
                        <circle id="Oval-3-Copy-38" fill="#3D315E" cx="191.5" cy="71.5" r="17.5"></circle>
                        <circle id="Oval-3-Copy-39" fill="#3D315E" cx="129.5" cy="106.5" r="17.5"></circle>
                        <circle id="Oval-3-Copy-40" fill="#3D315E" cx="80.5" cy="71.5" r="17.5"></circle>
                        <circle id="Oval-3-Copy-41" fill="#3D315E" cx="104.5" cy="42.5" r="17.5"></circle>
                        <circle id="Oval-3-Copy-42" fill="#3D315E" cx="153.5" cy="80.5" r="17.5"></circle>
                        <circle id="Oval-3-Copy-43" fill="#3D315E" cx="55.5" cy="109.5" r="17.5"></circle>
                        <circle id="Oval-3-Copy-44" fill="#3D315E" cx="17.5" cy="76.5" r="17.5"></circle>
                        <circle id="Oval-3-Copy-2" fill="#9A9B9B" cx="627.5" cy="45.5" r="17.5"></circle>
                        <circle id="Oval-3-Copy-16" fill="#9A9B9B" cx="675.5" cy="87.5" r="17.5"></circle>
                        <circle id="Oval-3-Copy-17" fill="#9A9B9B" cx="738.5" cy="40.5" r="17.5"></circle>
                        <circle id="Oval-3-Copy-11" fill="#479CD7" cx="219.5" cy="88.5" r="17.5"></circle>
                        <circle id="Oval-3-Copy-45" fill="#479CD7" cx="144.5" cy="121.5" r="17.5"></circle>
                        <circle id="Oval-3-Copy-46" fill="#479CD7" cx="201.5" cy="35.5" r="17.5"></circle>
                        <circle id="Oval-3-Copy-47" fill="#479CD7" cx="366.5" cy="32.5" r="17.5"></circle>
                        <circle id="Oval-3-Copy-48" fill="#479CD7" cx="534.5" cy="24.5" r="17.5"></circle>
                        <circle id="Oval-3-Copy-49" fill="#479CD7" cx="571.5" cy="99.5" r="17.5"></circle>
                        <circle id="Oval-3-Copy-50" fill="#479CD7" cx="711.5" cy="35.5" r="17.5"></circle>
                        <circle id="Oval-3-Copy-51" fill="#479CD7" cx="814.5" cy="109.5" r="17.5"></circle>
                        <circle id="Oval-3-Copy-52" fill="#479CD7" cx="787.5" cy="27.5" r="17.5"></circle>
                        <circle id="Oval-3-Copy-53" fill="#479CD7" cx="108.5" cy="17.5" r="17.5"></circle>
                        <circle id="Oval-3-Copy-18" fill="#9A9B9B" cx="525.5" cy="51.5" r="17.5"></circle>
                        <circle id="Oval-3-Copy-19" fill="#9A9B9B" cx="441.5" cy="76.5" r="17.5"></circle>
                        <circle id="Oval-3-Copy-20" fill="#9A9B9B" cx="349.5" cy="52.5" r="17.5"></circle>
                        <circle id="Oval-3-Copy-21" fill="#9A9B9B" cx="242.5" cy="79.5" r="17.5"></circle>
                        <circle id="Oval-3-Copy-22" fill="#9A9B9B" cx="144.5" cy="58.5" r="17.5"></circle>
                        <circle id="Oval-3-Copy-23" fill="#9A9B9B" cx="63.5" cy="93.5" r="17.5"></circle>
                        <circle id="Oval-3-Copy-24" fill="#9A9B9B" cx="63.5" cy="42.5" r="17.5"></circle>
                        <circle id="Oval-3-Copy-25" fill="#9A9B9B" cx="201.5" cy="111.5" r="17.5"></circle>
                        <circle id="Oval-3-Copy-26" fill="#9A9B9B" cx="331.5" cy="111.5" r="17.5"></circle>
                    </g>
                </g>
            </g>
        </g>
    </g>
</svg>