<svg xmlns="http://www.w3.org/2000/svg" width="2700" height="1800" viewBox="0 0 2700 1800">
  <g fill="none">
    <rect width="2700" height="1800" fill="#039"/>
    <g fill="#FC0" transform="rotate(180 1023 800)">
      <polygon points="96 0 154.779 180.902 .894 69.098 191.106 69.098 37.221 180.902" transform="translate(600)"/>
      <polygon points="96 0 154.779 180.902 .894 69.098 191.106 69.098 37.221 180.902" transform="translate(900 80.385)"/>
      <polygon points="96 0 154.779 180.902 .894 69.098 191.106 69.098 37.221 180.902" transform="translate(1119.615 300)"/>
      <polygon points="96 0 154.779 180.902 .894 69.098 191.106 69.098 37.221 180.902" transform="translate(1200 600)"/>
      <polygon points="96 0 154.779 180.902 .894 69.098 191.106 69.098 37.221 180.902" transform="translate(1119.615 900)"/>
      <polygon points="96 0 154.779 180.902 .894 69.098 191.106 69.098 37.221 180.902" transform="translate(900 1119.615)"/>
      <polygon points="96 0 154.779 180.902 .894 69.098 191.106 69.098 37.221 180.902" transform="translate(600 1200)"/>
      <polygon points="96 0 154.779 180.902 .894 69.098 191.106 69.098 37.221 180.902" transform="translate(300 1119.615)"/>
      <polygon points="96 0 154.779 180.902 .894 69.098 191.106 69.098 37.221 180.902" transform="translate(80.385 900)"/>
      <polygon points="96 0 154.779 180.902 .894 69.098 191.106 69.098 37.221 180.902" transform="translate(0 600)"/>
      <polygon points="96 0 154.779 180.902 .894 69.098 191.106 69.098 37.221 180.902" transform="translate(80.385 300)"/>
      <polygon points="96 0 154.779 180.902 .894 69.098 191.106 69.098 37.221 180.902" transform="translate(300 80.385)"/>
    </g>
  </g>
</svg>
